%TF.GenerationSoftware,KiCad,Pcbnew,8.0.7*%
%TF.CreationDate,2025-02-07T19:18:43-05:00*%
%TF.ProjectId,power_supply,706f7765-725f-4737-9570-706c792e6b69,rev?*%
%TF.SameCoordinates,Original*%
%TF.FileFunction,Copper,L2,Bot*%
%TF.FilePolarity,Positive*%
%FSLAX46Y46*%
G04 Gerber Fmt 4.6, Leading zero omitted, Abs format (unit mm)*
G04 Created by KiCad (PCBNEW 8.0.7) date 2025-02-07 19:18:43*
%MOMM*%
%LPD*%
G01*
G04 APERTURE LIST*
%TA.AperFunction,ComponentPad*%
%ADD10C,3.000000*%
%TD*%
%TA.AperFunction,ComponentPad*%
%ADD11R,2.400000X2.400000*%
%TD*%
%TA.AperFunction,ComponentPad*%
%ADD12C,2.400000*%
%TD*%
%TA.AperFunction,ComponentPad*%
%ADD13R,3.200000X3.200000*%
%TD*%
%TA.AperFunction,ComponentPad*%
%ADD14O,3.200000X3.200000*%
%TD*%
%TA.AperFunction,ComponentPad*%
%ADD15R,2.600000X2.600000*%
%TD*%
%TA.AperFunction,ComponentPad*%
%ADD16C,2.600000*%
%TD*%
%TA.AperFunction,ComponentPad*%
%ADD17C,5.600000*%
%TD*%
G04 APERTURE END LIST*
D10*
%TO.P,J5,1,1*%
%TO.N,/V-*%
X169772000Y-104140000D03*
%TO.P,J5,2,2*%
X169772000Y-99060000D03*
%TD*%
D11*
%TO.P,C2,1*%
%TO.N,GND*%
X114300000Y-92576000D03*
D12*
%TO.P,C2,2*%
%TO.N,/V-*%
X114300000Y-100076000D03*
%TD*%
D13*
%TO.P,D4,1,K*%
%TO.N,/AC1*%
X97790000Y-90170000D03*
D14*
%TO.P,D4,2,A*%
%TO.N,/V-*%
X97790000Y-102870000D03*
%TD*%
D11*
%TO.P,C5,1*%
%TO.N,/V+*%
X135128000Y-72256000D03*
D12*
%TO.P,C5,2*%
%TO.N,GND*%
X135128000Y-79756000D03*
%TD*%
D10*
%TO.P,J3,1,1*%
%TO.N,GND*%
X176276000Y-88392000D03*
%TO.P,J3,2,2*%
X176276000Y-83312000D03*
%TD*%
D13*
%TO.P,D3,1,K*%
%TO.N,/V+*%
X83058000Y-69850000D03*
D14*
%TO.P,D3,2,A*%
%TO.N,/AC2*%
X83058000Y-82550000D03*
%TD*%
D10*
%TO.P,J1,1,1*%
%TO.N,/AC1*%
X67056000Y-97028000D03*
%TO.P,J1,2,2*%
X72136000Y-97028000D03*
%TD*%
D11*
%TO.P,C8,1*%
%TO.N,GND*%
X155702000Y-93084000D03*
D12*
%TO.P,C8,2*%
%TO.N,/V-*%
X155702000Y-100584000D03*
%TD*%
D11*
%TO.P,C7,1*%
%TO.N,/V+*%
X155702000Y-72136000D03*
D12*
%TO.P,C7,2*%
%TO.N,GND*%
X155702000Y-79636000D03*
%TD*%
D11*
%TO.P,C1,1*%
%TO.N,/V+*%
X114300000Y-72256000D03*
D12*
%TO.P,C1,2*%
%TO.N,GND*%
X114300000Y-79756000D03*
%TD*%
D15*
%TO.P,J7,1,Pin_1*%
%TO.N,GND*%
X184963000Y-88352000D03*
D16*
%TO.P,J7,2,Pin_2*%
X184963000Y-83352000D03*
%TD*%
D17*
%TO.P,REF\u002A\u002A,1*%
%TO.N,GND*%
X186182000Y-65786000D03*
%TD*%
D10*
%TO.P,J6,1,1*%
%TO.N,/V+*%
X169772000Y-73406000D03*
%TO.P,J6,2,2*%
X169772000Y-68326000D03*
%TD*%
%TO.P,J4,1,1*%
%TO.N,/AC2*%
X67310000Y-74268000D03*
%TO.P,J4,2,2*%
X72390000Y-74268000D03*
%TD*%
D11*
%TO.P,C6,1*%
%TO.N,GND*%
X135128000Y-92964000D03*
D12*
%TO.P,C6,2*%
%TO.N,/V-*%
X135128000Y-100464000D03*
%TD*%
D10*
%TO.P,J6,1,1*%
%TO.N,/V+*%
X176276000Y-73406000D03*
%TO.P,J6,2,2*%
X176276000Y-68326000D03*
%TD*%
D13*
%TO.P,D1,1,K*%
%TO.N,/V+*%
X97790000Y-69850000D03*
D14*
%TO.P,D1,2,A*%
%TO.N,/AC1*%
X97790000Y-82550000D03*
%TD*%
D10*
%TO.P,J5,1,1*%
%TO.N,/V-*%
X176276000Y-104140000D03*
%TO.P,J5,2,2*%
X176276000Y-99060000D03*
%TD*%
%TO.P,J2,1,1*%
%TO.N,GND*%
X67310000Y-85344000D03*
%TO.P,J2,2,2*%
X72390000Y-85344000D03*
%TD*%
D13*
%TO.P,D2,1,K*%
%TO.N,/AC2*%
X83058000Y-90170000D03*
D14*
%TO.P,D2,2,A*%
%TO.N,/V-*%
X83058000Y-102870000D03*
%TD*%
D10*
%TO.P,J3,1,1*%
%TO.N,GND*%
X169772000Y-88392000D03*
%TO.P,J3,2,2*%
X169772000Y-83312000D03*
%TD*%
%TA.AperFunction,Conductor*%
%TO.N,/V+*%
G36*
X129032000Y-62103000D02*
G01*
X180558729Y-62227461D01*
X180625720Y-62247308D01*
X180646216Y-62263886D01*
X180822457Y-62440553D01*
X180855868Y-62501916D01*
X180850799Y-62571602D01*
X180838167Y-62596423D01*
X180741697Y-62742616D01*
X180741693Y-62742623D01*
X180664914Y-62931040D01*
X180645233Y-62998068D01*
X180625082Y-63078959D01*
X180604500Y-63281360D01*
X180604500Y-78626500D01*
X180584815Y-78693539D01*
X180532011Y-78739294D01*
X180480500Y-78750500D01*
X168798208Y-78750500D01*
X168731169Y-78730815D01*
X168720746Y-78723328D01*
X167829720Y-78010507D01*
X167085152Y-77414853D01*
X166914038Y-77277961D01*
X166873986Y-77220710D01*
X166867500Y-77181133D01*
X166867500Y-76968164D01*
X166867462Y-76959407D01*
X166867461Y-76959399D01*
X166845124Y-76757184D01*
X166782536Y-76563601D01*
X166682262Y-76386579D01*
X166667328Y-76365515D01*
X166558062Y-76236070D01*
X165847315Y-75525323D01*
X165838049Y-75517000D01*
X165767225Y-75453383D01*
X165746596Y-75436760D01*
X165746584Y-75436751D01*
X165587378Y-75331694D01*
X165587376Y-75331693D01*
X165587374Y-75331692D01*
X165398967Y-75254917D01*
X165398964Y-75254916D01*
X165398959Y-75254914D01*
X165398960Y-75254914D01*
X165331931Y-75235233D01*
X165331933Y-75235233D01*
X165331928Y-75235232D01*
X165251044Y-75215083D01*
X165251040Y-75215082D01*
X165251041Y-75215082D01*
X165048639Y-75194500D01*
X165048638Y-75194500D01*
X112983161Y-75194500D01*
X112916122Y-75174815D01*
X112908761Y-75169700D01*
X112825408Y-75107185D01*
X111316724Y-73975672D01*
X111316719Y-73975669D01*
X111316714Y-73975665D01*
X111180086Y-73889422D01*
X111144908Y-73870990D01*
X111144899Y-73870986D01*
X110996216Y-73807739D01*
X110996208Y-73807736D01*
X110996205Y-73807735D01*
X109234384Y-73220462D01*
X109234377Y-73220460D01*
X109234371Y-73220458D01*
X109077480Y-73181847D01*
X109077477Y-73181846D01*
X109077475Y-73181846D01*
X109038263Y-73175483D01*
X109038251Y-73175481D01*
X108915522Y-73165588D01*
X108877205Y-73162500D01*
X108877201Y-73162500D01*
X77583500Y-73162500D01*
X77516461Y-73142815D01*
X77470706Y-73090011D01*
X77459500Y-73038500D01*
X77459500Y-68202155D01*
X80958000Y-68202155D01*
X80958000Y-69600000D01*
X82295639Y-69600000D01*
X82288743Y-69616649D01*
X82258000Y-69771207D01*
X82258000Y-69928793D01*
X82288743Y-70083351D01*
X82295639Y-70100000D01*
X80958000Y-70100000D01*
X80958000Y-71497844D01*
X80964401Y-71557372D01*
X80964403Y-71557379D01*
X81014645Y-71692086D01*
X81014649Y-71692093D01*
X81100809Y-71807187D01*
X81100812Y-71807190D01*
X81215906Y-71893350D01*
X81215913Y-71893354D01*
X81350620Y-71943596D01*
X81350627Y-71943598D01*
X81410155Y-71949999D01*
X81410172Y-71950000D01*
X82808000Y-71950000D01*
X82808000Y-70612360D01*
X82824649Y-70619257D01*
X82979207Y-70650000D01*
X83136793Y-70650000D01*
X83291351Y-70619257D01*
X83308000Y-70612360D01*
X83308000Y-71950000D01*
X84705828Y-71950000D01*
X84705844Y-71949999D01*
X84765372Y-71943598D01*
X84765379Y-71943596D01*
X84900086Y-71893354D01*
X84900093Y-71893350D01*
X85015187Y-71807190D01*
X85015190Y-71807187D01*
X85101350Y-71692093D01*
X85101354Y-71692086D01*
X85151596Y-71557379D01*
X85151598Y-71557372D01*
X85157999Y-71497844D01*
X85158000Y-71497827D01*
X85158000Y-70100000D01*
X83820361Y-70100000D01*
X83827257Y-70083351D01*
X83858000Y-69928793D01*
X83858000Y-69771207D01*
X83827257Y-69616649D01*
X83820361Y-69600000D01*
X85158000Y-69600000D01*
X85158000Y-68202172D01*
X85157999Y-68202155D01*
X95690000Y-68202155D01*
X95690000Y-69600000D01*
X97027639Y-69600000D01*
X97020743Y-69616649D01*
X96990000Y-69771207D01*
X96990000Y-69928793D01*
X97020743Y-70083351D01*
X97027639Y-70100000D01*
X95690000Y-70100000D01*
X95690000Y-71497844D01*
X95696401Y-71557372D01*
X95696403Y-71557379D01*
X95746645Y-71692086D01*
X95746649Y-71692093D01*
X95832809Y-71807187D01*
X95832812Y-71807190D01*
X95947906Y-71893350D01*
X95947913Y-71893354D01*
X96082620Y-71943596D01*
X96082627Y-71943598D01*
X96142155Y-71949999D01*
X96142172Y-71950000D01*
X97540000Y-71950000D01*
X97540000Y-70612360D01*
X97556649Y-70619257D01*
X97711207Y-70650000D01*
X97868793Y-70650000D01*
X98023351Y-70619257D01*
X98040000Y-70612360D01*
X98040000Y-71950000D01*
X99437828Y-71950000D01*
X99437844Y-71949999D01*
X99497372Y-71943598D01*
X99497379Y-71943596D01*
X99632086Y-71893354D01*
X99632093Y-71893350D01*
X99747187Y-71807190D01*
X99747190Y-71807187D01*
X99833350Y-71692093D01*
X99833354Y-71692086D01*
X99883596Y-71557379D01*
X99883598Y-71557372D01*
X99889999Y-71497844D01*
X99890000Y-71497827D01*
X99890000Y-71008155D01*
X112600000Y-71008155D01*
X112600000Y-72006000D01*
X113751518Y-72006000D01*
X113740889Y-72024409D01*
X113700000Y-72177009D01*
X113700000Y-72334991D01*
X113740889Y-72487591D01*
X113751518Y-72506000D01*
X112600000Y-72506000D01*
X112600000Y-73503844D01*
X112606401Y-73563372D01*
X112606403Y-73563379D01*
X112656645Y-73698086D01*
X112656649Y-73698093D01*
X112742809Y-73813187D01*
X112742812Y-73813190D01*
X112857906Y-73899350D01*
X112857913Y-73899354D01*
X112992620Y-73949596D01*
X112992627Y-73949598D01*
X113052155Y-73955999D01*
X113052172Y-73956000D01*
X114050000Y-73956000D01*
X114050000Y-72804482D01*
X114068409Y-72815111D01*
X114221009Y-72856000D01*
X114378991Y-72856000D01*
X114531591Y-72815111D01*
X114550000Y-72804482D01*
X114550000Y-73956000D01*
X115547828Y-73956000D01*
X115547844Y-73955999D01*
X115607372Y-73949598D01*
X115607379Y-73949596D01*
X115742086Y-73899354D01*
X115742093Y-73899350D01*
X115857187Y-73813190D01*
X115857190Y-73813187D01*
X115943350Y-73698093D01*
X115943354Y-73698086D01*
X115993596Y-73563379D01*
X115993598Y-73563372D01*
X115999999Y-73503844D01*
X116000000Y-73503827D01*
X116000000Y-72506000D01*
X114848482Y-72506000D01*
X114859111Y-72487591D01*
X114900000Y-72334991D01*
X114900000Y-72177009D01*
X114859111Y-72024409D01*
X114848482Y-72006000D01*
X116000000Y-72006000D01*
X116000000Y-71008172D01*
X115999999Y-71008155D01*
X133428000Y-71008155D01*
X133428000Y-72006000D01*
X134579518Y-72006000D01*
X134568889Y-72024409D01*
X134528000Y-72177009D01*
X134528000Y-72334991D01*
X134568889Y-72487591D01*
X134579518Y-72506000D01*
X133428000Y-72506000D01*
X133428000Y-73503844D01*
X133434401Y-73563372D01*
X133434403Y-73563379D01*
X133484645Y-73698086D01*
X133484649Y-73698093D01*
X133570809Y-73813187D01*
X133570812Y-73813190D01*
X133685906Y-73899350D01*
X133685913Y-73899354D01*
X133820620Y-73949596D01*
X133820627Y-73949598D01*
X133880155Y-73955999D01*
X133880172Y-73956000D01*
X134878000Y-73956000D01*
X134878000Y-72804482D01*
X134896409Y-72815111D01*
X135049009Y-72856000D01*
X135206991Y-72856000D01*
X135359591Y-72815111D01*
X135378000Y-72804482D01*
X135378000Y-73956000D01*
X136375828Y-73956000D01*
X136375844Y-73955999D01*
X136435372Y-73949598D01*
X136435379Y-73949596D01*
X136570086Y-73899354D01*
X136570093Y-73899350D01*
X136685187Y-73813190D01*
X136685190Y-73813187D01*
X136771350Y-73698093D01*
X136771354Y-73698086D01*
X136821596Y-73563379D01*
X136821598Y-73563372D01*
X136827999Y-73503844D01*
X136828000Y-73503827D01*
X136828000Y-72506000D01*
X135676482Y-72506000D01*
X135687111Y-72487591D01*
X135728000Y-72334991D01*
X135728000Y-72177009D01*
X135687111Y-72024409D01*
X135676482Y-72006000D01*
X136828000Y-72006000D01*
X136828000Y-71008172D01*
X136827999Y-71008155D01*
X136821598Y-70948627D01*
X136821596Y-70948620D01*
X136799044Y-70888155D01*
X154002000Y-70888155D01*
X154002000Y-71886000D01*
X155153518Y-71886000D01*
X155142889Y-71904409D01*
X155102000Y-72057009D01*
X155102000Y-72214991D01*
X155142889Y-72367591D01*
X155153518Y-72386000D01*
X154002000Y-72386000D01*
X154002000Y-73383844D01*
X154008401Y-73443372D01*
X154008403Y-73443379D01*
X154058645Y-73578086D01*
X154058649Y-73578093D01*
X154144809Y-73693187D01*
X154144812Y-73693190D01*
X154259906Y-73779350D01*
X154259913Y-73779354D01*
X154394620Y-73829596D01*
X154394627Y-73829598D01*
X154454155Y-73835999D01*
X154454172Y-73836000D01*
X155452000Y-73836000D01*
X155452000Y-72684482D01*
X155470409Y-72695111D01*
X155623009Y-72736000D01*
X155780991Y-72736000D01*
X155933591Y-72695111D01*
X155952000Y-72684482D01*
X155952000Y-73836000D01*
X156949828Y-73836000D01*
X156949844Y-73835999D01*
X157009372Y-73829598D01*
X157009379Y-73829596D01*
X157144086Y-73779354D01*
X157144093Y-73779350D01*
X157259187Y-73693190D01*
X157259190Y-73693187D01*
X157345350Y-73578093D01*
X157345354Y-73578086D01*
X157395596Y-73443379D01*
X157395598Y-73443372D01*
X157399617Y-73405998D01*
X167766891Y-73405998D01*
X167766891Y-73406001D01*
X167787300Y-73691362D01*
X167848109Y-73970895D01*
X167948091Y-74238958D01*
X168085191Y-74490038D01*
X168085196Y-74490046D01*
X168191882Y-74632562D01*
X168191883Y-74632563D01*
X169170958Y-73653488D01*
X169195978Y-73713890D01*
X169267112Y-73820351D01*
X169357649Y-73910888D01*
X169464110Y-73982022D01*
X169524511Y-74007041D01*
X168545435Y-74986115D01*
X168545436Y-74986116D01*
X168687953Y-75092803D01*
X168687961Y-75092808D01*
X168939042Y-75229908D01*
X168939041Y-75229908D01*
X169207104Y-75329890D01*
X169486637Y-75390699D01*
X169771999Y-75411109D01*
X169772001Y-75411109D01*
X170057362Y-75390699D01*
X170336895Y-75329890D01*
X170604958Y-75229908D01*
X170856038Y-75092808D01*
X170856039Y-75092807D01*
X170998563Y-74986115D01*
X170019488Y-74007041D01*
X170079890Y-73982022D01*
X170186351Y-73910888D01*
X170276888Y-73820351D01*
X170348022Y-73713890D01*
X170373041Y-73653488D01*
X171352115Y-74632563D01*
X171458807Y-74490039D01*
X171458808Y-74490038D01*
X171595908Y-74238958D01*
X171695890Y-73970895D01*
X171756699Y-73691362D01*
X171777109Y-73406001D01*
X171777109Y-73405998D01*
X174270891Y-73405998D01*
X174270891Y-73406001D01*
X174291300Y-73691362D01*
X174352109Y-73970895D01*
X174452091Y-74238958D01*
X174589191Y-74490038D01*
X174589196Y-74490046D01*
X174695882Y-74632562D01*
X174695883Y-74632563D01*
X175674958Y-73653488D01*
X175699978Y-73713890D01*
X175771112Y-73820351D01*
X175861649Y-73910888D01*
X175968110Y-73982022D01*
X176028511Y-74007041D01*
X175049435Y-74986115D01*
X175049436Y-74986116D01*
X175191953Y-75092803D01*
X175191961Y-75092808D01*
X175443042Y-75229908D01*
X175443041Y-75229908D01*
X175711104Y-75329890D01*
X175990637Y-75390699D01*
X176275999Y-75411109D01*
X176276001Y-75411109D01*
X176561362Y-75390699D01*
X176840895Y-75329890D01*
X177108958Y-75229908D01*
X177360038Y-75092808D01*
X177360039Y-75092807D01*
X177502563Y-74986115D01*
X176523488Y-74007041D01*
X176583890Y-73982022D01*
X176690351Y-73910888D01*
X176780888Y-73820351D01*
X176852022Y-73713890D01*
X176877041Y-73653488D01*
X177856115Y-74632563D01*
X177962807Y-74490039D01*
X177962808Y-74490038D01*
X178099908Y-74238958D01*
X178199890Y-73970895D01*
X178260699Y-73691362D01*
X178281109Y-73406001D01*
X178281109Y-73405998D01*
X178260699Y-73120637D01*
X178199890Y-72841104D01*
X178099908Y-72573041D01*
X177962808Y-72321961D01*
X177962803Y-72321953D01*
X177856116Y-72179436D01*
X177856115Y-72179435D01*
X176877041Y-73158510D01*
X176852022Y-73098110D01*
X176780888Y-72991649D01*
X176690351Y-72901112D01*
X176583890Y-72829978D01*
X176523487Y-72804958D01*
X177502563Y-71825883D01*
X177502562Y-71825882D01*
X177360046Y-71719196D01*
X177360038Y-71719191D01*
X177108957Y-71582091D01*
X177108958Y-71582091D01*
X176840895Y-71482109D01*
X176561362Y-71421300D01*
X176276001Y-71400891D01*
X176275999Y-71400891D01*
X175990637Y-71421300D01*
X175711104Y-71482109D01*
X175443041Y-71582091D01*
X175191961Y-71719191D01*
X175191953Y-71719196D01*
X175049435Y-71825882D01*
X176028512Y-72804958D01*
X175968110Y-72829978D01*
X175861649Y-72901112D01*
X175771112Y-72991649D01*
X175699978Y-73098110D01*
X175674958Y-73158511D01*
X174695882Y-72179435D01*
X174589196Y-72321953D01*
X174589191Y-72321961D01*
X174452091Y-72573041D01*
X174352109Y-72841104D01*
X174291300Y-73120637D01*
X174270891Y-73405998D01*
X171777109Y-73405998D01*
X171756699Y-73120637D01*
X171695890Y-72841104D01*
X171595908Y-72573041D01*
X171458808Y-72321961D01*
X171458803Y-72321953D01*
X171352116Y-72179436D01*
X171352115Y-72179435D01*
X170373041Y-73158510D01*
X170348022Y-73098110D01*
X170276888Y-72991649D01*
X170186351Y-72901112D01*
X170079890Y-72829978D01*
X170019487Y-72804958D01*
X170998563Y-71825883D01*
X170998562Y-71825882D01*
X170856046Y-71719196D01*
X170856038Y-71719191D01*
X170604957Y-71582091D01*
X170604958Y-71582091D01*
X170336895Y-71482109D01*
X170057362Y-71421300D01*
X169772001Y-71400891D01*
X169771999Y-71400891D01*
X169486637Y-71421300D01*
X169207104Y-71482109D01*
X168939041Y-71582091D01*
X168687961Y-71719191D01*
X168687953Y-71719196D01*
X168545435Y-71825882D01*
X169524512Y-72804958D01*
X169464110Y-72829978D01*
X169357649Y-72901112D01*
X169267112Y-72991649D01*
X169195978Y-73098110D01*
X169170958Y-73158511D01*
X168191882Y-72179435D01*
X168085196Y-72321953D01*
X168085191Y-72321961D01*
X167948091Y-72573041D01*
X167848109Y-72841104D01*
X167787300Y-73120637D01*
X167766891Y-73405998D01*
X157399617Y-73405998D01*
X157401999Y-73383844D01*
X157402000Y-73383827D01*
X157402000Y-72386000D01*
X156250482Y-72386000D01*
X156261111Y-72367591D01*
X156302000Y-72214991D01*
X156302000Y-72057009D01*
X156261111Y-71904409D01*
X156250482Y-71886000D01*
X157402000Y-71886000D01*
X157402000Y-70888172D01*
X157401999Y-70888155D01*
X157395598Y-70828627D01*
X157395596Y-70828620D01*
X157345354Y-70693913D01*
X157345350Y-70693906D01*
X157259190Y-70578812D01*
X157259187Y-70578809D01*
X157144093Y-70492649D01*
X157144086Y-70492645D01*
X157009379Y-70442403D01*
X157009372Y-70442401D01*
X156949844Y-70436000D01*
X155952000Y-70436000D01*
X155952000Y-71587517D01*
X155933591Y-71576889D01*
X155780991Y-71536000D01*
X155623009Y-71536000D01*
X155470409Y-71576889D01*
X155452000Y-71587517D01*
X155452000Y-70436000D01*
X154454155Y-70436000D01*
X154394627Y-70442401D01*
X154394620Y-70442403D01*
X154259913Y-70492645D01*
X154259906Y-70492649D01*
X154144812Y-70578809D01*
X154144809Y-70578812D01*
X154058649Y-70693906D01*
X154058645Y-70693913D01*
X154008403Y-70828620D01*
X154008401Y-70828627D01*
X154002000Y-70888155D01*
X136799044Y-70888155D01*
X136771354Y-70813913D01*
X136771350Y-70813906D01*
X136685190Y-70698812D01*
X136685187Y-70698809D01*
X136570093Y-70612649D01*
X136570086Y-70612645D01*
X136435379Y-70562403D01*
X136435372Y-70562401D01*
X136375844Y-70556000D01*
X135378000Y-70556000D01*
X135378000Y-71707517D01*
X135359591Y-71696889D01*
X135206991Y-71656000D01*
X135049009Y-71656000D01*
X134896409Y-71696889D01*
X134878000Y-71707517D01*
X134878000Y-70556000D01*
X133880155Y-70556000D01*
X133820627Y-70562401D01*
X133820620Y-70562403D01*
X133685913Y-70612645D01*
X133685906Y-70612649D01*
X133570812Y-70698809D01*
X133570809Y-70698812D01*
X133484649Y-70813906D01*
X133484645Y-70813913D01*
X133434403Y-70948620D01*
X133434401Y-70948627D01*
X133428000Y-71008155D01*
X115999999Y-71008155D01*
X115993598Y-70948627D01*
X115993596Y-70948620D01*
X115943354Y-70813913D01*
X115943350Y-70813906D01*
X115857190Y-70698812D01*
X115857187Y-70698809D01*
X115742093Y-70612649D01*
X115742086Y-70612645D01*
X115607379Y-70562403D01*
X115607372Y-70562401D01*
X115547844Y-70556000D01*
X114550000Y-70556000D01*
X114550000Y-71707517D01*
X114531591Y-71696889D01*
X114378991Y-71656000D01*
X114221009Y-71656000D01*
X114068409Y-71696889D01*
X114050000Y-71707517D01*
X114050000Y-70556000D01*
X113052155Y-70556000D01*
X112992627Y-70562401D01*
X112992620Y-70562403D01*
X112857913Y-70612645D01*
X112857906Y-70612649D01*
X112742812Y-70698809D01*
X112742809Y-70698812D01*
X112656649Y-70813906D01*
X112656645Y-70813913D01*
X112606403Y-70948620D01*
X112606401Y-70948627D01*
X112600000Y-71008155D01*
X99890000Y-71008155D01*
X99890000Y-70100000D01*
X98552361Y-70100000D01*
X98559257Y-70083351D01*
X98590000Y-69928793D01*
X98590000Y-69771207D01*
X98559257Y-69616649D01*
X98552361Y-69600000D01*
X99890000Y-69600000D01*
X99890000Y-68325998D01*
X167766891Y-68325998D01*
X167766891Y-68326001D01*
X167787300Y-68611362D01*
X167848109Y-68890895D01*
X167948091Y-69158958D01*
X168085191Y-69410038D01*
X168085196Y-69410046D01*
X168191882Y-69552562D01*
X168191883Y-69552563D01*
X169170958Y-68573488D01*
X169195978Y-68633890D01*
X169267112Y-68740351D01*
X169357649Y-68830888D01*
X169464110Y-68902022D01*
X169524511Y-68927041D01*
X168545435Y-69906115D01*
X168545436Y-69906116D01*
X168687953Y-70012803D01*
X168687961Y-70012808D01*
X168939042Y-70149908D01*
X168939041Y-70149908D01*
X169207104Y-70249890D01*
X169486637Y-70310699D01*
X169771999Y-70331109D01*
X169772001Y-70331109D01*
X170057362Y-70310699D01*
X170336895Y-70249890D01*
X170604958Y-70149908D01*
X170856038Y-70012808D01*
X170856039Y-70012807D01*
X170998563Y-69906115D01*
X170019488Y-68927041D01*
X170079890Y-68902022D01*
X170186351Y-68830888D01*
X170276888Y-68740351D01*
X170348022Y-68633890D01*
X170373041Y-68573488D01*
X171352115Y-69552563D01*
X171458807Y-69410039D01*
X171458808Y-69410038D01*
X171595908Y-69158958D01*
X171695890Y-68890895D01*
X171756699Y-68611362D01*
X171777109Y-68326001D01*
X171777109Y-68325998D01*
X174270891Y-68325998D01*
X174270891Y-68326001D01*
X174291300Y-68611362D01*
X174352109Y-68890895D01*
X174452091Y-69158958D01*
X174589191Y-69410038D01*
X174589196Y-69410046D01*
X174695882Y-69552562D01*
X174695883Y-69552563D01*
X175674958Y-68573488D01*
X175699978Y-68633890D01*
X175771112Y-68740351D01*
X175861649Y-68830888D01*
X175968110Y-68902022D01*
X176028511Y-68927041D01*
X175049435Y-69906115D01*
X175049436Y-69906116D01*
X175191953Y-70012803D01*
X175191961Y-70012808D01*
X175443042Y-70149908D01*
X175443041Y-70149908D01*
X175711104Y-70249890D01*
X175990637Y-70310699D01*
X176275999Y-70331109D01*
X176276001Y-70331109D01*
X176561362Y-70310699D01*
X176840895Y-70249890D01*
X177108958Y-70149908D01*
X177360038Y-70012808D01*
X177360039Y-70012807D01*
X177502563Y-69906115D01*
X176523488Y-68927041D01*
X176583890Y-68902022D01*
X176690351Y-68830888D01*
X176780888Y-68740351D01*
X176852022Y-68633890D01*
X176877041Y-68573488D01*
X177856115Y-69552563D01*
X177962807Y-69410039D01*
X177962808Y-69410038D01*
X178099908Y-69158958D01*
X178199890Y-68890895D01*
X178260699Y-68611362D01*
X178281109Y-68326001D01*
X178281109Y-68325998D01*
X178260699Y-68040637D01*
X178199890Y-67761104D01*
X178099908Y-67493041D01*
X177962808Y-67241961D01*
X177962803Y-67241953D01*
X177856116Y-67099436D01*
X177856115Y-67099435D01*
X176877041Y-68078510D01*
X176852022Y-68018110D01*
X176780888Y-67911649D01*
X176690351Y-67821112D01*
X176583890Y-67749978D01*
X176523487Y-67724958D01*
X177502563Y-66745883D01*
X177502562Y-66745882D01*
X177360046Y-66639196D01*
X177360038Y-66639191D01*
X177108957Y-66502091D01*
X177108958Y-66502091D01*
X176840895Y-66402109D01*
X176561362Y-66341300D01*
X176276001Y-66320891D01*
X176275999Y-66320891D01*
X175990637Y-66341300D01*
X175711104Y-66402109D01*
X175443041Y-66502091D01*
X175191961Y-66639191D01*
X175191953Y-66639196D01*
X175049435Y-66745882D01*
X176028512Y-67724958D01*
X175968110Y-67749978D01*
X175861649Y-67821112D01*
X175771112Y-67911649D01*
X175699978Y-68018110D01*
X175674958Y-68078511D01*
X174695882Y-67099435D01*
X174589196Y-67241953D01*
X174589191Y-67241961D01*
X174452091Y-67493041D01*
X174352109Y-67761104D01*
X174291300Y-68040637D01*
X174270891Y-68325998D01*
X171777109Y-68325998D01*
X171756699Y-68040637D01*
X171695890Y-67761104D01*
X171595908Y-67493041D01*
X171458808Y-67241961D01*
X171458803Y-67241953D01*
X171352116Y-67099436D01*
X171352115Y-67099435D01*
X170373041Y-68078510D01*
X170348022Y-68018110D01*
X170276888Y-67911649D01*
X170186351Y-67821112D01*
X170079890Y-67749978D01*
X170019487Y-67724958D01*
X170998563Y-66745883D01*
X170998562Y-66745882D01*
X170856046Y-66639196D01*
X170856038Y-66639191D01*
X170604957Y-66502091D01*
X170604958Y-66502091D01*
X170336895Y-66402109D01*
X170057362Y-66341300D01*
X169772001Y-66320891D01*
X169771999Y-66320891D01*
X169486637Y-66341300D01*
X169207104Y-66402109D01*
X168939041Y-66502091D01*
X168687961Y-66639191D01*
X168687953Y-66639196D01*
X168545435Y-66745882D01*
X169524512Y-67724958D01*
X169464110Y-67749978D01*
X169357649Y-67821112D01*
X169267112Y-67911649D01*
X169195978Y-68018110D01*
X169170958Y-68078511D01*
X168191882Y-67099435D01*
X168085196Y-67241953D01*
X168085191Y-67241961D01*
X167948091Y-67493041D01*
X167848109Y-67761104D01*
X167787300Y-68040637D01*
X167766891Y-68325998D01*
X99890000Y-68325998D01*
X99890000Y-68202172D01*
X99889999Y-68202155D01*
X99883598Y-68142627D01*
X99883596Y-68142620D01*
X99833354Y-68007913D01*
X99833350Y-68007906D01*
X99747190Y-67892812D01*
X99747187Y-67892809D01*
X99632093Y-67806649D01*
X99632086Y-67806645D01*
X99497379Y-67756403D01*
X99497372Y-67756401D01*
X99437844Y-67750000D01*
X98040000Y-67750000D01*
X98040000Y-69087639D01*
X98023351Y-69080743D01*
X97868793Y-69050000D01*
X97711207Y-69050000D01*
X97556649Y-69080743D01*
X97540000Y-69087639D01*
X97540000Y-67750000D01*
X96142155Y-67750000D01*
X96082627Y-67756401D01*
X96082620Y-67756403D01*
X95947913Y-67806645D01*
X95947906Y-67806649D01*
X95832812Y-67892809D01*
X95832809Y-67892812D01*
X95746649Y-68007906D01*
X95746645Y-68007913D01*
X95696403Y-68142620D01*
X95696401Y-68142627D01*
X95690000Y-68202155D01*
X85157999Y-68202155D01*
X85151598Y-68142627D01*
X85151596Y-68142620D01*
X85101354Y-68007913D01*
X85101350Y-68007906D01*
X85015190Y-67892812D01*
X85015187Y-67892809D01*
X84900093Y-67806649D01*
X84900086Y-67806645D01*
X84765379Y-67756403D01*
X84765372Y-67756401D01*
X84705844Y-67750000D01*
X83308000Y-67750000D01*
X83308000Y-69087639D01*
X83291351Y-69080743D01*
X83136793Y-69050000D01*
X82979207Y-69050000D01*
X82824649Y-69080743D01*
X82808000Y-69087639D01*
X82808000Y-67750000D01*
X81410155Y-67750000D01*
X81350627Y-67756401D01*
X81350620Y-67756403D01*
X81215913Y-67806645D01*
X81215906Y-67806649D01*
X81100812Y-67892809D01*
X81100809Y-67892812D01*
X81014649Y-68007906D01*
X81014645Y-68007913D01*
X80964403Y-68142620D01*
X80964401Y-68142627D01*
X80958000Y-68202155D01*
X77459500Y-68202155D01*
X77459500Y-63027359D01*
X77457930Y-62998068D01*
X77453738Y-62919871D01*
X77450904Y-62893513D01*
X77412610Y-62706629D01*
X77333672Y-62519118D01*
X77300187Y-62457795D01*
X77289822Y-62440553D01*
X77257249Y-62386367D01*
X77257245Y-62386361D01*
X77232951Y-62356567D01*
X77205842Y-62292171D01*
X77217852Y-62223341D01*
X77241476Y-62190422D01*
X77417571Y-62014751D01*
X77478934Y-61981341D01*
X77505443Y-61978539D01*
X129032000Y-62103000D01*
G37*
%TD.AperFunction*%
%TD*%
%TA.AperFunction,Conductor*%
%TO.N,/V-*%
G36*
X191179915Y-93373893D02*
G01*
X191183721Y-93377548D01*
X191225777Y-93419697D01*
X191259195Y-93481055D01*
X191262000Y-93507281D01*
X191262000Y-107660638D01*
X191242315Y-107727677D01*
X191225681Y-107748319D01*
X190298319Y-108675681D01*
X190236996Y-108709166D01*
X190210638Y-108712000D01*
X77505362Y-108712000D01*
X77438323Y-108692315D01*
X77417681Y-108675681D01*
X77242405Y-108500405D01*
X77208920Y-108439082D01*
X77213904Y-108369390D01*
X77226586Y-108344433D01*
X77322308Y-108199374D01*
X77399083Y-108010967D01*
X77418768Y-107943928D01*
X77438917Y-107863044D01*
X77459500Y-107660638D01*
X77459500Y-102619999D01*
X80970192Y-102619999D01*
X80970193Y-102620000D01*
X82295639Y-102620000D01*
X82288743Y-102636649D01*
X82258000Y-102791207D01*
X82258000Y-102948793D01*
X82288743Y-103103351D01*
X82295639Y-103120000D01*
X80970193Y-103120000D01*
X80972697Y-103156619D01*
X81031146Y-103437888D01*
X81031150Y-103437902D01*
X81127355Y-103708595D01*
X81259527Y-103963676D01*
X81425204Y-104198385D01*
X81425204Y-104198386D01*
X81621288Y-104408341D01*
X81844135Y-104589641D01*
X81844146Y-104589648D01*
X82089607Y-104738917D01*
X82353108Y-104853371D01*
X82629737Y-104930879D01*
X82629746Y-104930881D01*
X82807999Y-104955380D01*
X82808000Y-104955380D01*
X82808000Y-103632360D01*
X82824649Y-103639257D01*
X82979207Y-103670000D01*
X83136793Y-103670000D01*
X83291351Y-103639257D01*
X83308000Y-103632360D01*
X83308000Y-104955380D01*
X83486253Y-104930881D01*
X83486262Y-104930879D01*
X83762891Y-104853371D01*
X84026392Y-104738917D01*
X84271853Y-104589648D01*
X84271864Y-104589641D01*
X84494711Y-104408341D01*
X84690795Y-104198386D01*
X84690795Y-104198385D01*
X84856472Y-103963676D01*
X84988644Y-103708595D01*
X85084849Y-103437902D01*
X85084853Y-103437888D01*
X85143302Y-103156619D01*
X85145807Y-103120000D01*
X83820361Y-103120000D01*
X83827257Y-103103351D01*
X83858000Y-102948793D01*
X83858000Y-102791207D01*
X83827257Y-102636649D01*
X83820361Y-102620000D01*
X85145807Y-102620000D01*
X85145807Y-102619999D01*
X95702192Y-102619999D01*
X95702193Y-102620000D01*
X97027639Y-102620000D01*
X97020743Y-102636649D01*
X96990000Y-102791207D01*
X96990000Y-102948793D01*
X97020743Y-103103351D01*
X97027639Y-103120000D01*
X95702193Y-103120000D01*
X95704697Y-103156619D01*
X95763146Y-103437888D01*
X95763150Y-103437902D01*
X95859355Y-103708595D01*
X95991527Y-103963676D01*
X96157204Y-104198385D01*
X96157204Y-104198386D01*
X96353288Y-104408341D01*
X96576135Y-104589641D01*
X96576146Y-104589648D01*
X96821607Y-104738917D01*
X97085108Y-104853371D01*
X97361737Y-104930879D01*
X97361746Y-104930881D01*
X97539999Y-104955380D01*
X97540000Y-104955380D01*
X97540000Y-103632360D01*
X97556649Y-103639257D01*
X97711207Y-103670000D01*
X97868793Y-103670000D01*
X98023351Y-103639257D01*
X98040000Y-103632360D01*
X98040000Y-104955380D01*
X98218253Y-104930881D01*
X98218262Y-104930879D01*
X98494891Y-104853371D01*
X98758392Y-104738917D01*
X99003853Y-104589648D01*
X99003864Y-104589641D01*
X99226711Y-104408341D01*
X99422795Y-104198386D01*
X99422795Y-104198385D01*
X99464009Y-104139998D01*
X167766891Y-104139998D01*
X167766891Y-104140001D01*
X167787300Y-104425362D01*
X167848109Y-104704895D01*
X167948091Y-104972958D01*
X168085191Y-105224038D01*
X168085196Y-105224046D01*
X168191882Y-105366562D01*
X168191883Y-105366563D01*
X169170958Y-104387488D01*
X169195978Y-104447890D01*
X169267112Y-104554351D01*
X169357649Y-104644888D01*
X169464110Y-104716022D01*
X169524511Y-104741041D01*
X168545435Y-105720115D01*
X168545436Y-105720116D01*
X168687953Y-105826803D01*
X168687961Y-105826808D01*
X168939042Y-105963908D01*
X168939041Y-105963908D01*
X169207104Y-106063890D01*
X169486637Y-106124699D01*
X169771999Y-106145109D01*
X169772001Y-106145109D01*
X170057362Y-106124699D01*
X170336895Y-106063890D01*
X170604958Y-105963908D01*
X170856038Y-105826808D01*
X170856039Y-105826807D01*
X170998563Y-105720115D01*
X170019488Y-104741041D01*
X170079890Y-104716022D01*
X170186351Y-104644888D01*
X170276888Y-104554351D01*
X170348022Y-104447890D01*
X170373041Y-104387488D01*
X171352115Y-105366563D01*
X171458807Y-105224039D01*
X171458808Y-105224038D01*
X171595908Y-104972958D01*
X171695890Y-104704895D01*
X171756699Y-104425362D01*
X171777109Y-104140001D01*
X171777109Y-104139998D01*
X174270891Y-104139998D01*
X174270891Y-104140001D01*
X174291300Y-104425362D01*
X174352109Y-104704895D01*
X174452091Y-104972958D01*
X174589191Y-105224038D01*
X174589196Y-105224046D01*
X174695882Y-105366562D01*
X174695883Y-105366563D01*
X175674958Y-104387488D01*
X175699978Y-104447890D01*
X175771112Y-104554351D01*
X175861649Y-104644888D01*
X175968110Y-104716022D01*
X176028511Y-104741041D01*
X175049435Y-105720115D01*
X175049436Y-105720116D01*
X175191953Y-105826803D01*
X175191961Y-105826808D01*
X175443042Y-105963908D01*
X175443041Y-105963908D01*
X175711104Y-106063890D01*
X175990637Y-106124699D01*
X176275999Y-106145109D01*
X176276001Y-106145109D01*
X176561362Y-106124699D01*
X176840895Y-106063890D01*
X177108958Y-105963908D01*
X177360038Y-105826808D01*
X177360039Y-105826807D01*
X177502563Y-105720115D01*
X176523488Y-104741041D01*
X176583890Y-104716022D01*
X176690351Y-104644888D01*
X176780888Y-104554351D01*
X176852022Y-104447890D01*
X176877041Y-104387488D01*
X177856115Y-105366563D01*
X177962807Y-105224039D01*
X177962808Y-105224038D01*
X178099908Y-104972958D01*
X178199890Y-104704895D01*
X178238652Y-104526711D01*
X184331500Y-104526711D01*
X184331500Y-104769288D01*
X184363161Y-105009785D01*
X184425947Y-105244104D01*
X184493622Y-105407485D01*
X184518776Y-105468212D01*
X184640064Y-105678289D01*
X184640066Y-105678292D01*
X184640067Y-105678293D01*
X184787733Y-105870736D01*
X184787739Y-105870743D01*
X184959256Y-106042260D01*
X184959262Y-106042265D01*
X185151711Y-106189936D01*
X185361788Y-106311224D01*
X185585900Y-106404054D01*
X185820211Y-106466838D01*
X186000586Y-106490584D01*
X186060711Y-106498500D01*
X186060712Y-106498500D01*
X186303289Y-106498500D01*
X186351388Y-106492167D01*
X186543789Y-106466838D01*
X186778100Y-106404054D01*
X187002212Y-106311224D01*
X187212289Y-106189936D01*
X187404738Y-106042265D01*
X187576265Y-105870738D01*
X187723936Y-105678289D01*
X187845224Y-105468212D01*
X187938054Y-105244100D01*
X188000838Y-105009789D01*
X188032500Y-104769288D01*
X188032500Y-104526712D01*
X188000838Y-104286211D01*
X187938054Y-104051900D01*
X187845224Y-103827788D01*
X187723936Y-103617711D01*
X187576265Y-103425262D01*
X187576260Y-103425256D01*
X187404743Y-103253739D01*
X187404736Y-103253733D01*
X187212293Y-103106067D01*
X187212292Y-103106066D01*
X187212289Y-103106064D01*
X187002212Y-102984776D01*
X187002205Y-102984773D01*
X186778104Y-102891947D01*
X186543785Y-102829161D01*
X186303289Y-102797500D01*
X186303288Y-102797500D01*
X186060712Y-102797500D01*
X186060711Y-102797500D01*
X185820214Y-102829161D01*
X185585895Y-102891947D01*
X185361794Y-102984773D01*
X185361785Y-102984777D01*
X185151706Y-103106067D01*
X184959263Y-103253733D01*
X184959256Y-103253739D01*
X184787739Y-103425256D01*
X184787733Y-103425263D01*
X184640067Y-103617706D01*
X184518777Y-103827785D01*
X184518773Y-103827794D01*
X184425947Y-104051895D01*
X184363161Y-104286214D01*
X184331500Y-104526711D01*
X178238652Y-104526711D01*
X178260699Y-104425362D01*
X178281109Y-104140001D01*
X178281109Y-104139998D01*
X178260699Y-103854637D01*
X178199890Y-103575104D01*
X178099908Y-103307041D01*
X177962808Y-103055961D01*
X177962803Y-103055953D01*
X177856116Y-102913436D01*
X177856115Y-102913435D01*
X176877041Y-103892510D01*
X176852022Y-103832110D01*
X176780888Y-103725649D01*
X176690351Y-103635112D01*
X176583890Y-103563978D01*
X176523487Y-103538958D01*
X177502563Y-102559883D01*
X177502562Y-102559882D01*
X177360046Y-102453196D01*
X177360038Y-102453191D01*
X177108957Y-102316091D01*
X177108958Y-102316091D01*
X176840895Y-102216109D01*
X176561362Y-102155300D01*
X176276001Y-102134891D01*
X176275999Y-102134891D01*
X175990637Y-102155300D01*
X175711104Y-102216109D01*
X175443041Y-102316091D01*
X175191961Y-102453191D01*
X175191953Y-102453196D01*
X175049435Y-102559882D01*
X176028512Y-103538958D01*
X175968110Y-103563978D01*
X175861649Y-103635112D01*
X175771112Y-103725649D01*
X175699978Y-103832110D01*
X175674958Y-103892511D01*
X174695882Y-102913435D01*
X174589196Y-103055953D01*
X174589191Y-103055961D01*
X174452091Y-103307041D01*
X174352109Y-103575104D01*
X174291300Y-103854637D01*
X174270891Y-104139998D01*
X171777109Y-104139998D01*
X171756699Y-103854637D01*
X171695890Y-103575104D01*
X171595908Y-103307041D01*
X171458808Y-103055961D01*
X171458803Y-103055953D01*
X171352116Y-102913436D01*
X171352115Y-102913435D01*
X170373041Y-103892510D01*
X170348022Y-103832110D01*
X170276888Y-103725649D01*
X170186351Y-103635112D01*
X170079890Y-103563978D01*
X170019487Y-103538958D01*
X170998563Y-102559883D01*
X170998562Y-102559882D01*
X170856046Y-102453196D01*
X170856038Y-102453191D01*
X170604957Y-102316091D01*
X170604958Y-102316091D01*
X170336895Y-102216109D01*
X170057362Y-102155300D01*
X169772001Y-102134891D01*
X169771999Y-102134891D01*
X169486637Y-102155300D01*
X169207104Y-102216109D01*
X168939041Y-102316091D01*
X168687961Y-102453191D01*
X168687953Y-102453196D01*
X168545435Y-102559882D01*
X169524512Y-103538958D01*
X169464110Y-103563978D01*
X169357649Y-103635112D01*
X169267112Y-103725649D01*
X169195978Y-103832110D01*
X169170958Y-103892511D01*
X168191882Y-102913435D01*
X168085196Y-103055953D01*
X168085191Y-103055961D01*
X167948091Y-103307041D01*
X167848109Y-103575104D01*
X167787300Y-103854637D01*
X167766891Y-104139998D01*
X99464009Y-104139998D01*
X99588472Y-103963676D01*
X99720644Y-103708595D01*
X99816849Y-103437902D01*
X99816853Y-103437888D01*
X99875302Y-103156619D01*
X99877807Y-103120000D01*
X98552361Y-103120000D01*
X98559257Y-103103351D01*
X98590000Y-102948793D01*
X98590000Y-102791207D01*
X98559257Y-102636649D01*
X98552361Y-102620000D01*
X99877807Y-102620000D01*
X99877807Y-102619999D01*
X99875302Y-102583380D01*
X99816853Y-102302111D01*
X99816849Y-102302097D01*
X99720644Y-102031404D01*
X99588472Y-101776323D01*
X99422795Y-101541614D01*
X99422795Y-101541613D01*
X99226711Y-101331658D01*
X99003864Y-101150358D01*
X99003853Y-101150351D01*
X98758392Y-101001082D01*
X98494891Y-100886628D01*
X98218262Y-100809120D01*
X98218255Y-100809119D01*
X98040000Y-100784618D01*
X98040000Y-102107639D01*
X98023351Y-102100743D01*
X97868793Y-102070000D01*
X97711207Y-102070000D01*
X97556649Y-102100743D01*
X97540000Y-102107639D01*
X97540000Y-100784618D01*
X97361744Y-100809119D01*
X97361737Y-100809120D01*
X97085108Y-100886628D01*
X96821607Y-101001082D01*
X96576146Y-101150351D01*
X96576135Y-101150358D01*
X96353288Y-101331658D01*
X96157204Y-101541613D01*
X96157204Y-101541614D01*
X95991527Y-101776323D01*
X95859355Y-102031404D01*
X95763150Y-102302097D01*
X95763146Y-102302111D01*
X95704697Y-102583380D01*
X95702192Y-102619999D01*
X85145807Y-102619999D01*
X85143302Y-102583380D01*
X85084853Y-102302111D01*
X85084849Y-102302097D01*
X84988644Y-102031404D01*
X84856472Y-101776323D01*
X84690795Y-101541614D01*
X84690795Y-101541613D01*
X84494711Y-101331658D01*
X84271864Y-101150358D01*
X84271853Y-101150351D01*
X84026392Y-101001082D01*
X83762891Y-100886628D01*
X83486262Y-100809120D01*
X83486255Y-100809119D01*
X83308000Y-100784618D01*
X83308000Y-102107639D01*
X83291351Y-102100743D01*
X83136793Y-102070000D01*
X82979207Y-102070000D01*
X82824649Y-102100743D01*
X82808000Y-102107639D01*
X82808000Y-100784618D01*
X82629744Y-100809119D01*
X82629737Y-100809120D01*
X82353108Y-100886628D01*
X82089607Y-101001082D01*
X81844146Y-101150351D01*
X81844135Y-101150358D01*
X81621288Y-101331658D01*
X81425204Y-101541613D01*
X81425204Y-101541614D01*
X81259527Y-101776323D01*
X81127355Y-102031404D01*
X81031150Y-102302097D01*
X81031146Y-102302111D01*
X80972697Y-102583380D01*
X80970192Y-102619999D01*
X77459500Y-102619999D01*
X77459500Y-100075995D01*
X112595233Y-100075995D01*
X112595233Y-100076004D01*
X112614273Y-100330079D01*
X112670968Y-100578477D01*
X112670973Y-100578494D01*
X112764058Y-100815671D01*
X112764057Y-100815671D01*
X112891457Y-101036332D01*
X112933452Y-101088993D01*
X113735387Y-100287058D01*
X113740889Y-100307591D01*
X113819881Y-100444408D01*
X113931592Y-100556119D01*
X114068409Y-100635111D01*
X114088940Y-100640612D01*
X113286813Y-101442737D01*
X113447623Y-101552375D01*
X113447624Y-101552376D01*
X113677176Y-101662921D01*
X113677174Y-101662921D01*
X113920652Y-101738024D01*
X113920658Y-101738026D01*
X114172595Y-101775999D01*
X114172604Y-101776000D01*
X114427396Y-101776000D01*
X114427404Y-101775999D01*
X114679341Y-101738026D01*
X114679347Y-101738024D01*
X114922824Y-101662921D01*
X115152381Y-101552373D01*
X115313185Y-101442737D01*
X114511059Y-100640612D01*
X114531591Y-100635111D01*
X114668408Y-100556119D01*
X114780119Y-100444408D01*
X114859111Y-100307591D01*
X114864612Y-100287059D01*
X115666545Y-101088993D01*
X115708545Y-101036327D01*
X115835941Y-100815671D01*
X115929026Y-100578494D01*
X115929031Y-100578477D01*
X115955161Y-100463995D01*
X133423233Y-100463995D01*
X133423233Y-100464004D01*
X133442273Y-100718079D01*
X133498968Y-100966477D01*
X133498973Y-100966494D01*
X133592058Y-101203671D01*
X133592057Y-101203671D01*
X133719457Y-101424332D01*
X133761452Y-101476993D01*
X134563387Y-100675058D01*
X134568889Y-100695591D01*
X134647881Y-100832408D01*
X134759592Y-100944119D01*
X134896409Y-101023111D01*
X134916940Y-101028612D01*
X134114813Y-101830737D01*
X134275623Y-101940375D01*
X134275624Y-101940376D01*
X134505176Y-102050921D01*
X134505174Y-102050921D01*
X134748652Y-102126024D01*
X134748658Y-102126026D01*
X135000595Y-102163999D01*
X135000604Y-102164000D01*
X135255396Y-102164000D01*
X135255404Y-102163999D01*
X135507341Y-102126026D01*
X135507347Y-102126024D01*
X135750824Y-102050921D01*
X135980381Y-101940373D01*
X136141185Y-101830737D01*
X135339059Y-101028612D01*
X135359591Y-101023111D01*
X135496408Y-100944119D01*
X135608119Y-100832408D01*
X135687111Y-100695591D01*
X135692612Y-100675059D01*
X136494545Y-101476993D01*
X136536545Y-101424327D01*
X136663941Y-101203671D01*
X136757026Y-100966494D01*
X136757031Y-100966477D01*
X136813726Y-100718079D01*
X136823775Y-100583995D01*
X153997233Y-100583995D01*
X153997233Y-100584004D01*
X154016273Y-100838079D01*
X154072968Y-101086477D01*
X154072973Y-101086494D01*
X154166058Y-101323671D01*
X154166057Y-101323671D01*
X154293457Y-101544332D01*
X154335452Y-101596993D01*
X155137387Y-100795058D01*
X155142889Y-100815591D01*
X155221881Y-100952408D01*
X155333592Y-101064119D01*
X155470409Y-101143111D01*
X155490940Y-101148612D01*
X154688813Y-101950737D01*
X154849623Y-102060375D01*
X154849624Y-102060376D01*
X155079176Y-102170921D01*
X155079174Y-102170921D01*
X155322652Y-102246024D01*
X155322658Y-102246026D01*
X155574595Y-102283999D01*
X155574604Y-102284000D01*
X155829396Y-102284000D01*
X155829404Y-102283999D01*
X156081341Y-102246026D01*
X156081347Y-102246024D01*
X156324824Y-102170921D01*
X156554381Y-102060373D01*
X156715185Y-101950737D01*
X155913059Y-101148612D01*
X155933591Y-101143111D01*
X156070408Y-101064119D01*
X156182119Y-100952408D01*
X156261111Y-100815591D01*
X156266612Y-100795060D01*
X157068545Y-101596993D01*
X157110545Y-101544327D01*
X157237941Y-101323671D01*
X157331026Y-101086494D01*
X157331031Y-101086477D01*
X157387726Y-100838079D01*
X157406767Y-100584004D01*
X157406767Y-100583995D01*
X157387726Y-100329920D01*
X157331031Y-100081522D01*
X157331026Y-100081505D01*
X157237941Y-99844328D01*
X157237942Y-99844328D01*
X157110544Y-99623671D01*
X157068546Y-99571006D01*
X156266612Y-100372939D01*
X156261111Y-100352409D01*
X156182119Y-100215592D01*
X156070408Y-100103881D01*
X155933591Y-100024889D01*
X155913058Y-100019387D01*
X156715185Y-99217261D01*
X156554377Y-99107624D01*
X156554376Y-99107623D01*
X156455480Y-99059998D01*
X167766891Y-99059998D01*
X167766891Y-99060001D01*
X167787300Y-99345362D01*
X167848109Y-99624895D01*
X167948091Y-99892958D01*
X168085191Y-100144038D01*
X168085196Y-100144046D01*
X168191882Y-100286562D01*
X168191883Y-100286563D01*
X169170958Y-99307488D01*
X169195978Y-99367890D01*
X169267112Y-99474351D01*
X169357649Y-99564888D01*
X169464110Y-99636022D01*
X169524511Y-99661041D01*
X168545435Y-100640115D01*
X168545436Y-100640116D01*
X168687953Y-100746803D01*
X168687961Y-100746808D01*
X168939042Y-100883908D01*
X168939041Y-100883908D01*
X169207104Y-100983890D01*
X169486637Y-101044699D01*
X169771999Y-101065109D01*
X169772001Y-101065109D01*
X170057362Y-101044699D01*
X170336895Y-100983890D01*
X170604958Y-100883908D01*
X170856038Y-100746808D01*
X170856039Y-100746807D01*
X170998563Y-100640115D01*
X170019488Y-99661041D01*
X170079890Y-99636022D01*
X170186351Y-99564888D01*
X170276888Y-99474351D01*
X170348022Y-99367890D01*
X170373041Y-99307488D01*
X171352115Y-100286563D01*
X171458807Y-100144039D01*
X171458808Y-100144038D01*
X171595908Y-99892958D01*
X171695890Y-99624895D01*
X171756699Y-99345362D01*
X171777109Y-99060001D01*
X171777109Y-99059998D01*
X174270891Y-99059998D01*
X174270891Y-99060001D01*
X174291300Y-99345362D01*
X174352109Y-99624895D01*
X174452091Y-99892958D01*
X174589191Y-100144038D01*
X174589196Y-100144046D01*
X174695882Y-100286562D01*
X174695883Y-100286563D01*
X175674958Y-99307488D01*
X175699978Y-99367890D01*
X175771112Y-99474351D01*
X175861649Y-99564888D01*
X175968110Y-99636022D01*
X176028511Y-99661041D01*
X175049435Y-100640115D01*
X175049436Y-100640116D01*
X175191953Y-100746803D01*
X175191961Y-100746808D01*
X175443042Y-100883908D01*
X175443041Y-100883908D01*
X175711104Y-100983890D01*
X175990637Y-101044699D01*
X176275999Y-101065109D01*
X176276001Y-101065109D01*
X176561362Y-101044699D01*
X176840895Y-100983890D01*
X177108958Y-100883908D01*
X177360038Y-100746808D01*
X177360039Y-100746807D01*
X177502563Y-100640115D01*
X176523488Y-99661041D01*
X176583890Y-99636022D01*
X176690351Y-99564888D01*
X176780888Y-99474351D01*
X176852022Y-99367890D01*
X176877041Y-99307488D01*
X177856115Y-100286563D01*
X177962807Y-100144039D01*
X177962808Y-100144038D01*
X178099908Y-99892958D01*
X178199890Y-99624895D01*
X178260699Y-99345362D01*
X178281109Y-99060001D01*
X178281109Y-99059998D01*
X178260699Y-98774637D01*
X178199890Y-98495104D01*
X178099908Y-98227041D01*
X177962808Y-97975961D01*
X177962803Y-97975953D01*
X177856116Y-97833436D01*
X177856115Y-97833435D01*
X176877041Y-98812510D01*
X176852022Y-98752110D01*
X176780888Y-98645649D01*
X176690351Y-98555112D01*
X176583890Y-98483978D01*
X176523487Y-98458958D01*
X177502563Y-97479883D01*
X177502562Y-97479882D01*
X177360046Y-97373196D01*
X177360038Y-97373191D01*
X177108957Y-97236091D01*
X177108958Y-97236091D01*
X176840895Y-97136109D01*
X176561362Y-97075300D01*
X176276001Y-97054891D01*
X176275999Y-97054891D01*
X175990637Y-97075300D01*
X175711104Y-97136109D01*
X175443041Y-97236091D01*
X175191961Y-97373191D01*
X175191953Y-97373196D01*
X175049435Y-97479882D01*
X176028512Y-98458958D01*
X175968110Y-98483978D01*
X175861649Y-98555112D01*
X175771112Y-98645649D01*
X175699978Y-98752110D01*
X175674958Y-98812511D01*
X174695882Y-97833435D01*
X174589196Y-97975953D01*
X174589191Y-97975961D01*
X174452091Y-98227041D01*
X174352109Y-98495104D01*
X174291300Y-98774637D01*
X174270891Y-99059998D01*
X171777109Y-99059998D01*
X171756699Y-98774637D01*
X171695890Y-98495104D01*
X171595908Y-98227041D01*
X171458808Y-97975961D01*
X171458803Y-97975953D01*
X171352116Y-97833436D01*
X171352115Y-97833435D01*
X170373041Y-98812510D01*
X170348022Y-98752110D01*
X170276888Y-98645649D01*
X170186351Y-98555112D01*
X170079890Y-98483978D01*
X170019487Y-98458958D01*
X170998563Y-97479883D01*
X170998562Y-97479882D01*
X170856046Y-97373196D01*
X170856038Y-97373191D01*
X170604957Y-97236091D01*
X170604958Y-97236091D01*
X170336895Y-97136109D01*
X170057362Y-97075300D01*
X169772001Y-97054891D01*
X169771999Y-97054891D01*
X169486637Y-97075300D01*
X169207104Y-97136109D01*
X168939041Y-97236091D01*
X168687961Y-97373191D01*
X168687953Y-97373196D01*
X168545435Y-97479882D01*
X169524512Y-98458958D01*
X169464110Y-98483978D01*
X169357649Y-98555112D01*
X169267112Y-98645649D01*
X169195978Y-98752110D01*
X169170958Y-98812511D01*
X168191882Y-97833435D01*
X168085196Y-97975953D01*
X168085191Y-97975961D01*
X167948091Y-98227041D01*
X167848109Y-98495104D01*
X167787300Y-98774637D01*
X167766891Y-99059998D01*
X156455480Y-99059998D01*
X156324823Y-98997078D01*
X156324825Y-98997078D01*
X156081347Y-98921975D01*
X156081341Y-98921973D01*
X155829404Y-98884000D01*
X155574595Y-98884000D01*
X155322658Y-98921973D01*
X155322652Y-98921975D01*
X155079175Y-98997078D01*
X154849624Y-99107623D01*
X154849616Y-99107628D01*
X154688813Y-99217261D01*
X155490940Y-100019387D01*
X155470409Y-100024889D01*
X155333592Y-100103881D01*
X155221881Y-100215592D01*
X155142889Y-100352409D01*
X155137387Y-100372940D01*
X154335453Y-99571006D01*
X154293455Y-99623670D01*
X154166058Y-99844328D01*
X154072973Y-100081505D01*
X154072968Y-100081522D01*
X154016273Y-100329920D01*
X153997233Y-100583995D01*
X136823775Y-100583995D01*
X136832767Y-100464004D01*
X136832767Y-100463995D01*
X136813726Y-100209920D01*
X136757031Y-99961522D01*
X136757026Y-99961505D01*
X136663941Y-99724328D01*
X136663942Y-99724328D01*
X136536544Y-99503671D01*
X136494546Y-99451006D01*
X135692612Y-100252939D01*
X135687111Y-100232409D01*
X135608119Y-100095592D01*
X135496408Y-99983881D01*
X135359591Y-99904889D01*
X135339058Y-99899387D01*
X136141185Y-99097261D01*
X135980377Y-98987624D01*
X135980376Y-98987623D01*
X135750823Y-98877078D01*
X135750825Y-98877078D01*
X135507347Y-98801975D01*
X135507341Y-98801973D01*
X135255404Y-98764000D01*
X135000595Y-98764000D01*
X134748658Y-98801973D01*
X134748652Y-98801975D01*
X134505175Y-98877078D01*
X134275624Y-98987623D01*
X134275616Y-98987628D01*
X134114813Y-99097261D01*
X134916940Y-99899387D01*
X134896409Y-99904889D01*
X134759592Y-99983881D01*
X134647881Y-100095592D01*
X134568889Y-100232409D01*
X134563387Y-100252940D01*
X133761453Y-99451006D01*
X133719455Y-99503670D01*
X133592058Y-99724328D01*
X133498973Y-99961505D01*
X133498968Y-99961522D01*
X133442273Y-100209920D01*
X133423233Y-100463995D01*
X115955161Y-100463995D01*
X115985726Y-100330079D01*
X116004767Y-100076004D01*
X116004767Y-100075995D01*
X115985726Y-99821920D01*
X115929031Y-99573522D01*
X115929026Y-99573505D01*
X115835941Y-99336328D01*
X115835942Y-99336328D01*
X115708544Y-99115671D01*
X115666546Y-99063006D01*
X114864612Y-99864939D01*
X114859111Y-99844409D01*
X114780119Y-99707592D01*
X114668408Y-99595881D01*
X114531591Y-99516889D01*
X114511058Y-99511387D01*
X115313185Y-98709261D01*
X115152377Y-98599624D01*
X115152376Y-98599623D01*
X114922823Y-98489078D01*
X114922825Y-98489078D01*
X114679347Y-98413975D01*
X114679341Y-98413973D01*
X114427404Y-98376000D01*
X114172595Y-98376000D01*
X113920658Y-98413973D01*
X113920652Y-98413975D01*
X113677175Y-98489078D01*
X113447624Y-98599623D01*
X113447616Y-98599628D01*
X113286813Y-98709261D01*
X114088940Y-99511387D01*
X114068409Y-99516889D01*
X113931592Y-99595881D01*
X113819881Y-99707592D01*
X113740889Y-99844409D01*
X113735387Y-99864940D01*
X112933453Y-99063006D01*
X112891455Y-99115670D01*
X112764058Y-99336328D01*
X112670973Y-99573505D01*
X112670968Y-99573522D01*
X112614273Y-99821920D01*
X112595233Y-100075995D01*
X77459500Y-100075995D01*
X77459500Y-99427500D01*
X77479185Y-99360461D01*
X77531989Y-99314706D01*
X77583500Y-99303500D01*
X109420547Y-99303500D01*
X109420550Y-99303500D01*
X109605986Y-99286253D01*
X109650939Y-99277818D01*
X109784911Y-99239550D01*
X109830004Y-99226670D01*
X109830005Y-99226669D01*
X109830021Y-99226665D01*
X111523805Y-98567809D01*
X111690380Y-98484507D01*
X111729217Y-98460349D01*
X111877563Y-98347761D01*
X112325740Y-97936934D01*
X112325742Y-97936932D01*
X112739021Y-97558093D01*
X112801741Y-97527303D01*
X112822811Y-97525500D01*
X164921640Y-97525500D01*
X164932387Y-97524923D01*
X165029129Y-97519738D01*
X165055487Y-97516904D01*
X165242371Y-97478610D01*
X165429882Y-97399672D01*
X165491205Y-97366187D01*
X165562639Y-97323245D01*
X165720315Y-97194676D01*
X166554210Y-96360780D01*
X166560132Y-96354809D01*
X166687377Y-96196063D01*
X166706163Y-96167033D01*
X166786012Y-96017280D01*
X166846917Y-95823161D01*
X166867500Y-95620755D01*
X166867500Y-95171433D01*
X166887185Y-95104394D01*
X166898816Y-95089057D01*
X167204137Y-94745572D01*
X167981155Y-93871426D01*
X168308540Y-93503118D01*
X168367791Y-93466091D01*
X168401219Y-93461500D01*
X190575640Y-93461500D01*
X190586387Y-93460923D01*
X190683129Y-93455738D01*
X190709487Y-93452904D01*
X190896371Y-93414610D01*
X191047836Y-93350846D01*
X191117257Y-93342978D01*
X191179915Y-93373893D01*
G37*
%TD.AperFunction*%
%TD*%
%TA.AperFunction,Conductor*%
%TO.N,GND*%
G36*
X108916417Y-74174363D02*
G01*
X110678238Y-74761636D01*
X110713424Y-74780072D01*
X112606661Y-76200000D01*
X165048638Y-76200000D01*
X165115677Y-76219685D01*
X165136319Y-76236319D01*
X165847066Y-76947066D01*
X165862000Y-76968130D01*
X165862000Y-77724000D01*
X166457020Y-78200016D01*
X166457021Y-78200017D01*
X167201589Y-78795671D01*
X168402000Y-79756000D01*
X181610000Y-79756000D01*
X181610000Y-92391086D01*
X189992000Y-92456000D01*
X167894000Y-92456000D01*
X167229636Y-93203407D01*
X167229635Y-93203408D01*
X166452617Y-94077554D01*
X166452616Y-94077555D01*
X165862000Y-94742000D01*
X165862000Y-95620755D01*
X165843214Y-95649785D01*
X165009319Y-96483681D01*
X164947996Y-96517166D01*
X164921638Y-96520000D01*
X112383454Y-96520000D01*
X111646301Y-97195723D01*
X111646301Y-97195724D01*
X111198124Y-97606551D01*
X111159287Y-97630709D01*
X109465503Y-98289565D01*
X109420550Y-98298000D01*
X76454000Y-98298000D01*
X76454000Y-88522135D01*
X80957500Y-88522135D01*
X80957500Y-91817870D01*
X80957501Y-91817876D01*
X80963908Y-91877483D01*
X81014202Y-92012328D01*
X81014206Y-92012335D01*
X81100452Y-92127544D01*
X81100455Y-92127547D01*
X81215664Y-92213793D01*
X81215671Y-92213797D01*
X81350517Y-92264091D01*
X81350516Y-92264091D01*
X81357444Y-92264835D01*
X81410127Y-92270500D01*
X84705872Y-92270499D01*
X84765483Y-92264091D01*
X84900331Y-92213796D01*
X85015546Y-92127546D01*
X85101796Y-92012331D01*
X85152091Y-91877483D01*
X85158500Y-91817873D01*
X85158499Y-88522135D01*
X95689500Y-88522135D01*
X95689500Y-91817870D01*
X95689501Y-91817876D01*
X95695908Y-91877483D01*
X95746202Y-92012328D01*
X95746206Y-92012335D01*
X95832452Y-92127544D01*
X95832455Y-92127547D01*
X95947664Y-92213793D01*
X95947671Y-92213797D01*
X96082517Y-92264091D01*
X96082516Y-92264091D01*
X96089444Y-92264835D01*
X96142127Y-92270500D01*
X99437872Y-92270499D01*
X99497483Y-92264091D01*
X99632331Y-92213796D01*
X99747546Y-92127546D01*
X99833796Y-92012331D01*
X99884091Y-91877483D01*
X99890500Y-91817873D01*
X99890500Y-91328155D01*
X112600000Y-91328155D01*
X112600000Y-92326000D01*
X113751518Y-92326000D01*
X113740889Y-92344409D01*
X113700000Y-92497009D01*
X113700000Y-92654991D01*
X113740889Y-92807591D01*
X113751518Y-92826000D01*
X112600000Y-92826000D01*
X112600000Y-93823844D01*
X112606401Y-93883372D01*
X112606403Y-93883379D01*
X112656645Y-94018086D01*
X112656649Y-94018093D01*
X112742809Y-94133187D01*
X112742812Y-94133190D01*
X112857906Y-94219350D01*
X112857913Y-94219354D01*
X112992620Y-94269596D01*
X112992627Y-94269598D01*
X113052155Y-94275999D01*
X113052172Y-94276000D01*
X114050000Y-94276000D01*
X114050000Y-93124482D01*
X114068409Y-93135111D01*
X114221009Y-93176000D01*
X114378991Y-93176000D01*
X114531591Y-93135111D01*
X114550000Y-93124482D01*
X114550000Y-94276000D01*
X115547828Y-94276000D01*
X115547844Y-94275999D01*
X115607372Y-94269598D01*
X115607379Y-94269596D01*
X115742086Y-94219354D01*
X115742093Y-94219350D01*
X115857187Y-94133190D01*
X115857190Y-94133187D01*
X115943350Y-94018093D01*
X115943354Y-94018086D01*
X115993596Y-93883379D01*
X115993598Y-93883372D01*
X115999999Y-93823844D01*
X116000000Y-93823827D01*
X116000000Y-92826000D01*
X114848482Y-92826000D01*
X114859111Y-92807591D01*
X114900000Y-92654991D01*
X114900000Y-92497009D01*
X114859111Y-92344409D01*
X114848482Y-92326000D01*
X116000000Y-92326000D01*
X116000000Y-91716155D01*
X133428000Y-91716155D01*
X133428000Y-92714000D01*
X134579518Y-92714000D01*
X134568889Y-92732409D01*
X134528000Y-92885009D01*
X134528000Y-93042991D01*
X134568889Y-93195591D01*
X134579518Y-93214000D01*
X133428000Y-93214000D01*
X133428000Y-94211844D01*
X133434401Y-94271372D01*
X133434403Y-94271379D01*
X133484645Y-94406086D01*
X133484649Y-94406093D01*
X133570809Y-94521187D01*
X133570812Y-94521190D01*
X133685906Y-94607350D01*
X133685913Y-94607354D01*
X133820620Y-94657596D01*
X133820627Y-94657598D01*
X133880155Y-94663999D01*
X133880172Y-94664000D01*
X134878000Y-94664000D01*
X134878000Y-93512482D01*
X134896409Y-93523111D01*
X135049009Y-93564000D01*
X135206991Y-93564000D01*
X135359591Y-93523111D01*
X135378000Y-93512482D01*
X135378000Y-94664000D01*
X136375828Y-94664000D01*
X136375844Y-94663999D01*
X136435372Y-94657598D01*
X136435379Y-94657596D01*
X136570086Y-94607354D01*
X136570093Y-94607350D01*
X136685187Y-94521190D01*
X136685190Y-94521187D01*
X136771350Y-94406093D01*
X136771354Y-94406086D01*
X136821596Y-94271379D01*
X136821598Y-94271372D01*
X136827999Y-94211844D01*
X136828000Y-94211827D01*
X136828000Y-93214000D01*
X135676482Y-93214000D01*
X135687111Y-93195591D01*
X135728000Y-93042991D01*
X135728000Y-92885009D01*
X135687111Y-92732409D01*
X135676482Y-92714000D01*
X136828000Y-92714000D01*
X136828000Y-91836155D01*
X154002000Y-91836155D01*
X154002000Y-92834000D01*
X155153518Y-92834000D01*
X155142889Y-92852409D01*
X155102000Y-93005009D01*
X155102000Y-93162991D01*
X155142889Y-93315591D01*
X155153518Y-93334000D01*
X154002000Y-93334000D01*
X154002000Y-94331844D01*
X154008401Y-94391372D01*
X154008403Y-94391379D01*
X154058645Y-94526086D01*
X154058649Y-94526093D01*
X154144809Y-94641187D01*
X154144812Y-94641190D01*
X154259906Y-94727350D01*
X154259913Y-94727354D01*
X154394620Y-94777596D01*
X154394627Y-94777598D01*
X154454155Y-94783999D01*
X154454172Y-94784000D01*
X155452000Y-94784000D01*
X155452000Y-93632482D01*
X155470409Y-93643111D01*
X155623009Y-93684000D01*
X155780991Y-93684000D01*
X155933591Y-93643111D01*
X155952000Y-93632482D01*
X155952000Y-94784000D01*
X156949828Y-94784000D01*
X156949844Y-94783999D01*
X157009372Y-94777598D01*
X157009379Y-94777596D01*
X157144086Y-94727354D01*
X157144093Y-94727350D01*
X157259187Y-94641190D01*
X157259190Y-94641187D01*
X157345350Y-94526093D01*
X157345354Y-94526086D01*
X157395596Y-94391379D01*
X157395598Y-94391372D01*
X157401999Y-94331844D01*
X157402000Y-94331827D01*
X157402000Y-93334000D01*
X156250482Y-93334000D01*
X156261111Y-93315591D01*
X156302000Y-93162991D01*
X156302000Y-93005009D01*
X156261111Y-92852409D01*
X156250482Y-92834000D01*
X157402000Y-92834000D01*
X157402000Y-91836172D01*
X157401999Y-91836155D01*
X157395598Y-91776627D01*
X157395596Y-91776620D01*
X157345354Y-91641913D01*
X157345350Y-91641906D01*
X157259190Y-91526812D01*
X157259187Y-91526809D01*
X157144093Y-91440649D01*
X157144086Y-91440645D01*
X157009379Y-91390403D01*
X157009372Y-91390401D01*
X156949844Y-91384000D01*
X155952000Y-91384000D01*
X155952000Y-92535517D01*
X155933591Y-92524889D01*
X155780991Y-92484000D01*
X155623009Y-92484000D01*
X155470409Y-92524889D01*
X155452000Y-92535517D01*
X155452000Y-91384000D01*
X154454155Y-91384000D01*
X154394627Y-91390401D01*
X154394620Y-91390403D01*
X154259913Y-91440645D01*
X154259906Y-91440649D01*
X154144812Y-91526809D01*
X154144809Y-91526812D01*
X154058649Y-91641906D01*
X154058645Y-91641913D01*
X154008403Y-91776620D01*
X154008401Y-91776627D01*
X154002000Y-91836155D01*
X136828000Y-91836155D01*
X136828000Y-91716172D01*
X136827999Y-91716155D01*
X136821598Y-91656627D01*
X136821596Y-91656620D01*
X136771354Y-91521913D01*
X136771350Y-91521906D01*
X136685190Y-91406812D01*
X136685187Y-91406809D01*
X136570093Y-91320649D01*
X136570086Y-91320645D01*
X136435379Y-91270403D01*
X136435372Y-91270401D01*
X136375844Y-91264000D01*
X135378000Y-91264000D01*
X135378000Y-92415517D01*
X135359591Y-92404889D01*
X135206991Y-92364000D01*
X135049009Y-92364000D01*
X134896409Y-92404889D01*
X134878000Y-92415517D01*
X134878000Y-91264000D01*
X133880155Y-91264000D01*
X133820627Y-91270401D01*
X133820620Y-91270403D01*
X133685913Y-91320645D01*
X133685906Y-91320649D01*
X133570812Y-91406809D01*
X133570809Y-91406812D01*
X133484649Y-91521906D01*
X133484645Y-91521913D01*
X133434403Y-91656620D01*
X133434401Y-91656627D01*
X133428000Y-91716155D01*
X116000000Y-91716155D01*
X116000000Y-91328172D01*
X115999999Y-91328155D01*
X115993598Y-91268627D01*
X115993596Y-91268620D01*
X115943354Y-91133913D01*
X115943350Y-91133906D01*
X115857190Y-91018812D01*
X115857187Y-91018809D01*
X115742093Y-90932649D01*
X115742086Y-90932645D01*
X115607379Y-90882403D01*
X115607372Y-90882401D01*
X115547844Y-90876000D01*
X114550000Y-90876000D01*
X114550000Y-92027517D01*
X114531591Y-92016889D01*
X114378991Y-91976000D01*
X114221009Y-91976000D01*
X114068409Y-92016889D01*
X114050000Y-92027517D01*
X114050000Y-90876000D01*
X113052155Y-90876000D01*
X112992627Y-90882401D01*
X112992620Y-90882403D01*
X112857913Y-90932645D01*
X112857906Y-90932649D01*
X112742812Y-91018809D01*
X112742809Y-91018812D01*
X112656649Y-91133906D01*
X112656645Y-91133913D01*
X112606403Y-91268620D01*
X112606401Y-91268627D01*
X112600000Y-91328155D01*
X99890500Y-91328155D01*
X99890499Y-88522128D01*
X99884091Y-88462517D01*
X99881667Y-88456019D01*
X99857789Y-88391998D01*
X167766891Y-88391998D01*
X167766891Y-88392001D01*
X167787300Y-88677362D01*
X167848109Y-88956895D01*
X167948091Y-89224958D01*
X168085191Y-89476038D01*
X168085196Y-89476046D01*
X168191882Y-89618562D01*
X168191883Y-89618563D01*
X169170958Y-88639488D01*
X169195978Y-88699890D01*
X169267112Y-88806351D01*
X169357649Y-88896888D01*
X169464110Y-88968022D01*
X169524511Y-88993041D01*
X168545435Y-89972115D01*
X168545436Y-89972116D01*
X168687953Y-90078803D01*
X168687961Y-90078808D01*
X168939042Y-90215908D01*
X168939041Y-90215908D01*
X169207104Y-90315890D01*
X169486637Y-90376699D01*
X169771999Y-90397109D01*
X169772001Y-90397109D01*
X170057362Y-90376699D01*
X170336895Y-90315890D01*
X170604958Y-90215908D01*
X170856038Y-90078808D01*
X170856039Y-90078807D01*
X170998563Y-89972115D01*
X170019488Y-88993041D01*
X170079890Y-88968022D01*
X170186351Y-88896888D01*
X170276888Y-88806351D01*
X170348022Y-88699890D01*
X170373041Y-88639488D01*
X171352115Y-89618563D01*
X171458807Y-89476039D01*
X171458808Y-89476038D01*
X171595908Y-89224958D01*
X171695890Y-88956895D01*
X171756699Y-88677362D01*
X171777109Y-88392001D01*
X171777109Y-88391998D01*
X174270891Y-88391998D01*
X174270891Y-88392001D01*
X174291300Y-88677362D01*
X174352109Y-88956895D01*
X174452091Y-89224958D01*
X174589191Y-89476038D01*
X174589196Y-89476046D01*
X174695882Y-89618562D01*
X174695883Y-89618563D01*
X175674958Y-88639488D01*
X175699978Y-88699890D01*
X175771112Y-88806351D01*
X175861649Y-88896888D01*
X175968110Y-88968022D01*
X176028511Y-88993041D01*
X175049435Y-89972115D01*
X175049436Y-89972116D01*
X175191953Y-90078803D01*
X175191961Y-90078808D01*
X175443042Y-90215908D01*
X175443041Y-90215908D01*
X175711104Y-90315890D01*
X175990637Y-90376699D01*
X176275999Y-90397109D01*
X176276001Y-90397109D01*
X176561362Y-90376699D01*
X176840895Y-90315890D01*
X177108958Y-90215908D01*
X177360038Y-90078808D01*
X177360039Y-90078807D01*
X177502563Y-89972115D01*
X176523488Y-88993041D01*
X176583890Y-88968022D01*
X176690351Y-88896888D01*
X176780888Y-88806351D01*
X176852022Y-88699890D01*
X176877041Y-88639488D01*
X177856115Y-89618563D01*
X177962807Y-89476039D01*
X177962808Y-89476038D01*
X178099908Y-89224958D01*
X178199890Y-88956895D01*
X178260699Y-88677362D01*
X178281109Y-88392001D01*
X178281109Y-88391998D01*
X178260699Y-88106637D01*
X178199890Y-87827104D01*
X178099908Y-87559041D01*
X177962808Y-87307961D01*
X177962803Y-87307953D01*
X177856116Y-87165436D01*
X177856115Y-87165435D01*
X176877041Y-88144510D01*
X176852022Y-88084110D01*
X176780888Y-87977649D01*
X176690351Y-87887112D01*
X176583890Y-87815978D01*
X176523487Y-87790958D01*
X177502563Y-86811883D01*
X177502562Y-86811882D01*
X177360046Y-86705196D01*
X177360038Y-86705191D01*
X177108957Y-86568091D01*
X177108958Y-86568091D01*
X176840895Y-86468109D01*
X176561362Y-86407300D01*
X176276001Y-86386891D01*
X176275999Y-86386891D01*
X175990637Y-86407300D01*
X175711104Y-86468109D01*
X175443041Y-86568091D01*
X175191961Y-86705191D01*
X175191953Y-86705196D01*
X175049435Y-86811882D01*
X176028512Y-87790958D01*
X175968110Y-87815978D01*
X175861649Y-87887112D01*
X175771112Y-87977649D01*
X175699978Y-88084110D01*
X175674958Y-88144511D01*
X174695882Y-87165435D01*
X174589196Y-87307953D01*
X174589191Y-87307961D01*
X174452091Y-87559041D01*
X174352109Y-87827104D01*
X174291300Y-88106637D01*
X174270891Y-88391998D01*
X171777109Y-88391998D01*
X171756699Y-88106637D01*
X171695890Y-87827104D01*
X171595908Y-87559041D01*
X171458808Y-87307961D01*
X171458803Y-87307953D01*
X171352116Y-87165436D01*
X171352115Y-87165435D01*
X170373041Y-88144510D01*
X170348022Y-88084110D01*
X170276888Y-87977649D01*
X170186351Y-87887112D01*
X170079890Y-87815978D01*
X170019487Y-87790958D01*
X170998563Y-86811883D01*
X170998562Y-86811882D01*
X170856046Y-86705196D01*
X170856038Y-86705191D01*
X170604957Y-86568091D01*
X170604958Y-86568091D01*
X170336895Y-86468109D01*
X170057362Y-86407300D01*
X169772001Y-86386891D01*
X169771999Y-86386891D01*
X169486637Y-86407300D01*
X169207104Y-86468109D01*
X168939041Y-86568091D01*
X168687961Y-86705191D01*
X168687953Y-86705196D01*
X168545435Y-86811882D01*
X169524512Y-87790958D01*
X169464110Y-87815978D01*
X169357649Y-87887112D01*
X169267112Y-87977649D01*
X169195978Y-88084110D01*
X169170958Y-88144511D01*
X168191882Y-87165435D01*
X168085196Y-87307953D01*
X168085191Y-87307961D01*
X167948091Y-87559041D01*
X167848109Y-87827104D01*
X167787300Y-88106637D01*
X167766891Y-88391998D01*
X99857789Y-88391998D01*
X99833797Y-88327671D01*
X99833793Y-88327664D01*
X99747547Y-88212455D01*
X99747544Y-88212452D01*
X99632335Y-88126206D01*
X99632328Y-88126202D01*
X99497482Y-88075908D01*
X99497483Y-88075908D01*
X99437883Y-88069501D01*
X99437881Y-88069500D01*
X99437873Y-88069500D01*
X99437864Y-88069500D01*
X96142129Y-88069500D01*
X96142123Y-88069501D01*
X96082516Y-88075908D01*
X95947671Y-88126202D01*
X95947664Y-88126206D01*
X95832455Y-88212452D01*
X95832452Y-88212455D01*
X95746206Y-88327664D01*
X95746202Y-88327671D01*
X95695908Y-88462517D01*
X95689501Y-88522116D01*
X95689501Y-88522123D01*
X95689500Y-88522135D01*
X85158499Y-88522135D01*
X85158499Y-88522128D01*
X85152091Y-88462517D01*
X85149667Y-88456019D01*
X85101797Y-88327671D01*
X85101793Y-88327664D01*
X85015547Y-88212455D01*
X85015544Y-88212452D01*
X84900335Y-88126206D01*
X84900328Y-88126202D01*
X84765482Y-88075908D01*
X84765483Y-88075908D01*
X84705883Y-88069501D01*
X84705881Y-88069500D01*
X84705873Y-88069500D01*
X84705864Y-88069500D01*
X81410129Y-88069500D01*
X81410123Y-88069501D01*
X81350516Y-88075908D01*
X81215671Y-88126202D01*
X81215664Y-88126206D01*
X81100455Y-88212452D01*
X81100452Y-88212455D01*
X81014206Y-88327664D01*
X81014202Y-88327671D01*
X80963908Y-88462517D01*
X80957501Y-88522116D01*
X80957501Y-88522123D01*
X80957500Y-88522135D01*
X76454000Y-88522135D01*
X76454000Y-82550000D01*
X80952592Y-82550000D01*
X80972201Y-82836680D01*
X81030666Y-83118034D01*
X81030667Y-83118037D01*
X81126894Y-83388793D01*
X81126893Y-83388793D01*
X81259098Y-83643935D01*
X81424812Y-83878700D01*
X81470876Y-83928022D01*
X81620947Y-84088708D01*
X81843853Y-84270055D01*
X82051035Y-84396046D01*
X82089382Y-84419365D01*
X82276237Y-84500526D01*
X82352942Y-84533844D01*
X82629642Y-84611371D01*
X82879920Y-84645771D01*
X82914321Y-84650500D01*
X82914322Y-84650500D01*
X83201679Y-84650500D01*
X83232370Y-84646281D01*
X83486358Y-84611371D01*
X83763058Y-84533844D01*
X83876015Y-84484779D01*
X84026617Y-84419365D01*
X84026620Y-84419363D01*
X84026625Y-84419361D01*
X84272147Y-84270055D01*
X84495053Y-84088708D01*
X84691189Y-83878698D01*
X84856901Y-83643936D01*
X84989104Y-83388797D01*
X85085334Y-83118032D01*
X85143798Y-82836686D01*
X85163408Y-82550000D01*
X95684592Y-82550000D01*
X95704201Y-82836680D01*
X95762666Y-83118034D01*
X95762667Y-83118037D01*
X95858894Y-83388793D01*
X95858893Y-83388793D01*
X95991098Y-83643935D01*
X96156812Y-83878700D01*
X96202876Y-83928022D01*
X96352947Y-84088708D01*
X96575853Y-84270055D01*
X96783035Y-84396046D01*
X96821382Y-84419365D01*
X97008237Y-84500526D01*
X97084942Y-84533844D01*
X97361642Y-84611371D01*
X97611920Y-84645771D01*
X97646321Y-84650500D01*
X97646322Y-84650500D01*
X97933679Y-84650500D01*
X97964370Y-84646281D01*
X98218358Y-84611371D01*
X98495058Y-84533844D01*
X98608015Y-84484779D01*
X98758617Y-84419365D01*
X98758620Y-84419363D01*
X98758625Y-84419361D01*
X99004147Y-84270055D01*
X99227053Y-84088708D01*
X99423189Y-83878698D01*
X99588901Y-83643936D01*
X99721104Y-83388797D01*
X99748398Y-83311998D01*
X167766891Y-83311998D01*
X167766891Y-83312001D01*
X167787300Y-83597362D01*
X167848109Y-83876895D01*
X167948091Y-84144958D01*
X168085191Y-84396038D01*
X168085196Y-84396046D01*
X168191882Y-84538562D01*
X168191883Y-84538563D01*
X169170958Y-83559488D01*
X169195978Y-83619890D01*
X169267112Y-83726351D01*
X169357649Y-83816888D01*
X169464110Y-83888022D01*
X169524511Y-83913041D01*
X168545435Y-84892115D01*
X168545436Y-84892116D01*
X168687953Y-84998803D01*
X168687961Y-84998808D01*
X168939042Y-85135908D01*
X168939041Y-85135908D01*
X169207104Y-85235890D01*
X169486637Y-85296699D01*
X169771999Y-85317109D01*
X169772001Y-85317109D01*
X170057362Y-85296699D01*
X170336895Y-85235890D01*
X170604958Y-85135908D01*
X170856038Y-84998808D01*
X170856039Y-84998807D01*
X170998563Y-84892115D01*
X170019488Y-83913041D01*
X170079890Y-83888022D01*
X170186351Y-83816888D01*
X170276888Y-83726351D01*
X170348022Y-83619890D01*
X170373041Y-83559488D01*
X171352115Y-84538563D01*
X171458807Y-84396039D01*
X171458808Y-84396038D01*
X171595908Y-84144958D01*
X171695890Y-83876895D01*
X171756699Y-83597362D01*
X171777109Y-83312001D01*
X171777109Y-83311998D01*
X174270891Y-83311998D01*
X174270891Y-83312001D01*
X174291300Y-83597362D01*
X174352109Y-83876895D01*
X174452091Y-84144958D01*
X174589191Y-84396038D01*
X174589196Y-84396046D01*
X174695882Y-84538562D01*
X174695883Y-84538563D01*
X175674958Y-83559488D01*
X175699978Y-83619890D01*
X175771112Y-83726351D01*
X175861649Y-83816888D01*
X175968110Y-83888022D01*
X176028511Y-83913041D01*
X175049435Y-84892115D01*
X175049436Y-84892116D01*
X175191953Y-84998803D01*
X175191961Y-84998808D01*
X175443042Y-85135908D01*
X175443041Y-85135908D01*
X175711104Y-85235890D01*
X175990637Y-85296699D01*
X176275999Y-85317109D01*
X176276001Y-85317109D01*
X176561362Y-85296699D01*
X176840895Y-85235890D01*
X177108958Y-85135908D01*
X177360038Y-84998808D01*
X177360039Y-84998807D01*
X177502563Y-84892115D01*
X176523488Y-83913041D01*
X176583890Y-83888022D01*
X176690351Y-83816888D01*
X176780888Y-83726351D01*
X176852022Y-83619890D01*
X176877041Y-83559488D01*
X177856115Y-84538563D01*
X177962807Y-84396039D01*
X177962808Y-84396038D01*
X178099908Y-84144958D01*
X178199890Y-83876895D01*
X178260699Y-83597362D01*
X178281109Y-83312001D01*
X178281109Y-83311998D01*
X178260699Y-83026637D01*
X178199890Y-82747104D01*
X178099908Y-82479041D01*
X177962808Y-82227961D01*
X177962803Y-82227953D01*
X177856116Y-82085436D01*
X177856115Y-82085435D01*
X176877041Y-83064510D01*
X176852022Y-83004110D01*
X176780888Y-82897649D01*
X176690351Y-82807112D01*
X176583890Y-82735978D01*
X176523487Y-82710958D01*
X177502563Y-81731883D01*
X177502562Y-81731882D01*
X177360046Y-81625196D01*
X177360038Y-81625191D01*
X177108957Y-81488091D01*
X177108958Y-81488091D01*
X176840895Y-81388109D01*
X176561362Y-81327300D01*
X176276001Y-81306891D01*
X176275999Y-81306891D01*
X175990637Y-81327300D01*
X175711104Y-81388109D01*
X175443041Y-81488091D01*
X175191961Y-81625191D01*
X175191953Y-81625196D01*
X175049435Y-81731882D01*
X176028512Y-82710958D01*
X175968110Y-82735978D01*
X175861649Y-82807112D01*
X175771112Y-82897649D01*
X175699978Y-83004110D01*
X175674958Y-83064511D01*
X174695882Y-82085435D01*
X174589196Y-82227953D01*
X174589191Y-82227961D01*
X174452091Y-82479041D01*
X174352109Y-82747104D01*
X174291300Y-83026637D01*
X174270891Y-83311998D01*
X171777109Y-83311998D01*
X171756699Y-83026637D01*
X171695890Y-82747104D01*
X171595908Y-82479041D01*
X171458808Y-82227961D01*
X171458803Y-82227953D01*
X171352116Y-82085436D01*
X171352115Y-82085435D01*
X170373041Y-83064510D01*
X170348022Y-83004110D01*
X170276888Y-82897649D01*
X170186351Y-82807112D01*
X170079890Y-82735978D01*
X170019487Y-82710958D01*
X170998563Y-81731883D01*
X170998562Y-81731882D01*
X170856046Y-81625196D01*
X170856038Y-81625191D01*
X170604957Y-81488091D01*
X170604958Y-81488091D01*
X170336895Y-81388109D01*
X170057362Y-81327300D01*
X169772001Y-81306891D01*
X169771999Y-81306891D01*
X169486637Y-81327300D01*
X169207104Y-81388109D01*
X168939041Y-81488091D01*
X168687961Y-81625191D01*
X168687953Y-81625196D01*
X168545435Y-81731882D01*
X169524512Y-82710958D01*
X169464110Y-82735978D01*
X169357649Y-82807112D01*
X169267112Y-82897649D01*
X169195978Y-83004110D01*
X169170958Y-83064511D01*
X168191882Y-82085435D01*
X168085196Y-82227953D01*
X168085191Y-82227961D01*
X167948091Y-82479041D01*
X167848109Y-82747104D01*
X167787300Y-83026637D01*
X167766891Y-83311998D01*
X99748398Y-83311998D01*
X99817334Y-83118032D01*
X99875798Y-82836686D01*
X99895408Y-82550000D01*
X99875798Y-82263314D01*
X99817334Y-81981968D01*
X99721105Y-81711206D01*
X99721106Y-81711206D01*
X99588901Y-81456064D01*
X99423187Y-81221299D01*
X99344554Y-81137105D01*
X99227053Y-81011292D01*
X99004147Y-80829945D01*
X99004146Y-80829944D01*
X98758617Y-80680634D01*
X98495063Y-80566158D01*
X98495061Y-80566157D01*
X98495058Y-80566156D01*
X98365578Y-80529877D01*
X98218364Y-80488630D01*
X98218359Y-80488629D01*
X98218358Y-80488629D01*
X98076018Y-80469064D01*
X97933679Y-80449500D01*
X97933678Y-80449500D01*
X97646322Y-80449500D01*
X97646321Y-80449500D01*
X97361642Y-80488629D01*
X97361635Y-80488630D01*
X97153861Y-80546845D01*
X97084942Y-80566156D01*
X97084939Y-80566156D01*
X97084936Y-80566158D01*
X97084935Y-80566158D01*
X96821382Y-80680634D01*
X96575853Y-80829944D01*
X96352950Y-81011289D01*
X96156812Y-81221299D01*
X95991098Y-81456064D01*
X95858894Y-81711206D01*
X95762667Y-81981962D01*
X95762666Y-81981965D01*
X95704201Y-82263319D01*
X95684592Y-82550000D01*
X85163408Y-82550000D01*
X85143798Y-82263314D01*
X85085334Y-81981968D01*
X84989105Y-81711206D01*
X84989106Y-81711206D01*
X84856901Y-81456064D01*
X84691187Y-81221299D01*
X84612554Y-81137105D01*
X84495053Y-81011292D01*
X84272147Y-80829945D01*
X84272146Y-80829944D01*
X84026617Y-80680634D01*
X83763063Y-80566158D01*
X83763061Y-80566157D01*
X83763058Y-80566156D01*
X83633578Y-80529877D01*
X83486364Y-80488630D01*
X83486359Y-80488629D01*
X83486358Y-80488629D01*
X83344018Y-80469064D01*
X83201679Y-80449500D01*
X83201678Y-80449500D01*
X82914322Y-80449500D01*
X82914321Y-80449500D01*
X82629642Y-80488629D01*
X82629635Y-80488630D01*
X82421861Y-80546845D01*
X82352942Y-80566156D01*
X82352939Y-80566156D01*
X82352936Y-80566158D01*
X82352935Y-80566158D01*
X82089382Y-80680634D01*
X81843853Y-80829944D01*
X81620950Y-81011289D01*
X81424812Y-81221299D01*
X81259098Y-81456064D01*
X81126894Y-81711206D01*
X81030667Y-81981962D01*
X81030666Y-81981965D01*
X80972201Y-82263319D01*
X80952592Y-82550000D01*
X76454000Y-82550000D01*
X76454000Y-79755995D01*
X112595233Y-79755995D01*
X112595233Y-79756000D01*
X112614273Y-80010079D01*
X112670968Y-80258477D01*
X112670973Y-80258494D01*
X112764058Y-80495671D01*
X112764057Y-80495671D01*
X112891457Y-80716332D01*
X112933452Y-80768993D01*
X113735387Y-79967058D01*
X113740889Y-79987591D01*
X113819881Y-80124408D01*
X113931592Y-80236119D01*
X114068409Y-80315111D01*
X114088940Y-80320612D01*
X113286813Y-81122737D01*
X113447623Y-81232375D01*
X113447624Y-81232376D01*
X113677176Y-81342921D01*
X113677174Y-81342921D01*
X113920652Y-81418024D01*
X113920658Y-81418026D01*
X114172595Y-81455999D01*
X114172604Y-81456000D01*
X114427396Y-81456000D01*
X114427404Y-81455999D01*
X114679341Y-81418026D01*
X114679347Y-81418024D01*
X114922824Y-81342921D01*
X115152381Y-81232373D01*
X115313185Y-81122737D01*
X114511059Y-80320612D01*
X114531591Y-80315111D01*
X114668408Y-80236119D01*
X114780119Y-80124408D01*
X114859111Y-79987591D01*
X114864612Y-79967059D01*
X115666545Y-80768993D01*
X115708545Y-80716327D01*
X115835941Y-80495671D01*
X115929026Y-80258494D01*
X115929031Y-80258477D01*
X115985726Y-80010079D01*
X116004767Y-79756000D01*
X116004767Y-79755995D01*
X133423233Y-79755995D01*
X133423233Y-79756000D01*
X133442273Y-80010079D01*
X133498968Y-80258477D01*
X133498973Y-80258494D01*
X133592058Y-80495671D01*
X133592057Y-80495671D01*
X133719457Y-80716332D01*
X133761452Y-80768993D01*
X134563387Y-79967058D01*
X134568889Y-79987591D01*
X134647881Y-80124408D01*
X134759592Y-80236119D01*
X134896409Y-80315111D01*
X134916940Y-80320612D01*
X134114813Y-81122737D01*
X134275623Y-81232375D01*
X134275624Y-81232376D01*
X134505176Y-81342921D01*
X134505174Y-81342921D01*
X134748652Y-81418024D01*
X134748658Y-81418026D01*
X135000595Y-81455999D01*
X135000604Y-81456000D01*
X135255396Y-81456000D01*
X135255404Y-81455999D01*
X135507341Y-81418026D01*
X135507347Y-81418024D01*
X135750824Y-81342921D01*
X135980381Y-81232373D01*
X136141185Y-81122737D01*
X135339059Y-80320612D01*
X135359591Y-80315111D01*
X135496408Y-80236119D01*
X135608119Y-80124408D01*
X135687111Y-79987591D01*
X135692612Y-79967059D01*
X136494545Y-80768993D01*
X136536545Y-80716327D01*
X136663941Y-80495671D01*
X136757026Y-80258494D01*
X136757031Y-80258477D01*
X136813726Y-80010079D01*
X136832767Y-79756000D01*
X136832767Y-79755995D01*
X136823774Y-79635995D01*
X153997233Y-79635995D01*
X153997233Y-79636004D01*
X154016273Y-79890079D01*
X154072968Y-80138477D01*
X154072973Y-80138494D01*
X154166058Y-80375671D01*
X154166057Y-80375671D01*
X154293457Y-80596332D01*
X154335452Y-80648993D01*
X155137387Y-79847058D01*
X155142889Y-79867591D01*
X155221881Y-80004408D01*
X155333592Y-80116119D01*
X155470409Y-80195111D01*
X155490940Y-80200612D01*
X154688813Y-81002737D01*
X154849623Y-81112375D01*
X154849624Y-81112376D01*
X155079176Y-81222921D01*
X155079174Y-81222921D01*
X155322652Y-81298024D01*
X155322658Y-81298026D01*
X155574595Y-81335999D01*
X155574604Y-81336000D01*
X155829396Y-81336000D01*
X155829404Y-81335999D01*
X156081341Y-81298026D01*
X156081347Y-81298024D01*
X156324824Y-81222921D01*
X156554381Y-81112373D01*
X156715185Y-81002737D01*
X155913059Y-80200612D01*
X155933591Y-80195111D01*
X156070408Y-80116119D01*
X156182119Y-80004408D01*
X156261111Y-79867591D01*
X156266612Y-79847060D01*
X157068545Y-80648993D01*
X157110545Y-80596327D01*
X157237941Y-80375671D01*
X157331026Y-80138494D01*
X157331031Y-80138477D01*
X157387726Y-79890079D01*
X157406767Y-79636004D01*
X157406767Y-79635995D01*
X157387726Y-79381920D01*
X157331031Y-79133522D01*
X157331026Y-79133505D01*
X157237941Y-78896328D01*
X157237942Y-78896328D01*
X157110544Y-78675671D01*
X157068546Y-78623006D01*
X156266612Y-79424939D01*
X156261111Y-79404409D01*
X156182119Y-79267592D01*
X156070408Y-79155881D01*
X155933591Y-79076889D01*
X155913058Y-79071387D01*
X156715185Y-78269261D01*
X156554377Y-78159624D01*
X156554376Y-78159623D01*
X156324823Y-78049078D01*
X156324825Y-78049078D01*
X156081347Y-77973975D01*
X156081341Y-77973973D01*
X155829404Y-77936000D01*
X155574595Y-77936000D01*
X155322658Y-77973973D01*
X155322652Y-77973975D01*
X155079175Y-78049078D01*
X154849624Y-78159623D01*
X154849616Y-78159628D01*
X154688813Y-78269261D01*
X155490940Y-79071387D01*
X155470409Y-79076889D01*
X155333592Y-79155881D01*
X155221881Y-79267592D01*
X155142889Y-79404409D01*
X155137387Y-79424940D01*
X154335453Y-78623006D01*
X154293455Y-78675670D01*
X154166058Y-78896328D01*
X154072973Y-79133505D01*
X154072968Y-79133522D01*
X154016273Y-79381920D01*
X153997233Y-79635995D01*
X136823774Y-79635995D01*
X136813726Y-79501920D01*
X136757031Y-79253522D01*
X136757026Y-79253505D01*
X136663941Y-79016328D01*
X136663942Y-79016328D01*
X136536544Y-78795671D01*
X136494546Y-78743006D01*
X135692612Y-79544939D01*
X135687111Y-79524409D01*
X135608119Y-79387592D01*
X135496408Y-79275881D01*
X135359591Y-79196889D01*
X135339058Y-79191387D01*
X136141185Y-78389261D01*
X135980377Y-78279624D01*
X135980376Y-78279623D01*
X135750823Y-78169078D01*
X135750825Y-78169078D01*
X135507347Y-78093975D01*
X135507341Y-78093973D01*
X135255404Y-78056000D01*
X135000595Y-78056000D01*
X134748658Y-78093973D01*
X134748652Y-78093975D01*
X134505175Y-78169078D01*
X134275624Y-78279623D01*
X134275616Y-78279628D01*
X134114813Y-78389261D01*
X134916940Y-79191387D01*
X134896409Y-79196889D01*
X134759592Y-79275881D01*
X134647881Y-79387592D01*
X134568889Y-79524409D01*
X134563387Y-79544940D01*
X133761453Y-78743006D01*
X133719455Y-78795670D01*
X133592058Y-79016328D01*
X133498973Y-79253505D01*
X133498968Y-79253522D01*
X133442273Y-79501920D01*
X133423233Y-79755995D01*
X116004767Y-79755995D01*
X115985726Y-79501920D01*
X115929031Y-79253522D01*
X115929026Y-79253505D01*
X115835941Y-79016328D01*
X115835942Y-79016328D01*
X115708544Y-78795671D01*
X115666546Y-78743006D01*
X114864612Y-79544939D01*
X114859111Y-79524409D01*
X114780119Y-79387592D01*
X114668408Y-79275881D01*
X114531591Y-79196889D01*
X114511058Y-79191387D01*
X115313185Y-78389261D01*
X115152377Y-78279624D01*
X115152376Y-78279623D01*
X114922823Y-78169078D01*
X114922825Y-78169078D01*
X114679347Y-78093975D01*
X114679341Y-78093973D01*
X114427404Y-78056000D01*
X114172595Y-78056000D01*
X113920658Y-78093973D01*
X113920652Y-78093975D01*
X113677175Y-78169078D01*
X113447624Y-78279623D01*
X113447616Y-78279628D01*
X113286813Y-78389261D01*
X114088940Y-79191387D01*
X114068409Y-79196889D01*
X113931592Y-79275881D01*
X113819881Y-79387592D01*
X113740889Y-79524409D01*
X113735387Y-79544940D01*
X112933453Y-78743006D01*
X112891455Y-78795670D01*
X112764058Y-79016328D01*
X112670973Y-79253505D01*
X112670968Y-79253522D01*
X112614273Y-79501920D01*
X112595233Y-79755995D01*
X76454000Y-79755995D01*
X76454000Y-74168000D01*
X108877205Y-74168000D01*
X108916417Y-74174363D01*
G37*
%TD.AperFunction*%
%TD*%
%TA.AperFunction,Conductor*%
%TO.N,GND*%
G36*
X75469677Y-61995685D02*
G01*
X75490319Y-62012319D01*
X76417681Y-62939681D01*
X76451166Y-63001004D01*
X76454000Y-63027362D01*
X76454000Y-99297999D01*
X76454000Y-107660638D01*
X76434315Y-107727677D01*
X76417681Y-107748319D01*
X75490319Y-108675681D01*
X75428996Y-108709166D01*
X75402638Y-108712000D01*
X64297362Y-108712000D01*
X64230323Y-108692315D01*
X64209681Y-108675681D01*
X63282319Y-107748319D01*
X63248834Y-107686996D01*
X63246000Y-107660638D01*
X63246000Y-104526711D01*
X65459500Y-104526711D01*
X65459500Y-104769288D01*
X65491161Y-105009785D01*
X65553947Y-105244104D01*
X65646773Y-105468205D01*
X65646776Y-105468212D01*
X65768064Y-105678289D01*
X65768066Y-105678292D01*
X65768067Y-105678293D01*
X65915733Y-105870736D01*
X65915739Y-105870743D01*
X66087256Y-106042260D01*
X66087262Y-106042265D01*
X66279711Y-106189936D01*
X66489788Y-106311224D01*
X66713900Y-106404054D01*
X66948211Y-106466838D01*
X67128586Y-106490584D01*
X67188711Y-106498500D01*
X67188712Y-106498500D01*
X67431289Y-106498500D01*
X67479388Y-106492167D01*
X67671789Y-106466838D01*
X67906100Y-106404054D01*
X68130212Y-106311224D01*
X68340289Y-106189936D01*
X68532738Y-106042265D01*
X68704265Y-105870738D01*
X68851936Y-105678289D01*
X68973224Y-105468212D01*
X69066054Y-105244100D01*
X69128838Y-105009789D01*
X69160500Y-104769288D01*
X69160500Y-104526712D01*
X69128838Y-104286211D01*
X69066054Y-104051900D01*
X68973224Y-103827788D01*
X68851936Y-103617711D01*
X68704265Y-103425262D01*
X68704260Y-103425256D01*
X68532743Y-103253739D01*
X68532736Y-103253733D01*
X68340293Y-103106067D01*
X68340292Y-103106066D01*
X68340289Y-103106064D01*
X68130212Y-102984776D01*
X68130205Y-102984773D01*
X67906104Y-102891947D01*
X67671785Y-102829161D01*
X67431289Y-102797500D01*
X67431288Y-102797500D01*
X67188712Y-102797500D01*
X67188711Y-102797500D01*
X66948214Y-102829161D01*
X66713895Y-102891947D01*
X66489794Y-102984773D01*
X66489785Y-102984777D01*
X66279706Y-103106067D01*
X66087263Y-103253733D01*
X66087256Y-103253739D01*
X65915739Y-103425256D01*
X65915733Y-103425263D01*
X65768067Y-103617706D01*
X65646777Y-103827785D01*
X65646773Y-103827794D01*
X65553947Y-104051895D01*
X65491161Y-104286214D01*
X65459500Y-104526711D01*
X63246000Y-104526711D01*
X63246000Y-97027998D01*
X65050390Y-97027998D01*
X65050390Y-97028001D01*
X65070804Y-97313433D01*
X65131628Y-97593037D01*
X65231635Y-97861166D01*
X65368770Y-98112309D01*
X65368775Y-98112317D01*
X65540254Y-98341387D01*
X65540270Y-98341405D01*
X65742594Y-98543729D01*
X65742612Y-98543745D01*
X65971682Y-98715224D01*
X65971690Y-98715229D01*
X66222833Y-98852364D01*
X66222832Y-98852364D01*
X66222836Y-98852365D01*
X66222839Y-98852367D01*
X66490954Y-98952369D01*
X66490960Y-98952370D01*
X66490962Y-98952371D01*
X66770566Y-99013195D01*
X66770568Y-99013195D01*
X66770572Y-99013196D01*
X67024220Y-99031337D01*
X67055999Y-99033610D01*
X67056000Y-99033610D01*
X67056001Y-99033610D01*
X67084595Y-99031564D01*
X67341428Y-99013196D01*
X67621046Y-98952369D01*
X67889161Y-98852367D01*
X68140315Y-98715226D01*
X68369395Y-98543739D01*
X68571739Y-98341395D01*
X68743226Y-98112315D01*
X68880367Y-97861161D01*
X68980369Y-97593046D01*
X69041196Y-97313428D01*
X69061610Y-97028000D01*
X69061610Y-97027998D01*
X70130390Y-97027998D01*
X70130390Y-97028001D01*
X70150804Y-97313433D01*
X70211628Y-97593037D01*
X70311635Y-97861166D01*
X70448770Y-98112309D01*
X70448775Y-98112317D01*
X70620254Y-98341387D01*
X70620270Y-98341405D01*
X70822594Y-98543729D01*
X70822612Y-98543745D01*
X71051682Y-98715224D01*
X71051690Y-98715229D01*
X71302833Y-98852364D01*
X71302832Y-98852364D01*
X71302836Y-98852365D01*
X71302839Y-98852367D01*
X71570954Y-98952369D01*
X71570960Y-98952370D01*
X71570962Y-98952371D01*
X71850566Y-99013195D01*
X71850568Y-99013195D01*
X71850572Y-99013196D01*
X72104220Y-99031337D01*
X72135999Y-99033610D01*
X72136000Y-99033610D01*
X72136001Y-99033610D01*
X72164595Y-99031564D01*
X72421428Y-99013196D01*
X72701046Y-98952369D01*
X72969161Y-98852367D01*
X73220315Y-98715226D01*
X73449395Y-98543739D01*
X73651739Y-98341395D01*
X73823226Y-98112315D01*
X73960367Y-97861161D01*
X74060369Y-97593046D01*
X74121196Y-97313428D01*
X74141610Y-97028000D01*
X74121196Y-96742572D01*
X74060369Y-96462954D01*
X73960367Y-96194839D01*
X73823226Y-95943685D01*
X73823224Y-95943682D01*
X73651745Y-95714612D01*
X73651729Y-95714594D01*
X73449405Y-95512270D01*
X73449387Y-95512254D01*
X73220317Y-95340775D01*
X73220309Y-95340770D01*
X72969166Y-95203635D01*
X72969167Y-95203635D01*
X72861915Y-95163632D01*
X72701046Y-95103631D01*
X72701043Y-95103630D01*
X72701037Y-95103628D01*
X72421433Y-95042804D01*
X72136001Y-95022390D01*
X72135999Y-95022390D01*
X71850566Y-95042804D01*
X71570962Y-95103628D01*
X71302833Y-95203635D01*
X71051690Y-95340770D01*
X71051682Y-95340775D01*
X70822612Y-95512254D01*
X70822594Y-95512270D01*
X70620270Y-95714594D01*
X70620254Y-95714612D01*
X70448775Y-95943682D01*
X70448770Y-95943690D01*
X70311635Y-96194833D01*
X70211628Y-96462962D01*
X70150804Y-96742566D01*
X70130390Y-97027998D01*
X69061610Y-97027998D01*
X69041196Y-96742572D01*
X68980369Y-96462954D01*
X68880367Y-96194839D01*
X68743226Y-95943685D01*
X68743224Y-95943682D01*
X68571745Y-95714612D01*
X68571729Y-95714594D01*
X68369405Y-95512270D01*
X68369387Y-95512254D01*
X68140317Y-95340775D01*
X68140309Y-95340770D01*
X67889166Y-95203635D01*
X67889167Y-95203635D01*
X67781915Y-95163632D01*
X67621046Y-95103631D01*
X67621043Y-95103630D01*
X67621037Y-95103628D01*
X67341433Y-95042804D01*
X67056001Y-95022390D01*
X67055999Y-95022390D01*
X66770566Y-95042804D01*
X66490962Y-95103628D01*
X66222833Y-95203635D01*
X65971690Y-95340770D01*
X65971682Y-95340775D01*
X65742612Y-95512254D01*
X65742594Y-95512270D01*
X65540270Y-95714594D01*
X65540254Y-95714612D01*
X65368775Y-95943682D01*
X65368770Y-95943690D01*
X65231635Y-96194833D01*
X65131628Y-96462962D01*
X65070804Y-96742566D01*
X65050390Y-97027998D01*
X63246000Y-97027998D01*
X63246000Y-85343998D01*
X65304891Y-85343998D01*
X65304891Y-85344001D01*
X65325300Y-85629362D01*
X65386109Y-85908895D01*
X65486091Y-86176958D01*
X65623191Y-86428038D01*
X65623196Y-86428046D01*
X65729882Y-86570562D01*
X65729883Y-86570563D01*
X66708958Y-85591488D01*
X66733978Y-85651890D01*
X66805112Y-85758351D01*
X66895649Y-85848888D01*
X67002110Y-85920022D01*
X67062511Y-85945041D01*
X66083435Y-86924115D01*
X66083436Y-86924116D01*
X66225953Y-87030803D01*
X66225961Y-87030808D01*
X66477042Y-87167908D01*
X66477041Y-87167908D01*
X66745104Y-87267890D01*
X67024637Y-87328699D01*
X67309999Y-87349109D01*
X67310001Y-87349109D01*
X67595362Y-87328699D01*
X67874895Y-87267890D01*
X68142958Y-87167908D01*
X68394038Y-87030808D01*
X68394039Y-87030807D01*
X68536563Y-86924115D01*
X67557488Y-85945041D01*
X67617890Y-85920022D01*
X67724351Y-85848888D01*
X67814888Y-85758351D01*
X67886022Y-85651890D01*
X67911041Y-85591488D01*
X68890115Y-86570563D01*
X68996807Y-86428039D01*
X68996808Y-86428038D01*
X69133908Y-86176958D01*
X69233890Y-85908895D01*
X69294699Y-85629362D01*
X69315109Y-85344001D01*
X69315109Y-85343998D01*
X70384891Y-85343998D01*
X70384891Y-85344001D01*
X70405300Y-85629362D01*
X70466109Y-85908895D01*
X70566091Y-86176958D01*
X70703191Y-86428038D01*
X70703196Y-86428046D01*
X70809882Y-86570562D01*
X70809883Y-86570563D01*
X71788958Y-85591488D01*
X71813978Y-85651890D01*
X71885112Y-85758351D01*
X71975649Y-85848888D01*
X72082110Y-85920022D01*
X72142511Y-85945041D01*
X71163435Y-86924115D01*
X71163436Y-86924116D01*
X71305953Y-87030803D01*
X71305961Y-87030808D01*
X71557042Y-87167908D01*
X71557041Y-87167908D01*
X71825104Y-87267890D01*
X72104637Y-87328699D01*
X72389999Y-87349109D01*
X72390001Y-87349109D01*
X72675362Y-87328699D01*
X72954895Y-87267890D01*
X73222958Y-87167908D01*
X73474038Y-87030808D01*
X73474039Y-87030807D01*
X73616563Y-86924115D01*
X72637488Y-85945041D01*
X72697890Y-85920022D01*
X72804351Y-85848888D01*
X72894888Y-85758351D01*
X72966022Y-85651890D01*
X72991041Y-85591488D01*
X73970115Y-86570563D01*
X74076807Y-86428039D01*
X74076808Y-86428038D01*
X74213908Y-86176958D01*
X74313890Y-85908895D01*
X74374699Y-85629362D01*
X74395109Y-85344001D01*
X74395109Y-85343998D01*
X74374699Y-85058637D01*
X74313890Y-84779104D01*
X74213908Y-84511041D01*
X74076808Y-84259961D01*
X74076803Y-84259953D01*
X73970116Y-84117436D01*
X73970115Y-84117435D01*
X72991041Y-85096510D01*
X72966022Y-85036110D01*
X72894888Y-84929649D01*
X72804351Y-84839112D01*
X72697890Y-84767978D01*
X72637487Y-84742958D01*
X73616563Y-83763883D01*
X73616562Y-83763882D01*
X73474046Y-83657196D01*
X73474038Y-83657191D01*
X73222957Y-83520091D01*
X73222958Y-83520091D01*
X72954895Y-83420109D01*
X72675362Y-83359300D01*
X72390001Y-83338891D01*
X72389999Y-83338891D01*
X72104637Y-83359300D01*
X71825104Y-83420109D01*
X71557041Y-83520091D01*
X71305961Y-83657191D01*
X71305953Y-83657196D01*
X71163435Y-83763882D01*
X72142512Y-84742958D01*
X72082110Y-84767978D01*
X71975649Y-84839112D01*
X71885112Y-84929649D01*
X71813978Y-85036110D01*
X71788958Y-85096511D01*
X70809882Y-84117435D01*
X70703196Y-84259953D01*
X70703191Y-84259961D01*
X70566091Y-84511041D01*
X70466109Y-84779104D01*
X70405300Y-85058637D01*
X70384891Y-85343998D01*
X69315109Y-85343998D01*
X69294699Y-85058637D01*
X69233890Y-84779104D01*
X69133908Y-84511041D01*
X68996808Y-84259961D01*
X68996803Y-84259953D01*
X68890116Y-84117436D01*
X68890115Y-84117435D01*
X67911041Y-85096510D01*
X67886022Y-85036110D01*
X67814888Y-84929649D01*
X67724351Y-84839112D01*
X67617890Y-84767978D01*
X67557487Y-84742958D01*
X68536563Y-83763883D01*
X68536562Y-83763882D01*
X68394046Y-83657196D01*
X68394038Y-83657191D01*
X68142957Y-83520091D01*
X68142958Y-83520091D01*
X67874895Y-83420109D01*
X67595362Y-83359300D01*
X67310001Y-83338891D01*
X67309999Y-83338891D01*
X67024637Y-83359300D01*
X66745104Y-83420109D01*
X66477041Y-83520091D01*
X66225961Y-83657191D01*
X66225953Y-83657196D01*
X66083435Y-83763882D01*
X67062512Y-84742958D01*
X67002110Y-84767978D01*
X66895649Y-84839112D01*
X66805112Y-84929649D01*
X66733978Y-85036110D01*
X66708958Y-85096511D01*
X65729882Y-84117435D01*
X65623196Y-84259953D01*
X65623191Y-84259961D01*
X65486091Y-84511041D01*
X65386109Y-84779104D01*
X65325300Y-85058637D01*
X65304891Y-85343998D01*
X63246000Y-85343998D01*
X63246000Y-74267998D01*
X65304390Y-74267998D01*
X65304390Y-74268001D01*
X65324804Y-74553433D01*
X65385628Y-74833037D01*
X65485635Y-75101166D01*
X65622770Y-75352309D01*
X65622775Y-75352317D01*
X65794254Y-75581387D01*
X65794270Y-75581405D01*
X65996594Y-75783729D01*
X65996612Y-75783745D01*
X66225682Y-75955224D01*
X66225690Y-75955229D01*
X66476833Y-76092364D01*
X66476832Y-76092364D01*
X66476836Y-76092365D01*
X66476839Y-76092367D01*
X66744954Y-76192369D01*
X66744960Y-76192370D01*
X66744962Y-76192371D01*
X67024566Y-76253195D01*
X67024568Y-76253195D01*
X67024572Y-76253196D01*
X67278220Y-76271337D01*
X67309999Y-76273610D01*
X67310000Y-76273610D01*
X67310001Y-76273610D01*
X67338595Y-76271564D01*
X67595428Y-76253196D01*
X67875046Y-76192369D01*
X68143161Y-76092367D01*
X68394315Y-75955226D01*
X68623395Y-75783739D01*
X68825739Y-75581395D01*
X68997226Y-75352315D01*
X69134367Y-75101161D01*
X69234369Y-74833046D01*
X69295196Y-74553428D01*
X69315610Y-74268000D01*
X69315610Y-74267998D01*
X70384390Y-74267998D01*
X70384390Y-74268001D01*
X70404804Y-74553433D01*
X70465628Y-74833037D01*
X70565635Y-75101166D01*
X70702770Y-75352309D01*
X70702775Y-75352317D01*
X70874254Y-75581387D01*
X70874270Y-75581405D01*
X71076594Y-75783729D01*
X71076612Y-75783745D01*
X71305682Y-75955224D01*
X71305690Y-75955229D01*
X71556833Y-76092364D01*
X71556832Y-76092364D01*
X71556836Y-76092365D01*
X71556839Y-76092367D01*
X71824954Y-76192369D01*
X71824960Y-76192370D01*
X71824962Y-76192371D01*
X72104566Y-76253195D01*
X72104568Y-76253195D01*
X72104572Y-76253196D01*
X72358220Y-76271337D01*
X72389999Y-76273610D01*
X72390000Y-76273610D01*
X72390001Y-76273610D01*
X72418595Y-76271564D01*
X72675428Y-76253196D01*
X72955046Y-76192369D01*
X73223161Y-76092367D01*
X73474315Y-75955226D01*
X73703395Y-75783739D01*
X73905739Y-75581395D01*
X74077226Y-75352315D01*
X74214367Y-75101161D01*
X74314369Y-74833046D01*
X74375196Y-74553428D01*
X74395610Y-74268000D01*
X74375196Y-73982572D01*
X74314369Y-73702954D01*
X74214367Y-73434839D01*
X74077226Y-73183685D01*
X74077224Y-73183682D01*
X73905745Y-72954612D01*
X73905729Y-72954594D01*
X73703405Y-72752270D01*
X73703387Y-72752254D01*
X73474317Y-72580775D01*
X73474309Y-72580770D01*
X73223166Y-72443635D01*
X73223167Y-72443635D01*
X73115915Y-72403632D01*
X72955046Y-72343631D01*
X72955043Y-72343630D01*
X72955037Y-72343628D01*
X72675433Y-72282804D01*
X72390001Y-72262390D01*
X72389999Y-72262390D01*
X72104566Y-72282804D01*
X71824962Y-72343628D01*
X71556833Y-72443635D01*
X71305690Y-72580770D01*
X71305682Y-72580775D01*
X71076612Y-72752254D01*
X71076594Y-72752270D01*
X70874270Y-72954594D01*
X70874254Y-72954612D01*
X70702775Y-73183682D01*
X70702770Y-73183690D01*
X70565635Y-73434833D01*
X70465628Y-73702962D01*
X70404804Y-73982566D01*
X70384390Y-74267998D01*
X69315610Y-74267998D01*
X69295196Y-73982572D01*
X69234369Y-73702954D01*
X69134367Y-73434839D01*
X68997226Y-73183685D01*
X68997224Y-73183682D01*
X68825745Y-72954612D01*
X68825729Y-72954594D01*
X68623405Y-72752270D01*
X68623387Y-72752254D01*
X68394317Y-72580775D01*
X68394309Y-72580770D01*
X68143166Y-72443635D01*
X68143167Y-72443635D01*
X68035915Y-72403632D01*
X67875046Y-72343631D01*
X67875043Y-72343630D01*
X67875037Y-72343628D01*
X67595433Y-72282804D01*
X67310001Y-72262390D01*
X67309999Y-72262390D01*
X67024566Y-72282804D01*
X66744962Y-72343628D01*
X66476833Y-72443635D01*
X66225690Y-72580770D01*
X66225682Y-72580775D01*
X65996612Y-72752254D01*
X65996594Y-72752270D01*
X65794270Y-72954594D01*
X65794254Y-72954612D01*
X65622775Y-73183682D01*
X65622770Y-73183690D01*
X65485635Y-73434833D01*
X65385628Y-73702962D01*
X65324804Y-73982566D01*
X65304390Y-74267998D01*
X63246000Y-74267998D01*
X63246000Y-66172711D01*
X65459500Y-66172711D01*
X65459500Y-66415288D01*
X65491161Y-66655785D01*
X65553947Y-66890104D01*
X65646773Y-67114205D01*
X65646776Y-67114212D01*
X65768064Y-67324289D01*
X65768066Y-67324292D01*
X65768067Y-67324293D01*
X65915733Y-67516736D01*
X65915739Y-67516743D01*
X66087256Y-67688260D01*
X66087262Y-67688265D01*
X66279711Y-67835936D01*
X66489788Y-67957224D01*
X66713900Y-68050054D01*
X66948211Y-68112838D01*
X67128586Y-68136584D01*
X67188711Y-68144500D01*
X67188712Y-68144500D01*
X67431289Y-68144500D01*
X67479388Y-68138167D01*
X67671789Y-68112838D01*
X67906100Y-68050054D01*
X68130212Y-67957224D01*
X68340289Y-67835936D01*
X68532738Y-67688265D01*
X68704265Y-67516738D01*
X68851936Y-67324289D01*
X68973224Y-67114212D01*
X69066054Y-66890100D01*
X69128838Y-66655789D01*
X69160500Y-66415288D01*
X69160500Y-66172712D01*
X69128838Y-65932211D01*
X69066054Y-65697900D01*
X68973224Y-65473788D01*
X68851936Y-65263711D01*
X68704265Y-65071262D01*
X68704260Y-65071256D01*
X68532743Y-64899739D01*
X68532736Y-64899733D01*
X68340293Y-64752067D01*
X68340292Y-64752066D01*
X68340289Y-64752064D01*
X68130212Y-64630776D01*
X68130205Y-64630773D01*
X67906104Y-64537947D01*
X67671785Y-64475161D01*
X67431289Y-64443500D01*
X67431288Y-64443500D01*
X67188712Y-64443500D01*
X67188711Y-64443500D01*
X66948214Y-64475161D01*
X66713895Y-64537947D01*
X66489794Y-64630773D01*
X66489785Y-64630777D01*
X66279706Y-64752067D01*
X66087263Y-64899733D01*
X66087256Y-64899739D01*
X65915739Y-65071256D01*
X65915733Y-65071263D01*
X65768067Y-65263706D01*
X65646777Y-65473785D01*
X65646773Y-65473794D01*
X65553947Y-65697895D01*
X65491161Y-65932214D01*
X65459500Y-66172711D01*
X63246000Y-66172711D01*
X63246000Y-63027362D01*
X63265685Y-62960323D01*
X63282319Y-62939681D01*
X64209681Y-62012319D01*
X64271004Y-61978834D01*
X64297362Y-61976000D01*
X75402638Y-61976000D01*
X75469677Y-61995685D01*
G37*
%TD.AperFunction*%
%TD*%
%TA.AperFunction,Conductor*%
%TO.N,GND*%
G36*
X190277677Y-62249685D02*
G01*
X190298319Y-62266319D01*
X191225681Y-63193681D01*
X191259166Y-63255004D01*
X191262000Y-63281362D01*
X191262000Y-91769638D01*
X191242315Y-91836677D01*
X191225681Y-91857319D01*
X190663319Y-92419681D01*
X190601996Y-92453166D01*
X190575638Y-92456000D01*
X189992000Y-92456000D01*
X181610000Y-92391086D01*
X181610000Y-87004155D01*
X183163000Y-87004155D01*
X183163000Y-88102000D01*
X184362999Y-88102000D01*
X184337979Y-88162402D01*
X184313000Y-88287981D01*
X184313000Y-88416019D01*
X184337979Y-88541598D01*
X184362999Y-88602000D01*
X183163000Y-88602000D01*
X183163000Y-89699844D01*
X183169401Y-89759372D01*
X183169403Y-89759379D01*
X183219645Y-89894086D01*
X183219649Y-89894093D01*
X183305809Y-90009187D01*
X183305812Y-90009190D01*
X183420906Y-90095350D01*
X183420913Y-90095354D01*
X183555620Y-90145596D01*
X183555627Y-90145598D01*
X183615155Y-90151999D01*
X183615172Y-90152000D01*
X184713000Y-90152000D01*
X184713000Y-88952001D01*
X184773402Y-88977021D01*
X184898981Y-89002000D01*
X185027019Y-89002000D01*
X185152598Y-88977021D01*
X185213000Y-88952001D01*
X185213000Y-90152000D01*
X186310828Y-90152000D01*
X186310844Y-90151999D01*
X186370372Y-90145598D01*
X186370379Y-90145596D01*
X186505086Y-90095354D01*
X186505093Y-90095350D01*
X186620187Y-90009190D01*
X186620190Y-90009187D01*
X186706350Y-89894093D01*
X186706354Y-89894086D01*
X186756596Y-89759379D01*
X186756598Y-89759372D01*
X186762999Y-89699844D01*
X186763000Y-89699827D01*
X186763000Y-88602000D01*
X185563001Y-88602000D01*
X185588021Y-88541598D01*
X185613000Y-88416019D01*
X185613000Y-88287981D01*
X185588021Y-88162402D01*
X185563001Y-88102000D01*
X186763000Y-88102000D01*
X186763000Y-87004172D01*
X186762999Y-87004155D01*
X186756598Y-86944627D01*
X186756596Y-86944620D01*
X186706354Y-86809913D01*
X186706350Y-86809906D01*
X186620190Y-86694812D01*
X186620187Y-86694809D01*
X186505093Y-86608649D01*
X186505086Y-86608645D01*
X186370379Y-86558403D01*
X186370372Y-86558401D01*
X186310844Y-86552000D01*
X185213000Y-86552000D01*
X185213000Y-87751998D01*
X185152598Y-87726979D01*
X185027019Y-87702000D01*
X184898981Y-87702000D01*
X184773402Y-87726979D01*
X184713000Y-87751998D01*
X184713000Y-86552000D01*
X183615155Y-86552000D01*
X183555627Y-86558401D01*
X183555620Y-86558403D01*
X183420913Y-86608645D01*
X183420906Y-86608649D01*
X183305812Y-86694809D01*
X183305809Y-86694812D01*
X183219649Y-86809906D01*
X183219645Y-86809913D01*
X183169403Y-86944620D01*
X183169401Y-86944627D01*
X183163000Y-87004155D01*
X181610000Y-87004155D01*
X181610000Y-83351995D01*
X183157953Y-83351995D01*
X183157953Y-83352004D01*
X183178113Y-83621026D01*
X183178113Y-83621028D01*
X183238142Y-83884033D01*
X183238148Y-83884052D01*
X183336709Y-84135181D01*
X183336708Y-84135181D01*
X183471600Y-84368818D01*
X183525294Y-84436150D01*
X183525295Y-84436150D01*
X184361958Y-83599487D01*
X184386978Y-83659890D01*
X184458112Y-83766351D01*
X184548649Y-83856888D01*
X184655110Y-83928022D01*
X184715511Y-83953041D01*
X183877848Y-84790703D01*
X184060476Y-84915216D01*
X184060485Y-84915221D01*
X184303539Y-85032269D01*
X184303537Y-85032269D01*
X184561337Y-85111790D01*
X184561343Y-85111792D01*
X184828101Y-85151999D01*
X184828110Y-85152000D01*
X185097890Y-85152000D01*
X185097898Y-85151999D01*
X185364656Y-85111792D01*
X185364662Y-85111790D01*
X185622461Y-85032269D01*
X185865516Y-84915221D01*
X185865517Y-84915220D01*
X186048150Y-84790703D01*
X185210487Y-83953041D01*
X185270890Y-83928022D01*
X185377351Y-83856888D01*
X185467888Y-83766351D01*
X185539022Y-83659890D01*
X185564041Y-83599487D01*
X186400703Y-84436150D01*
X186400704Y-84436149D01*
X186454400Y-84368818D01*
X186589290Y-84135181D01*
X186687851Y-83884052D01*
X186687857Y-83884033D01*
X186747886Y-83621028D01*
X186747886Y-83621026D01*
X186768047Y-83352004D01*
X186768047Y-83351995D01*
X186747886Y-83082973D01*
X186747886Y-83082971D01*
X186687857Y-82819966D01*
X186687851Y-82819947D01*
X186589290Y-82568818D01*
X186589291Y-82568818D01*
X186454400Y-82335182D01*
X186454393Y-82335171D01*
X186400704Y-82267849D01*
X186400703Y-82267848D01*
X185564041Y-83104511D01*
X185539022Y-83044110D01*
X185467888Y-82937649D01*
X185377351Y-82847112D01*
X185270890Y-82775978D01*
X185210488Y-82750958D01*
X186048150Y-81913295D01*
X185865524Y-81788783D01*
X185865516Y-81788778D01*
X185622460Y-81671730D01*
X185622462Y-81671730D01*
X185364662Y-81592209D01*
X185364656Y-81592207D01*
X185097898Y-81552000D01*
X184828101Y-81552000D01*
X184561343Y-81592207D01*
X184561337Y-81592209D01*
X184303538Y-81671730D01*
X184060482Y-81788780D01*
X184060469Y-81788787D01*
X183877848Y-81913294D01*
X184715512Y-82750958D01*
X184655110Y-82775978D01*
X184548649Y-82847112D01*
X184458112Y-82937649D01*
X184386978Y-83044110D01*
X184361958Y-83104512D01*
X183525294Y-82267848D01*
X183471602Y-82335177D01*
X183336709Y-82568818D01*
X183238148Y-82819947D01*
X183238142Y-82819966D01*
X183178113Y-83082971D01*
X183178113Y-83082973D01*
X183157953Y-83351995D01*
X181610000Y-83351995D01*
X181610000Y-72644000D01*
X181610000Y-65785997D01*
X182877153Y-65785997D01*
X182877153Y-65786002D01*
X182896526Y-66143314D01*
X182896527Y-66143331D01*
X182954415Y-66496431D01*
X182954421Y-66496457D01*
X183050147Y-66841232D01*
X183050149Y-66841239D01*
X183182597Y-67173659D01*
X183182606Y-67173677D01*
X183350218Y-67489827D01*
X183551033Y-67786007D01*
X183678441Y-67936003D01*
X183678442Y-67936004D01*
X184887748Y-66726698D01*
X184961588Y-66828330D01*
X185139670Y-67006412D01*
X185241300Y-67080251D01*
X184029255Y-68292295D01*
X184029256Y-68292296D01*
X184042485Y-68304828D01*
X184042486Y-68304829D01*
X184327367Y-68521388D01*
X184327370Y-68521390D01*
X184633990Y-68705876D01*
X184958739Y-68856122D01*
X184958744Y-68856123D01*
X185297855Y-68970383D01*
X185647339Y-69047311D01*
X186003075Y-69085999D01*
X186003085Y-69086000D01*
X186360915Y-69086000D01*
X186360924Y-69085999D01*
X186716660Y-69047311D01*
X187066144Y-68970383D01*
X187405255Y-68856123D01*
X187405260Y-68856122D01*
X187730009Y-68705876D01*
X188036629Y-68521390D01*
X188036632Y-68521388D01*
X188321504Y-68304836D01*
X188334742Y-68292294D01*
X187122698Y-67080251D01*
X187224330Y-67006412D01*
X187402412Y-66828330D01*
X187476251Y-66726698D01*
X188685556Y-67936003D01*
X188812964Y-67786008D01*
X188812975Y-67785994D01*
X189013781Y-67489827D01*
X189181393Y-67173677D01*
X189181402Y-67173659D01*
X189313850Y-66841239D01*
X189313852Y-66841232D01*
X189409578Y-66496457D01*
X189409584Y-66496431D01*
X189467472Y-66143331D01*
X189467473Y-66143314D01*
X189486847Y-65786002D01*
X189486847Y-65785997D01*
X189467473Y-65428685D01*
X189467472Y-65428668D01*
X189409584Y-65075568D01*
X189409578Y-65075542D01*
X189313852Y-64730767D01*
X189313850Y-64730760D01*
X189181402Y-64398340D01*
X189181393Y-64398322D01*
X189013781Y-64082172D01*
X188812966Y-63785992D01*
X188685557Y-63635995D01*
X188685556Y-63635994D01*
X187476250Y-64845299D01*
X187402412Y-64743670D01*
X187224330Y-64565588D01*
X187122697Y-64491747D01*
X188334743Y-63279703D01*
X188334742Y-63279702D01*
X188321514Y-63267171D01*
X188321513Y-63267170D01*
X188036632Y-63050611D01*
X188036629Y-63050609D01*
X187730009Y-62866123D01*
X187405260Y-62715877D01*
X187405255Y-62715876D01*
X187066144Y-62601616D01*
X186716660Y-62524688D01*
X186360924Y-62486000D01*
X186003075Y-62486000D01*
X185647339Y-62524688D01*
X185297855Y-62601616D01*
X184958744Y-62715876D01*
X184958739Y-62715877D01*
X184633990Y-62866123D01*
X184327370Y-63050609D01*
X184327367Y-63050611D01*
X184042491Y-63267166D01*
X184029256Y-63279703D01*
X184029255Y-63279703D01*
X185241301Y-64491748D01*
X185139670Y-64565588D01*
X184961588Y-64743670D01*
X184887748Y-64845301D01*
X183678442Y-63635994D01*
X183678441Y-63635995D01*
X183551040Y-63785983D01*
X183551033Y-63785993D01*
X183350218Y-64082172D01*
X183182606Y-64398322D01*
X183182597Y-64398340D01*
X183050149Y-64730760D01*
X183050147Y-64730767D01*
X182954421Y-65075542D01*
X182954415Y-65075568D01*
X182896527Y-65428668D01*
X182896526Y-65428685D01*
X182877153Y-65785997D01*
X181610000Y-65785997D01*
X181610000Y-63281362D01*
X181629685Y-63214323D01*
X181646319Y-63193681D01*
X182573681Y-62266319D01*
X182635004Y-62232834D01*
X182661362Y-62230000D01*
X190210638Y-62230000D01*
X190277677Y-62249685D01*
G37*
%TD.AperFunction*%
%TD*%
M02*
