M48
; DRILL file {KiCad 8.0.5} date 2024-11-22T10:32:04-0500
; FORMAT={-:-/ absolute / inch / decimal}
; #@! TF.CreationDate,2024-11-22T10:32:04-05:00
; #@! TF.GenerationSoftware,Kicad,Pcbnew,8.0.5
; #@! TF.FileFunction,Plated,1,2,PTH
FMAT,2
INCH
; #@! TA.AperFunction,Plated,PTH,ComponentDrill
T1C0.0315
; #@! TA.AperFunction,Plated,PTH,ComponentDrill
T2C0.0472
; #@! TA.AperFunction,Plated,PTH,ComponentDrill
T3C0.0512
; #@! TA.AperFunction,Plated,PTH,ComponentDrill
T4C0.0630
; #@! TA.AperFunction,Plated,PTH,ComponentDrill
T5C0.1260
%
G90
G05
T1
X5.9091Y-2.7422
X5.9091Y-4.0222
X6.106Y-2.7422
X6.106Y-4.0222
T2
X4.5Y-2.8447
X4.5Y-3.14
X4.5Y-3.6447
X4.5Y-3.94
X5.34Y-2.8447
X5.34Y-3.14
X5.34Y-3.66
X5.34Y-3.9553
T3
X2.65Y-2.9239
X2.65Y-3.2139
X2.65Y-3.51
X2.85Y-2.9239
X2.85Y-3.2139
X2.85Y-3.51
X5.86Y-3.0
X5.86Y-3.38
X5.86Y-3.78
X6.06Y-3.0
X6.06Y-3.38
X6.06Y-3.78
X6.33Y-3.0
X6.33Y-3.38
X6.33Y-3.78
X6.53Y-3.0
X6.53Y-3.38
X6.53Y-3.78
T4
X3.27Y-2.75
X3.27Y-3.25
X3.27Y-3.55
X3.27Y-4.05
X3.85Y-2.75
X3.85Y-3.25
X3.85Y-3.55
X3.85Y-4.05
T5
X2.65Y-2.61
X2.65Y-4.12
X6.52Y-2.6
X6.52Y-4.1222
M30
