M48
; DRILL file {KiCad 8.0.7} date 2025-02-07T19:18:51-0500
; FORMAT={-:-/ absolute / inch / decimal}
; #@! TF.CreationDate,2025-02-07T19:18:51-05:00
; #@! TF.GenerationSoftware,Kicad,Pcbnew,8.0.7
; #@! TF.FileFunction,Plated,1,2,PTH
FMAT,2
INCH
; #@! TA.AperFunction,Plated,PTH,ComponentDrill
T1C0.0472
; #@! TA.AperFunction,Plated,PTH,ComponentDrill
T2C0.0512
; #@! TA.AperFunction,Plated,PTH,ComponentDrill
T3C0.0630
; #@! TA.AperFunction,Plated,PTH,ComponentDrill
T4C0.1260
%
G90
G05
T1
X4.5Y-2.8447
X4.5Y-3.14
X4.5Y-3.6447
X4.5Y-3.94
X5.32Y-2.8447
X5.32Y-3.14
X5.32Y-3.66
X5.32Y-3.9553
X6.13Y-2.84
X6.13Y-3.1353
X6.13Y-3.6647
X6.13Y-3.96
T2
X2.64Y-3.82
X2.65Y-2.9239
X2.65Y-3.36
X2.84Y-3.82
X2.85Y-2.9239
X2.85Y-3.36
X6.6839Y-2.69
X6.6839Y-2.89
X6.6839Y-3.28
X6.6839Y-3.48
X6.6839Y-3.9
X6.6839Y-4.1
X6.94Y-2.69
X6.94Y-2.89
X6.94Y-3.28
X6.94Y-3.48
X6.94Y-3.9
X6.94Y-4.1
X7.282Y-3.2816
X7.282Y-3.4784
T3
X3.27Y-2.75
X3.27Y-3.25
X3.27Y-3.55
X3.27Y-4.05
X3.85Y-2.75
X3.85Y-3.25
X3.85Y-3.55
X3.85Y-4.05
T4
X7.33Y-2.59
M30
