%TF.GenerationSoftware,KiCad,Pcbnew,8.0.7*%
%TF.CreationDate,2025-02-07T19:18:43-05:00*%
%TF.ProjectId,power_supply,706f7765-725f-4737-9570-706c792e6b69,rev?*%
%TF.SameCoordinates,Original*%
%TF.FileFunction,Legend,Top*%
%TF.FilePolarity,Positive*%
%FSLAX46Y46*%
G04 Gerber Fmt 4.6, Leading zero omitted, Abs format (unit mm)*
G04 Created by KiCad (PCBNEW 8.0.7) date 2025-02-07 19:18:43*
%MOMM*%
%LPD*%
G01*
G04 APERTURE LIST*
%ADD10C,0.150000*%
%ADD11C,0.100000*%
%ADD12C,0.120000*%
G04 APERTURE END LIST*
D10*
X164720676Y-87531506D02*
X164625438Y-87721982D01*
X164625438Y-87721982D02*
X164625438Y-88007696D01*
X164625438Y-88007696D02*
X164720676Y-88293411D01*
X164720676Y-88293411D02*
X164911152Y-88483887D01*
X164911152Y-88483887D02*
X165101628Y-88579125D01*
X165101628Y-88579125D02*
X165482580Y-88674363D01*
X165482580Y-88674363D02*
X165768295Y-88674363D01*
X165768295Y-88674363D02*
X166149247Y-88579125D01*
X166149247Y-88579125D02*
X166339723Y-88483887D01*
X166339723Y-88483887D02*
X166530200Y-88293411D01*
X166530200Y-88293411D02*
X166625438Y-88007696D01*
X166625438Y-88007696D02*
X166625438Y-87817220D01*
X166625438Y-87817220D02*
X166530200Y-87531506D01*
X166530200Y-87531506D02*
X166434961Y-87436268D01*
X166434961Y-87436268D02*
X165768295Y-87436268D01*
X165768295Y-87436268D02*
X165768295Y-87817220D01*
X166625438Y-86579125D02*
X164625438Y-86579125D01*
X164625438Y-86579125D02*
X166625438Y-85436268D01*
X166625438Y-85436268D02*
X164625438Y-85436268D01*
X166625438Y-84483887D02*
X164625438Y-84483887D01*
X164625438Y-84483887D02*
X164625438Y-84007697D01*
X164625438Y-84007697D02*
X164720676Y-83721982D01*
X164720676Y-83721982D02*
X164911152Y-83531506D01*
X164911152Y-83531506D02*
X165101628Y-83436268D01*
X165101628Y-83436268D02*
X165482580Y-83341030D01*
X165482580Y-83341030D02*
X165768295Y-83341030D01*
X165768295Y-83341030D02*
X166149247Y-83436268D01*
X166149247Y-83436268D02*
X166339723Y-83531506D01*
X166339723Y-83531506D02*
X166530200Y-83721982D01*
X166530200Y-83721982D02*
X166625438Y-84007697D01*
X166625438Y-84007697D02*
X166625438Y-84483887D01*
X180565541Y-74645819D02*
X180851255Y-74741057D01*
X180851255Y-74741057D02*
X180946493Y-74836295D01*
X180946493Y-74836295D02*
X181041731Y-75026771D01*
X181041731Y-75026771D02*
X181041731Y-75312485D01*
X181041731Y-75312485D02*
X180946493Y-75502961D01*
X180946493Y-75502961D02*
X180851255Y-75598200D01*
X180851255Y-75598200D02*
X180660779Y-75693438D01*
X180660779Y-75693438D02*
X179898874Y-75693438D01*
X179898874Y-75693438D02*
X179898874Y-73693438D01*
X179898874Y-73693438D02*
X180565541Y-73693438D01*
X180565541Y-73693438D02*
X180756017Y-73788676D01*
X180756017Y-73788676D02*
X180851255Y-73883914D01*
X180851255Y-73883914D02*
X180946493Y-74074390D01*
X180946493Y-74074390D02*
X180946493Y-74264866D01*
X180946493Y-74264866D02*
X180851255Y-74455342D01*
X180851255Y-74455342D02*
X180756017Y-74550580D01*
X180756017Y-74550580D02*
X180565541Y-74645819D01*
X180565541Y-74645819D02*
X179898874Y-74645819D01*
X181898874Y-74931533D02*
X183422684Y-74931533D01*
X182660779Y-75693438D02*
X182660779Y-74169628D01*
X75219160Y-74260104D02*
X75695350Y-74260104D01*
X75123922Y-74545819D02*
X75457255Y-73545819D01*
X75457255Y-73545819D02*
X75790588Y-74545819D01*
X76695350Y-74450580D02*
X76647731Y-74498200D01*
X76647731Y-74498200D02*
X76504874Y-74545819D01*
X76504874Y-74545819D02*
X76409636Y-74545819D01*
X76409636Y-74545819D02*
X76266779Y-74498200D01*
X76266779Y-74498200D02*
X76171541Y-74402961D01*
X76171541Y-74402961D02*
X76123922Y-74307723D01*
X76123922Y-74307723D02*
X76076303Y-74117247D01*
X76076303Y-74117247D02*
X76076303Y-73974390D01*
X76076303Y-73974390D02*
X76123922Y-73783914D01*
X76123922Y-73783914D02*
X76171541Y-73688676D01*
X76171541Y-73688676D02*
X76266779Y-73593438D01*
X76266779Y-73593438D02*
X76409636Y-73545819D01*
X76409636Y-73545819D02*
X76504874Y-73545819D01*
X76504874Y-73545819D02*
X76647731Y-73593438D01*
X76647731Y-73593438D02*
X76695350Y-73641057D01*
X75219160Y-89246104D02*
X75695350Y-89246104D01*
X75123922Y-89531819D02*
X75457255Y-88531819D01*
X75457255Y-88531819D02*
X75790588Y-89531819D01*
X76695350Y-89436580D02*
X76647731Y-89484200D01*
X76647731Y-89484200D02*
X76504874Y-89531819D01*
X76504874Y-89531819D02*
X76409636Y-89531819D01*
X76409636Y-89531819D02*
X76266779Y-89484200D01*
X76266779Y-89484200D02*
X76171541Y-89388961D01*
X76171541Y-89388961D02*
X76123922Y-89293723D01*
X76123922Y-89293723D02*
X76076303Y-89103247D01*
X76076303Y-89103247D02*
X76076303Y-88960390D01*
X76076303Y-88960390D02*
X76123922Y-88769914D01*
X76123922Y-88769914D02*
X76171541Y-88674676D01*
X76171541Y-88674676D02*
X76266779Y-88579438D01*
X76266779Y-88579438D02*
X76409636Y-88531819D01*
X76409636Y-88531819D02*
X76504874Y-88531819D01*
X76504874Y-88531819D02*
X76647731Y-88579438D01*
X76647731Y-88579438D02*
X76695350Y-88627057D01*
X180565541Y-97759819D02*
X180851255Y-97855057D01*
X180851255Y-97855057D02*
X180946493Y-97950295D01*
X180946493Y-97950295D02*
X181041731Y-98140771D01*
X181041731Y-98140771D02*
X181041731Y-98426485D01*
X181041731Y-98426485D02*
X180946493Y-98616961D01*
X180946493Y-98616961D02*
X180851255Y-98712200D01*
X180851255Y-98712200D02*
X180660779Y-98807438D01*
X180660779Y-98807438D02*
X179898874Y-98807438D01*
X179898874Y-98807438D02*
X179898874Y-96807438D01*
X179898874Y-96807438D02*
X180565541Y-96807438D01*
X180565541Y-96807438D02*
X180756017Y-96902676D01*
X180756017Y-96902676D02*
X180851255Y-96997914D01*
X180851255Y-96997914D02*
X180946493Y-97188390D01*
X180946493Y-97188390D02*
X180946493Y-97378866D01*
X180946493Y-97378866D02*
X180851255Y-97569342D01*
X180851255Y-97569342D02*
X180756017Y-97664580D01*
X180756017Y-97664580D02*
X180565541Y-97759819D01*
X180565541Y-97759819D02*
X179898874Y-97759819D01*
X181898874Y-98045533D02*
X183422684Y-98045533D01*
X75790588Y-81213438D02*
X75695350Y-81165819D01*
X75695350Y-81165819D02*
X75552493Y-81165819D01*
X75552493Y-81165819D02*
X75409636Y-81213438D01*
X75409636Y-81213438D02*
X75314398Y-81308676D01*
X75314398Y-81308676D02*
X75266779Y-81403914D01*
X75266779Y-81403914D02*
X75219160Y-81594390D01*
X75219160Y-81594390D02*
X75219160Y-81737247D01*
X75219160Y-81737247D02*
X75266779Y-81927723D01*
X75266779Y-81927723D02*
X75314398Y-82022961D01*
X75314398Y-82022961D02*
X75409636Y-82118200D01*
X75409636Y-82118200D02*
X75552493Y-82165819D01*
X75552493Y-82165819D02*
X75647731Y-82165819D01*
X75647731Y-82165819D02*
X75790588Y-82118200D01*
X75790588Y-82118200D02*
X75838207Y-82070580D01*
X75838207Y-82070580D02*
X75838207Y-81737247D01*
X75838207Y-81737247D02*
X75647731Y-81737247D01*
X76266779Y-82165819D02*
X76266779Y-81165819D01*
X76266779Y-81165819D02*
X76838207Y-82165819D01*
X76838207Y-82165819D02*
X76838207Y-81165819D01*
X77314398Y-82165819D02*
X77314398Y-81165819D01*
X77314398Y-81165819D02*
X77552493Y-81165819D01*
X77552493Y-81165819D02*
X77695350Y-81213438D01*
X77695350Y-81213438D02*
X77790588Y-81308676D01*
X77790588Y-81308676D02*
X77838207Y-81403914D01*
X77838207Y-81403914D02*
X77885826Y-81594390D01*
X77885826Y-81594390D02*
X77885826Y-81737247D01*
X77885826Y-81737247D02*
X77838207Y-81927723D01*
X77838207Y-81927723D02*
X77790588Y-82022961D01*
X77790588Y-82022961D02*
X77695350Y-82118200D01*
X77695350Y-82118200D02*
X77552493Y-82165819D01*
X77552493Y-82165819D02*
X77314398Y-82165819D01*
X104989333Y-88751580D02*
X104941714Y-88799200D01*
X104941714Y-88799200D02*
X104798857Y-88846819D01*
X104798857Y-88846819D02*
X104703619Y-88846819D01*
X104703619Y-88846819D02*
X104560762Y-88799200D01*
X104560762Y-88799200D02*
X104465524Y-88703961D01*
X104465524Y-88703961D02*
X104417905Y-88608723D01*
X104417905Y-88608723D02*
X104370286Y-88418247D01*
X104370286Y-88418247D02*
X104370286Y-88275390D01*
X104370286Y-88275390D02*
X104417905Y-88084914D01*
X104417905Y-88084914D02*
X104465524Y-87989676D01*
X104465524Y-87989676D02*
X104560762Y-87894438D01*
X104560762Y-87894438D02*
X104703619Y-87846819D01*
X104703619Y-87846819D02*
X104798857Y-87846819D01*
X104798857Y-87846819D02*
X104941714Y-87894438D01*
X104941714Y-87894438D02*
X104989333Y-87942057D01*
X105370286Y-87942057D02*
X105417905Y-87894438D01*
X105417905Y-87894438D02*
X105513143Y-87846819D01*
X105513143Y-87846819D02*
X105751238Y-87846819D01*
X105751238Y-87846819D02*
X105846476Y-87894438D01*
X105846476Y-87894438D02*
X105894095Y-87942057D01*
X105894095Y-87942057D02*
X105941714Y-88037295D01*
X105941714Y-88037295D02*
X105941714Y-88132533D01*
X105941714Y-88132533D02*
X105894095Y-88275390D01*
X105894095Y-88275390D02*
X105322667Y-88846819D01*
X105322667Y-88846819D02*
X105941714Y-88846819D01*
X103914819Y-97258094D02*
X102914819Y-97258094D01*
X102914819Y-97258094D02*
X102914819Y-97019999D01*
X102914819Y-97019999D02*
X102962438Y-96877142D01*
X102962438Y-96877142D02*
X103057676Y-96781904D01*
X103057676Y-96781904D02*
X103152914Y-96734285D01*
X103152914Y-96734285D02*
X103343390Y-96686666D01*
X103343390Y-96686666D02*
X103486247Y-96686666D01*
X103486247Y-96686666D02*
X103676723Y-96734285D01*
X103676723Y-96734285D02*
X103771961Y-96781904D01*
X103771961Y-96781904D02*
X103867200Y-96877142D01*
X103867200Y-96877142D02*
X103914819Y-97019999D01*
X103914819Y-97019999D02*
X103914819Y-97258094D01*
X103248152Y-95829523D02*
X103914819Y-95829523D01*
X102867200Y-96067618D02*
X103581485Y-96305713D01*
X103581485Y-96305713D02*
X103581485Y-95686666D01*
X100844819Y-90431904D02*
X99844819Y-90431904D01*
X100844819Y-89860476D02*
X100273390Y-90289047D01*
X99844819Y-89860476D02*
X100416247Y-90431904D01*
X144105333Y-67923580D02*
X144057714Y-67971200D01*
X144057714Y-67971200D02*
X143914857Y-68018819D01*
X143914857Y-68018819D02*
X143819619Y-68018819D01*
X143819619Y-68018819D02*
X143676762Y-67971200D01*
X143676762Y-67971200D02*
X143581524Y-67875961D01*
X143581524Y-67875961D02*
X143533905Y-67780723D01*
X143533905Y-67780723D02*
X143486286Y-67590247D01*
X143486286Y-67590247D02*
X143486286Y-67447390D01*
X143486286Y-67447390D02*
X143533905Y-67256914D01*
X143533905Y-67256914D02*
X143581524Y-67161676D01*
X143581524Y-67161676D02*
X143676762Y-67066438D01*
X143676762Y-67066438D02*
X143819619Y-67018819D01*
X143819619Y-67018819D02*
X143914857Y-67018819D01*
X143914857Y-67018819D02*
X144057714Y-67066438D01*
X144057714Y-67066438D02*
X144105333Y-67114057D01*
X145010095Y-67018819D02*
X144533905Y-67018819D01*
X144533905Y-67018819D02*
X144486286Y-67495009D01*
X144486286Y-67495009D02*
X144533905Y-67447390D01*
X144533905Y-67447390D02*
X144629143Y-67399771D01*
X144629143Y-67399771D02*
X144867238Y-67399771D01*
X144867238Y-67399771D02*
X144962476Y-67447390D01*
X144962476Y-67447390D02*
X145010095Y-67495009D01*
X145010095Y-67495009D02*
X145057714Y-67590247D01*
X145057714Y-67590247D02*
X145057714Y-67828342D01*
X145057714Y-67828342D02*
X145010095Y-67923580D01*
X145010095Y-67923580D02*
X144962476Y-67971200D01*
X144962476Y-67971200D02*
X144867238Y-68018819D01*
X144867238Y-68018819D02*
X144629143Y-68018819D01*
X144629143Y-68018819D02*
X144533905Y-67971200D01*
X144533905Y-67971200D02*
X144486286Y-67923580D01*
X89182819Y-76938094D02*
X88182819Y-76938094D01*
X88182819Y-76938094D02*
X88182819Y-76699999D01*
X88182819Y-76699999D02*
X88230438Y-76557142D01*
X88230438Y-76557142D02*
X88325676Y-76461904D01*
X88325676Y-76461904D02*
X88420914Y-76414285D01*
X88420914Y-76414285D02*
X88611390Y-76366666D01*
X88611390Y-76366666D02*
X88754247Y-76366666D01*
X88754247Y-76366666D02*
X88944723Y-76414285D01*
X88944723Y-76414285D02*
X89039961Y-76461904D01*
X89039961Y-76461904D02*
X89135200Y-76557142D01*
X89135200Y-76557142D02*
X89182819Y-76699999D01*
X89182819Y-76699999D02*
X89182819Y-76938094D01*
X88182819Y-76033332D02*
X88182819Y-75414285D01*
X88182819Y-75414285D02*
X88563771Y-75747618D01*
X88563771Y-75747618D02*
X88563771Y-75604761D01*
X88563771Y-75604761D02*
X88611390Y-75509523D01*
X88611390Y-75509523D02*
X88659009Y-75461904D01*
X88659009Y-75461904D02*
X88754247Y-75414285D01*
X88754247Y-75414285D02*
X88992342Y-75414285D01*
X88992342Y-75414285D02*
X89087580Y-75461904D01*
X89087580Y-75461904D02*
X89135200Y-75509523D01*
X89135200Y-75509523D02*
X89182819Y-75604761D01*
X89182819Y-75604761D02*
X89182819Y-75890475D01*
X89182819Y-75890475D02*
X89135200Y-75985713D01*
X89135200Y-75985713D02*
X89087580Y-76033332D01*
X86112819Y-70111904D02*
X85112819Y-70111904D01*
X86112819Y-69540476D02*
X85541390Y-69969047D01*
X85112819Y-69540476D02*
X85684247Y-70111904D01*
D11*
X69262666Y-92929419D02*
X69262666Y-93643704D01*
X69262666Y-93643704D02*
X69215047Y-93786561D01*
X69215047Y-93786561D02*
X69119809Y-93881800D01*
X69119809Y-93881800D02*
X68976952Y-93929419D01*
X68976952Y-93929419D02*
X68881714Y-93929419D01*
X70262666Y-93929419D02*
X69691238Y-93929419D01*
X69976952Y-93929419D02*
X69976952Y-92929419D01*
X69976952Y-92929419D02*
X69881714Y-93072276D01*
X69881714Y-93072276D02*
X69786476Y-93167514D01*
X69786476Y-93167514D02*
X69691238Y-93215133D01*
D10*
X162901333Y-89259580D02*
X162853714Y-89307200D01*
X162853714Y-89307200D02*
X162710857Y-89354819D01*
X162710857Y-89354819D02*
X162615619Y-89354819D01*
X162615619Y-89354819D02*
X162472762Y-89307200D01*
X162472762Y-89307200D02*
X162377524Y-89211961D01*
X162377524Y-89211961D02*
X162329905Y-89116723D01*
X162329905Y-89116723D02*
X162282286Y-88926247D01*
X162282286Y-88926247D02*
X162282286Y-88783390D01*
X162282286Y-88783390D02*
X162329905Y-88592914D01*
X162329905Y-88592914D02*
X162377524Y-88497676D01*
X162377524Y-88497676D02*
X162472762Y-88402438D01*
X162472762Y-88402438D02*
X162615619Y-88354819D01*
X162615619Y-88354819D02*
X162710857Y-88354819D01*
X162710857Y-88354819D02*
X162853714Y-88402438D01*
X162853714Y-88402438D02*
X162901333Y-88450057D01*
X163472762Y-88783390D02*
X163377524Y-88735771D01*
X163377524Y-88735771D02*
X163329905Y-88688152D01*
X163329905Y-88688152D02*
X163282286Y-88592914D01*
X163282286Y-88592914D02*
X163282286Y-88545295D01*
X163282286Y-88545295D02*
X163329905Y-88450057D01*
X163329905Y-88450057D02*
X163377524Y-88402438D01*
X163377524Y-88402438D02*
X163472762Y-88354819D01*
X163472762Y-88354819D02*
X163663238Y-88354819D01*
X163663238Y-88354819D02*
X163758476Y-88402438D01*
X163758476Y-88402438D02*
X163806095Y-88450057D01*
X163806095Y-88450057D02*
X163853714Y-88545295D01*
X163853714Y-88545295D02*
X163853714Y-88592914D01*
X163853714Y-88592914D02*
X163806095Y-88688152D01*
X163806095Y-88688152D02*
X163758476Y-88735771D01*
X163758476Y-88735771D02*
X163663238Y-88783390D01*
X163663238Y-88783390D02*
X163472762Y-88783390D01*
X163472762Y-88783390D02*
X163377524Y-88831009D01*
X163377524Y-88831009D02*
X163329905Y-88878628D01*
X163329905Y-88878628D02*
X163282286Y-88973866D01*
X163282286Y-88973866D02*
X163282286Y-89164342D01*
X163282286Y-89164342D02*
X163329905Y-89259580D01*
X163329905Y-89259580D02*
X163377524Y-89307200D01*
X163377524Y-89307200D02*
X163472762Y-89354819D01*
X163472762Y-89354819D02*
X163663238Y-89354819D01*
X163663238Y-89354819D02*
X163758476Y-89307200D01*
X163758476Y-89307200D02*
X163806095Y-89259580D01*
X163806095Y-89259580D02*
X163853714Y-89164342D01*
X163853714Y-89164342D02*
X163853714Y-88973866D01*
X163853714Y-88973866D02*
X163806095Y-88878628D01*
X163806095Y-88878628D02*
X163758476Y-88831009D01*
X163758476Y-88831009D02*
X163663238Y-88783390D01*
X163155333Y-68685580D02*
X163107714Y-68733200D01*
X163107714Y-68733200D02*
X162964857Y-68780819D01*
X162964857Y-68780819D02*
X162869619Y-68780819D01*
X162869619Y-68780819D02*
X162726762Y-68733200D01*
X162726762Y-68733200D02*
X162631524Y-68637961D01*
X162631524Y-68637961D02*
X162583905Y-68542723D01*
X162583905Y-68542723D02*
X162536286Y-68352247D01*
X162536286Y-68352247D02*
X162536286Y-68209390D01*
X162536286Y-68209390D02*
X162583905Y-68018914D01*
X162583905Y-68018914D02*
X162631524Y-67923676D01*
X162631524Y-67923676D02*
X162726762Y-67828438D01*
X162726762Y-67828438D02*
X162869619Y-67780819D01*
X162869619Y-67780819D02*
X162964857Y-67780819D01*
X162964857Y-67780819D02*
X163107714Y-67828438D01*
X163107714Y-67828438D02*
X163155333Y-67876057D01*
X163488667Y-67780819D02*
X164155333Y-67780819D01*
X164155333Y-67780819D02*
X163726762Y-68780819D01*
X104989333Y-68431580D02*
X104941714Y-68479200D01*
X104941714Y-68479200D02*
X104798857Y-68526819D01*
X104798857Y-68526819D02*
X104703619Y-68526819D01*
X104703619Y-68526819D02*
X104560762Y-68479200D01*
X104560762Y-68479200D02*
X104465524Y-68383961D01*
X104465524Y-68383961D02*
X104417905Y-68288723D01*
X104417905Y-68288723D02*
X104370286Y-68098247D01*
X104370286Y-68098247D02*
X104370286Y-67955390D01*
X104370286Y-67955390D02*
X104417905Y-67764914D01*
X104417905Y-67764914D02*
X104465524Y-67669676D01*
X104465524Y-67669676D02*
X104560762Y-67574438D01*
X104560762Y-67574438D02*
X104703619Y-67526819D01*
X104703619Y-67526819D02*
X104798857Y-67526819D01*
X104798857Y-67526819D02*
X104941714Y-67574438D01*
X104941714Y-67574438D02*
X104989333Y-67622057D01*
X105941714Y-68526819D02*
X105370286Y-68526819D01*
X105656000Y-68526819D02*
X105656000Y-67526819D01*
X105656000Y-67526819D02*
X105560762Y-67669676D01*
X105560762Y-67669676D02*
X105465524Y-67764914D01*
X105465524Y-67764914D02*
X105370286Y-67812533D01*
D11*
X69516666Y-70323419D02*
X69516666Y-71037704D01*
X69516666Y-71037704D02*
X69469047Y-71180561D01*
X69469047Y-71180561D02*
X69373809Y-71275800D01*
X69373809Y-71275800D02*
X69230952Y-71323419D01*
X69230952Y-71323419D02*
X69135714Y-71323419D01*
X70421428Y-70656752D02*
X70421428Y-71323419D01*
X70183333Y-70275800D02*
X69945238Y-70990085D01*
X69945238Y-70990085D02*
X70564285Y-70990085D01*
D10*
X144613333Y-88243580D02*
X144565714Y-88291200D01*
X144565714Y-88291200D02*
X144422857Y-88338819D01*
X144422857Y-88338819D02*
X144327619Y-88338819D01*
X144327619Y-88338819D02*
X144184762Y-88291200D01*
X144184762Y-88291200D02*
X144089524Y-88195961D01*
X144089524Y-88195961D02*
X144041905Y-88100723D01*
X144041905Y-88100723D02*
X143994286Y-87910247D01*
X143994286Y-87910247D02*
X143994286Y-87767390D01*
X143994286Y-87767390D02*
X144041905Y-87576914D01*
X144041905Y-87576914D02*
X144089524Y-87481676D01*
X144089524Y-87481676D02*
X144184762Y-87386438D01*
X144184762Y-87386438D02*
X144327619Y-87338819D01*
X144327619Y-87338819D02*
X144422857Y-87338819D01*
X144422857Y-87338819D02*
X144565714Y-87386438D01*
X144565714Y-87386438D02*
X144613333Y-87434057D01*
X145470476Y-87338819D02*
X145280000Y-87338819D01*
X145280000Y-87338819D02*
X145184762Y-87386438D01*
X145184762Y-87386438D02*
X145137143Y-87434057D01*
X145137143Y-87434057D02*
X145041905Y-87576914D01*
X145041905Y-87576914D02*
X144994286Y-87767390D01*
X144994286Y-87767390D02*
X144994286Y-88148342D01*
X144994286Y-88148342D02*
X145041905Y-88243580D01*
X145041905Y-88243580D02*
X145089524Y-88291200D01*
X145089524Y-88291200D02*
X145184762Y-88338819D01*
X145184762Y-88338819D02*
X145375238Y-88338819D01*
X145375238Y-88338819D02*
X145470476Y-88291200D01*
X145470476Y-88291200D02*
X145518095Y-88243580D01*
X145518095Y-88243580D02*
X145565714Y-88148342D01*
X145565714Y-88148342D02*
X145565714Y-87910247D01*
X145565714Y-87910247D02*
X145518095Y-87815009D01*
X145518095Y-87815009D02*
X145470476Y-87767390D01*
X145470476Y-87767390D02*
X145375238Y-87719771D01*
X145375238Y-87719771D02*
X145184762Y-87719771D01*
X145184762Y-87719771D02*
X145089524Y-87767390D01*
X145089524Y-87767390D02*
X145041905Y-87815009D01*
X145041905Y-87815009D02*
X144994286Y-87910247D01*
X103914819Y-76938094D02*
X102914819Y-76938094D01*
X102914819Y-76938094D02*
X102914819Y-76699999D01*
X102914819Y-76699999D02*
X102962438Y-76557142D01*
X102962438Y-76557142D02*
X103057676Y-76461904D01*
X103057676Y-76461904D02*
X103152914Y-76414285D01*
X103152914Y-76414285D02*
X103343390Y-76366666D01*
X103343390Y-76366666D02*
X103486247Y-76366666D01*
X103486247Y-76366666D02*
X103676723Y-76414285D01*
X103676723Y-76414285D02*
X103771961Y-76461904D01*
X103771961Y-76461904D02*
X103867200Y-76557142D01*
X103867200Y-76557142D02*
X103914819Y-76699999D01*
X103914819Y-76699999D02*
X103914819Y-76938094D01*
X103914819Y-75414285D02*
X103914819Y-75985713D01*
X103914819Y-75699999D02*
X102914819Y-75699999D01*
X102914819Y-75699999D02*
X103057676Y-75795237D01*
X103057676Y-75795237D02*
X103152914Y-75890475D01*
X103152914Y-75890475D02*
X103200533Y-75985713D01*
X100844819Y-70111904D02*
X99844819Y-70111904D01*
X100844819Y-69540476D02*
X100273390Y-69969047D01*
X99844819Y-69540476D02*
X100416247Y-70111904D01*
D11*
X69516666Y-81399419D02*
X69516666Y-82113704D01*
X69516666Y-82113704D02*
X69469047Y-82256561D01*
X69469047Y-82256561D02*
X69373809Y-82351800D01*
X69373809Y-82351800D02*
X69230952Y-82399419D01*
X69230952Y-82399419D02*
X69135714Y-82399419D01*
X69945238Y-81494657D02*
X69992857Y-81447038D01*
X69992857Y-81447038D02*
X70088095Y-81399419D01*
X70088095Y-81399419D02*
X70326190Y-81399419D01*
X70326190Y-81399419D02*
X70421428Y-81447038D01*
X70421428Y-81447038D02*
X70469047Y-81494657D01*
X70469047Y-81494657D02*
X70516666Y-81589895D01*
X70516666Y-81589895D02*
X70516666Y-81685133D01*
X70516666Y-81685133D02*
X70469047Y-81827990D01*
X70469047Y-81827990D02*
X69897619Y-82399419D01*
X69897619Y-82399419D02*
X70516666Y-82399419D01*
D10*
X89182819Y-97258094D02*
X88182819Y-97258094D01*
X88182819Y-97258094D02*
X88182819Y-97019999D01*
X88182819Y-97019999D02*
X88230438Y-96877142D01*
X88230438Y-96877142D02*
X88325676Y-96781904D01*
X88325676Y-96781904D02*
X88420914Y-96734285D01*
X88420914Y-96734285D02*
X88611390Y-96686666D01*
X88611390Y-96686666D02*
X88754247Y-96686666D01*
X88754247Y-96686666D02*
X88944723Y-96734285D01*
X88944723Y-96734285D02*
X89039961Y-96781904D01*
X89039961Y-96781904D02*
X89135200Y-96877142D01*
X89135200Y-96877142D02*
X89182819Y-97019999D01*
X89182819Y-97019999D02*
X89182819Y-97258094D01*
X88278057Y-96305713D02*
X88230438Y-96258094D01*
X88230438Y-96258094D02*
X88182819Y-96162856D01*
X88182819Y-96162856D02*
X88182819Y-95924761D01*
X88182819Y-95924761D02*
X88230438Y-95829523D01*
X88230438Y-95829523D02*
X88278057Y-95781904D01*
X88278057Y-95781904D02*
X88373295Y-95734285D01*
X88373295Y-95734285D02*
X88468533Y-95734285D01*
X88468533Y-95734285D02*
X88611390Y-95781904D01*
X88611390Y-95781904D02*
X89182819Y-96353332D01*
X89182819Y-96353332D02*
X89182819Y-95734285D01*
X86112819Y-90431904D02*
X85112819Y-90431904D01*
X86112819Y-89860476D02*
X85541390Y-90289047D01*
X85112819Y-89860476D02*
X85684247Y-90431904D01*
%TO.C,J5*%
D11*
X167232000Y-106680000D02*
X172312000Y-106680000D01*
X172312000Y-96520000D01*
X167232000Y-96520000D01*
X167232000Y-106680000D01*
D12*
%TO.C,C2*%
X112860000Y-98647000D02*
X105520000Y-98647000D01*
X112860000Y-98687000D02*
X105530000Y-98687000D01*
X112860000Y-98727000D02*
X105541000Y-98727000D01*
X112860000Y-98767000D02*
X105552000Y-98767000D01*
X112860000Y-98807000D02*
X105563000Y-98807000D01*
X112860000Y-98847000D02*
X105575000Y-98847000D01*
X112860000Y-98887000D02*
X105586000Y-98887000D01*
X112860000Y-98927000D02*
X105598000Y-98927000D01*
X112860000Y-98967000D02*
X105610000Y-98967000D01*
X112860000Y-99007000D02*
X105622000Y-99007000D01*
X112860000Y-99047000D02*
X105635000Y-99047000D01*
X112860000Y-99087000D02*
X105647000Y-99087000D01*
X112860000Y-99127000D02*
X105660000Y-99127000D01*
X112860000Y-99167000D02*
X105673000Y-99167000D01*
X112860000Y-99207000D02*
X105686000Y-99207000D01*
X112860000Y-99247000D02*
X105700000Y-99247000D01*
X112860000Y-99287000D02*
X105713000Y-99287000D01*
X112860000Y-99327000D02*
X105727000Y-99327000D01*
X112860000Y-99367000D02*
X105741000Y-99367000D01*
X112860000Y-99407000D02*
X105755000Y-99407000D01*
X112860000Y-99447000D02*
X105770000Y-99447000D01*
X112860000Y-99487000D02*
X105784000Y-99487000D01*
X112860000Y-99527000D02*
X105799000Y-99527000D01*
X112860000Y-99567000D02*
X105814000Y-99567000D01*
X112860000Y-99607000D02*
X105830000Y-99607000D01*
X112860000Y-99647000D02*
X105845000Y-99647000D01*
X112860000Y-99687000D02*
X105861000Y-99687000D01*
X112860000Y-99727000D02*
X105877000Y-99727000D01*
X112860000Y-99767000D02*
X105893000Y-99767000D01*
X112860000Y-99807000D02*
X105910000Y-99807000D01*
X112860000Y-99847000D02*
X105926000Y-99847000D01*
X112860000Y-99887000D02*
X105943000Y-99887000D01*
X112860000Y-99927000D02*
X105960000Y-99927000D01*
X112860000Y-99967000D02*
X105977000Y-99967000D01*
X112860000Y-100007000D02*
X105995000Y-100007000D01*
X112860000Y-100047000D02*
X106013000Y-100047000D01*
X112860000Y-100087000D02*
X106031000Y-100087000D01*
X112860000Y-100127000D02*
X106049000Y-100127000D01*
X112860000Y-100167000D02*
X106067000Y-100167000D01*
X112860000Y-100207000D02*
X106086000Y-100207000D01*
X112860000Y-100247000D02*
X106105000Y-100247000D01*
X112860000Y-100287000D02*
X106124000Y-100287000D01*
X112860000Y-100327000D02*
X106144000Y-100327000D01*
X112860000Y-100367000D02*
X106163000Y-100367000D01*
X112860000Y-100407000D02*
X106183000Y-100407000D01*
X112860000Y-100447000D02*
X106203000Y-100447000D01*
X112860000Y-100487000D02*
X106224000Y-100487000D01*
X112860000Y-100527000D02*
X106244000Y-100527000D01*
X112860000Y-100567000D02*
X106265000Y-100567000D01*
X112860000Y-100607000D02*
X106286000Y-100607000D01*
X112860000Y-100647000D02*
X106308000Y-100647000D01*
X112860000Y-100687000D02*
X106329000Y-100687000D01*
X112860000Y-100727000D02*
X106351000Y-100727000D01*
X112860000Y-100767000D02*
X106373000Y-100767000D01*
X112860000Y-100807000D02*
X106396000Y-100807000D01*
X112860000Y-100847000D02*
X106418000Y-100847000D01*
X112860000Y-100887000D02*
X106441000Y-100887000D01*
X112860000Y-100927000D02*
X106465000Y-100927000D01*
X112860000Y-100967000D02*
X106488000Y-100967000D01*
X112860000Y-101007000D02*
X106512000Y-101007000D01*
X112860000Y-101047000D02*
X106536000Y-101047000D01*
X112860000Y-101087000D02*
X106560000Y-101087000D01*
X112860000Y-101127000D02*
X106585000Y-101127000D01*
X112860000Y-101167000D02*
X106610000Y-101167000D01*
X112860000Y-101207000D02*
X106635000Y-101207000D01*
X112860000Y-101247000D02*
X106660000Y-101247000D01*
X112860000Y-101287000D02*
X106686000Y-101287000D01*
X112860000Y-101327000D02*
X106712000Y-101327000D01*
X112860000Y-101367000D02*
X106739000Y-101367000D01*
X112860000Y-101407000D02*
X106765000Y-101407000D01*
X112860000Y-101447000D02*
X106792000Y-101447000D01*
X112860000Y-101487000D02*
X106820000Y-101487000D01*
X114340000Y-105446000D02*
X114260000Y-105446000D01*
X115114000Y-105406000D02*
X113486000Y-105406000D01*
X115466000Y-105366000D02*
X113134000Y-105366000D01*
X115735000Y-105326000D02*
X112865000Y-105326000D01*
X115961000Y-105286000D02*
X112639000Y-105286000D01*
X116160000Y-105246000D02*
X112440000Y-105246000D01*
X116339000Y-105206000D02*
X112261000Y-105206000D01*
X116503000Y-105166000D02*
X112097000Y-105166000D01*
X116655000Y-105126000D02*
X111945000Y-105126000D01*
X116798000Y-105086000D02*
X111802000Y-105086000D01*
X116932000Y-105046000D02*
X111668000Y-105046000D01*
X117059000Y-105006000D02*
X111541000Y-105006000D01*
X117180000Y-104966000D02*
X111420000Y-104966000D01*
X117296000Y-104926000D02*
X111304000Y-104926000D01*
X117407000Y-104886000D02*
X111193000Y-104886000D01*
X117514000Y-104846000D02*
X111086000Y-104846000D01*
X117617000Y-104806000D02*
X110983000Y-104806000D01*
X117716000Y-104766000D02*
X110884000Y-104766000D01*
X117812000Y-104726000D02*
X110788000Y-104726000D01*
X117905000Y-104686000D02*
X110695000Y-104686000D01*
X117996000Y-104646000D02*
X110604000Y-104646000D01*
X118084000Y-104606000D02*
X110516000Y-104606000D01*
X118169000Y-104566000D02*
X110431000Y-104566000D01*
X118252000Y-104526000D02*
X110348000Y-104526000D01*
X118333000Y-104487000D02*
X110267000Y-104487000D01*
X118413000Y-104447000D02*
X110187000Y-104447000D01*
X118490000Y-104407000D02*
X110110000Y-104407000D01*
X118565000Y-104367000D02*
X110035000Y-104367000D01*
X118639000Y-104327000D02*
X109961000Y-104327000D01*
X118712000Y-104287000D02*
X109888000Y-104287000D01*
X118782000Y-104247000D02*
X109818000Y-104247000D01*
X118852000Y-104207000D02*
X109748000Y-104207000D01*
X118920000Y-104167000D02*
X109680000Y-104167000D01*
X118986000Y-104127000D02*
X109614000Y-104127000D01*
X119052000Y-104087000D02*
X109548000Y-104087000D01*
X119116000Y-104047000D02*
X109484000Y-104047000D01*
X119179000Y-104007000D02*
X109421000Y-104007000D01*
X119241000Y-103967000D02*
X109359000Y-103967000D01*
X119302000Y-103927000D02*
X109298000Y-103927000D01*
X119362000Y-103887000D02*
X109238000Y-103887000D01*
X119415000Y-86566560D02*
X119415000Y-88366560D01*
X119420000Y-103847000D02*
X109180000Y-103847000D01*
X119478000Y-103807000D02*
X109122000Y-103807000D01*
X119535000Y-103767000D02*
X109065000Y-103767000D01*
X119591000Y-103727000D02*
X109009000Y-103727000D01*
X119646000Y-103687000D02*
X108954000Y-103687000D01*
X119700000Y-103647000D02*
X108900000Y-103647000D01*
X119754000Y-103607000D02*
X108846000Y-103607000D01*
X119806000Y-103567000D02*
X108794000Y-103567000D01*
X119858000Y-103527000D02*
X108742000Y-103527000D01*
X119909000Y-103487000D02*
X108691000Y-103487000D01*
X119960000Y-103447000D02*
X108640000Y-103447000D01*
X120009000Y-103407000D02*
X108591000Y-103407000D01*
X120058000Y-103367000D02*
X108542000Y-103367000D01*
X120106000Y-103327000D02*
X108494000Y-103327000D01*
X120154000Y-103287000D02*
X108446000Y-103287000D01*
X120201000Y-103247000D02*
X108399000Y-103247000D01*
X120247000Y-103207000D02*
X108353000Y-103207000D01*
X120293000Y-103167000D02*
X108307000Y-103167000D01*
X120315000Y-87466560D02*
X118515000Y-87466560D01*
X120338000Y-103127000D02*
X108262000Y-103127000D01*
X120382000Y-103087000D02*
X108218000Y-103087000D01*
X120426000Y-103047000D02*
X108174000Y-103047000D01*
X120470000Y-103007000D02*
X108130000Y-103007000D01*
X120512000Y-102967000D02*
X108088000Y-102967000D01*
X120554000Y-102927000D02*
X108046000Y-102927000D01*
X120596000Y-102887000D02*
X108004000Y-102887000D01*
X120637000Y-102847000D02*
X107963000Y-102847000D01*
X120678000Y-102807000D02*
X107922000Y-102807000D01*
X120718000Y-102767000D02*
X107882000Y-102767000D01*
X120758000Y-102727000D02*
X107842000Y-102727000D01*
X120797000Y-102687000D02*
X107803000Y-102687000D01*
X120836000Y-102647000D02*
X107764000Y-102647000D01*
X120874000Y-102607000D02*
X107726000Y-102607000D01*
X120912000Y-102567000D02*
X107688000Y-102567000D01*
X120949000Y-102527000D02*
X107651000Y-102527000D01*
X120986000Y-102487000D02*
X107614000Y-102487000D01*
X121022000Y-102447000D02*
X107578000Y-102447000D01*
X121058000Y-102407000D02*
X107542000Y-102407000D01*
X121094000Y-102367000D02*
X107506000Y-102367000D01*
X121129000Y-102327000D02*
X107471000Y-102327000D01*
X121164000Y-102287000D02*
X107436000Y-102287000D01*
X121198000Y-102247000D02*
X107402000Y-102247000D01*
X121232000Y-102207000D02*
X107368000Y-102207000D01*
X121265000Y-102167000D02*
X107335000Y-102167000D01*
X121299000Y-102127000D02*
X107301000Y-102127000D01*
X121331000Y-102087000D02*
X107269000Y-102087000D01*
X121364000Y-102047000D02*
X107236000Y-102047000D01*
X121396000Y-102007000D02*
X107204000Y-102007000D01*
X121427000Y-101967000D02*
X107173000Y-101967000D01*
X121459000Y-101927000D02*
X107141000Y-101927000D01*
X121490000Y-101887000D02*
X107110000Y-101887000D01*
X121520000Y-101847000D02*
X107080000Y-101847000D01*
X121550000Y-101807000D02*
X107050000Y-101807000D01*
X121580000Y-101767000D02*
X107020000Y-101767000D01*
X121610000Y-101727000D02*
X106990000Y-101727000D01*
X121639000Y-101687000D02*
X106961000Y-101687000D01*
X121668000Y-101647000D02*
X106932000Y-101647000D01*
X121697000Y-101607000D02*
X106903000Y-101607000D01*
X121725000Y-101567000D02*
X106875000Y-101567000D01*
X121753000Y-101527000D02*
X106847000Y-101527000D01*
X121780000Y-101487000D02*
X115740000Y-101487000D01*
X121808000Y-101447000D02*
X115740000Y-101447000D01*
X121835000Y-101407000D02*
X115740000Y-101407000D01*
X121861000Y-101367000D02*
X115740000Y-101367000D01*
X121888000Y-101327000D02*
X115740000Y-101327000D01*
X121914000Y-101287000D02*
X115740000Y-101287000D01*
X121940000Y-101247000D02*
X115740000Y-101247000D01*
X121965000Y-101207000D02*
X115740000Y-101207000D01*
X121990000Y-101167000D02*
X115740000Y-101167000D01*
X122015000Y-101127000D02*
X115740000Y-101127000D01*
X122040000Y-101087000D02*
X115740000Y-101087000D01*
X122064000Y-101047000D02*
X115740000Y-101047000D01*
X122088000Y-101007000D02*
X115740000Y-101007000D01*
X122112000Y-100967000D02*
X115740000Y-100967000D01*
X122135000Y-100927000D02*
X115740000Y-100927000D01*
X122159000Y-100887000D02*
X115740000Y-100887000D01*
X122182000Y-100847000D02*
X115740000Y-100847000D01*
X122204000Y-100807000D02*
X115740000Y-100807000D01*
X122227000Y-100767000D02*
X115740000Y-100767000D01*
X122249000Y-100727000D02*
X115740000Y-100727000D01*
X122271000Y-100687000D02*
X115740000Y-100687000D01*
X122292000Y-100647000D02*
X115740000Y-100647000D01*
X122314000Y-100607000D02*
X115740000Y-100607000D01*
X122335000Y-100567000D02*
X115740000Y-100567000D01*
X122356000Y-100527000D02*
X115740000Y-100527000D01*
X122376000Y-100487000D02*
X115740000Y-100487000D01*
X122397000Y-100447000D02*
X115740000Y-100447000D01*
X122417000Y-100407000D02*
X115740000Y-100407000D01*
X122437000Y-100367000D02*
X115740000Y-100367000D01*
X122456000Y-100327000D02*
X115740000Y-100327000D01*
X122476000Y-100287000D02*
X115740000Y-100287000D01*
X122495000Y-100247000D02*
X115740000Y-100247000D01*
X122514000Y-100207000D02*
X115740000Y-100207000D01*
X122533000Y-100167000D02*
X115740000Y-100167000D01*
X122551000Y-100127000D02*
X115740000Y-100127000D01*
X122569000Y-100087000D02*
X115740000Y-100087000D01*
X122587000Y-100047000D02*
X115740000Y-100047000D01*
X122605000Y-100007000D02*
X115740000Y-100007000D01*
X122623000Y-99967000D02*
X115740000Y-99967000D01*
X122640000Y-99927000D02*
X115740000Y-99927000D01*
X122657000Y-99887000D02*
X115740000Y-99887000D01*
X122674000Y-99847000D02*
X115740000Y-99847000D01*
X122690000Y-99807000D02*
X115740000Y-99807000D01*
X122707000Y-99767000D02*
X115740000Y-99767000D01*
X122723000Y-99727000D02*
X115740000Y-99727000D01*
X122739000Y-99687000D02*
X115740000Y-99687000D01*
X122755000Y-99647000D02*
X115740000Y-99647000D01*
X122770000Y-99607000D02*
X115740000Y-99607000D01*
X122786000Y-99567000D02*
X115740000Y-99567000D01*
X122801000Y-99527000D02*
X115740000Y-99527000D01*
X122816000Y-99487000D02*
X115740000Y-99487000D01*
X122830000Y-99447000D02*
X115740000Y-99447000D01*
X122845000Y-99407000D02*
X115740000Y-99407000D01*
X122859000Y-99367000D02*
X115740000Y-99367000D01*
X122873000Y-99327000D02*
X115740000Y-99327000D01*
X122887000Y-99287000D02*
X115740000Y-99287000D01*
X122900000Y-99247000D02*
X115740000Y-99247000D01*
X122914000Y-99207000D02*
X115740000Y-99207000D01*
X122927000Y-99167000D02*
X115740000Y-99167000D01*
X122940000Y-99127000D02*
X115740000Y-99127000D01*
X122953000Y-99087000D02*
X115740000Y-99087000D01*
X122965000Y-99047000D02*
X115740000Y-99047000D01*
X122978000Y-99007000D02*
X115740000Y-99007000D01*
X122990000Y-98967000D02*
X115740000Y-98967000D01*
X123002000Y-98927000D02*
X115740000Y-98927000D01*
X123014000Y-98887000D02*
X115740000Y-98887000D01*
X123025000Y-98847000D02*
X115740000Y-98847000D01*
X123037000Y-98807000D02*
X115740000Y-98807000D01*
X123048000Y-98767000D02*
X115740000Y-98767000D01*
X123059000Y-98727000D02*
X115740000Y-98727000D01*
X123070000Y-98687000D02*
X115740000Y-98687000D01*
X123080000Y-98647000D02*
X115740000Y-98647000D01*
X123091000Y-98607000D02*
X105509000Y-98607000D01*
X123101000Y-98567000D02*
X105499000Y-98567000D01*
X123111000Y-98527000D02*
X105489000Y-98527000D01*
X123121000Y-98487000D02*
X105479000Y-98487000D01*
X123131000Y-98447000D02*
X105469000Y-98447000D01*
X123140000Y-98407000D02*
X105460000Y-98407000D01*
X123149000Y-98367000D02*
X105451000Y-98367000D01*
X123158000Y-98327000D02*
X105442000Y-98327000D01*
X123167000Y-98287000D02*
X105433000Y-98287000D01*
X123176000Y-98247000D02*
X105424000Y-98247000D01*
X123185000Y-98207000D02*
X105415000Y-98207000D01*
X123193000Y-98167000D02*
X105407000Y-98167000D01*
X123201000Y-98127000D02*
X105399000Y-98127000D01*
X123209000Y-98087000D02*
X105391000Y-98087000D01*
X123217000Y-98047000D02*
X105383000Y-98047000D01*
X123224000Y-98007000D02*
X105376000Y-98007000D01*
X123232000Y-97967000D02*
X105368000Y-97967000D01*
X123239000Y-97927000D02*
X105361000Y-97927000D01*
X123246000Y-97887000D02*
X105354000Y-97887000D01*
X123253000Y-97847000D02*
X105347000Y-97847000D01*
X123260000Y-97807000D02*
X105340000Y-97807000D01*
X123266000Y-97767000D02*
X105334000Y-97767000D01*
X123272000Y-97727000D02*
X105328000Y-97727000D01*
X123279000Y-97687000D02*
X105321000Y-97687000D01*
X123284000Y-97647000D02*
X105316000Y-97647000D01*
X123290000Y-97607000D02*
X105310000Y-97607000D01*
X123296000Y-97567000D02*
X105304000Y-97567000D01*
X123301000Y-97527000D02*
X105299000Y-97527000D01*
X123306000Y-97487000D02*
X105294000Y-97487000D01*
X123311000Y-97447000D02*
X105289000Y-97447000D01*
X123316000Y-97407000D02*
X105284000Y-97407000D01*
X123321000Y-97367000D02*
X105279000Y-97367000D01*
X123326000Y-97327000D02*
X105274000Y-97327000D01*
X123330000Y-97287000D02*
X105270000Y-97287000D01*
X123334000Y-97247000D02*
X105266000Y-97247000D01*
X123338000Y-97207000D02*
X105262000Y-97207000D01*
X123342000Y-97167000D02*
X105258000Y-97167000D01*
X123345000Y-97127000D02*
X105255000Y-97127000D01*
X123349000Y-97087000D02*
X105251000Y-97087000D01*
X123352000Y-97047000D02*
X105248000Y-97047000D01*
X123355000Y-97006000D02*
X105245000Y-97006000D01*
X123358000Y-96966000D02*
X105242000Y-96966000D01*
X123361000Y-96926000D02*
X105239000Y-96926000D01*
X123363000Y-96886000D02*
X105237000Y-96886000D01*
X123366000Y-96846000D02*
X105234000Y-96846000D01*
X123368000Y-96806000D02*
X105232000Y-96806000D01*
X123370000Y-96766000D02*
X105230000Y-96766000D01*
X123372000Y-96726000D02*
X105228000Y-96726000D01*
X123373000Y-96686000D02*
X105227000Y-96686000D01*
X123375000Y-96646000D02*
X105225000Y-96646000D01*
X123376000Y-96606000D02*
X105224000Y-96606000D01*
X123377000Y-96566000D02*
X105223000Y-96566000D01*
X123378000Y-96526000D02*
X105222000Y-96526000D01*
X123379000Y-96486000D02*
X105221000Y-96486000D01*
X123380000Y-96366000D02*
X105220000Y-96366000D01*
X123380000Y-96406000D02*
X105220000Y-96406000D01*
X123380000Y-96446000D02*
X105220000Y-96446000D01*
X123381000Y-96326000D02*
X105219000Y-96326000D01*
X123420000Y-96326000D02*
G75*
G02*
X105180000Y-96326000I-9120000J0D01*
G01*
X105180000Y-96326000D02*
G75*
G02*
X123420000Y-96326000I9120000J0D01*
G01*
%TO.C,D4*%
X93120000Y-91850000D02*
X93120000Y-101190000D01*
X93120000Y-101190000D02*
X95950000Y-101190000D01*
X95950000Y-91850000D02*
X93120000Y-91850000D01*
X99630000Y-91850000D02*
X102460000Y-91850000D01*
X102460000Y-91850000D02*
X102460000Y-101190000D01*
X102460000Y-93215000D02*
X93120000Y-93215000D01*
X102460000Y-93335000D02*
X93120000Y-93335000D01*
X102460000Y-93455000D02*
X93120000Y-93455000D01*
X102460000Y-101190000D02*
X99630000Y-101190000D01*
%TO.C,C5*%
X133688000Y-78327000D02*
X126348000Y-78327000D01*
X133688000Y-78367000D02*
X126358000Y-78367000D01*
X133688000Y-78407000D02*
X126369000Y-78407000D01*
X133688000Y-78447000D02*
X126380000Y-78447000D01*
X133688000Y-78487000D02*
X126391000Y-78487000D01*
X133688000Y-78527000D02*
X126403000Y-78527000D01*
X133688000Y-78567000D02*
X126414000Y-78567000D01*
X133688000Y-78607000D02*
X126426000Y-78607000D01*
X133688000Y-78647000D02*
X126438000Y-78647000D01*
X133688000Y-78687000D02*
X126450000Y-78687000D01*
X133688000Y-78727000D02*
X126463000Y-78727000D01*
X133688000Y-78767000D02*
X126475000Y-78767000D01*
X133688000Y-78807000D02*
X126488000Y-78807000D01*
X133688000Y-78847000D02*
X126501000Y-78847000D01*
X133688000Y-78887000D02*
X126514000Y-78887000D01*
X133688000Y-78927000D02*
X126528000Y-78927000D01*
X133688000Y-78967000D02*
X126541000Y-78967000D01*
X133688000Y-79007000D02*
X126555000Y-79007000D01*
X133688000Y-79047000D02*
X126569000Y-79047000D01*
X133688000Y-79087000D02*
X126583000Y-79087000D01*
X133688000Y-79127000D02*
X126598000Y-79127000D01*
X133688000Y-79167000D02*
X126612000Y-79167000D01*
X133688000Y-79207000D02*
X126627000Y-79207000D01*
X133688000Y-79247000D02*
X126642000Y-79247000D01*
X133688000Y-79287000D02*
X126658000Y-79287000D01*
X133688000Y-79327000D02*
X126673000Y-79327000D01*
X133688000Y-79367000D02*
X126689000Y-79367000D01*
X133688000Y-79407000D02*
X126705000Y-79407000D01*
X133688000Y-79447000D02*
X126721000Y-79447000D01*
X133688000Y-79487000D02*
X126738000Y-79487000D01*
X133688000Y-79527000D02*
X126754000Y-79527000D01*
X133688000Y-79567000D02*
X126771000Y-79567000D01*
X133688000Y-79607000D02*
X126788000Y-79607000D01*
X133688000Y-79647000D02*
X126805000Y-79647000D01*
X133688000Y-79687000D02*
X126823000Y-79687000D01*
X133688000Y-79727000D02*
X126841000Y-79727000D01*
X133688000Y-79767000D02*
X126859000Y-79767000D01*
X133688000Y-79807000D02*
X126877000Y-79807000D01*
X133688000Y-79847000D02*
X126895000Y-79847000D01*
X133688000Y-79887000D02*
X126914000Y-79887000D01*
X133688000Y-79927000D02*
X126933000Y-79927000D01*
X133688000Y-79967000D02*
X126952000Y-79967000D01*
X133688000Y-80007000D02*
X126972000Y-80007000D01*
X133688000Y-80047000D02*
X126991000Y-80047000D01*
X133688000Y-80087000D02*
X127011000Y-80087000D01*
X133688000Y-80127000D02*
X127031000Y-80127000D01*
X133688000Y-80167000D02*
X127052000Y-80167000D01*
X133688000Y-80207000D02*
X127072000Y-80207000D01*
X133688000Y-80247000D02*
X127093000Y-80247000D01*
X133688000Y-80287000D02*
X127114000Y-80287000D01*
X133688000Y-80327000D02*
X127136000Y-80327000D01*
X133688000Y-80367000D02*
X127157000Y-80367000D01*
X133688000Y-80407000D02*
X127179000Y-80407000D01*
X133688000Y-80447000D02*
X127201000Y-80447000D01*
X133688000Y-80487000D02*
X127224000Y-80487000D01*
X133688000Y-80527000D02*
X127246000Y-80527000D01*
X133688000Y-80567000D02*
X127269000Y-80567000D01*
X133688000Y-80607000D02*
X127293000Y-80607000D01*
X133688000Y-80647000D02*
X127316000Y-80647000D01*
X133688000Y-80687000D02*
X127340000Y-80687000D01*
X133688000Y-80727000D02*
X127364000Y-80727000D01*
X133688000Y-80767000D02*
X127388000Y-80767000D01*
X133688000Y-80807000D02*
X127413000Y-80807000D01*
X133688000Y-80847000D02*
X127438000Y-80847000D01*
X133688000Y-80887000D02*
X127463000Y-80887000D01*
X133688000Y-80927000D02*
X127488000Y-80927000D01*
X133688000Y-80967000D02*
X127514000Y-80967000D01*
X133688000Y-81007000D02*
X127540000Y-81007000D01*
X133688000Y-81047000D02*
X127567000Y-81047000D01*
X133688000Y-81087000D02*
X127593000Y-81087000D01*
X133688000Y-81127000D02*
X127620000Y-81127000D01*
X133688000Y-81167000D02*
X127648000Y-81167000D01*
X135168000Y-85126000D02*
X135088000Y-85126000D01*
X135942000Y-85086000D02*
X134314000Y-85086000D01*
X136294000Y-85046000D02*
X133962000Y-85046000D01*
X136563000Y-85006000D02*
X133693000Y-85006000D01*
X136789000Y-84966000D02*
X133467000Y-84966000D01*
X136988000Y-84926000D02*
X133268000Y-84926000D01*
X137167000Y-84886000D02*
X133089000Y-84886000D01*
X137331000Y-84846000D02*
X132925000Y-84846000D01*
X137483000Y-84806000D02*
X132773000Y-84806000D01*
X137626000Y-84766000D02*
X132630000Y-84766000D01*
X137760000Y-84726000D02*
X132496000Y-84726000D01*
X137887000Y-84686000D02*
X132369000Y-84686000D01*
X138008000Y-84646000D02*
X132248000Y-84646000D01*
X138124000Y-84606000D02*
X132132000Y-84606000D01*
X138235000Y-84566000D02*
X132021000Y-84566000D01*
X138342000Y-84526000D02*
X131914000Y-84526000D01*
X138445000Y-84486000D02*
X131811000Y-84486000D01*
X138544000Y-84446000D02*
X131712000Y-84446000D01*
X138640000Y-84406000D02*
X131616000Y-84406000D01*
X138733000Y-84366000D02*
X131523000Y-84366000D01*
X138824000Y-84326000D02*
X131432000Y-84326000D01*
X138912000Y-84286000D02*
X131344000Y-84286000D01*
X138997000Y-84246000D02*
X131259000Y-84246000D01*
X139080000Y-84206000D02*
X131176000Y-84206000D01*
X139161000Y-84167000D02*
X131095000Y-84167000D01*
X139241000Y-84127000D02*
X131015000Y-84127000D01*
X139318000Y-84087000D02*
X130938000Y-84087000D01*
X139393000Y-84047000D02*
X130863000Y-84047000D01*
X139467000Y-84007000D02*
X130789000Y-84007000D01*
X139540000Y-83967000D02*
X130716000Y-83967000D01*
X139610000Y-83927000D02*
X130646000Y-83927000D01*
X139680000Y-83887000D02*
X130576000Y-83887000D01*
X139748000Y-83847000D02*
X130508000Y-83847000D01*
X139814000Y-83807000D02*
X130442000Y-83807000D01*
X139880000Y-83767000D02*
X130376000Y-83767000D01*
X139944000Y-83727000D02*
X130312000Y-83727000D01*
X140007000Y-83687000D02*
X130249000Y-83687000D01*
X140069000Y-83647000D02*
X130187000Y-83647000D01*
X140130000Y-83607000D02*
X130126000Y-83607000D01*
X140190000Y-83567000D02*
X130066000Y-83567000D01*
X140243000Y-66246560D02*
X140243000Y-68046560D01*
X140248000Y-83527000D02*
X130008000Y-83527000D01*
X140306000Y-83487000D02*
X129950000Y-83487000D01*
X140363000Y-83447000D02*
X129893000Y-83447000D01*
X140419000Y-83407000D02*
X129837000Y-83407000D01*
X140474000Y-83367000D02*
X129782000Y-83367000D01*
X140528000Y-83327000D02*
X129728000Y-83327000D01*
X140582000Y-83287000D02*
X129674000Y-83287000D01*
X140634000Y-83247000D02*
X129622000Y-83247000D01*
X140686000Y-83207000D02*
X129570000Y-83207000D01*
X140737000Y-83167000D02*
X129519000Y-83167000D01*
X140788000Y-83127000D02*
X129468000Y-83127000D01*
X140837000Y-83087000D02*
X129419000Y-83087000D01*
X140886000Y-83047000D02*
X129370000Y-83047000D01*
X140934000Y-83007000D02*
X129322000Y-83007000D01*
X140982000Y-82967000D02*
X129274000Y-82967000D01*
X141029000Y-82927000D02*
X129227000Y-82927000D01*
X141075000Y-82887000D02*
X129181000Y-82887000D01*
X141121000Y-82847000D02*
X129135000Y-82847000D01*
X141143000Y-67146560D02*
X139343000Y-67146560D01*
X141166000Y-82807000D02*
X129090000Y-82807000D01*
X141210000Y-82767000D02*
X129046000Y-82767000D01*
X141254000Y-82727000D02*
X129002000Y-82727000D01*
X141298000Y-82687000D02*
X128958000Y-82687000D01*
X141340000Y-82647000D02*
X128916000Y-82647000D01*
X141382000Y-82607000D02*
X128874000Y-82607000D01*
X141424000Y-82567000D02*
X128832000Y-82567000D01*
X141465000Y-82527000D02*
X128791000Y-82527000D01*
X141506000Y-82487000D02*
X128750000Y-82487000D01*
X141546000Y-82447000D02*
X128710000Y-82447000D01*
X141586000Y-82407000D02*
X128670000Y-82407000D01*
X141625000Y-82367000D02*
X128631000Y-82367000D01*
X141664000Y-82327000D02*
X128592000Y-82327000D01*
X141702000Y-82287000D02*
X128554000Y-82287000D01*
X141740000Y-82247000D02*
X128516000Y-82247000D01*
X141777000Y-82207000D02*
X128479000Y-82207000D01*
X141814000Y-82167000D02*
X128442000Y-82167000D01*
X141850000Y-82127000D02*
X128406000Y-82127000D01*
X141886000Y-82087000D02*
X128370000Y-82087000D01*
X141922000Y-82047000D02*
X128334000Y-82047000D01*
X141957000Y-82007000D02*
X128299000Y-82007000D01*
X141992000Y-81967000D02*
X128264000Y-81967000D01*
X142026000Y-81927000D02*
X128230000Y-81927000D01*
X142060000Y-81887000D02*
X128196000Y-81887000D01*
X142093000Y-81847000D02*
X128163000Y-81847000D01*
X142127000Y-81807000D02*
X128129000Y-81807000D01*
X142159000Y-81767000D02*
X128097000Y-81767000D01*
X142192000Y-81727000D02*
X128064000Y-81727000D01*
X142224000Y-81687000D02*
X128032000Y-81687000D01*
X142255000Y-81647000D02*
X128001000Y-81647000D01*
X142287000Y-81607000D02*
X127969000Y-81607000D01*
X142318000Y-81567000D02*
X127938000Y-81567000D01*
X142348000Y-81527000D02*
X127908000Y-81527000D01*
X142378000Y-81487000D02*
X127878000Y-81487000D01*
X142408000Y-81447000D02*
X127848000Y-81447000D01*
X142438000Y-81407000D02*
X127818000Y-81407000D01*
X142467000Y-81367000D02*
X127789000Y-81367000D01*
X142496000Y-81327000D02*
X127760000Y-81327000D01*
X142525000Y-81287000D02*
X127731000Y-81287000D01*
X142553000Y-81247000D02*
X127703000Y-81247000D01*
X142581000Y-81207000D02*
X127675000Y-81207000D01*
X142608000Y-81167000D02*
X136568000Y-81167000D01*
X142636000Y-81127000D02*
X136568000Y-81127000D01*
X142663000Y-81087000D02*
X136568000Y-81087000D01*
X142689000Y-81047000D02*
X136568000Y-81047000D01*
X142716000Y-81007000D02*
X136568000Y-81007000D01*
X142742000Y-80967000D02*
X136568000Y-80967000D01*
X142768000Y-80927000D02*
X136568000Y-80927000D01*
X142793000Y-80887000D02*
X136568000Y-80887000D01*
X142818000Y-80847000D02*
X136568000Y-80847000D01*
X142843000Y-80807000D02*
X136568000Y-80807000D01*
X142868000Y-80767000D02*
X136568000Y-80767000D01*
X142892000Y-80727000D02*
X136568000Y-80727000D01*
X142916000Y-80687000D02*
X136568000Y-80687000D01*
X142940000Y-80647000D02*
X136568000Y-80647000D01*
X142963000Y-80607000D02*
X136568000Y-80607000D01*
X142987000Y-80567000D02*
X136568000Y-80567000D01*
X143010000Y-80527000D02*
X136568000Y-80527000D01*
X143032000Y-80487000D02*
X136568000Y-80487000D01*
X143055000Y-80447000D02*
X136568000Y-80447000D01*
X143077000Y-80407000D02*
X136568000Y-80407000D01*
X143099000Y-80367000D02*
X136568000Y-80367000D01*
X143120000Y-80327000D02*
X136568000Y-80327000D01*
X143142000Y-80287000D02*
X136568000Y-80287000D01*
X143163000Y-80247000D02*
X136568000Y-80247000D01*
X143184000Y-80207000D02*
X136568000Y-80207000D01*
X143204000Y-80167000D02*
X136568000Y-80167000D01*
X143225000Y-80127000D02*
X136568000Y-80127000D01*
X143245000Y-80087000D02*
X136568000Y-80087000D01*
X143265000Y-80047000D02*
X136568000Y-80047000D01*
X143284000Y-80007000D02*
X136568000Y-80007000D01*
X143304000Y-79967000D02*
X136568000Y-79967000D01*
X143323000Y-79927000D02*
X136568000Y-79927000D01*
X143342000Y-79887000D02*
X136568000Y-79887000D01*
X143361000Y-79847000D02*
X136568000Y-79847000D01*
X143379000Y-79807000D02*
X136568000Y-79807000D01*
X143397000Y-79767000D02*
X136568000Y-79767000D01*
X143415000Y-79727000D02*
X136568000Y-79727000D01*
X143433000Y-79687000D02*
X136568000Y-79687000D01*
X143451000Y-79647000D02*
X136568000Y-79647000D01*
X143468000Y-79607000D02*
X136568000Y-79607000D01*
X143485000Y-79567000D02*
X136568000Y-79567000D01*
X143502000Y-79527000D02*
X136568000Y-79527000D01*
X143518000Y-79487000D02*
X136568000Y-79487000D01*
X143535000Y-79447000D02*
X136568000Y-79447000D01*
X143551000Y-79407000D02*
X136568000Y-79407000D01*
X143567000Y-79367000D02*
X136568000Y-79367000D01*
X143583000Y-79327000D02*
X136568000Y-79327000D01*
X143598000Y-79287000D02*
X136568000Y-79287000D01*
X143614000Y-79247000D02*
X136568000Y-79247000D01*
X143629000Y-79207000D02*
X136568000Y-79207000D01*
X143644000Y-79167000D02*
X136568000Y-79167000D01*
X143658000Y-79127000D02*
X136568000Y-79127000D01*
X143673000Y-79087000D02*
X136568000Y-79087000D01*
X143687000Y-79047000D02*
X136568000Y-79047000D01*
X143701000Y-79007000D02*
X136568000Y-79007000D01*
X143715000Y-78967000D02*
X136568000Y-78967000D01*
X143728000Y-78927000D02*
X136568000Y-78927000D01*
X143742000Y-78887000D02*
X136568000Y-78887000D01*
X143755000Y-78847000D02*
X136568000Y-78847000D01*
X143768000Y-78807000D02*
X136568000Y-78807000D01*
X143781000Y-78767000D02*
X136568000Y-78767000D01*
X143793000Y-78727000D02*
X136568000Y-78727000D01*
X143806000Y-78687000D02*
X136568000Y-78687000D01*
X143818000Y-78647000D02*
X136568000Y-78647000D01*
X143830000Y-78607000D02*
X136568000Y-78607000D01*
X143842000Y-78567000D02*
X136568000Y-78567000D01*
X143853000Y-78527000D02*
X136568000Y-78527000D01*
X143865000Y-78487000D02*
X136568000Y-78487000D01*
X143876000Y-78447000D02*
X136568000Y-78447000D01*
X143887000Y-78407000D02*
X136568000Y-78407000D01*
X143898000Y-78367000D02*
X136568000Y-78367000D01*
X143908000Y-78327000D02*
X136568000Y-78327000D01*
X143919000Y-78287000D02*
X126337000Y-78287000D01*
X143929000Y-78247000D02*
X126327000Y-78247000D01*
X143939000Y-78207000D02*
X126317000Y-78207000D01*
X143949000Y-78167000D02*
X126307000Y-78167000D01*
X143959000Y-78127000D02*
X126297000Y-78127000D01*
X143968000Y-78087000D02*
X126288000Y-78087000D01*
X143977000Y-78047000D02*
X126279000Y-78047000D01*
X143986000Y-78007000D02*
X126270000Y-78007000D01*
X143995000Y-77967000D02*
X126261000Y-77967000D01*
X144004000Y-77927000D02*
X126252000Y-77927000D01*
X144013000Y-77887000D02*
X126243000Y-77887000D01*
X144021000Y-77847000D02*
X126235000Y-77847000D01*
X144029000Y-77807000D02*
X126227000Y-77807000D01*
X144037000Y-77767000D02*
X126219000Y-77767000D01*
X144045000Y-77727000D02*
X126211000Y-77727000D01*
X144052000Y-77687000D02*
X126204000Y-77687000D01*
X144060000Y-77647000D02*
X126196000Y-77647000D01*
X144067000Y-77607000D02*
X126189000Y-77607000D01*
X144074000Y-77567000D02*
X126182000Y-77567000D01*
X144081000Y-77527000D02*
X126175000Y-77527000D01*
X144088000Y-77487000D02*
X126168000Y-77487000D01*
X144094000Y-77447000D02*
X126162000Y-77447000D01*
X144100000Y-77407000D02*
X126156000Y-77407000D01*
X144107000Y-77367000D02*
X126149000Y-77367000D01*
X144112000Y-77327000D02*
X126144000Y-77327000D01*
X144118000Y-77287000D02*
X126138000Y-77287000D01*
X144124000Y-77247000D02*
X126132000Y-77247000D01*
X144129000Y-77207000D02*
X126127000Y-77207000D01*
X144134000Y-77167000D02*
X126122000Y-77167000D01*
X144139000Y-77127000D02*
X126117000Y-77127000D01*
X144144000Y-77087000D02*
X126112000Y-77087000D01*
X144149000Y-77047000D02*
X126107000Y-77047000D01*
X144154000Y-77007000D02*
X126102000Y-77007000D01*
X144158000Y-76967000D02*
X126098000Y-76967000D01*
X144162000Y-76927000D02*
X126094000Y-76927000D01*
X144166000Y-76887000D02*
X126090000Y-76887000D01*
X144170000Y-76847000D02*
X126086000Y-76847000D01*
X144173000Y-76807000D02*
X126083000Y-76807000D01*
X144177000Y-76767000D02*
X126079000Y-76767000D01*
X144180000Y-76727000D02*
X126076000Y-76727000D01*
X144183000Y-76686000D02*
X126073000Y-76686000D01*
X144186000Y-76646000D02*
X126070000Y-76646000D01*
X144189000Y-76606000D02*
X126067000Y-76606000D01*
X144191000Y-76566000D02*
X126065000Y-76566000D01*
X144194000Y-76526000D02*
X126062000Y-76526000D01*
X144196000Y-76486000D02*
X126060000Y-76486000D01*
X144198000Y-76446000D02*
X126058000Y-76446000D01*
X144200000Y-76406000D02*
X126056000Y-76406000D01*
X144201000Y-76366000D02*
X126055000Y-76366000D01*
X144203000Y-76326000D02*
X126053000Y-76326000D01*
X144204000Y-76286000D02*
X126052000Y-76286000D01*
X144205000Y-76246000D02*
X126051000Y-76246000D01*
X144206000Y-76206000D02*
X126050000Y-76206000D01*
X144207000Y-76166000D02*
X126049000Y-76166000D01*
X144208000Y-76046000D02*
X126048000Y-76046000D01*
X144208000Y-76086000D02*
X126048000Y-76086000D01*
X144208000Y-76126000D02*
X126048000Y-76126000D01*
X144209000Y-76006000D02*
X126047000Y-76006000D01*
X144248000Y-76006000D02*
G75*
G02*
X126008000Y-76006000I-9120000J0D01*
G01*
X126008000Y-76006000D02*
G75*
G02*
X144248000Y-76006000I9120000J0D01*
G01*
%TO.C,J3*%
D11*
X173736000Y-90932000D02*
X178816000Y-90932000D01*
X178816000Y-80772000D01*
X173736000Y-80772000D01*
X173736000Y-90932000D01*
D12*
%TO.C,D3*%
X78388000Y-71530000D02*
X78388000Y-80870000D01*
X78388000Y-80870000D02*
X81218000Y-80870000D01*
X81218000Y-71530000D02*
X78388000Y-71530000D01*
X84898000Y-71530000D02*
X87728000Y-71530000D01*
X87728000Y-71530000D02*
X87728000Y-80870000D01*
X87728000Y-72895000D02*
X78388000Y-72895000D01*
X87728000Y-73015000D02*
X78388000Y-73015000D01*
X87728000Y-73135000D02*
X78388000Y-73135000D01*
X87728000Y-80870000D02*
X84898000Y-80870000D01*
%TO.C,J1*%
D11*
X64516000Y-94488000D02*
X74676000Y-94488000D01*
X74676000Y-99568000D01*
X64516000Y-99568000D01*
X64516000Y-94488000D01*
D12*
%TO.C,C8*%
X154262000Y-99155000D02*
X146922000Y-99155000D01*
X154262000Y-99195000D02*
X146932000Y-99195000D01*
X154262000Y-99235000D02*
X146943000Y-99235000D01*
X154262000Y-99275000D02*
X146954000Y-99275000D01*
X154262000Y-99315000D02*
X146965000Y-99315000D01*
X154262000Y-99355000D02*
X146977000Y-99355000D01*
X154262000Y-99395000D02*
X146988000Y-99395000D01*
X154262000Y-99435000D02*
X147000000Y-99435000D01*
X154262000Y-99475000D02*
X147012000Y-99475000D01*
X154262000Y-99515000D02*
X147024000Y-99515000D01*
X154262000Y-99555000D02*
X147037000Y-99555000D01*
X154262000Y-99595000D02*
X147049000Y-99595000D01*
X154262000Y-99635000D02*
X147062000Y-99635000D01*
X154262000Y-99675000D02*
X147075000Y-99675000D01*
X154262000Y-99715000D02*
X147088000Y-99715000D01*
X154262000Y-99755000D02*
X147102000Y-99755000D01*
X154262000Y-99795000D02*
X147115000Y-99795000D01*
X154262000Y-99835000D02*
X147129000Y-99835000D01*
X154262000Y-99875000D02*
X147143000Y-99875000D01*
X154262000Y-99915000D02*
X147157000Y-99915000D01*
X154262000Y-99955000D02*
X147172000Y-99955000D01*
X154262000Y-99995000D02*
X147186000Y-99995000D01*
X154262000Y-100035000D02*
X147201000Y-100035000D01*
X154262000Y-100075000D02*
X147216000Y-100075000D01*
X154262000Y-100115000D02*
X147232000Y-100115000D01*
X154262000Y-100155000D02*
X147247000Y-100155000D01*
X154262000Y-100195000D02*
X147263000Y-100195000D01*
X154262000Y-100235000D02*
X147279000Y-100235000D01*
X154262000Y-100275000D02*
X147295000Y-100275000D01*
X154262000Y-100315000D02*
X147312000Y-100315000D01*
X154262000Y-100355000D02*
X147328000Y-100355000D01*
X154262000Y-100395000D02*
X147345000Y-100395000D01*
X154262000Y-100435000D02*
X147362000Y-100435000D01*
X154262000Y-100475000D02*
X147379000Y-100475000D01*
X154262000Y-100515000D02*
X147397000Y-100515000D01*
X154262000Y-100555000D02*
X147415000Y-100555000D01*
X154262000Y-100595000D02*
X147433000Y-100595000D01*
X154262000Y-100635000D02*
X147451000Y-100635000D01*
X154262000Y-100675000D02*
X147469000Y-100675000D01*
X154262000Y-100715000D02*
X147488000Y-100715000D01*
X154262000Y-100755000D02*
X147507000Y-100755000D01*
X154262000Y-100795000D02*
X147526000Y-100795000D01*
X154262000Y-100835000D02*
X147546000Y-100835000D01*
X154262000Y-100875000D02*
X147565000Y-100875000D01*
X154262000Y-100915000D02*
X147585000Y-100915000D01*
X154262000Y-100955000D02*
X147605000Y-100955000D01*
X154262000Y-100995000D02*
X147626000Y-100995000D01*
X154262000Y-101035000D02*
X147646000Y-101035000D01*
X154262000Y-101075000D02*
X147667000Y-101075000D01*
X154262000Y-101115000D02*
X147688000Y-101115000D01*
X154262000Y-101155000D02*
X147710000Y-101155000D01*
X154262000Y-101195000D02*
X147731000Y-101195000D01*
X154262000Y-101235000D02*
X147753000Y-101235000D01*
X154262000Y-101275000D02*
X147775000Y-101275000D01*
X154262000Y-101315000D02*
X147798000Y-101315000D01*
X154262000Y-101355000D02*
X147820000Y-101355000D01*
X154262000Y-101395000D02*
X147843000Y-101395000D01*
X154262000Y-101435000D02*
X147867000Y-101435000D01*
X154262000Y-101475000D02*
X147890000Y-101475000D01*
X154262000Y-101515000D02*
X147914000Y-101515000D01*
X154262000Y-101555000D02*
X147938000Y-101555000D01*
X154262000Y-101595000D02*
X147962000Y-101595000D01*
X154262000Y-101635000D02*
X147987000Y-101635000D01*
X154262000Y-101675000D02*
X148012000Y-101675000D01*
X154262000Y-101715000D02*
X148037000Y-101715000D01*
X154262000Y-101755000D02*
X148062000Y-101755000D01*
X154262000Y-101795000D02*
X148088000Y-101795000D01*
X154262000Y-101835000D02*
X148114000Y-101835000D01*
X154262000Y-101875000D02*
X148141000Y-101875000D01*
X154262000Y-101915000D02*
X148167000Y-101915000D01*
X154262000Y-101955000D02*
X148194000Y-101955000D01*
X154262000Y-101995000D02*
X148222000Y-101995000D01*
X155742000Y-105954000D02*
X155662000Y-105954000D01*
X156516000Y-105914000D02*
X154888000Y-105914000D01*
X156868000Y-105874000D02*
X154536000Y-105874000D01*
X157137000Y-105834000D02*
X154267000Y-105834000D01*
X157363000Y-105794000D02*
X154041000Y-105794000D01*
X157562000Y-105754000D02*
X153842000Y-105754000D01*
X157741000Y-105714000D02*
X153663000Y-105714000D01*
X157905000Y-105674000D02*
X153499000Y-105674000D01*
X158057000Y-105634000D02*
X153347000Y-105634000D01*
X158200000Y-105594000D02*
X153204000Y-105594000D01*
X158334000Y-105554000D02*
X153070000Y-105554000D01*
X158461000Y-105514000D02*
X152943000Y-105514000D01*
X158582000Y-105474000D02*
X152822000Y-105474000D01*
X158698000Y-105434000D02*
X152706000Y-105434000D01*
X158809000Y-105394000D02*
X152595000Y-105394000D01*
X158916000Y-105354000D02*
X152488000Y-105354000D01*
X159019000Y-105314000D02*
X152385000Y-105314000D01*
X159118000Y-105274000D02*
X152286000Y-105274000D01*
X159214000Y-105234000D02*
X152190000Y-105234000D01*
X159307000Y-105194000D02*
X152097000Y-105194000D01*
X159398000Y-105154000D02*
X152006000Y-105154000D01*
X159486000Y-105114000D02*
X151918000Y-105114000D01*
X159571000Y-105074000D02*
X151833000Y-105074000D01*
X159654000Y-105034000D02*
X151750000Y-105034000D01*
X159735000Y-104995000D02*
X151669000Y-104995000D01*
X159815000Y-104955000D02*
X151589000Y-104955000D01*
X159892000Y-104915000D02*
X151512000Y-104915000D01*
X159967000Y-104875000D02*
X151437000Y-104875000D01*
X160041000Y-104835000D02*
X151363000Y-104835000D01*
X160114000Y-104795000D02*
X151290000Y-104795000D01*
X160184000Y-104755000D02*
X151220000Y-104755000D01*
X160254000Y-104715000D02*
X151150000Y-104715000D01*
X160322000Y-104675000D02*
X151082000Y-104675000D01*
X160388000Y-104635000D02*
X151016000Y-104635000D01*
X160454000Y-104595000D02*
X150950000Y-104595000D01*
X160518000Y-104555000D02*
X150886000Y-104555000D01*
X160581000Y-104515000D02*
X150823000Y-104515000D01*
X160643000Y-104475000D02*
X150761000Y-104475000D01*
X160704000Y-104435000D02*
X150700000Y-104435000D01*
X160764000Y-104395000D02*
X150640000Y-104395000D01*
X160817000Y-87074560D02*
X160817000Y-88874560D01*
X160822000Y-104355000D02*
X150582000Y-104355000D01*
X160880000Y-104315000D02*
X150524000Y-104315000D01*
X160937000Y-104275000D02*
X150467000Y-104275000D01*
X160993000Y-104235000D02*
X150411000Y-104235000D01*
X161048000Y-104195000D02*
X150356000Y-104195000D01*
X161102000Y-104155000D02*
X150302000Y-104155000D01*
X161156000Y-104115000D02*
X150248000Y-104115000D01*
X161208000Y-104075000D02*
X150196000Y-104075000D01*
X161260000Y-104035000D02*
X150144000Y-104035000D01*
X161311000Y-103995000D02*
X150093000Y-103995000D01*
X161362000Y-103955000D02*
X150042000Y-103955000D01*
X161411000Y-103915000D02*
X149993000Y-103915000D01*
X161460000Y-103875000D02*
X149944000Y-103875000D01*
X161508000Y-103835000D02*
X149896000Y-103835000D01*
X161556000Y-103795000D02*
X149848000Y-103795000D01*
X161603000Y-103755000D02*
X149801000Y-103755000D01*
X161649000Y-103715000D02*
X149755000Y-103715000D01*
X161695000Y-103675000D02*
X149709000Y-103675000D01*
X161717000Y-87974560D02*
X159917000Y-87974560D01*
X161740000Y-103635000D02*
X149664000Y-103635000D01*
X161784000Y-103595000D02*
X149620000Y-103595000D01*
X161828000Y-103555000D02*
X149576000Y-103555000D01*
X161872000Y-103515000D02*
X149532000Y-103515000D01*
X161914000Y-103475000D02*
X149490000Y-103475000D01*
X161956000Y-103435000D02*
X149448000Y-103435000D01*
X161998000Y-103395000D02*
X149406000Y-103395000D01*
X162039000Y-103355000D02*
X149365000Y-103355000D01*
X162080000Y-103315000D02*
X149324000Y-103315000D01*
X162120000Y-103275000D02*
X149284000Y-103275000D01*
X162160000Y-103235000D02*
X149244000Y-103235000D01*
X162199000Y-103195000D02*
X149205000Y-103195000D01*
X162238000Y-103155000D02*
X149166000Y-103155000D01*
X162276000Y-103115000D02*
X149128000Y-103115000D01*
X162314000Y-103075000D02*
X149090000Y-103075000D01*
X162351000Y-103035000D02*
X149053000Y-103035000D01*
X162388000Y-102995000D02*
X149016000Y-102995000D01*
X162424000Y-102955000D02*
X148980000Y-102955000D01*
X162460000Y-102915000D02*
X148944000Y-102915000D01*
X162496000Y-102875000D02*
X148908000Y-102875000D01*
X162531000Y-102835000D02*
X148873000Y-102835000D01*
X162566000Y-102795000D02*
X148838000Y-102795000D01*
X162600000Y-102755000D02*
X148804000Y-102755000D01*
X162634000Y-102715000D02*
X148770000Y-102715000D01*
X162667000Y-102675000D02*
X148737000Y-102675000D01*
X162701000Y-102635000D02*
X148703000Y-102635000D01*
X162733000Y-102595000D02*
X148671000Y-102595000D01*
X162766000Y-102555000D02*
X148638000Y-102555000D01*
X162798000Y-102515000D02*
X148606000Y-102515000D01*
X162829000Y-102475000D02*
X148575000Y-102475000D01*
X162861000Y-102435000D02*
X148543000Y-102435000D01*
X162892000Y-102395000D02*
X148512000Y-102395000D01*
X162922000Y-102355000D02*
X148482000Y-102355000D01*
X162952000Y-102315000D02*
X148452000Y-102315000D01*
X162982000Y-102275000D02*
X148422000Y-102275000D01*
X163012000Y-102235000D02*
X148392000Y-102235000D01*
X163041000Y-102195000D02*
X148363000Y-102195000D01*
X163070000Y-102155000D02*
X148334000Y-102155000D01*
X163099000Y-102115000D02*
X148305000Y-102115000D01*
X163127000Y-102075000D02*
X148277000Y-102075000D01*
X163155000Y-102035000D02*
X148249000Y-102035000D01*
X163182000Y-101995000D02*
X157142000Y-101995000D01*
X163210000Y-101955000D02*
X157142000Y-101955000D01*
X163237000Y-101915000D02*
X157142000Y-101915000D01*
X163263000Y-101875000D02*
X157142000Y-101875000D01*
X163290000Y-101835000D02*
X157142000Y-101835000D01*
X163316000Y-101795000D02*
X157142000Y-101795000D01*
X163342000Y-101755000D02*
X157142000Y-101755000D01*
X163367000Y-101715000D02*
X157142000Y-101715000D01*
X163392000Y-101675000D02*
X157142000Y-101675000D01*
X163417000Y-101635000D02*
X157142000Y-101635000D01*
X163442000Y-101595000D02*
X157142000Y-101595000D01*
X163466000Y-101555000D02*
X157142000Y-101555000D01*
X163490000Y-101515000D02*
X157142000Y-101515000D01*
X163514000Y-101475000D02*
X157142000Y-101475000D01*
X163537000Y-101435000D02*
X157142000Y-101435000D01*
X163561000Y-101395000D02*
X157142000Y-101395000D01*
X163584000Y-101355000D02*
X157142000Y-101355000D01*
X163606000Y-101315000D02*
X157142000Y-101315000D01*
X163629000Y-101275000D02*
X157142000Y-101275000D01*
X163651000Y-101235000D02*
X157142000Y-101235000D01*
X163673000Y-101195000D02*
X157142000Y-101195000D01*
X163694000Y-101155000D02*
X157142000Y-101155000D01*
X163716000Y-101115000D02*
X157142000Y-101115000D01*
X163737000Y-101075000D02*
X157142000Y-101075000D01*
X163758000Y-101035000D02*
X157142000Y-101035000D01*
X163778000Y-100995000D02*
X157142000Y-100995000D01*
X163799000Y-100955000D02*
X157142000Y-100955000D01*
X163819000Y-100915000D02*
X157142000Y-100915000D01*
X163839000Y-100875000D02*
X157142000Y-100875000D01*
X163858000Y-100835000D02*
X157142000Y-100835000D01*
X163878000Y-100795000D02*
X157142000Y-100795000D01*
X163897000Y-100755000D02*
X157142000Y-100755000D01*
X163916000Y-100715000D02*
X157142000Y-100715000D01*
X163935000Y-100675000D02*
X157142000Y-100675000D01*
X163953000Y-100635000D02*
X157142000Y-100635000D01*
X163971000Y-100595000D02*
X157142000Y-100595000D01*
X163989000Y-100555000D02*
X157142000Y-100555000D01*
X164007000Y-100515000D02*
X157142000Y-100515000D01*
X164025000Y-100475000D02*
X157142000Y-100475000D01*
X164042000Y-100435000D02*
X157142000Y-100435000D01*
X164059000Y-100395000D02*
X157142000Y-100395000D01*
X164076000Y-100355000D02*
X157142000Y-100355000D01*
X164092000Y-100315000D02*
X157142000Y-100315000D01*
X164109000Y-100275000D02*
X157142000Y-100275000D01*
X164125000Y-100235000D02*
X157142000Y-100235000D01*
X164141000Y-100195000D02*
X157142000Y-100195000D01*
X164157000Y-100155000D02*
X157142000Y-100155000D01*
X164172000Y-100115000D02*
X157142000Y-100115000D01*
X164188000Y-100075000D02*
X157142000Y-100075000D01*
X164203000Y-100035000D02*
X157142000Y-100035000D01*
X164218000Y-99995000D02*
X157142000Y-99995000D01*
X164232000Y-99955000D02*
X157142000Y-99955000D01*
X164247000Y-99915000D02*
X157142000Y-99915000D01*
X164261000Y-99875000D02*
X157142000Y-99875000D01*
X164275000Y-99835000D02*
X157142000Y-99835000D01*
X164289000Y-99795000D02*
X157142000Y-99795000D01*
X164302000Y-99755000D02*
X157142000Y-99755000D01*
X164316000Y-99715000D02*
X157142000Y-99715000D01*
X164329000Y-99675000D02*
X157142000Y-99675000D01*
X164342000Y-99635000D02*
X157142000Y-99635000D01*
X164355000Y-99595000D02*
X157142000Y-99595000D01*
X164367000Y-99555000D02*
X157142000Y-99555000D01*
X164380000Y-99515000D02*
X157142000Y-99515000D01*
X164392000Y-99475000D02*
X157142000Y-99475000D01*
X164404000Y-99435000D02*
X157142000Y-99435000D01*
X164416000Y-99395000D02*
X157142000Y-99395000D01*
X164427000Y-99355000D02*
X157142000Y-99355000D01*
X164439000Y-99315000D02*
X157142000Y-99315000D01*
X164450000Y-99275000D02*
X157142000Y-99275000D01*
X164461000Y-99235000D02*
X157142000Y-99235000D01*
X164472000Y-99195000D02*
X157142000Y-99195000D01*
X164482000Y-99155000D02*
X157142000Y-99155000D01*
X164493000Y-99115000D02*
X146911000Y-99115000D01*
X164503000Y-99075000D02*
X146901000Y-99075000D01*
X164513000Y-99035000D02*
X146891000Y-99035000D01*
X164523000Y-98995000D02*
X146881000Y-98995000D01*
X164533000Y-98955000D02*
X146871000Y-98955000D01*
X164542000Y-98915000D02*
X146862000Y-98915000D01*
X164551000Y-98875000D02*
X146853000Y-98875000D01*
X164560000Y-98835000D02*
X146844000Y-98835000D01*
X164569000Y-98795000D02*
X146835000Y-98795000D01*
X164578000Y-98755000D02*
X146826000Y-98755000D01*
X164587000Y-98715000D02*
X146817000Y-98715000D01*
X164595000Y-98675000D02*
X146809000Y-98675000D01*
X164603000Y-98635000D02*
X146801000Y-98635000D01*
X164611000Y-98595000D02*
X146793000Y-98595000D01*
X164619000Y-98555000D02*
X146785000Y-98555000D01*
X164626000Y-98515000D02*
X146778000Y-98515000D01*
X164634000Y-98475000D02*
X146770000Y-98475000D01*
X164641000Y-98435000D02*
X146763000Y-98435000D01*
X164648000Y-98395000D02*
X146756000Y-98395000D01*
X164655000Y-98355000D02*
X146749000Y-98355000D01*
X164662000Y-98315000D02*
X146742000Y-98315000D01*
X164668000Y-98275000D02*
X146736000Y-98275000D01*
X164674000Y-98235000D02*
X146730000Y-98235000D01*
X164681000Y-98195000D02*
X146723000Y-98195000D01*
X164686000Y-98155000D02*
X146718000Y-98155000D01*
X164692000Y-98115000D02*
X146712000Y-98115000D01*
X164698000Y-98075000D02*
X146706000Y-98075000D01*
X164703000Y-98035000D02*
X146701000Y-98035000D01*
X164708000Y-97995000D02*
X146696000Y-97995000D01*
X164713000Y-97955000D02*
X146691000Y-97955000D01*
X164718000Y-97915000D02*
X146686000Y-97915000D01*
X164723000Y-97875000D02*
X146681000Y-97875000D01*
X164728000Y-97835000D02*
X146676000Y-97835000D01*
X164732000Y-97795000D02*
X146672000Y-97795000D01*
X164736000Y-97755000D02*
X146668000Y-97755000D01*
X164740000Y-97715000D02*
X146664000Y-97715000D01*
X164744000Y-97675000D02*
X146660000Y-97675000D01*
X164747000Y-97635000D02*
X146657000Y-97635000D01*
X164751000Y-97595000D02*
X146653000Y-97595000D01*
X164754000Y-97555000D02*
X146650000Y-97555000D01*
X164757000Y-97514000D02*
X146647000Y-97514000D01*
X164760000Y-97474000D02*
X146644000Y-97474000D01*
X164763000Y-97434000D02*
X146641000Y-97434000D01*
X164765000Y-97394000D02*
X146639000Y-97394000D01*
X164768000Y-97354000D02*
X146636000Y-97354000D01*
X164770000Y-97314000D02*
X146634000Y-97314000D01*
X164772000Y-97274000D02*
X146632000Y-97274000D01*
X164774000Y-97234000D02*
X146630000Y-97234000D01*
X164775000Y-97194000D02*
X146629000Y-97194000D01*
X164777000Y-97154000D02*
X146627000Y-97154000D01*
X164778000Y-97114000D02*
X146626000Y-97114000D01*
X164779000Y-97074000D02*
X146625000Y-97074000D01*
X164780000Y-97034000D02*
X146624000Y-97034000D01*
X164781000Y-96994000D02*
X146623000Y-96994000D01*
X164782000Y-96874000D02*
X146622000Y-96874000D01*
X164782000Y-96914000D02*
X146622000Y-96914000D01*
X164782000Y-96954000D02*
X146622000Y-96954000D01*
X164783000Y-96834000D02*
X146621000Y-96834000D01*
X164822000Y-96834000D02*
G75*
G02*
X146582000Y-96834000I-9120000J0D01*
G01*
X146582000Y-96834000D02*
G75*
G02*
X164822000Y-96834000I9120000J0D01*
G01*
%TO.C,C7*%
X154262000Y-78207000D02*
X146922000Y-78207000D01*
X154262000Y-78247000D02*
X146932000Y-78247000D01*
X154262000Y-78287000D02*
X146943000Y-78287000D01*
X154262000Y-78327000D02*
X146954000Y-78327000D01*
X154262000Y-78367000D02*
X146965000Y-78367000D01*
X154262000Y-78407000D02*
X146977000Y-78407000D01*
X154262000Y-78447000D02*
X146988000Y-78447000D01*
X154262000Y-78487000D02*
X147000000Y-78487000D01*
X154262000Y-78527000D02*
X147012000Y-78527000D01*
X154262000Y-78567000D02*
X147024000Y-78567000D01*
X154262000Y-78607000D02*
X147037000Y-78607000D01*
X154262000Y-78647000D02*
X147049000Y-78647000D01*
X154262000Y-78687000D02*
X147062000Y-78687000D01*
X154262000Y-78727000D02*
X147075000Y-78727000D01*
X154262000Y-78767000D02*
X147088000Y-78767000D01*
X154262000Y-78807000D02*
X147102000Y-78807000D01*
X154262000Y-78847000D02*
X147115000Y-78847000D01*
X154262000Y-78887000D02*
X147129000Y-78887000D01*
X154262000Y-78927000D02*
X147143000Y-78927000D01*
X154262000Y-78967000D02*
X147157000Y-78967000D01*
X154262000Y-79007000D02*
X147172000Y-79007000D01*
X154262000Y-79047000D02*
X147186000Y-79047000D01*
X154262000Y-79087000D02*
X147201000Y-79087000D01*
X154262000Y-79127000D02*
X147216000Y-79127000D01*
X154262000Y-79167000D02*
X147232000Y-79167000D01*
X154262000Y-79207000D02*
X147247000Y-79207000D01*
X154262000Y-79247000D02*
X147263000Y-79247000D01*
X154262000Y-79287000D02*
X147279000Y-79287000D01*
X154262000Y-79327000D02*
X147295000Y-79327000D01*
X154262000Y-79367000D02*
X147312000Y-79367000D01*
X154262000Y-79407000D02*
X147328000Y-79407000D01*
X154262000Y-79447000D02*
X147345000Y-79447000D01*
X154262000Y-79487000D02*
X147362000Y-79487000D01*
X154262000Y-79527000D02*
X147379000Y-79527000D01*
X154262000Y-79567000D02*
X147397000Y-79567000D01*
X154262000Y-79607000D02*
X147415000Y-79607000D01*
X154262000Y-79647000D02*
X147433000Y-79647000D01*
X154262000Y-79687000D02*
X147451000Y-79687000D01*
X154262000Y-79727000D02*
X147469000Y-79727000D01*
X154262000Y-79767000D02*
X147488000Y-79767000D01*
X154262000Y-79807000D02*
X147507000Y-79807000D01*
X154262000Y-79847000D02*
X147526000Y-79847000D01*
X154262000Y-79887000D02*
X147546000Y-79887000D01*
X154262000Y-79927000D02*
X147565000Y-79927000D01*
X154262000Y-79967000D02*
X147585000Y-79967000D01*
X154262000Y-80007000D02*
X147605000Y-80007000D01*
X154262000Y-80047000D02*
X147626000Y-80047000D01*
X154262000Y-80087000D02*
X147646000Y-80087000D01*
X154262000Y-80127000D02*
X147667000Y-80127000D01*
X154262000Y-80167000D02*
X147688000Y-80167000D01*
X154262000Y-80207000D02*
X147710000Y-80207000D01*
X154262000Y-80247000D02*
X147731000Y-80247000D01*
X154262000Y-80287000D02*
X147753000Y-80287000D01*
X154262000Y-80327000D02*
X147775000Y-80327000D01*
X154262000Y-80367000D02*
X147798000Y-80367000D01*
X154262000Y-80407000D02*
X147820000Y-80407000D01*
X154262000Y-80447000D02*
X147843000Y-80447000D01*
X154262000Y-80487000D02*
X147867000Y-80487000D01*
X154262000Y-80527000D02*
X147890000Y-80527000D01*
X154262000Y-80567000D02*
X147914000Y-80567000D01*
X154262000Y-80607000D02*
X147938000Y-80607000D01*
X154262000Y-80647000D02*
X147962000Y-80647000D01*
X154262000Y-80687000D02*
X147987000Y-80687000D01*
X154262000Y-80727000D02*
X148012000Y-80727000D01*
X154262000Y-80767000D02*
X148037000Y-80767000D01*
X154262000Y-80807000D02*
X148062000Y-80807000D01*
X154262000Y-80847000D02*
X148088000Y-80847000D01*
X154262000Y-80887000D02*
X148114000Y-80887000D01*
X154262000Y-80927000D02*
X148141000Y-80927000D01*
X154262000Y-80967000D02*
X148167000Y-80967000D01*
X154262000Y-81007000D02*
X148194000Y-81007000D01*
X154262000Y-81047000D02*
X148222000Y-81047000D01*
X155742000Y-85006000D02*
X155662000Y-85006000D01*
X156516000Y-84966000D02*
X154888000Y-84966000D01*
X156868000Y-84926000D02*
X154536000Y-84926000D01*
X157137000Y-84886000D02*
X154267000Y-84886000D01*
X157363000Y-84846000D02*
X154041000Y-84846000D01*
X157562000Y-84806000D02*
X153842000Y-84806000D01*
X157741000Y-84766000D02*
X153663000Y-84766000D01*
X157905000Y-84726000D02*
X153499000Y-84726000D01*
X158057000Y-84686000D02*
X153347000Y-84686000D01*
X158200000Y-84646000D02*
X153204000Y-84646000D01*
X158334000Y-84606000D02*
X153070000Y-84606000D01*
X158461000Y-84566000D02*
X152943000Y-84566000D01*
X158582000Y-84526000D02*
X152822000Y-84526000D01*
X158698000Y-84486000D02*
X152706000Y-84486000D01*
X158809000Y-84446000D02*
X152595000Y-84446000D01*
X158916000Y-84406000D02*
X152488000Y-84406000D01*
X159019000Y-84366000D02*
X152385000Y-84366000D01*
X159118000Y-84326000D02*
X152286000Y-84326000D01*
X159214000Y-84286000D02*
X152190000Y-84286000D01*
X159307000Y-84246000D02*
X152097000Y-84246000D01*
X159398000Y-84206000D02*
X152006000Y-84206000D01*
X159486000Y-84166000D02*
X151918000Y-84166000D01*
X159571000Y-84126000D02*
X151833000Y-84126000D01*
X159654000Y-84086000D02*
X151750000Y-84086000D01*
X159735000Y-84047000D02*
X151669000Y-84047000D01*
X159815000Y-84007000D02*
X151589000Y-84007000D01*
X159892000Y-83967000D02*
X151512000Y-83967000D01*
X159967000Y-83927000D02*
X151437000Y-83927000D01*
X160041000Y-83887000D02*
X151363000Y-83887000D01*
X160114000Y-83847000D02*
X151290000Y-83847000D01*
X160184000Y-83807000D02*
X151220000Y-83807000D01*
X160254000Y-83767000D02*
X151150000Y-83767000D01*
X160322000Y-83727000D02*
X151082000Y-83727000D01*
X160388000Y-83687000D02*
X151016000Y-83687000D01*
X160454000Y-83647000D02*
X150950000Y-83647000D01*
X160518000Y-83607000D02*
X150886000Y-83607000D01*
X160581000Y-83567000D02*
X150823000Y-83567000D01*
X160643000Y-83527000D02*
X150761000Y-83527000D01*
X160704000Y-83487000D02*
X150700000Y-83487000D01*
X160764000Y-83447000D02*
X150640000Y-83447000D01*
X160817000Y-66126560D02*
X160817000Y-67926560D01*
X160822000Y-83407000D02*
X150582000Y-83407000D01*
X160880000Y-83367000D02*
X150524000Y-83367000D01*
X160937000Y-83327000D02*
X150467000Y-83327000D01*
X160993000Y-83287000D02*
X150411000Y-83287000D01*
X161048000Y-83247000D02*
X150356000Y-83247000D01*
X161102000Y-83207000D02*
X150302000Y-83207000D01*
X161156000Y-83167000D02*
X150248000Y-83167000D01*
X161208000Y-83127000D02*
X150196000Y-83127000D01*
X161260000Y-83087000D02*
X150144000Y-83087000D01*
X161311000Y-83047000D02*
X150093000Y-83047000D01*
X161362000Y-83007000D02*
X150042000Y-83007000D01*
X161411000Y-82967000D02*
X149993000Y-82967000D01*
X161460000Y-82927000D02*
X149944000Y-82927000D01*
X161508000Y-82887000D02*
X149896000Y-82887000D01*
X161556000Y-82847000D02*
X149848000Y-82847000D01*
X161603000Y-82807000D02*
X149801000Y-82807000D01*
X161649000Y-82767000D02*
X149755000Y-82767000D01*
X161695000Y-82727000D02*
X149709000Y-82727000D01*
X161717000Y-67026560D02*
X159917000Y-67026560D01*
X161740000Y-82687000D02*
X149664000Y-82687000D01*
X161784000Y-82647000D02*
X149620000Y-82647000D01*
X161828000Y-82607000D02*
X149576000Y-82607000D01*
X161872000Y-82567000D02*
X149532000Y-82567000D01*
X161914000Y-82527000D02*
X149490000Y-82527000D01*
X161956000Y-82487000D02*
X149448000Y-82487000D01*
X161998000Y-82447000D02*
X149406000Y-82447000D01*
X162039000Y-82407000D02*
X149365000Y-82407000D01*
X162080000Y-82367000D02*
X149324000Y-82367000D01*
X162120000Y-82327000D02*
X149284000Y-82327000D01*
X162160000Y-82287000D02*
X149244000Y-82287000D01*
X162199000Y-82247000D02*
X149205000Y-82247000D01*
X162238000Y-82207000D02*
X149166000Y-82207000D01*
X162276000Y-82167000D02*
X149128000Y-82167000D01*
X162314000Y-82127000D02*
X149090000Y-82127000D01*
X162351000Y-82087000D02*
X149053000Y-82087000D01*
X162388000Y-82047000D02*
X149016000Y-82047000D01*
X162424000Y-82007000D02*
X148980000Y-82007000D01*
X162460000Y-81967000D02*
X148944000Y-81967000D01*
X162496000Y-81927000D02*
X148908000Y-81927000D01*
X162531000Y-81887000D02*
X148873000Y-81887000D01*
X162566000Y-81847000D02*
X148838000Y-81847000D01*
X162600000Y-81807000D02*
X148804000Y-81807000D01*
X162634000Y-81767000D02*
X148770000Y-81767000D01*
X162667000Y-81727000D02*
X148737000Y-81727000D01*
X162701000Y-81687000D02*
X148703000Y-81687000D01*
X162733000Y-81647000D02*
X148671000Y-81647000D01*
X162766000Y-81607000D02*
X148638000Y-81607000D01*
X162798000Y-81567000D02*
X148606000Y-81567000D01*
X162829000Y-81527000D02*
X148575000Y-81527000D01*
X162861000Y-81487000D02*
X148543000Y-81487000D01*
X162892000Y-81447000D02*
X148512000Y-81447000D01*
X162922000Y-81407000D02*
X148482000Y-81407000D01*
X162952000Y-81367000D02*
X148452000Y-81367000D01*
X162982000Y-81327000D02*
X148422000Y-81327000D01*
X163012000Y-81287000D02*
X148392000Y-81287000D01*
X163041000Y-81247000D02*
X148363000Y-81247000D01*
X163070000Y-81207000D02*
X148334000Y-81207000D01*
X163099000Y-81167000D02*
X148305000Y-81167000D01*
X163127000Y-81127000D02*
X148277000Y-81127000D01*
X163155000Y-81087000D02*
X148249000Y-81087000D01*
X163182000Y-81047000D02*
X157142000Y-81047000D01*
X163210000Y-81007000D02*
X157142000Y-81007000D01*
X163237000Y-80967000D02*
X157142000Y-80967000D01*
X163263000Y-80927000D02*
X157142000Y-80927000D01*
X163290000Y-80887000D02*
X157142000Y-80887000D01*
X163316000Y-80847000D02*
X157142000Y-80847000D01*
X163342000Y-80807000D02*
X157142000Y-80807000D01*
X163367000Y-80767000D02*
X157142000Y-80767000D01*
X163392000Y-80727000D02*
X157142000Y-80727000D01*
X163417000Y-80687000D02*
X157142000Y-80687000D01*
X163442000Y-80647000D02*
X157142000Y-80647000D01*
X163466000Y-80607000D02*
X157142000Y-80607000D01*
X163490000Y-80567000D02*
X157142000Y-80567000D01*
X163514000Y-80527000D02*
X157142000Y-80527000D01*
X163537000Y-80487000D02*
X157142000Y-80487000D01*
X163561000Y-80447000D02*
X157142000Y-80447000D01*
X163584000Y-80407000D02*
X157142000Y-80407000D01*
X163606000Y-80367000D02*
X157142000Y-80367000D01*
X163629000Y-80327000D02*
X157142000Y-80327000D01*
X163651000Y-80287000D02*
X157142000Y-80287000D01*
X163673000Y-80247000D02*
X157142000Y-80247000D01*
X163694000Y-80207000D02*
X157142000Y-80207000D01*
X163716000Y-80167000D02*
X157142000Y-80167000D01*
X163737000Y-80127000D02*
X157142000Y-80127000D01*
X163758000Y-80087000D02*
X157142000Y-80087000D01*
X163778000Y-80047000D02*
X157142000Y-80047000D01*
X163799000Y-80007000D02*
X157142000Y-80007000D01*
X163819000Y-79967000D02*
X157142000Y-79967000D01*
X163839000Y-79927000D02*
X157142000Y-79927000D01*
X163858000Y-79887000D02*
X157142000Y-79887000D01*
X163878000Y-79847000D02*
X157142000Y-79847000D01*
X163897000Y-79807000D02*
X157142000Y-79807000D01*
X163916000Y-79767000D02*
X157142000Y-79767000D01*
X163935000Y-79727000D02*
X157142000Y-79727000D01*
X163953000Y-79687000D02*
X157142000Y-79687000D01*
X163971000Y-79647000D02*
X157142000Y-79647000D01*
X163989000Y-79607000D02*
X157142000Y-79607000D01*
X164007000Y-79567000D02*
X157142000Y-79567000D01*
X164025000Y-79527000D02*
X157142000Y-79527000D01*
X164042000Y-79487000D02*
X157142000Y-79487000D01*
X164059000Y-79447000D02*
X157142000Y-79447000D01*
X164076000Y-79407000D02*
X157142000Y-79407000D01*
X164092000Y-79367000D02*
X157142000Y-79367000D01*
X164109000Y-79327000D02*
X157142000Y-79327000D01*
X164125000Y-79287000D02*
X157142000Y-79287000D01*
X164141000Y-79247000D02*
X157142000Y-79247000D01*
X164157000Y-79207000D02*
X157142000Y-79207000D01*
X164172000Y-79167000D02*
X157142000Y-79167000D01*
X164188000Y-79127000D02*
X157142000Y-79127000D01*
X164203000Y-79087000D02*
X157142000Y-79087000D01*
X164218000Y-79047000D02*
X157142000Y-79047000D01*
X164232000Y-79007000D02*
X157142000Y-79007000D01*
X164247000Y-78967000D02*
X157142000Y-78967000D01*
X164261000Y-78927000D02*
X157142000Y-78927000D01*
X164275000Y-78887000D02*
X157142000Y-78887000D01*
X164289000Y-78847000D02*
X157142000Y-78847000D01*
X164302000Y-78807000D02*
X157142000Y-78807000D01*
X164316000Y-78767000D02*
X157142000Y-78767000D01*
X164329000Y-78727000D02*
X157142000Y-78727000D01*
X164342000Y-78687000D02*
X157142000Y-78687000D01*
X164355000Y-78647000D02*
X157142000Y-78647000D01*
X164367000Y-78607000D02*
X157142000Y-78607000D01*
X164380000Y-78567000D02*
X157142000Y-78567000D01*
X164392000Y-78527000D02*
X157142000Y-78527000D01*
X164404000Y-78487000D02*
X157142000Y-78487000D01*
X164416000Y-78447000D02*
X157142000Y-78447000D01*
X164427000Y-78407000D02*
X157142000Y-78407000D01*
X164439000Y-78367000D02*
X157142000Y-78367000D01*
X164450000Y-78327000D02*
X157142000Y-78327000D01*
X164461000Y-78287000D02*
X157142000Y-78287000D01*
X164472000Y-78247000D02*
X157142000Y-78247000D01*
X164482000Y-78207000D02*
X157142000Y-78207000D01*
X164493000Y-78167000D02*
X146911000Y-78167000D01*
X164503000Y-78127000D02*
X146901000Y-78127000D01*
X164513000Y-78087000D02*
X146891000Y-78087000D01*
X164523000Y-78047000D02*
X146881000Y-78047000D01*
X164533000Y-78007000D02*
X146871000Y-78007000D01*
X164542000Y-77967000D02*
X146862000Y-77967000D01*
X164551000Y-77927000D02*
X146853000Y-77927000D01*
X164560000Y-77887000D02*
X146844000Y-77887000D01*
X164569000Y-77847000D02*
X146835000Y-77847000D01*
X164578000Y-77807000D02*
X146826000Y-77807000D01*
X164587000Y-77767000D02*
X146817000Y-77767000D01*
X164595000Y-77727000D02*
X146809000Y-77727000D01*
X164603000Y-77687000D02*
X146801000Y-77687000D01*
X164611000Y-77647000D02*
X146793000Y-77647000D01*
X164619000Y-77607000D02*
X146785000Y-77607000D01*
X164626000Y-77567000D02*
X146778000Y-77567000D01*
X164634000Y-77527000D02*
X146770000Y-77527000D01*
X164641000Y-77487000D02*
X146763000Y-77487000D01*
X164648000Y-77447000D02*
X146756000Y-77447000D01*
X164655000Y-77407000D02*
X146749000Y-77407000D01*
X164662000Y-77367000D02*
X146742000Y-77367000D01*
X164668000Y-77327000D02*
X146736000Y-77327000D01*
X164674000Y-77287000D02*
X146730000Y-77287000D01*
X164681000Y-77247000D02*
X146723000Y-77247000D01*
X164686000Y-77207000D02*
X146718000Y-77207000D01*
X164692000Y-77167000D02*
X146712000Y-77167000D01*
X164698000Y-77127000D02*
X146706000Y-77127000D01*
X164703000Y-77087000D02*
X146701000Y-77087000D01*
X164708000Y-77047000D02*
X146696000Y-77047000D01*
X164713000Y-77007000D02*
X146691000Y-77007000D01*
X164718000Y-76967000D02*
X146686000Y-76967000D01*
X164723000Y-76927000D02*
X146681000Y-76927000D01*
X164728000Y-76887000D02*
X146676000Y-76887000D01*
X164732000Y-76847000D02*
X146672000Y-76847000D01*
X164736000Y-76807000D02*
X146668000Y-76807000D01*
X164740000Y-76767000D02*
X146664000Y-76767000D01*
X164744000Y-76727000D02*
X146660000Y-76727000D01*
X164747000Y-76687000D02*
X146657000Y-76687000D01*
X164751000Y-76647000D02*
X146653000Y-76647000D01*
X164754000Y-76607000D02*
X146650000Y-76607000D01*
X164757000Y-76566000D02*
X146647000Y-76566000D01*
X164760000Y-76526000D02*
X146644000Y-76526000D01*
X164763000Y-76486000D02*
X146641000Y-76486000D01*
X164765000Y-76446000D02*
X146639000Y-76446000D01*
X164768000Y-76406000D02*
X146636000Y-76406000D01*
X164770000Y-76366000D02*
X146634000Y-76366000D01*
X164772000Y-76326000D02*
X146632000Y-76326000D01*
X164774000Y-76286000D02*
X146630000Y-76286000D01*
X164775000Y-76246000D02*
X146629000Y-76246000D01*
X164777000Y-76206000D02*
X146627000Y-76206000D01*
X164778000Y-76166000D02*
X146626000Y-76166000D01*
X164779000Y-76126000D02*
X146625000Y-76126000D01*
X164780000Y-76086000D02*
X146624000Y-76086000D01*
X164781000Y-76046000D02*
X146623000Y-76046000D01*
X164782000Y-75926000D02*
X146622000Y-75926000D01*
X164782000Y-75966000D02*
X146622000Y-75966000D01*
X164782000Y-76006000D02*
X146622000Y-76006000D01*
X164783000Y-75886000D02*
X146621000Y-75886000D01*
X164822000Y-75886000D02*
G75*
G02*
X146582000Y-75886000I-9120000J0D01*
G01*
X146582000Y-75886000D02*
G75*
G02*
X164822000Y-75886000I9120000J0D01*
G01*
%TO.C,C1*%
X112860000Y-78327000D02*
X105520000Y-78327000D01*
X112860000Y-78367000D02*
X105530000Y-78367000D01*
X112860000Y-78407000D02*
X105541000Y-78407000D01*
X112860000Y-78447000D02*
X105552000Y-78447000D01*
X112860000Y-78487000D02*
X105563000Y-78487000D01*
X112860000Y-78527000D02*
X105575000Y-78527000D01*
X112860000Y-78567000D02*
X105586000Y-78567000D01*
X112860000Y-78607000D02*
X105598000Y-78607000D01*
X112860000Y-78647000D02*
X105610000Y-78647000D01*
X112860000Y-78687000D02*
X105622000Y-78687000D01*
X112860000Y-78727000D02*
X105635000Y-78727000D01*
X112860000Y-78767000D02*
X105647000Y-78767000D01*
X112860000Y-78807000D02*
X105660000Y-78807000D01*
X112860000Y-78847000D02*
X105673000Y-78847000D01*
X112860000Y-78887000D02*
X105686000Y-78887000D01*
X112860000Y-78927000D02*
X105700000Y-78927000D01*
X112860000Y-78967000D02*
X105713000Y-78967000D01*
X112860000Y-79007000D02*
X105727000Y-79007000D01*
X112860000Y-79047000D02*
X105741000Y-79047000D01*
X112860000Y-79087000D02*
X105755000Y-79087000D01*
X112860000Y-79127000D02*
X105770000Y-79127000D01*
X112860000Y-79167000D02*
X105784000Y-79167000D01*
X112860000Y-79207000D02*
X105799000Y-79207000D01*
X112860000Y-79247000D02*
X105814000Y-79247000D01*
X112860000Y-79287000D02*
X105830000Y-79287000D01*
X112860000Y-79327000D02*
X105845000Y-79327000D01*
X112860000Y-79367000D02*
X105861000Y-79367000D01*
X112860000Y-79407000D02*
X105877000Y-79407000D01*
X112860000Y-79447000D02*
X105893000Y-79447000D01*
X112860000Y-79487000D02*
X105910000Y-79487000D01*
X112860000Y-79527000D02*
X105926000Y-79527000D01*
X112860000Y-79567000D02*
X105943000Y-79567000D01*
X112860000Y-79607000D02*
X105960000Y-79607000D01*
X112860000Y-79647000D02*
X105977000Y-79647000D01*
X112860000Y-79687000D02*
X105995000Y-79687000D01*
X112860000Y-79727000D02*
X106013000Y-79727000D01*
X112860000Y-79767000D02*
X106031000Y-79767000D01*
X112860000Y-79807000D02*
X106049000Y-79807000D01*
X112860000Y-79847000D02*
X106067000Y-79847000D01*
X112860000Y-79887000D02*
X106086000Y-79887000D01*
X112860000Y-79927000D02*
X106105000Y-79927000D01*
X112860000Y-79967000D02*
X106124000Y-79967000D01*
X112860000Y-80007000D02*
X106144000Y-80007000D01*
X112860000Y-80047000D02*
X106163000Y-80047000D01*
X112860000Y-80087000D02*
X106183000Y-80087000D01*
X112860000Y-80127000D02*
X106203000Y-80127000D01*
X112860000Y-80167000D02*
X106224000Y-80167000D01*
X112860000Y-80207000D02*
X106244000Y-80207000D01*
X112860000Y-80247000D02*
X106265000Y-80247000D01*
X112860000Y-80287000D02*
X106286000Y-80287000D01*
X112860000Y-80327000D02*
X106308000Y-80327000D01*
X112860000Y-80367000D02*
X106329000Y-80367000D01*
X112860000Y-80407000D02*
X106351000Y-80407000D01*
X112860000Y-80447000D02*
X106373000Y-80447000D01*
X112860000Y-80487000D02*
X106396000Y-80487000D01*
X112860000Y-80527000D02*
X106418000Y-80527000D01*
X112860000Y-80567000D02*
X106441000Y-80567000D01*
X112860000Y-80607000D02*
X106465000Y-80607000D01*
X112860000Y-80647000D02*
X106488000Y-80647000D01*
X112860000Y-80687000D02*
X106512000Y-80687000D01*
X112860000Y-80727000D02*
X106536000Y-80727000D01*
X112860000Y-80767000D02*
X106560000Y-80767000D01*
X112860000Y-80807000D02*
X106585000Y-80807000D01*
X112860000Y-80847000D02*
X106610000Y-80847000D01*
X112860000Y-80887000D02*
X106635000Y-80887000D01*
X112860000Y-80927000D02*
X106660000Y-80927000D01*
X112860000Y-80967000D02*
X106686000Y-80967000D01*
X112860000Y-81007000D02*
X106712000Y-81007000D01*
X112860000Y-81047000D02*
X106739000Y-81047000D01*
X112860000Y-81087000D02*
X106765000Y-81087000D01*
X112860000Y-81127000D02*
X106792000Y-81127000D01*
X112860000Y-81167000D02*
X106820000Y-81167000D01*
X114340000Y-85126000D02*
X114260000Y-85126000D01*
X115114000Y-85086000D02*
X113486000Y-85086000D01*
X115466000Y-85046000D02*
X113134000Y-85046000D01*
X115735000Y-85006000D02*
X112865000Y-85006000D01*
X115961000Y-84966000D02*
X112639000Y-84966000D01*
X116160000Y-84926000D02*
X112440000Y-84926000D01*
X116339000Y-84886000D02*
X112261000Y-84886000D01*
X116503000Y-84846000D02*
X112097000Y-84846000D01*
X116655000Y-84806000D02*
X111945000Y-84806000D01*
X116798000Y-84766000D02*
X111802000Y-84766000D01*
X116932000Y-84726000D02*
X111668000Y-84726000D01*
X117059000Y-84686000D02*
X111541000Y-84686000D01*
X117180000Y-84646000D02*
X111420000Y-84646000D01*
X117296000Y-84606000D02*
X111304000Y-84606000D01*
X117407000Y-84566000D02*
X111193000Y-84566000D01*
X117514000Y-84526000D02*
X111086000Y-84526000D01*
X117617000Y-84486000D02*
X110983000Y-84486000D01*
X117716000Y-84446000D02*
X110884000Y-84446000D01*
X117812000Y-84406000D02*
X110788000Y-84406000D01*
X117905000Y-84366000D02*
X110695000Y-84366000D01*
X117996000Y-84326000D02*
X110604000Y-84326000D01*
X118084000Y-84286000D02*
X110516000Y-84286000D01*
X118169000Y-84246000D02*
X110431000Y-84246000D01*
X118252000Y-84206000D02*
X110348000Y-84206000D01*
X118333000Y-84167000D02*
X110267000Y-84167000D01*
X118413000Y-84127000D02*
X110187000Y-84127000D01*
X118490000Y-84087000D02*
X110110000Y-84087000D01*
X118565000Y-84047000D02*
X110035000Y-84047000D01*
X118639000Y-84007000D02*
X109961000Y-84007000D01*
X118712000Y-83967000D02*
X109888000Y-83967000D01*
X118782000Y-83927000D02*
X109818000Y-83927000D01*
X118852000Y-83887000D02*
X109748000Y-83887000D01*
X118920000Y-83847000D02*
X109680000Y-83847000D01*
X118986000Y-83807000D02*
X109614000Y-83807000D01*
X119052000Y-83767000D02*
X109548000Y-83767000D01*
X119116000Y-83727000D02*
X109484000Y-83727000D01*
X119179000Y-83687000D02*
X109421000Y-83687000D01*
X119241000Y-83647000D02*
X109359000Y-83647000D01*
X119302000Y-83607000D02*
X109298000Y-83607000D01*
X119362000Y-83567000D02*
X109238000Y-83567000D01*
X119415000Y-66246560D02*
X119415000Y-68046560D01*
X119420000Y-83527000D02*
X109180000Y-83527000D01*
X119478000Y-83487000D02*
X109122000Y-83487000D01*
X119535000Y-83447000D02*
X109065000Y-83447000D01*
X119591000Y-83407000D02*
X109009000Y-83407000D01*
X119646000Y-83367000D02*
X108954000Y-83367000D01*
X119700000Y-83327000D02*
X108900000Y-83327000D01*
X119754000Y-83287000D02*
X108846000Y-83287000D01*
X119806000Y-83247000D02*
X108794000Y-83247000D01*
X119858000Y-83207000D02*
X108742000Y-83207000D01*
X119909000Y-83167000D02*
X108691000Y-83167000D01*
X119960000Y-83127000D02*
X108640000Y-83127000D01*
X120009000Y-83087000D02*
X108591000Y-83087000D01*
X120058000Y-83047000D02*
X108542000Y-83047000D01*
X120106000Y-83007000D02*
X108494000Y-83007000D01*
X120154000Y-82967000D02*
X108446000Y-82967000D01*
X120201000Y-82927000D02*
X108399000Y-82927000D01*
X120247000Y-82887000D02*
X108353000Y-82887000D01*
X120293000Y-82847000D02*
X108307000Y-82847000D01*
X120315000Y-67146560D02*
X118515000Y-67146560D01*
X120338000Y-82807000D02*
X108262000Y-82807000D01*
X120382000Y-82767000D02*
X108218000Y-82767000D01*
X120426000Y-82727000D02*
X108174000Y-82727000D01*
X120470000Y-82687000D02*
X108130000Y-82687000D01*
X120512000Y-82647000D02*
X108088000Y-82647000D01*
X120554000Y-82607000D02*
X108046000Y-82607000D01*
X120596000Y-82567000D02*
X108004000Y-82567000D01*
X120637000Y-82527000D02*
X107963000Y-82527000D01*
X120678000Y-82487000D02*
X107922000Y-82487000D01*
X120718000Y-82447000D02*
X107882000Y-82447000D01*
X120758000Y-82407000D02*
X107842000Y-82407000D01*
X120797000Y-82367000D02*
X107803000Y-82367000D01*
X120836000Y-82327000D02*
X107764000Y-82327000D01*
X120874000Y-82287000D02*
X107726000Y-82287000D01*
X120912000Y-82247000D02*
X107688000Y-82247000D01*
X120949000Y-82207000D02*
X107651000Y-82207000D01*
X120986000Y-82167000D02*
X107614000Y-82167000D01*
X121022000Y-82127000D02*
X107578000Y-82127000D01*
X121058000Y-82087000D02*
X107542000Y-82087000D01*
X121094000Y-82047000D02*
X107506000Y-82047000D01*
X121129000Y-82007000D02*
X107471000Y-82007000D01*
X121164000Y-81967000D02*
X107436000Y-81967000D01*
X121198000Y-81927000D02*
X107402000Y-81927000D01*
X121232000Y-81887000D02*
X107368000Y-81887000D01*
X121265000Y-81847000D02*
X107335000Y-81847000D01*
X121299000Y-81807000D02*
X107301000Y-81807000D01*
X121331000Y-81767000D02*
X107269000Y-81767000D01*
X121364000Y-81727000D02*
X107236000Y-81727000D01*
X121396000Y-81687000D02*
X107204000Y-81687000D01*
X121427000Y-81647000D02*
X107173000Y-81647000D01*
X121459000Y-81607000D02*
X107141000Y-81607000D01*
X121490000Y-81567000D02*
X107110000Y-81567000D01*
X121520000Y-81527000D02*
X107080000Y-81527000D01*
X121550000Y-81487000D02*
X107050000Y-81487000D01*
X121580000Y-81447000D02*
X107020000Y-81447000D01*
X121610000Y-81407000D02*
X106990000Y-81407000D01*
X121639000Y-81367000D02*
X106961000Y-81367000D01*
X121668000Y-81327000D02*
X106932000Y-81327000D01*
X121697000Y-81287000D02*
X106903000Y-81287000D01*
X121725000Y-81247000D02*
X106875000Y-81247000D01*
X121753000Y-81207000D02*
X106847000Y-81207000D01*
X121780000Y-81167000D02*
X115740000Y-81167000D01*
X121808000Y-81127000D02*
X115740000Y-81127000D01*
X121835000Y-81087000D02*
X115740000Y-81087000D01*
X121861000Y-81047000D02*
X115740000Y-81047000D01*
X121888000Y-81007000D02*
X115740000Y-81007000D01*
X121914000Y-80967000D02*
X115740000Y-80967000D01*
X121940000Y-80927000D02*
X115740000Y-80927000D01*
X121965000Y-80887000D02*
X115740000Y-80887000D01*
X121990000Y-80847000D02*
X115740000Y-80847000D01*
X122015000Y-80807000D02*
X115740000Y-80807000D01*
X122040000Y-80767000D02*
X115740000Y-80767000D01*
X122064000Y-80727000D02*
X115740000Y-80727000D01*
X122088000Y-80687000D02*
X115740000Y-80687000D01*
X122112000Y-80647000D02*
X115740000Y-80647000D01*
X122135000Y-80607000D02*
X115740000Y-80607000D01*
X122159000Y-80567000D02*
X115740000Y-80567000D01*
X122182000Y-80527000D02*
X115740000Y-80527000D01*
X122204000Y-80487000D02*
X115740000Y-80487000D01*
X122227000Y-80447000D02*
X115740000Y-80447000D01*
X122249000Y-80407000D02*
X115740000Y-80407000D01*
X122271000Y-80367000D02*
X115740000Y-80367000D01*
X122292000Y-80327000D02*
X115740000Y-80327000D01*
X122314000Y-80287000D02*
X115740000Y-80287000D01*
X122335000Y-80247000D02*
X115740000Y-80247000D01*
X122356000Y-80207000D02*
X115740000Y-80207000D01*
X122376000Y-80167000D02*
X115740000Y-80167000D01*
X122397000Y-80127000D02*
X115740000Y-80127000D01*
X122417000Y-80087000D02*
X115740000Y-80087000D01*
X122437000Y-80047000D02*
X115740000Y-80047000D01*
X122456000Y-80007000D02*
X115740000Y-80007000D01*
X122476000Y-79967000D02*
X115740000Y-79967000D01*
X122495000Y-79927000D02*
X115740000Y-79927000D01*
X122514000Y-79887000D02*
X115740000Y-79887000D01*
X122533000Y-79847000D02*
X115740000Y-79847000D01*
X122551000Y-79807000D02*
X115740000Y-79807000D01*
X122569000Y-79767000D02*
X115740000Y-79767000D01*
X122587000Y-79727000D02*
X115740000Y-79727000D01*
X122605000Y-79687000D02*
X115740000Y-79687000D01*
X122623000Y-79647000D02*
X115740000Y-79647000D01*
X122640000Y-79607000D02*
X115740000Y-79607000D01*
X122657000Y-79567000D02*
X115740000Y-79567000D01*
X122674000Y-79527000D02*
X115740000Y-79527000D01*
X122690000Y-79487000D02*
X115740000Y-79487000D01*
X122707000Y-79447000D02*
X115740000Y-79447000D01*
X122723000Y-79407000D02*
X115740000Y-79407000D01*
X122739000Y-79367000D02*
X115740000Y-79367000D01*
X122755000Y-79327000D02*
X115740000Y-79327000D01*
X122770000Y-79287000D02*
X115740000Y-79287000D01*
X122786000Y-79247000D02*
X115740000Y-79247000D01*
X122801000Y-79207000D02*
X115740000Y-79207000D01*
X122816000Y-79167000D02*
X115740000Y-79167000D01*
X122830000Y-79127000D02*
X115740000Y-79127000D01*
X122845000Y-79087000D02*
X115740000Y-79087000D01*
X122859000Y-79047000D02*
X115740000Y-79047000D01*
X122873000Y-79007000D02*
X115740000Y-79007000D01*
X122887000Y-78967000D02*
X115740000Y-78967000D01*
X122900000Y-78927000D02*
X115740000Y-78927000D01*
X122914000Y-78887000D02*
X115740000Y-78887000D01*
X122927000Y-78847000D02*
X115740000Y-78847000D01*
X122940000Y-78807000D02*
X115740000Y-78807000D01*
X122953000Y-78767000D02*
X115740000Y-78767000D01*
X122965000Y-78727000D02*
X115740000Y-78727000D01*
X122978000Y-78687000D02*
X115740000Y-78687000D01*
X122990000Y-78647000D02*
X115740000Y-78647000D01*
X123002000Y-78607000D02*
X115740000Y-78607000D01*
X123014000Y-78567000D02*
X115740000Y-78567000D01*
X123025000Y-78527000D02*
X115740000Y-78527000D01*
X123037000Y-78487000D02*
X115740000Y-78487000D01*
X123048000Y-78447000D02*
X115740000Y-78447000D01*
X123059000Y-78407000D02*
X115740000Y-78407000D01*
X123070000Y-78367000D02*
X115740000Y-78367000D01*
X123080000Y-78327000D02*
X115740000Y-78327000D01*
X123091000Y-78287000D02*
X105509000Y-78287000D01*
X123101000Y-78247000D02*
X105499000Y-78247000D01*
X123111000Y-78207000D02*
X105489000Y-78207000D01*
X123121000Y-78167000D02*
X105479000Y-78167000D01*
X123131000Y-78127000D02*
X105469000Y-78127000D01*
X123140000Y-78087000D02*
X105460000Y-78087000D01*
X123149000Y-78047000D02*
X105451000Y-78047000D01*
X123158000Y-78007000D02*
X105442000Y-78007000D01*
X123167000Y-77967000D02*
X105433000Y-77967000D01*
X123176000Y-77927000D02*
X105424000Y-77927000D01*
X123185000Y-77887000D02*
X105415000Y-77887000D01*
X123193000Y-77847000D02*
X105407000Y-77847000D01*
X123201000Y-77807000D02*
X105399000Y-77807000D01*
X123209000Y-77767000D02*
X105391000Y-77767000D01*
X123217000Y-77727000D02*
X105383000Y-77727000D01*
X123224000Y-77687000D02*
X105376000Y-77687000D01*
X123232000Y-77647000D02*
X105368000Y-77647000D01*
X123239000Y-77607000D02*
X105361000Y-77607000D01*
X123246000Y-77567000D02*
X105354000Y-77567000D01*
X123253000Y-77527000D02*
X105347000Y-77527000D01*
X123260000Y-77487000D02*
X105340000Y-77487000D01*
X123266000Y-77447000D02*
X105334000Y-77447000D01*
X123272000Y-77407000D02*
X105328000Y-77407000D01*
X123279000Y-77367000D02*
X105321000Y-77367000D01*
X123284000Y-77327000D02*
X105316000Y-77327000D01*
X123290000Y-77287000D02*
X105310000Y-77287000D01*
X123296000Y-77247000D02*
X105304000Y-77247000D01*
X123301000Y-77207000D02*
X105299000Y-77207000D01*
X123306000Y-77167000D02*
X105294000Y-77167000D01*
X123311000Y-77127000D02*
X105289000Y-77127000D01*
X123316000Y-77087000D02*
X105284000Y-77087000D01*
X123321000Y-77047000D02*
X105279000Y-77047000D01*
X123326000Y-77007000D02*
X105274000Y-77007000D01*
X123330000Y-76967000D02*
X105270000Y-76967000D01*
X123334000Y-76927000D02*
X105266000Y-76927000D01*
X123338000Y-76887000D02*
X105262000Y-76887000D01*
X123342000Y-76847000D02*
X105258000Y-76847000D01*
X123345000Y-76807000D02*
X105255000Y-76807000D01*
X123349000Y-76767000D02*
X105251000Y-76767000D01*
X123352000Y-76727000D02*
X105248000Y-76727000D01*
X123355000Y-76686000D02*
X105245000Y-76686000D01*
X123358000Y-76646000D02*
X105242000Y-76646000D01*
X123361000Y-76606000D02*
X105239000Y-76606000D01*
X123363000Y-76566000D02*
X105237000Y-76566000D01*
X123366000Y-76526000D02*
X105234000Y-76526000D01*
X123368000Y-76486000D02*
X105232000Y-76486000D01*
X123370000Y-76446000D02*
X105230000Y-76446000D01*
X123372000Y-76406000D02*
X105228000Y-76406000D01*
X123373000Y-76366000D02*
X105227000Y-76366000D01*
X123375000Y-76326000D02*
X105225000Y-76326000D01*
X123376000Y-76286000D02*
X105224000Y-76286000D01*
X123377000Y-76246000D02*
X105223000Y-76246000D01*
X123378000Y-76206000D02*
X105222000Y-76206000D01*
X123379000Y-76166000D02*
X105221000Y-76166000D01*
X123380000Y-76046000D02*
X105220000Y-76046000D01*
X123380000Y-76086000D02*
X105220000Y-76086000D01*
X123380000Y-76126000D02*
X105220000Y-76126000D01*
X123381000Y-76006000D02*
X105219000Y-76006000D01*
X123420000Y-76006000D02*
G75*
G02*
X105180000Y-76006000I-9120000J0D01*
G01*
X105180000Y-76006000D02*
G75*
G02*
X123420000Y-76006000I9120000J0D01*
G01*
%TO.C,J7*%
X179702000Y-80792000D02*
X189623000Y-80792000D01*
X179702000Y-90912000D02*
X179702000Y-80792000D01*
X179702000Y-90912000D02*
X189623000Y-90912000D01*
X182662000Y-90912000D02*
X182662000Y-80792000D01*
X183688000Y-82282000D02*
X183724000Y-82317000D01*
X183894000Y-82077000D02*
X183940000Y-82124000D01*
X185986000Y-84579000D02*
X186032000Y-84626000D01*
X186202000Y-84386000D02*
X186237000Y-84421000D01*
X187563000Y-90912000D02*
X187563000Y-80792000D01*
X189063000Y-90912000D02*
X189063000Y-80792000D01*
X189123000Y-91152000D02*
X189863000Y-91152000D01*
X189623000Y-90912000D02*
X189623000Y-80792000D01*
X189863000Y-91152000D02*
X189863000Y-90652000D01*
X183427573Y-89035042D02*
G75*
G02*
X183428000Y-87668000I1535420J683041D01*
G01*
X184279958Y-86816573D02*
G75*
G02*
X185647000Y-86817000I683042J-1535427D01*
G01*
X185646042Y-89887427D02*
G75*
G02*
X184279000Y-89887000I-683041J1535420D01*
G01*
X186497756Y-87668682D02*
G75*
G02*
X186643000Y-88352000I-1534756J-683318D01*
G01*
X186643253Y-88323195D02*
G75*
G02*
X186498000Y-89036000I-1680254J-28806D01*
G01*
X186643000Y-83352000D02*
G75*
G02*
X183283000Y-83352000I-1680000J0D01*
G01*
X183283000Y-83352000D02*
G75*
G02*
X186643000Y-83352000I1680000J0D01*
G01*
%TO.C,J6*%
D11*
X167232000Y-75946000D02*
X172312000Y-75946000D01*
X172312000Y-65786000D01*
X167232000Y-65786000D01*
X167232000Y-75946000D01*
%TO.C,J4*%
X64770000Y-71728000D02*
X74930000Y-71728000D01*
X74930000Y-76808000D01*
X64770000Y-76808000D01*
X64770000Y-71728000D01*
D12*
%TO.C,C6*%
X133688000Y-99035000D02*
X126348000Y-99035000D01*
X133688000Y-99075000D02*
X126358000Y-99075000D01*
X133688000Y-99115000D02*
X126369000Y-99115000D01*
X133688000Y-99155000D02*
X126380000Y-99155000D01*
X133688000Y-99195000D02*
X126391000Y-99195000D01*
X133688000Y-99235000D02*
X126403000Y-99235000D01*
X133688000Y-99275000D02*
X126414000Y-99275000D01*
X133688000Y-99315000D02*
X126426000Y-99315000D01*
X133688000Y-99355000D02*
X126438000Y-99355000D01*
X133688000Y-99395000D02*
X126450000Y-99395000D01*
X133688000Y-99435000D02*
X126463000Y-99435000D01*
X133688000Y-99475000D02*
X126475000Y-99475000D01*
X133688000Y-99515000D02*
X126488000Y-99515000D01*
X133688000Y-99555000D02*
X126501000Y-99555000D01*
X133688000Y-99595000D02*
X126514000Y-99595000D01*
X133688000Y-99635000D02*
X126528000Y-99635000D01*
X133688000Y-99675000D02*
X126541000Y-99675000D01*
X133688000Y-99715000D02*
X126555000Y-99715000D01*
X133688000Y-99755000D02*
X126569000Y-99755000D01*
X133688000Y-99795000D02*
X126583000Y-99795000D01*
X133688000Y-99835000D02*
X126598000Y-99835000D01*
X133688000Y-99875000D02*
X126612000Y-99875000D01*
X133688000Y-99915000D02*
X126627000Y-99915000D01*
X133688000Y-99955000D02*
X126642000Y-99955000D01*
X133688000Y-99995000D02*
X126658000Y-99995000D01*
X133688000Y-100035000D02*
X126673000Y-100035000D01*
X133688000Y-100075000D02*
X126689000Y-100075000D01*
X133688000Y-100115000D02*
X126705000Y-100115000D01*
X133688000Y-100155000D02*
X126721000Y-100155000D01*
X133688000Y-100195000D02*
X126738000Y-100195000D01*
X133688000Y-100235000D02*
X126754000Y-100235000D01*
X133688000Y-100275000D02*
X126771000Y-100275000D01*
X133688000Y-100315000D02*
X126788000Y-100315000D01*
X133688000Y-100355000D02*
X126805000Y-100355000D01*
X133688000Y-100395000D02*
X126823000Y-100395000D01*
X133688000Y-100435000D02*
X126841000Y-100435000D01*
X133688000Y-100475000D02*
X126859000Y-100475000D01*
X133688000Y-100515000D02*
X126877000Y-100515000D01*
X133688000Y-100555000D02*
X126895000Y-100555000D01*
X133688000Y-100595000D02*
X126914000Y-100595000D01*
X133688000Y-100635000D02*
X126933000Y-100635000D01*
X133688000Y-100675000D02*
X126952000Y-100675000D01*
X133688000Y-100715000D02*
X126972000Y-100715000D01*
X133688000Y-100755000D02*
X126991000Y-100755000D01*
X133688000Y-100795000D02*
X127011000Y-100795000D01*
X133688000Y-100835000D02*
X127031000Y-100835000D01*
X133688000Y-100875000D02*
X127052000Y-100875000D01*
X133688000Y-100915000D02*
X127072000Y-100915000D01*
X133688000Y-100955000D02*
X127093000Y-100955000D01*
X133688000Y-100995000D02*
X127114000Y-100995000D01*
X133688000Y-101035000D02*
X127136000Y-101035000D01*
X133688000Y-101075000D02*
X127157000Y-101075000D01*
X133688000Y-101115000D02*
X127179000Y-101115000D01*
X133688000Y-101155000D02*
X127201000Y-101155000D01*
X133688000Y-101195000D02*
X127224000Y-101195000D01*
X133688000Y-101235000D02*
X127246000Y-101235000D01*
X133688000Y-101275000D02*
X127269000Y-101275000D01*
X133688000Y-101315000D02*
X127293000Y-101315000D01*
X133688000Y-101355000D02*
X127316000Y-101355000D01*
X133688000Y-101395000D02*
X127340000Y-101395000D01*
X133688000Y-101435000D02*
X127364000Y-101435000D01*
X133688000Y-101475000D02*
X127388000Y-101475000D01*
X133688000Y-101515000D02*
X127413000Y-101515000D01*
X133688000Y-101555000D02*
X127438000Y-101555000D01*
X133688000Y-101595000D02*
X127463000Y-101595000D01*
X133688000Y-101635000D02*
X127488000Y-101635000D01*
X133688000Y-101675000D02*
X127514000Y-101675000D01*
X133688000Y-101715000D02*
X127540000Y-101715000D01*
X133688000Y-101755000D02*
X127567000Y-101755000D01*
X133688000Y-101795000D02*
X127593000Y-101795000D01*
X133688000Y-101835000D02*
X127620000Y-101835000D01*
X133688000Y-101875000D02*
X127648000Y-101875000D01*
X135168000Y-105834000D02*
X135088000Y-105834000D01*
X135942000Y-105794000D02*
X134314000Y-105794000D01*
X136294000Y-105754000D02*
X133962000Y-105754000D01*
X136563000Y-105714000D02*
X133693000Y-105714000D01*
X136789000Y-105674000D02*
X133467000Y-105674000D01*
X136988000Y-105634000D02*
X133268000Y-105634000D01*
X137167000Y-105594000D02*
X133089000Y-105594000D01*
X137331000Y-105554000D02*
X132925000Y-105554000D01*
X137483000Y-105514000D02*
X132773000Y-105514000D01*
X137626000Y-105474000D02*
X132630000Y-105474000D01*
X137760000Y-105434000D02*
X132496000Y-105434000D01*
X137887000Y-105394000D02*
X132369000Y-105394000D01*
X138008000Y-105354000D02*
X132248000Y-105354000D01*
X138124000Y-105314000D02*
X132132000Y-105314000D01*
X138235000Y-105274000D02*
X132021000Y-105274000D01*
X138342000Y-105234000D02*
X131914000Y-105234000D01*
X138445000Y-105194000D02*
X131811000Y-105194000D01*
X138544000Y-105154000D02*
X131712000Y-105154000D01*
X138640000Y-105114000D02*
X131616000Y-105114000D01*
X138733000Y-105074000D02*
X131523000Y-105074000D01*
X138824000Y-105034000D02*
X131432000Y-105034000D01*
X138912000Y-104994000D02*
X131344000Y-104994000D01*
X138997000Y-104954000D02*
X131259000Y-104954000D01*
X139080000Y-104914000D02*
X131176000Y-104914000D01*
X139161000Y-104875000D02*
X131095000Y-104875000D01*
X139241000Y-104835000D02*
X131015000Y-104835000D01*
X139318000Y-104795000D02*
X130938000Y-104795000D01*
X139393000Y-104755000D02*
X130863000Y-104755000D01*
X139467000Y-104715000D02*
X130789000Y-104715000D01*
X139540000Y-104675000D02*
X130716000Y-104675000D01*
X139610000Y-104635000D02*
X130646000Y-104635000D01*
X139680000Y-104595000D02*
X130576000Y-104595000D01*
X139748000Y-104555000D02*
X130508000Y-104555000D01*
X139814000Y-104515000D02*
X130442000Y-104515000D01*
X139880000Y-104475000D02*
X130376000Y-104475000D01*
X139944000Y-104435000D02*
X130312000Y-104435000D01*
X140007000Y-104395000D02*
X130249000Y-104395000D01*
X140069000Y-104355000D02*
X130187000Y-104355000D01*
X140130000Y-104315000D02*
X130126000Y-104315000D01*
X140190000Y-104275000D02*
X130066000Y-104275000D01*
X140243000Y-86954560D02*
X140243000Y-88754560D01*
X140248000Y-104235000D02*
X130008000Y-104235000D01*
X140306000Y-104195000D02*
X129950000Y-104195000D01*
X140363000Y-104155000D02*
X129893000Y-104155000D01*
X140419000Y-104115000D02*
X129837000Y-104115000D01*
X140474000Y-104075000D02*
X129782000Y-104075000D01*
X140528000Y-104035000D02*
X129728000Y-104035000D01*
X140582000Y-103995000D02*
X129674000Y-103995000D01*
X140634000Y-103955000D02*
X129622000Y-103955000D01*
X140686000Y-103915000D02*
X129570000Y-103915000D01*
X140737000Y-103875000D02*
X129519000Y-103875000D01*
X140788000Y-103835000D02*
X129468000Y-103835000D01*
X140837000Y-103795000D02*
X129419000Y-103795000D01*
X140886000Y-103755000D02*
X129370000Y-103755000D01*
X140934000Y-103715000D02*
X129322000Y-103715000D01*
X140982000Y-103675000D02*
X129274000Y-103675000D01*
X141029000Y-103635000D02*
X129227000Y-103635000D01*
X141075000Y-103595000D02*
X129181000Y-103595000D01*
X141121000Y-103555000D02*
X129135000Y-103555000D01*
X141143000Y-87854560D02*
X139343000Y-87854560D01*
X141166000Y-103515000D02*
X129090000Y-103515000D01*
X141210000Y-103475000D02*
X129046000Y-103475000D01*
X141254000Y-103435000D02*
X129002000Y-103435000D01*
X141298000Y-103395000D02*
X128958000Y-103395000D01*
X141340000Y-103355000D02*
X128916000Y-103355000D01*
X141382000Y-103315000D02*
X128874000Y-103315000D01*
X141424000Y-103275000D02*
X128832000Y-103275000D01*
X141465000Y-103235000D02*
X128791000Y-103235000D01*
X141506000Y-103195000D02*
X128750000Y-103195000D01*
X141546000Y-103155000D02*
X128710000Y-103155000D01*
X141586000Y-103115000D02*
X128670000Y-103115000D01*
X141625000Y-103075000D02*
X128631000Y-103075000D01*
X141664000Y-103035000D02*
X128592000Y-103035000D01*
X141702000Y-102995000D02*
X128554000Y-102995000D01*
X141740000Y-102955000D02*
X128516000Y-102955000D01*
X141777000Y-102915000D02*
X128479000Y-102915000D01*
X141814000Y-102875000D02*
X128442000Y-102875000D01*
X141850000Y-102835000D02*
X128406000Y-102835000D01*
X141886000Y-102795000D02*
X128370000Y-102795000D01*
X141922000Y-102755000D02*
X128334000Y-102755000D01*
X141957000Y-102715000D02*
X128299000Y-102715000D01*
X141992000Y-102675000D02*
X128264000Y-102675000D01*
X142026000Y-102635000D02*
X128230000Y-102635000D01*
X142060000Y-102595000D02*
X128196000Y-102595000D01*
X142093000Y-102555000D02*
X128163000Y-102555000D01*
X142127000Y-102515000D02*
X128129000Y-102515000D01*
X142159000Y-102475000D02*
X128097000Y-102475000D01*
X142192000Y-102435000D02*
X128064000Y-102435000D01*
X142224000Y-102395000D02*
X128032000Y-102395000D01*
X142255000Y-102355000D02*
X128001000Y-102355000D01*
X142287000Y-102315000D02*
X127969000Y-102315000D01*
X142318000Y-102275000D02*
X127938000Y-102275000D01*
X142348000Y-102235000D02*
X127908000Y-102235000D01*
X142378000Y-102195000D02*
X127878000Y-102195000D01*
X142408000Y-102155000D02*
X127848000Y-102155000D01*
X142438000Y-102115000D02*
X127818000Y-102115000D01*
X142467000Y-102075000D02*
X127789000Y-102075000D01*
X142496000Y-102035000D02*
X127760000Y-102035000D01*
X142525000Y-101995000D02*
X127731000Y-101995000D01*
X142553000Y-101955000D02*
X127703000Y-101955000D01*
X142581000Y-101915000D02*
X127675000Y-101915000D01*
X142608000Y-101875000D02*
X136568000Y-101875000D01*
X142636000Y-101835000D02*
X136568000Y-101835000D01*
X142663000Y-101795000D02*
X136568000Y-101795000D01*
X142689000Y-101755000D02*
X136568000Y-101755000D01*
X142716000Y-101715000D02*
X136568000Y-101715000D01*
X142742000Y-101675000D02*
X136568000Y-101675000D01*
X142768000Y-101635000D02*
X136568000Y-101635000D01*
X142793000Y-101595000D02*
X136568000Y-101595000D01*
X142818000Y-101555000D02*
X136568000Y-101555000D01*
X142843000Y-101515000D02*
X136568000Y-101515000D01*
X142868000Y-101475000D02*
X136568000Y-101475000D01*
X142892000Y-101435000D02*
X136568000Y-101435000D01*
X142916000Y-101395000D02*
X136568000Y-101395000D01*
X142940000Y-101355000D02*
X136568000Y-101355000D01*
X142963000Y-101315000D02*
X136568000Y-101315000D01*
X142987000Y-101275000D02*
X136568000Y-101275000D01*
X143010000Y-101235000D02*
X136568000Y-101235000D01*
X143032000Y-101195000D02*
X136568000Y-101195000D01*
X143055000Y-101155000D02*
X136568000Y-101155000D01*
X143077000Y-101115000D02*
X136568000Y-101115000D01*
X143099000Y-101075000D02*
X136568000Y-101075000D01*
X143120000Y-101035000D02*
X136568000Y-101035000D01*
X143142000Y-100995000D02*
X136568000Y-100995000D01*
X143163000Y-100955000D02*
X136568000Y-100955000D01*
X143184000Y-100915000D02*
X136568000Y-100915000D01*
X143204000Y-100875000D02*
X136568000Y-100875000D01*
X143225000Y-100835000D02*
X136568000Y-100835000D01*
X143245000Y-100795000D02*
X136568000Y-100795000D01*
X143265000Y-100755000D02*
X136568000Y-100755000D01*
X143284000Y-100715000D02*
X136568000Y-100715000D01*
X143304000Y-100675000D02*
X136568000Y-100675000D01*
X143323000Y-100635000D02*
X136568000Y-100635000D01*
X143342000Y-100595000D02*
X136568000Y-100595000D01*
X143361000Y-100555000D02*
X136568000Y-100555000D01*
X143379000Y-100515000D02*
X136568000Y-100515000D01*
X143397000Y-100475000D02*
X136568000Y-100475000D01*
X143415000Y-100435000D02*
X136568000Y-100435000D01*
X143433000Y-100395000D02*
X136568000Y-100395000D01*
X143451000Y-100355000D02*
X136568000Y-100355000D01*
X143468000Y-100315000D02*
X136568000Y-100315000D01*
X143485000Y-100275000D02*
X136568000Y-100275000D01*
X143502000Y-100235000D02*
X136568000Y-100235000D01*
X143518000Y-100195000D02*
X136568000Y-100195000D01*
X143535000Y-100155000D02*
X136568000Y-100155000D01*
X143551000Y-100115000D02*
X136568000Y-100115000D01*
X143567000Y-100075000D02*
X136568000Y-100075000D01*
X143583000Y-100035000D02*
X136568000Y-100035000D01*
X143598000Y-99995000D02*
X136568000Y-99995000D01*
X143614000Y-99955000D02*
X136568000Y-99955000D01*
X143629000Y-99915000D02*
X136568000Y-99915000D01*
X143644000Y-99875000D02*
X136568000Y-99875000D01*
X143658000Y-99835000D02*
X136568000Y-99835000D01*
X143673000Y-99795000D02*
X136568000Y-99795000D01*
X143687000Y-99755000D02*
X136568000Y-99755000D01*
X143701000Y-99715000D02*
X136568000Y-99715000D01*
X143715000Y-99675000D02*
X136568000Y-99675000D01*
X143728000Y-99635000D02*
X136568000Y-99635000D01*
X143742000Y-99595000D02*
X136568000Y-99595000D01*
X143755000Y-99555000D02*
X136568000Y-99555000D01*
X143768000Y-99515000D02*
X136568000Y-99515000D01*
X143781000Y-99475000D02*
X136568000Y-99475000D01*
X143793000Y-99435000D02*
X136568000Y-99435000D01*
X143806000Y-99395000D02*
X136568000Y-99395000D01*
X143818000Y-99355000D02*
X136568000Y-99355000D01*
X143830000Y-99315000D02*
X136568000Y-99315000D01*
X143842000Y-99275000D02*
X136568000Y-99275000D01*
X143853000Y-99235000D02*
X136568000Y-99235000D01*
X143865000Y-99195000D02*
X136568000Y-99195000D01*
X143876000Y-99155000D02*
X136568000Y-99155000D01*
X143887000Y-99115000D02*
X136568000Y-99115000D01*
X143898000Y-99075000D02*
X136568000Y-99075000D01*
X143908000Y-99035000D02*
X136568000Y-99035000D01*
X143919000Y-98995000D02*
X126337000Y-98995000D01*
X143929000Y-98955000D02*
X126327000Y-98955000D01*
X143939000Y-98915000D02*
X126317000Y-98915000D01*
X143949000Y-98875000D02*
X126307000Y-98875000D01*
X143959000Y-98835000D02*
X126297000Y-98835000D01*
X143968000Y-98795000D02*
X126288000Y-98795000D01*
X143977000Y-98755000D02*
X126279000Y-98755000D01*
X143986000Y-98715000D02*
X126270000Y-98715000D01*
X143995000Y-98675000D02*
X126261000Y-98675000D01*
X144004000Y-98635000D02*
X126252000Y-98635000D01*
X144013000Y-98595000D02*
X126243000Y-98595000D01*
X144021000Y-98555000D02*
X126235000Y-98555000D01*
X144029000Y-98515000D02*
X126227000Y-98515000D01*
X144037000Y-98475000D02*
X126219000Y-98475000D01*
X144045000Y-98435000D02*
X126211000Y-98435000D01*
X144052000Y-98395000D02*
X126204000Y-98395000D01*
X144060000Y-98355000D02*
X126196000Y-98355000D01*
X144067000Y-98315000D02*
X126189000Y-98315000D01*
X144074000Y-98275000D02*
X126182000Y-98275000D01*
X144081000Y-98235000D02*
X126175000Y-98235000D01*
X144088000Y-98195000D02*
X126168000Y-98195000D01*
X144094000Y-98155000D02*
X126162000Y-98155000D01*
X144100000Y-98115000D02*
X126156000Y-98115000D01*
X144107000Y-98075000D02*
X126149000Y-98075000D01*
X144112000Y-98035000D02*
X126144000Y-98035000D01*
X144118000Y-97995000D02*
X126138000Y-97995000D01*
X144124000Y-97955000D02*
X126132000Y-97955000D01*
X144129000Y-97915000D02*
X126127000Y-97915000D01*
X144134000Y-97875000D02*
X126122000Y-97875000D01*
X144139000Y-97835000D02*
X126117000Y-97835000D01*
X144144000Y-97795000D02*
X126112000Y-97795000D01*
X144149000Y-97755000D02*
X126107000Y-97755000D01*
X144154000Y-97715000D02*
X126102000Y-97715000D01*
X144158000Y-97675000D02*
X126098000Y-97675000D01*
X144162000Y-97635000D02*
X126094000Y-97635000D01*
X144166000Y-97595000D02*
X126090000Y-97595000D01*
X144170000Y-97555000D02*
X126086000Y-97555000D01*
X144173000Y-97515000D02*
X126083000Y-97515000D01*
X144177000Y-97475000D02*
X126079000Y-97475000D01*
X144180000Y-97435000D02*
X126076000Y-97435000D01*
X144183000Y-97394000D02*
X126073000Y-97394000D01*
X144186000Y-97354000D02*
X126070000Y-97354000D01*
X144189000Y-97314000D02*
X126067000Y-97314000D01*
X144191000Y-97274000D02*
X126065000Y-97274000D01*
X144194000Y-97234000D02*
X126062000Y-97234000D01*
X144196000Y-97194000D02*
X126060000Y-97194000D01*
X144198000Y-97154000D02*
X126058000Y-97154000D01*
X144200000Y-97114000D02*
X126056000Y-97114000D01*
X144201000Y-97074000D02*
X126055000Y-97074000D01*
X144203000Y-97034000D02*
X126053000Y-97034000D01*
X144204000Y-96994000D02*
X126052000Y-96994000D01*
X144205000Y-96954000D02*
X126051000Y-96954000D01*
X144206000Y-96914000D02*
X126050000Y-96914000D01*
X144207000Y-96874000D02*
X126049000Y-96874000D01*
X144208000Y-96754000D02*
X126048000Y-96754000D01*
X144208000Y-96794000D02*
X126048000Y-96794000D01*
X144208000Y-96834000D02*
X126048000Y-96834000D01*
X144209000Y-96714000D02*
X126047000Y-96714000D01*
X144248000Y-96714000D02*
G75*
G02*
X126008000Y-96714000I-9120000J0D01*
G01*
X126008000Y-96714000D02*
G75*
G02*
X144248000Y-96714000I9120000J0D01*
G01*
%TO.C,J6*%
D11*
X173736000Y-75946000D02*
X178816000Y-75946000D01*
X178816000Y-65786000D01*
X173736000Y-65786000D01*
X173736000Y-75946000D01*
D12*
%TO.C,D1*%
X93120000Y-71530000D02*
X93120000Y-80870000D01*
X93120000Y-80870000D02*
X95950000Y-80870000D01*
X95950000Y-71530000D02*
X93120000Y-71530000D01*
X99630000Y-71530000D02*
X102460000Y-71530000D01*
X102460000Y-71530000D02*
X102460000Y-80870000D01*
X102460000Y-72895000D02*
X93120000Y-72895000D01*
X102460000Y-73015000D02*
X93120000Y-73015000D01*
X102460000Y-73135000D02*
X93120000Y-73135000D01*
X102460000Y-80870000D02*
X99630000Y-80870000D01*
%TO.C,J5*%
D11*
X173736000Y-106680000D02*
X178816000Y-106680000D01*
X178816000Y-96520000D01*
X173736000Y-96520000D01*
X173736000Y-106680000D01*
%TO.C,J2*%
X64770000Y-82804000D02*
X74930000Y-82804000D01*
X74930000Y-87884000D01*
X64770000Y-87884000D01*
X64770000Y-82804000D01*
D12*
%TO.C,D2*%
X78388000Y-91850000D02*
X78388000Y-101190000D01*
X78388000Y-101190000D02*
X81218000Y-101190000D01*
X81218000Y-91850000D02*
X78388000Y-91850000D01*
X84898000Y-91850000D02*
X87728000Y-91850000D01*
X87728000Y-91850000D02*
X87728000Y-101190000D01*
X87728000Y-93215000D02*
X78388000Y-93215000D01*
X87728000Y-93335000D02*
X78388000Y-93335000D01*
X87728000Y-93455000D02*
X78388000Y-93455000D01*
X87728000Y-101190000D02*
X84898000Y-101190000D01*
%TO.C,J3*%
D11*
X167232000Y-90932000D02*
X172312000Y-90932000D01*
X172312000Y-80772000D01*
X167232000Y-80772000D01*
X167232000Y-90932000D01*
%TD*%
M02*
