%TF.GenerationSoftware,KiCad,Pcbnew,8.0.5*%
%TF.CreationDate,2024-11-22T10:32:01-05:00*%
%TF.ProjectId,power_supply,706f7765-725f-4737-9570-706c792e6b69,rev?*%
%TF.SameCoordinates,Original*%
%TF.FileFunction,Legend,Top*%
%TF.FilePolarity,Positive*%
%FSLAX46Y46*%
G04 Gerber Fmt 4.6, Leading zero omitted, Abs format (unit mm)*
G04 Created by KiCad (PCBNEW 8.0.5) date 2024-11-22 10:32:01*
%MOMM*%
%LPD*%
G01*
G04 APERTURE LIST*
%ADD10C,0.100000*%
%ADD11C,0.150000*%
%ADD12C,0.120000*%
G04 APERTURE END LIST*
D10*
X74725884Y-64388419D02*
X74725884Y-63388419D01*
X74725884Y-63388419D02*
X74963979Y-63388419D01*
X74963979Y-63388419D02*
X75106836Y-63436038D01*
X75106836Y-63436038D02*
X75202074Y-63531276D01*
X75202074Y-63531276D02*
X75249693Y-63626514D01*
X75249693Y-63626514D02*
X75297312Y-63816990D01*
X75297312Y-63816990D02*
X75297312Y-63959847D01*
X75297312Y-63959847D02*
X75249693Y-64150323D01*
X75249693Y-64150323D02*
X75202074Y-64245561D01*
X75202074Y-64245561D02*
X75106836Y-64340800D01*
X75106836Y-64340800D02*
X74963979Y-64388419D01*
X74963979Y-64388419D02*
X74725884Y-64388419D01*
X76106836Y-64340800D02*
X76011598Y-64388419D01*
X76011598Y-64388419D02*
X75821122Y-64388419D01*
X75821122Y-64388419D02*
X75725884Y-64340800D01*
X75725884Y-64340800D02*
X75678265Y-64245561D01*
X75678265Y-64245561D02*
X75678265Y-63864609D01*
X75678265Y-63864609D02*
X75725884Y-63769371D01*
X75725884Y-63769371D02*
X75821122Y-63721752D01*
X75821122Y-63721752D02*
X76011598Y-63721752D01*
X76011598Y-63721752D02*
X76106836Y-63769371D01*
X76106836Y-63769371D02*
X76154455Y-63864609D01*
X76154455Y-63864609D02*
X76154455Y-63959847D01*
X76154455Y-63959847D02*
X75678265Y-64055085D01*
X76535408Y-64340800D02*
X76630646Y-64388419D01*
X76630646Y-64388419D02*
X76821122Y-64388419D01*
X76821122Y-64388419D02*
X76916360Y-64340800D01*
X76916360Y-64340800D02*
X76963979Y-64245561D01*
X76963979Y-64245561D02*
X76963979Y-64197942D01*
X76963979Y-64197942D02*
X76916360Y-64102704D01*
X76916360Y-64102704D02*
X76821122Y-64055085D01*
X76821122Y-64055085D02*
X76678265Y-64055085D01*
X76678265Y-64055085D02*
X76583027Y-64007466D01*
X76583027Y-64007466D02*
X76535408Y-63912228D01*
X76535408Y-63912228D02*
X76535408Y-63864609D01*
X76535408Y-63864609D02*
X76583027Y-63769371D01*
X76583027Y-63769371D02*
X76678265Y-63721752D01*
X76678265Y-63721752D02*
X76821122Y-63721752D01*
X76821122Y-63721752D02*
X76916360Y-63769371D01*
X77392551Y-64388419D02*
X77392551Y-63721752D01*
X77392551Y-63388419D02*
X77344932Y-63436038D01*
X77344932Y-63436038D02*
X77392551Y-63483657D01*
X77392551Y-63483657D02*
X77440170Y-63436038D01*
X77440170Y-63436038D02*
X77392551Y-63388419D01*
X77392551Y-63388419D02*
X77392551Y-63483657D01*
X78297312Y-63721752D02*
X78297312Y-64531276D01*
X78297312Y-64531276D02*
X78249693Y-64626514D01*
X78249693Y-64626514D02*
X78202074Y-64674133D01*
X78202074Y-64674133D02*
X78106836Y-64721752D01*
X78106836Y-64721752D02*
X77963979Y-64721752D01*
X77963979Y-64721752D02*
X77868741Y-64674133D01*
X78297312Y-64340800D02*
X78202074Y-64388419D01*
X78202074Y-64388419D02*
X78011598Y-64388419D01*
X78011598Y-64388419D02*
X77916360Y-64340800D01*
X77916360Y-64340800D02*
X77868741Y-64293180D01*
X77868741Y-64293180D02*
X77821122Y-64197942D01*
X77821122Y-64197942D02*
X77821122Y-63912228D01*
X77821122Y-63912228D02*
X77868741Y-63816990D01*
X77868741Y-63816990D02*
X77916360Y-63769371D01*
X77916360Y-63769371D02*
X78011598Y-63721752D01*
X78011598Y-63721752D02*
X78202074Y-63721752D01*
X78202074Y-63721752D02*
X78297312Y-63769371D01*
X78773503Y-63721752D02*
X78773503Y-64388419D01*
X78773503Y-63816990D02*
X78821122Y-63769371D01*
X78821122Y-63769371D02*
X78916360Y-63721752D01*
X78916360Y-63721752D02*
X79059217Y-63721752D01*
X79059217Y-63721752D02*
X79154455Y-63769371D01*
X79154455Y-63769371D02*
X79202074Y-63864609D01*
X79202074Y-63864609D02*
X79202074Y-64388419D01*
X80059217Y-64340800D02*
X79963979Y-64388419D01*
X79963979Y-64388419D02*
X79773503Y-64388419D01*
X79773503Y-64388419D02*
X79678265Y-64340800D01*
X79678265Y-64340800D02*
X79630646Y-64245561D01*
X79630646Y-64245561D02*
X79630646Y-63864609D01*
X79630646Y-63864609D02*
X79678265Y-63769371D01*
X79678265Y-63769371D02*
X79773503Y-63721752D01*
X79773503Y-63721752D02*
X79963979Y-63721752D01*
X79963979Y-63721752D02*
X80059217Y-63769371D01*
X80059217Y-63769371D02*
X80106836Y-63864609D01*
X80106836Y-63864609D02*
X80106836Y-63959847D01*
X80106836Y-63959847D02*
X79630646Y-64055085D01*
X80963979Y-64388419D02*
X80963979Y-63388419D01*
X80963979Y-64340800D02*
X80868741Y-64388419D01*
X80868741Y-64388419D02*
X80678265Y-64388419D01*
X80678265Y-64388419D02*
X80583027Y-64340800D01*
X80583027Y-64340800D02*
X80535408Y-64293180D01*
X80535408Y-64293180D02*
X80487789Y-64197942D01*
X80487789Y-64197942D02*
X80487789Y-63912228D01*
X80487789Y-63912228D02*
X80535408Y-63816990D01*
X80535408Y-63816990D02*
X80583027Y-63769371D01*
X80583027Y-63769371D02*
X80678265Y-63721752D01*
X80678265Y-63721752D02*
X80868741Y-63721752D01*
X80868741Y-63721752D02*
X80963979Y-63769371D01*
X82202075Y-64388419D02*
X82202075Y-63388419D01*
X82202075Y-63769371D02*
X82297313Y-63721752D01*
X82297313Y-63721752D02*
X82487789Y-63721752D01*
X82487789Y-63721752D02*
X82583027Y-63769371D01*
X82583027Y-63769371D02*
X82630646Y-63816990D01*
X82630646Y-63816990D02*
X82678265Y-63912228D01*
X82678265Y-63912228D02*
X82678265Y-64197942D01*
X82678265Y-64197942D02*
X82630646Y-64293180D01*
X82630646Y-64293180D02*
X82583027Y-64340800D01*
X82583027Y-64340800D02*
X82487789Y-64388419D01*
X82487789Y-64388419D02*
X82297313Y-64388419D01*
X82297313Y-64388419D02*
X82202075Y-64340800D01*
X83011599Y-63721752D02*
X83249694Y-64388419D01*
X83487789Y-63721752D02*
X83249694Y-64388419D01*
X83249694Y-64388419D02*
X83154456Y-64626514D01*
X83154456Y-64626514D02*
X83106837Y-64674133D01*
X83106837Y-64674133D02*
X83011599Y-64721752D01*
X84630647Y-64388419D02*
X84630647Y-63388419D01*
X84630647Y-63388419D02*
X85011599Y-63388419D01*
X85011599Y-63388419D02*
X85106837Y-63436038D01*
X85106837Y-63436038D02*
X85154456Y-63483657D01*
X85154456Y-63483657D02*
X85202075Y-63578895D01*
X85202075Y-63578895D02*
X85202075Y-63721752D01*
X85202075Y-63721752D02*
X85154456Y-63816990D01*
X85154456Y-63816990D02*
X85106837Y-63864609D01*
X85106837Y-63864609D02*
X85011599Y-63912228D01*
X85011599Y-63912228D02*
X84630647Y-63912228D01*
X85773504Y-64388419D02*
X85678266Y-64340800D01*
X85678266Y-64340800D02*
X85630647Y-64293180D01*
X85630647Y-64293180D02*
X85583028Y-64197942D01*
X85583028Y-64197942D02*
X85583028Y-63912228D01*
X85583028Y-63912228D02*
X85630647Y-63816990D01*
X85630647Y-63816990D02*
X85678266Y-63769371D01*
X85678266Y-63769371D02*
X85773504Y-63721752D01*
X85773504Y-63721752D02*
X85916361Y-63721752D01*
X85916361Y-63721752D02*
X86011599Y-63769371D01*
X86011599Y-63769371D02*
X86059218Y-63816990D01*
X86059218Y-63816990D02*
X86106837Y-63912228D01*
X86106837Y-63912228D02*
X86106837Y-64197942D01*
X86106837Y-64197942D02*
X86059218Y-64293180D01*
X86059218Y-64293180D02*
X86011599Y-64340800D01*
X86011599Y-64340800D02*
X85916361Y-64388419D01*
X85916361Y-64388419D02*
X85773504Y-64388419D01*
X86535409Y-63721752D02*
X86535409Y-64388419D01*
X86535409Y-63816990D02*
X86583028Y-63769371D01*
X86583028Y-63769371D02*
X86678266Y-63721752D01*
X86678266Y-63721752D02*
X86821123Y-63721752D01*
X86821123Y-63721752D02*
X86916361Y-63769371D01*
X86916361Y-63769371D02*
X86963980Y-63864609D01*
X86963980Y-63864609D02*
X86963980Y-64388419D01*
X87297314Y-63721752D02*
X87678266Y-63721752D01*
X87440171Y-63388419D02*
X87440171Y-64245561D01*
X87440171Y-64245561D02*
X87487790Y-64340800D01*
X87487790Y-64340800D02*
X87583028Y-64388419D01*
X87583028Y-64388419D02*
X87678266Y-64388419D01*
X88440171Y-63721752D02*
X88440171Y-64388419D01*
X88011600Y-63721752D02*
X88011600Y-64245561D01*
X88011600Y-64245561D02*
X88059219Y-64340800D01*
X88059219Y-64340800D02*
X88154457Y-64388419D01*
X88154457Y-64388419D02*
X88297314Y-64388419D01*
X88297314Y-64388419D02*
X88392552Y-64340800D01*
X88392552Y-64340800D02*
X88440171Y-64293180D01*
X88868743Y-64340800D02*
X88963981Y-64388419D01*
X88963981Y-64388419D02*
X89154457Y-64388419D01*
X89154457Y-64388419D02*
X89249695Y-64340800D01*
X89249695Y-64340800D02*
X89297314Y-64245561D01*
X89297314Y-64245561D02*
X89297314Y-64197942D01*
X89297314Y-64197942D02*
X89249695Y-64102704D01*
X89249695Y-64102704D02*
X89154457Y-64055085D01*
X89154457Y-64055085D02*
X89011600Y-64055085D01*
X89011600Y-64055085D02*
X88916362Y-64007466D01*
X88916362Y-64007466D02*
X88868743Y-63912228D01*
X88868743Y-63912228D02*
X88868743Y-63864609D01*
X88868743Y-63864609D02*
X88916362Y-63769371D01*
X88916362Y-63769371D02*
X89011600Y-63721752D01*
X89011600Y-63721752D02*
X89154457Y-63721752D01*
X89154457Y-63721752D02*
X89249695Y-63769371D01*
X91059219Y-64388419D02*
X90725886Y-63912228D01*
X90487791Y-64388419D02*
X90487791Y-63388419D01*
X90487791Y-63388419D02*
X90868743Y-63388419D01*
X90868743Y-63388419D02*
X90963981Y-63436038D01*
X90963981Y-63436038D02*
X91011600Y-63483657D01*
X91011600Y-63483657D02*
X91059219Y-63578895D01*
X91059219Y-63578895D02*
X91059219Y-63721752D01*
X91059219Y-63721752D02*
X91011600Y-63816990D01*
X91011600Y-63816990D02*
X90963981Y-63864609D01*
X90963981Y-63864609D02*
X90868743Y-63912228D01*
X90868743Y-63912228D02*
X90487791Y-63912228D01*
X91392553Y-63721752D02*
X91630648Y-64388419D01*
X91868743Y-63721752D02*
X91630648Y-64388419D01*
X91630648Y-64388419D02*
X91535410Y-64626514D01*
X91535410Y-64626514D02*
X91487791Y-64674133D01*
X91487791Y-64674133D02*
X91392553Y-64721752D01*
X92678267Y-64388419D02*
X92678267Y-63388419D01*
X92678267Y-64340800D02*
X92583029Y-64388419D01*
X92583029Y-64388419D02*
X92392553Y-64388419D01*
X92392553Y-64388419D02*
X92297315Y-64340800D01*
X92297315Y-64340800D02*
X92249696Y-64293180D01*
X92249696Y-64293180D02*
X92202077Y-64197942D01*
X92202077Y-64197942D02*
X92202077Y-63912228D01*
X92202077Y-63912228D02*
X92249696Y-63816990D01*
X92249696Y-63816990D02*
X92297315Y-63769371D01*
X92297315Y-63769371D02*
X92392553Y-63721752D01*
X92392553Y-63721752D02*
X92583029Y-63721752D01*
X92583029Y-63721752D02*
X92678267Y-63769371D01*
X93154458Y-64388419D02*
X93154458Y-63721752D01*
X93154458Y-63388419D02*
X93106839Y-63436038D01*
X93106839Y-63436038D02*
X93154458Y-63483657D01*
X93154458Y-63483657D02*
X93202077Y-63436038D01*
X93202077Y-63436038D02*
X93154458Y-63388419D01*
X93154458Y-63388419D02*
X93154458Y-63483657D01*
X93630648Y-63721752D02*
X93630648Y-64388419D01*
X93630648Y-63816990D02*
X93678267Y-63769371D01*
X93678267Y-63769371D02*
X93773505Y-63721752D01*
X93773505Y-63721752D02*
X93916362Y-63721752D01*
X93916362Y-63721752D02*
X94011600Y-63769371D01*
X94011600Y-63769371D02*
X94059219Y-63864609D01*
X94059219Y-63864609D02*
X94059219Y-64388419D01*
X94535410Y-64293180D02*
X94583029Y-64340800D01*
X94583029Y-64340800D02*
X94535410Y-64388419D01*
X94535410Y-64388419D02*
X94487791Y-64340800D01*
X94487791Y-64340800D02*
X94535410Y-64293180D01*
X94535410Y-64293180D02*
X94535410Y-64388419D01*
X95773505Y-64388419D02*
X95773505Y-63388419D01*
X96202076Y-64388419D02*
X96202076Y-63864609D01*
X96202076Y-63864609D02*
X96154457Y-63769371D01*
X96154457Y-63769371D02*
X96059219Y-63721752D01*
X96059219Y-63721752D02*
X95916362Y-63721752D01*
X95916362Y-63721752D02*
X95821124Y-63769371D01*
X95821124Y-63769371D02*
X95773505Y-63816990D01*
X96535410Y-63721752D02*
X96916362Y-63721752D01*
X96678267Y-63388419D02*
X96678267Y-64245561D01*
X96678267Y-64245561D02*
X96725886Y-64340800D01*
X96725886Y-64340800D02*
X96821124Y-64388419D01*
X96821124Y-64388419D02*
X96916362Y-64388419D01*
X97106839Y-63721752D02*
X97487791Y-63721752D01*
X97249696Y-63388419D02*
X97249696Y-64245561D01*
X97249696Y-64245561D02*
X97297315Y-64340800D01*
X97297315Y-64340800D02*
X97392553Y-64388419D01*
X97392553Y-64388419D02*
X97487791Y-64388419D01*
X97821125Y-63721752D02*
X97821125Y-64721752D01*
X97821125Y-63769371D02*
X97916363Y-63721752D01*
X97916363Y-63721752D02*
X98106839Y-63721752D01*
X98106839Y-63721752D02*
X98202077Y-63769371D01*
X98202077Y-63769371D02*
X98249696Y-63816990D01*
X98249696Y-63816990D02*
X98297315Y-63912228D01*
X98297315Y-63912228D02*
X98297315Y-64197942D01*
X98297315Y-64197942D02*
X98249696Y-64293180D01*
X98249696Y-64293180D02*
X98202077Y-64340800D01*
X98202077Y-64340800D02*
X98106839Y-64388419D01*
X98106839Y-64388419D02*
X97916363Y-64388419D01*
X97916363Y-64388419D02*
X97821125Y-64340800D01*
X98678268Y-64340800D02*
X98773506Y-64388419D01*
X98773506Y-64388419D02*
X98963982Y-64388419D01*
X98963982Y-64388419D02*
X99059220Y-64340800D01*
X99059220Y-64340800D02*
X99106839Y-64245561D01*
X99106839Y-64245561D02*
X99106839Y-64197942D01*
X99106839Y-64197942D02*
X99059220Y-64102704D01*
X99059220Y-64102704D02*
X98963982Y-64055085D01*
X98963982Y-64055085D02*
X98821125Y-64055085D01*
X98821125Y-64055085D02*
X98725887Y-64007466D01*
X98725887Y-64007466D02*
X98678268Y-63912228D01*
X98678268Y-63912228D02*
X98678268Y-63864609D01*
X98678268Y-63864609D02*
X98725887Y-63769371D01*
X98725887Y-63769371D02*
X98821125Y-63721752D01*
X98821125Y-63721752D02*
X98963982Y-63721752D01*
X98963982Y-63721752D02*
X99059220Y-63769371D01*
X99535411Y-64293180D02*
X99583030Y-64340800D01*
X99583030Y-64340800D02*
X99535411Y-64388419D01*
X99535411Y-64388419D02*
X99487792Y-64340800D01*
X99487792Y-64340800D02*
X99535411Y-64293180D01*
X99535411Y-64293180D02*
X99535411Y-64388419D01*
X99535411Y-63769371D02*
X99583030Y-63816990D01*
X99583030Y-63816990D02*
X99535411Y-63864609D01*
X99535411Y-63864609D02*
X99487792Y-63816990D01*
X99487792Y-63816990D02*
X99535411Y-63769371D01*
X99535411Y-63769371D02*
X99535411Y-63864609D01*
X100725886Y-63340800D02*
X99868744Y-64626514D01*
X101773505Y-63340800D02*
X100916363Y-64626514D01*
X102535410Y-63721752D02*
X102535410Y-64531276D01*
X102535410Y-64531276D02*
X102487791Y-64626514D01*
X102487791Y-64626514D02*
X102440172Y-64674133D01*
X102440172Y-64674133D02*
X102344934Y-64721752D01*
X102344934Y-64721752D02*
X102202077Y-64721752D01*
X102202077Y-64721752D02*
X102106839Y-64674133D01*
X102535410Y-64340800D02*
X102440172Y-64388419D01*
X102440172Y-64388419D02*
X102249696Y-64388419D01*
X102249696Y-64388419D02*
X102154458Y-64340800D01*
X102154458Y-64340800D02*
X102106839Y-64293180D01*
X102106839Y-64293180D02*
X102059220Y-64197942D01*
X102059220Y-64197942D02*
X102059220Y-63912228D01*
X102059220Y-63912228D02*
X102106839Y-63816990D01*
X102106839Y-63816990D02*
X102154458Y-63769371D01*
X102154458Y-63769371D02*
X102249696Y-63721752D01*
X102249696Y-63721752D02*
X102440172Y-63721752D01*
X102440172Y-63721752D02*
X102535410Y-63769371D01*
X103011601Y-64388419D02*
X103011601Y-63721752D01*
X103011601Y-63388419D02*
X102963982Y-63436038D01*
X102963982Y-63436038D02*
X103011601Y-63483657D01*
X103011601Y-63483657D02*
X103059220Y-63436038D01*
X103059220Y-63436038D02*
X103011601Y-63388419D01*
X103011601Y-63388419D02*
X103011601Y-63483657D01*
X103344934Y-63721752D02*
X103725886Y-63721752D01*
X103487791Y-63388419D02*
X103487791Y-64245561D01*
X103487791Y-64245561D02*
X103535410Y-64340800D01*
X103535410Y-64340800D02*
X103630648Y-64388419D01*
X103630648Y-64388419D02*
X103725886Y-64388419D01*
X104059220Y-64388419D02*
X104059220Y-63388419D01*
X104487791Y-64388419D02*
X104487791Y-63864609D01*
X104487791Y-63864609D02*
X104440172Y-63769371D01*
X104440172Y-63769371D02*
X104344934Y-63721752D01*
X104344934Y-63721752D02*
X104202077Y-63721752D01*
X104202077Y-63721752D02*
X104106839Y-63769371D01*
X104106839Y-63769371D02*
X104059220Y-63816990D01*
X105392553Y-63721752D02*
X105392553Y-64388419D01*
X104963982Y-63721752D02*
X104963982Y-64245561D01*
X104963982Y-64245561D02*
X105011601Y-64340800D01*
X105011601Y-64340800D02*
X105106839Y-64388419D01*
X105106839Y-64388419D02*
X105249696Y-64388419D01*
X105249696Y-64388419D02*
X105344934Y-64340800D01*
X105344934Y-64340800D02*
X105392553Y-64293180D01*
X105868744Y-64388419D02*
X105868744Y-63388419D01*
X105868744Y-63769371D02*
X105963982Y-63721752D01*
X105963982Y-63721752D02*
X106154458Y-63721752D01*
X106154458Y-63721752D02*
X106249696Y-63769371D01*
X106249696Y-63769371D02*
X106297315Y-63816990D01*
X106297315Y-63816990D02*
X106344934Y-63912228D01*
X106344934Y-63912228D02*
X106344934Y-64197942D01*
X106344934Y-64197942D02*
X106297315Y-64293180D01*
X106297315Y-64293180D02*
X106249696Y-64340800D01*
X106249696Y-64340800D02*
X106154458Y-64388419D01*
X106154458Y-64388419D02*
X105963982Y-64388419D01*
X105963982Y-64388419D02*
X105868744Y-64340800D01*
X106773506Y-64293180D02*
X106821125Y-64340800D01*
X106821125Y-64340800D02*
X106773506Y-64388419D01*
X106773506Y-64388419D02*
X106725887Y-64340800D01*
X106725887Y-64340800D02*
X106773506Y-64293180D01*
X106773506Y-64293180D02*
X106773506Y-64388419D01*
X107678267Y-64340800D02*
X107583029Y-64388419D01*
X107583029Y-64388419D02*
X107392553Y-64388419D01*
X107392553Y-64388419D02*
X107297315Y-64340800D01*
X107297315Y-64340800D02*
X107249696Y-64293180D01*
X107249696Y-64293180D02*
X107202077Y-64197942D01*
X107202077Y-64197942D02*
X107202077Y-63912228D01*
X107202077Y-63912228D02*
X107249696Y-63816990D01*
X107249696Y-63816990D02*
X107297315Y-63769371D01*
X107297315Y-63769371D02*
X107392553Y-63721752D01*
X107392553Y-63721752D02*
X107583029Y-63721752D01*
X107583029Y-63721752D02*
X107678267Y-63769371D01*
X108249696Y-64388419D02*
X108154458Y-64340800D01*
X108154458Y-64340800D02*
X108106839Y-64293180D01*
X108106839Y-64293180D02*
X108059220Y-64197942D01*
X108059220Y-64197942D02*
X108059220Y-63912228D01*
X108059220Y-63912228D02*
X108106839Y-63816990D01*
X108106839Y-63816990D02*
X108154458Y-63769371D01*
X108154458Y-63769371D02*
X108249696Y-63721752D01*
X108249696Y-63721752D02*
X108392553Y-63721752D01*
X108392553Y-63721752D02*
X108487791Y-63769371D01*
X108487791Y-63769371D02*
X108535410Y-63816990D01*
X108535410Y-63816990D02*
X108583029Y-63912228D01*
X108583029Y-63912228D02*
X108583029Y-64197942D01*
X108583029Y-64197942D02*
X108535410Y-64293180D01*
X108535410Y-64293180D02*
X108487791Y-64340800D01*
X108487791Y-64340800D02*
X108392553Y-64388419D01*
X108392553Y-64388419D02*
X108249696Y-64388419D01*
X109011601Y-64388419D02*
X109011601Y-63721752D01*
X109011601Y-63816990D02*
X109059220Y-63769371D01*
X109059220Y-63769371D02*
X109154458Y-63721752D01*
X109154458Y-63721752D02*
X109297315Y-63721752D01*
X109297315Y-63721752D02*
X109392553Y-63769371D01*
X109392553Y-63769371D02*
X109440172Y-63864609D01*
X109440172Y-63864609D02*
X109440172Y-64388419D01*
X109440172Y-63864609D02*
X109487791Y-63769371D01*
X109487791Y-63769371D02*
X109583029Y-63721752D01*
X109583029Y-63721752D02*
X109725886Y-63721752D01*
X109725886Y-63721752D02*
X109821125Y-63769371D01*
X109821125Y-63769371D02*
X109868744Y-63864609D01*
X109868744Y-63864609D02*
X109868744Y-64388419D01*
X111059219Y-63340800D02*
X110202077Y-64626514D01*
X111392553Y-63721752D02*
X111392553Y-64721752D01*
X111392553Y-63769371D02*
X111487791Y-63721752D01*
X111487791Y-63721752D02*
X111678267Y-63721752D01*
X111678267Y-63721752D02*
X111773505Y-63769371D01*
X111773505Y-63769371D02*
X111821124Y-63816990D01*
X111821124Y-63816990D02*
X111868743Y-63912228D01*
X111868743Y-63912228D02*
X111868743Y-64197942D01*
X111868743Y-64197942D02*
X111821124Y-64293180D01*
X111821124Y-64293180D02*
X111773505Y-64340800D01*
X111773505Y-64340800D02*
X111678267Y-64388419D01*
X111678267Y-64388419D02*
X111487791Y-64388419D01*
X111487791Y-64388419D02*
X111392553Y-64340800D01*
X112297315Y-64388419D02*
X112297315Y-63721752D01*
X112297315Y-63912228D02*
X112344934Y-63816990D01*
X112344934Y-63816990D02*
X112392553Y-63769371D01*
X112392553Y-63769371D02*
X112487791Y-63721752D01*
X112487791Y-63721752D02*
X112583029Y-63721752D01*
X112821125Y-63721752D02*
X113059220Y-64388419D01*
X113297315Y-63721752D02*
X113059220Y-64388419D01*
X113059220Y-64388419D02*
X112963982Y-64626514D01*
X112963982Y-64626514D02*
X112916363Y-64674133D01*
X112916363Y-64674133D02*
X112821125Y-64721752D01*
X114106839Y-64388419D02*
X114106839Y-63388419D01*
X114106839Y-64340800D02*
X114011601Y-64388419D01*
X114011601Y-64388419D02*
X113821125Y-64388419D01*
X113821125Y-64388419D02*
X113725887Y-64340800D01*
X113725887Y-64340800D02*
X113678268Y-64293180D01*
X113678268Y-64293180D02*
X113630649Y-64197942D01*
X113630649Y-64197942D02*
X113630649Y-63912228D01*
X113630649Y-63912228D02*
X113678268Y-63816990D01*
X113678268Y-63816990D02*
X113725887Y-63769371D01*
X113725887Y-63769371D02*
X113821125Y-63721752D01*
X113821125Y-63721752D02*
X114011601Y-63721752D01*
X114011601Y-63721752D02*
X114106839Y-63769371D01*
X114583030Y-64388419D02*
X114583030Y-63721752D01*
X114583030Y-63388419D02*
X114535411Y-63436038D01*
X114535411Y-63436038D02*
X114583030Y-63483657D01*
X114583030Y-63483657D02*
X114630649Y-63436038D01*
X114630649Y-63436038D02*
X114583030Y-63388419D01*
X114583030Y-63388419D02*
X114583030Y-63483657D01*
X115059220Y-63721752D02*
X115059220Y-64388419D01*
X115059220Y-63816990D02*
X115106839Y-63769371D01*
X115106839Y-63769371D02*
X115202077Y-63721752D01*
X115202077Y-63721752D02*
X115344934Y-63721752D01*
X115344934Y-63721752D02*
X115440172Y-63769371D01*
X115440172Y-63769371D02*
X115487791Y-63864609D01*
X115487791Y-63864609D02*
X115487791Y-64388419D01*
X116678267Y-63340800D02*
X115821125Y-64626514D01*
X117440172Y-64340800D02*
X117344934Y-64388419D01*
X117344934Y-64388419D02*
X117154458Y-64388419D01*
X117154458Y-64388419D02*
X117059220Y-64340800D01*
X117059220Y-64340800D02*
X117011601Y-64293180D01*
X117011601Y-64293180D02*
X116963982Y-64197942D01*
X116963982Y-64197942D02*
X116963982Y-63912228D01*
X116963982Y-63912228D02*
X117011601Y-63816990D01*
X117011601Y-63816990D02*
X117059220Y-63769371D01*
X117059220Y-63769371D02*
X117154458Y-63721752D01*
X117154458Y-63721752D02*
X117344934Y-63721752D01*
X117344934Y-63721752D02*
X117440172Y-63769371D01*
X118011601Y-64388419D02*
X117916363Y-64340800D01*
X117916363Y-64340800D02*
X117868744Y-64245561D01*
X117868744Y-64245561D02*
X117868744Y-63388419D01*
X118821125Y-64388419D02*
X118821125Y-63864609D01*
X118821125Y-63864609D02*
X118773506Y-63769371D01*
X118773506Y-63769371D02*
X118678268Y-63721752D01*
X118678268Y-63721752D02*
X118487792Y-63721752D01*
X118487792Y-63721752D02*
X118392554Y-63769371D01*
X118821125Y-64340800D02*
X118725887Y-64388419D01*
X118725887Y-64388419D02*
X118487792Y-64388419D01*
X118487792Y-64388419D02*
X118392554Y-64340800D01*
X118392554Y-64340800D02*
X118344935Y-64245561D01*
X118344935Y-64245561D02*
X118344935Y-64150323D01*
X118344935Y-64150323D02*
X118392554Y-64055085D01*
X118392554Y-64055085D02*
X118487792Y-64007466D01*
X118487792Y-64007466D02*
X118725887Y-64007466D01*
X118725887Y-64007466D02*
X118821125Y-63959847D01*
X119249697Y-64340800D02*
X119344935Y-64388419D01*
X119344935Y-64388419D02*
X119535411Y-64388419D01*
X119535411Y-64388419D02*
X119630649Y-64340800D01*
X119630649Y-64340800D02*
X119678268Y-64245561D01*
X119678268Y-64245561D02*
X119678268Y-64197942D01*
X119678268Y-64197942D02*
X119630649Y-64102704D01*
X119630649Y-64102704D02*
X119535411Y-64055085D01*
X119535411Y-64055085D02*
X119392554Y-64055085D01*
X119392554Y-64055085D02*
X119297316Y-64007466D01*
X119297316Y-64007466D02*
X119249697Y-63912228D01*
X119249697Y-63912228D02*
X119249697Y-63864609D01*
X119249697Y-63864609D02*
X119297316Y-63769371D01*
X119297316Y-63769371D02*
X119392554Y-63721752D01*
X119392554Y-63721752D02*
X119535411Y-63721752D01*
X119535411Y-63721752D02*
X119630649Y-63769371D01*
X120059221Y-64340800D02*
X120154459Y-64388419D01*
X120154459Y-64388419D02*
X120344935Y-64388419D01*
X120344935Y-64388419D02*
X120440173Y-64340800D01*
X120440173Y-64340800D02*
X120487792Y-64245561D01*
X120487792Y-64245561D02*
X120487792Y-64197942D01*
X120487792Y-64197942D02*
X120440173Y-64102704D01*
X120440173Y-64102704D02*
X120344935Y-64055085D01*
X120344935Y-64055085D02*
X120202078Y-64055085D01*
X120202078Y-64055085D02*
X120106840Y-64007466D01*
X120106840Y-64007466D02*
X120059221Y-63912228D01*
X120059221Y-63912228D02*
X120059221Y-63864609D01*
X120059221Y-63864609D02*
X120106840Y-63769371D01*
X120106840Y-63769371D02*
X120202078Y-63721752D01*
X120202078Y-63721752D02*
X120344935Y-63721752D01*
X120344935Y-63721752D02*
X120440173Y-63769371D01*
X121344935Y-64388419D02*
X121344935Y-63864609D01*
X121344935Y-63864609D02*
X121297316Y-63769371D01*
X121297316Y-63769371D02*
X121202078Y-63721752D01*
X121202078Y-63721752D02*
X121011602Y-63721752D01*
X121011602Y-63721752D02*
X120916364Y-63769371D01*
X121344935Y-64340800D02*
X121249697Y-64388419D01*
X121249697Y-64388419D02*
X121011602Y-64388419D01*
X121011602Y-64388419D02*
X120916364Y-64340800D01*
X120916364Y-64340800D02*
X120868745Y-64245561D01*
X120868745Y-64245561D02*
X120868745Y-64150323D01*
X120868745Y-64150323D02*
X120916364Y-64055085D01*
X120916364Y-64055085D02*
X121011602Y-64007466D01*
X121011602Y-64007466D02*
X121249697Y-64007466D01*
X121249697Y-64007466D02*
X121344935Y-63959847D01*
X121821126Y-64388419D02*
X121821126Y-63388419D01*
X121821126Y-63769371D02*
X121916364Y-63721752D01*
X121916364Y-63721752D02*
X122106840Y-63721752D01*
X122106840Y-63721752D02*
X122202078Y-63769371D01*
X122202078Y-63769371D02*
X122249697Y-63816990D01*
X122249697Y-63816990D02*
X122297316Y-63912228D01*
X122297316Y-63912228D02*
X122297316Y-64197942D01*
X122297316Y-64197942D02*
X122249697Y-64293180D01*
X122249697Y-64293180D02*
X122202078Y-64340800D01*
X122202078Y-64340800D02*
X122106840Y-64388419D01*
X122106840Y-64388419D02*
X121916364Y-64388419D01*
X121916364Y-64388419D02*
X121821126Y-64340800D01*
X122725888Y-64007466D02*
X123487793Y-64007466D01*
X124392554Y-64388419D02*
X124392554Y-63864609D01*
X124392554Y-63864609D02*
X124344935Y-63769371D01*
X124344935Y-63769371D02*
X124249697Y-63721752D01*
X124249697Y-63721752D02*
X124059221Y-63721752D01*
X124059221Y-63721752D02*
X123963983Y-63769371D01*
X124392554Y-64340800D02*
X124297316Y-64388419D01*
X124297316Y-64388419D02*
X124059221Y-64388419D01*
X124059221Y-64388419D02*
X123963983Y-64340800D01*
X123963983Y-64340800D02*
X123916364Y-64245561D01*
X123916364Y-64245561D02*
X123916364Y-64150323D01*
X123916364Y-64150323D02*
X123963983Y-64055085D01*
X123963983Y-64055085D02*
X124059221Y-64007466D01*
X124059221Y-64007466D02*
X124297316Y-64007466D01*
X124297316Y-64007466D02*
X124392554Y-63959847D01*
X124868745Y-64388419D02*
X124868745Y-63721752D01*
X124868745Y-63816990D02*
X124916364Y-63769371D01*
X124916364Y-63769371D02*
X125011602Y-63721752D01*
X125011602Y-63721752D02*
X125154459Y-63721752D01*
X125154459Y-63721752D02*
X125249697Y-63769371D01*
X125249697Y-63769371D02*
X125297316Y-63864609D01*
X125297316Y-63864609D02*
X125297316Y-64388419D01*
X125297316Y-63864609D02*
X125344935Y-63769371D01*
X125344935Y-63769371D02*
X125440173Y-63721752D01*
X125440173Y-63721752D02*
X125583030Y-63721752D01*
X125583030Y-63721752D02*
X125678269Y-63769371D01*
X125678269Y-63769371D02*
X125725888Y-63864609D01*
X125725888Y-63864609D02*
X125725888Y-64388419D01*
X126202078Y-63721752D02*
X126202078Y-64721752D01*
X126202078Y-63769371D02*
X126297316Y-63721752D01*
X126297316Y-63721752D02*
X126487792Y-63721752D01*
X126487792Y-63721752D02*
X126583030Y-63769371D01*
X126583030Y-63769371D02*
X126630649Y-63816990D01*
X126630649Y-63816990D02*
X126678268Y-63912228D01*
X126678268Y-63912228D02*
X126678268Y-64197942D01*
X126678268Y-64197942D02*
X126630649Y-64293180D01*
X126630649Y-64293180D02*
X126583030Y-64340800D01*
X126583030Y-64340800D02*
X126487792Y-64388419D01*
X126487792Y-64388419D02*
X126297316Y-64388419D01*
X126297316Y-64388419D02*
X126202078Y-64340800D01*
X127106840Y-64007466D02*
X127868745Y-64007466D01*
X128344935Y-64388419D02*
X128344935Y-63721752D01*
X128344935Y-63816990D02*
X128392554Y-63769371D01*
X128392554Y-63769371D02*
X128487792Y-63721752D01*
X128487792Y-63721752D02*
X128630649Y-63721752D01*
X128630649Y-63721752D02*
X128725887Y-63769371D01*
X128725887Y-63769371D02*
X128773506Y-63864609D01*
X128773506Y-63864609D02*
X128773506Y-64388419D01*
X128773506Y-63864609D02*
X128821125Y-63769371D01*
X128821125Y-63769371D02*
X128916363Y-63721752D01*
X128916363Y-63721752D02*
X129059220Y-63721752D01*
X129059220Y-63721752D02*
X129154459Y-63769371D01*
X129154459Y-63769371D02*
X129202078Y-63864609D01*
X129202078Y-63864609D02*
X129202078Y-64388419D01*
X129821125Y-64388419D02*
X129725887Y-64340800D01*
X129725887Y-64340800D02*
X129678268Y-64293180D01*
X129678268Y-64293180D02*
X129630649Y-64197942D01*
X129630649Y-64197942D02*
X129630649Y-63912228D01*
X129630649Y-63912228D02*
X129678268Y-63816990D01*
X129678268Y-63816990D02*
X129725887Y-63769371D01*
X129725887Y-63769371D02*
X129821125Y-63721752D01*
X129821125Y-63721752D02*
X129963982Y-63721752D01*
X129963982Y-63721752D02*
X130059220Y-63769371D01*
X130059220Y-63769371D02*
X130106839Y-63816990D01*
X130106839Y-63816990D02*
X130154458Y-63912228D01*
X130154458Y-63912228D02*
X130154458Y-64197942D01*
X130154458Y-64197942D02*
X130106839Y-64293180D01*
X130106839Y-64293180D02*
X130059220Y-64340800D01*
X130059220Y-64340800D02*
X129963982Y-64388419D01*
X129963982Y-64388419D02*
X129821125Y-64388419D01*
X130535411Y-64340800D02*
X130630649Y-64388419D01*
X130630649Y-64388419D02*
X130821125Y-64388419D01*
X130821125Y-64388419D02*
X130916363Y-64340800D01*
X130916363Y-64340800D02*
X130963982Y-64245561D01*
X130963982Y-64245561D02*
X130963982Y-64197942D01*
X130963982Y-64197942D02*
X130916363Y-64102704D01*
X130916363Y-64102704D02*
X130821125Y-64055085D01*
X130821125Y-64055085D02*
X130678268Y-64055085D01*
X130678268Y-64055085D02*
X130583030Y-64007466D01*
X130583030Y-64007466D02*
X130535411Y-63912228D01*
X130535411Y-63912228D02*
X130535411Y-63864609D01*
X130535411Y-63864609D02*
X130583030Y-63769371D01*
X130583030Y-63769371D02*
X130678268Y-63721752D01*
X130678268Y-63721752D02*
X130821125Y-63721752D01*
X130821125Y-63721752D02*
X130916363Y-63769371D01*
X131249697Y-63721752D02*
X131630649Y-63721752D01*
X131392554Y-64388419D02*
X131392554Y-63531276D01*
X131392554Y-63531276D02*
X131440173Y-63436038D01*
X131440173Y-63436038D02*
X131535411Y-63388419D01*
X131535411Y-63388419D02*
X131630649Y-63388419D01*
X132344935Y-64340800D02*
X132249697Y-64388419D01*
X132249697Y-64388419D02*
X132059221Y-64388419D01*
X132059221Y-64388419D02*
X131963983Y-64340800D01*
X131963983Y-64340800D02*
X131916364Y-64245561D01*
X131916364Y-64245561D02*
X131916364Y-63864609D01*
X131916364Y-63864609D02*
X131963983Y-63769371D01*
X131963983Y-63769371D02*
X132059221Y-63721752D01*
X132059221Y-63721752D02*
X132249697Y-63721752D01*
X132249697Y-63721752D02*
X132344935Y-63769371D01*
X132344935Y-63769371D02*
X132392554Y-63864609D01*
X132392554Y-63864609D02*
X132392554Y-63959847D01*
X132392554Y-63959847D02*
X131916364Y-64055085D01*
X132678269Y-63721752D02*
X133059221Y-63721752D01*
X132821126Y-63388419D02*
X132821126Y-64245561D01*
X132821126Y-64245561D02*
X132868745Y-64340800D01*
X132868745Y-64340800D02*
X132963983Y-64388419D01*
X132963983Y-64388419D02*
X133059221Y-64388419D01*
D11*
X165960588Y-81721438D02*
X165865350Y-81673819D01*
X165865350Y-81673819D02*
X165722493Y-81673819D01*
X165722493Y-81673819D02*
X165579636Y-81721438D01*
X165579636Y-81721438D02*
X165484398Y-81816676D01*
X165484398Y-81816676D02*
X165436779Y-81911914D01*
X165436779Y-81911914D02*
X165389160Y-82102390D01*
X165389160Y-82102390D02*
X165389160Y-82245247D01*
X165389160Y-82245247D02*
X165436779Y-82435723D01*
X165436779Y-82435723D02*
X165484398Y-82530961D01*
X165484398Y-82530961D02*
X165579636Y-82626200D01*
X165579636Y-82626200D02*
X165722493Y-82673819D01*
X165722493Y-82673819D02*
X165817731Y-82673819D01*
X165817731Y-82673819D02*
X165960588Y-82626200D01*
X165960588Y-82626200D02*
X166008207Y-82578580D01*
X166008207Y-82578580D02*
X166008207Y-82245247D01*
X166008207Y-82245247D02*
X165817731Y-82245247D01*
X166436779Y-82673819D02*
X166436779Y-81673819D01*
X166436779Y-81673819D02*
X167008207Y-82673819D01*
X167008207Y-82673819D02*
X167008207Y-81673819D01*
X167484398Y-82673819D02*
X167484398Y-81673819D01*
X167484398Y-81673819D02*
X167722493Y-81673819D01*
X167722493Y-81673819D02*
X167865350Y-81721438D01*
X167865350Y-81721438D02*
X167960588Y-81816676D01*
X167960588Y-81816676D02*
X168008207Y-81911914D01*
X168008207Y-81911914D02*
X168055826Y-82102390D01*
X168055826Y-82102390D02*
X168055826Y-82245247D01*
X168055826Y-82245247D02*
X168008207Y-82435723D01*
X168008207Y-82435723D02*
X167960588Y-82530961D01*
X167960588Y-82530961D02*
X167865350Y-82626200D01*
X167865350Y-82626200D02*
X167722493Y-82673819D01*
X167722493Y-82673819D02*
X167484398Y-82673819D01*
X166532112Y-71736009D02*
X166674969Y-71783628D01*
X166674969Y-71783628D02*
X166722588Y-71831247D01*
X166722588Y-71831247D02*
X166770207Y-71926485D01*
X166770207Y-71926485D02*
X166770207Y-72069342D01*
X166770207Y-72069342D02*
X166722588Y-72164580D01*
X166722588Y-72164580D02*
X166674969Y-72212200D01*
X166674969Y-72212200D02*
X166579731Y-72259819D01*
X166579731Y-72259819D02*
X166198779Y-72259819D01*
X166198779Y-72259819D02*
X166198779Y-71259819D01*
X166198779Y-71259819D02*
X166532112Y-71259819D01*
X166532112Y-71259819D02*
X166627350Y-71307438D01*
X166627350Y-71307438D02*
X166674969Y-71355057D01*
X166674969Y-71355057D02*
X166722588Y-71450295D01*
X166722588Y-71450295D02*
X166722588Y-71545533D01*
X166722588Y-71545533D02*
X166674969Y-71640771D01*
X166674969Y-71640771D02*
X166627350Y-71688390D01*
X166627350Y-71688390D02*
X166532112Y-71736009D01*
X166532112Y-71736009D02*
X166198779Y-71736009D01*
X167198779Y-71878866D02*
X167960684Y-71878866D01*
X167579731Y-72259819D02*
X167579731Y-71497914D01*
X75219160Y-74260104D02*
X75695350Y-74260104D01*
X75123922Y-74545819D02*
X75457255Y-73545819D01*
X75457255Y-73545819D02*
X75790588Y-74545819D01*
X76695350Y-74450580D02*
X76647731Y-74498200D01*
X76647731Y-74498200D02*
X76504874Y-74545819D01*
X76504874Y-74545819D02*
X76409636Y-74545819D01*
X76409636Y-74545819D02*
X76266779Y-74498200D01*
X76266779Y-74498200D02*
X76171541Y-74402961D01*
X76171541Y-74402961D02*
X76123922Y-74307723D01*
X76123922Y-74307723D02*
X76076303Y-74117247D01*
X76076303Y-74117247D02*
X76076303Y-73974390D01*
X76076303Y-73974390D02*
X76123922Y-73783914D01*
X76123922Y-73783914D02*
X76171541Y-73688676D01*
X76171541Y-73688676D02*
X76266779Y-73593438D01*
X76266779Y-73593438D02*
X76409636Y-73545819D01*
X76409636Y-73545819D02*
X76504874Y-73545819D01*
X76504874Y-73545819D02*
X76647731Y-73593438D01*
X76647731Y-73593438D02*
X76695350Y-73641057D01*
X75219160Y-89246104D02*
X75695350Y-89246104D01*
X75123922Y-89531819D02*
X75457255Y-88531819D01*
X75457255Y-88531819D02*
X75790588Y-89531819D01*
X76695350Y-89436580D02*
X76647731Y-89484200D01*
X76647731Y-89484200D02*
X76504874Y-89531819D01*
X76504874Y-89531819D02*
X76409636Y-89531819D01*
X76409636Y-89531819D02*
X76266779Y-89484200D01*
X76266779Y-89484200D02*
X76171541Y-89388961D01*
X76171541Y-89388961D02*
X76123922Y-89293723D01*
X76123922Y-89293723D02*
X76076303Y-89103247D01*
X76076303Y-89103247D02*
X76076303Y-88960390D01*
X76076303Y-88960390D02*
X76123922Y-88769914D01*
X76123922Y-88769914D02*
X76171541Y-88674676D01*
X76171541Y-88674676D02*
X76266779Y-88579438D01*
X76266779Y-88579438D02*
X76409636Y-88531819D01*
X76409636Y-88531819D02*
X76504874Y-88531819D01*
X76504874Y-88531819D02*
X76647731Y-88579438D01*
X76647731Y-88579438D02*
X76695350Y-88627057D01*
X166532112Y-91802009D02*
X166674969Y-91849628D01*
X166674969Y-91849628D02*
X166722588Y-91897247D01*
X166722588Y-91897247D02*
X166770207Y-91992485D01*
X166770207Y-91992485D02*
X166770207Y-92135342D01*
X166770207Y-92135342D02*
X166722588Y-92230580D01*
X166722588Y-92230580D02*
X166674969Y-92278200D01*
X166674969Y-92278200D02*
X166579731Y-92325819D01*
X166579731Y-92325819D02*
X166198779Y-92325819D01*
X166198779Y-92325819D02*
X166198779Y-91325819D01*
X166198779Y-91325819D02*
X166532112Y-91325819D01*
X166532112Y-91325819D02*
X166627350Y-91373438D01*
X166627350Y-91373438D02*
X166674969Y-91421057D01*
X166674969Y-91421057D02*
X166722588Y-91516295D01*
X166722588Y-91516295D02*
X166722588Y-91611533D01*
X166722588Y-91611533D02*
X166674969Y-91706771D01*
X166674969Y-91706771D02*
X166627350Y-91754390D01*
X166627350Y-91754390D02*
X166532112Y-91802009D01*
X166532112Y-91802009D02*
X166198779Y-91802009D01*
X167198779Y-91944866D02*
X167960684Y-91944866D01*
X75790588Y-81213438D02*
X75695350Y-81165819D01*
X75695350Y-81165819D02*
X75552493Y-81165819D01*
X75552493Y-81165819D02*
X75409636Y-81213438D01*
X75409636Y-81213438D02*
X75314398Y-81308676D01*
X75314398Y-81308676D02*
X75266779Y-81403914D01*
X75266779Y-81403914D02*
X75219160Y-81594390D01*
X75219160Y-81594390D02*
X75219160Y-81737247D01*
X75219160Y-81737247D02*
X75266779Y-81927723D01*
X75266779Y-81927723D02*
X75314398Y-82022961D01*
X75314398Y-82022961D02*
X75409636Y-82118200D01*
X75409636Y-82118200D02*
X75552493Y-82165819D01*
X75552493Y-82165819D02*
X75647731Y-82165819D01*
X75647731Y-82165819D02*
X75790588Y-82118200D01*
X75790588Y-82118200D02*
X75838207Y-82070580D01*
X75838207Y-82070580D02*
X75838207Y-81737247D01*
X75838207Y-81737247D02*
X75647731Y-81737247D01*
X76266779Y-82165819D02*
X76266779Y-81165819D01*
X76266779Y-81165819D02*
X76838207Y-82165819D01*
X76838207Y-82165819D02*
X76838207Y-81165819D01*
X77314398Y-82165819D02*
X77314398Y-81165819D01*
X77314398Y-81165819D02*
X77552493Y-81165819D01*
X77552493Y-81165819D02*
X77695350Y-81213438D01*
X77695350Y-81213438D02*
X77790588Y-81308676D01*
X77790588Y-81308676D02*
X77838207Y-81403914D01*
X77838207Y-81403914D02*
X77885826Y-81594390D01*
X77885826Y-81594390D02*
X77885826Y-81737247D01*
X77885826Y-81737247D02*
X77838207Y-81927723D01*
X77838207Y-81927723D02*
X77790588Y-82022961D01*
X77790588Y-82022961D02*
X77695350Y-82118200D01*
X77695350Y-82118200D02*
X77552493Y-82165819D01*
X77552493Y-82165819D02*
X77314398Y-82165819D01*
X152425333Y-106523580D02*
X152377714Y-106571200D01*
X152377714Y-106571200D02*
X152234857Y-106618819D01*
X152234857Y-106618819D02*
X152139619Y-106618819D01*
X152139619Y-106618819D02*
X151996762Y-106571200D01*
X151996762Y-106571200D02*
X151901524Y-106475961D01*
X151901524Y-106475961D02*
X151853905Y-106380723D01*
X151853905Y-106380723D02*
X151806286Y-106190247D01*
X151806286Y-106190247D02*
X151806286Y-106047390D01*
X151806286Y-106047390D02*
X151853905Y-105856914D01*
X151853905Y-105856914D02*
X151901524Y-105761676D01*
X151901524Y-105761676D02*
X151996762Y-105666438D01*
X151996762Y-105666438D02*
X152139619Y-105618819D01*
X152139619Y-105618819D02*
X152234857Y-105618819D01*
X152234857Y-105618819D02*
X152377714Y-105666438D01*
X152377714Y-105666438D02*
X152425333Y-105714057D01*
X153282476Y-105952152D02*
X153282476Y-106618819D01*
X153044381Y-105571200D02*
X152806286Y-106285485D01*
X152806286Y-106285485D02*
X153425333Y-106285485D01*
D10*
X151050666Y-90389419D02*
X151050666Y-91103704D01*
X151050666Y-91103704D02*
X151003047Y-91246561D01*
X151003047Y-91246561D02*
X150907809Y-91341800D01*
X150907809Y-91341800D02*
X150764952Y-91389419D01*
X150764952Y-91389419D02*
X150669714Y-91389419D01*
X152003047Y-90389419D02*
X151526857Y-90389419D01*
X151526857Y-90389419D02*
X151479238Y-90865609D01*
X151479238Y-90865609D02*
X151526857Y-90817990D01*
X151526857Y-90817990D02*
X151622095Y-90770371D01*
X151622095Y-90770371D02*
X151860190Y-90770371D01*
X151860190Y-90770371D02*
X151955428Y-90817990D01*
X151955428Y-90817990D02*
X152003047Y-90865609D01*
X152003047Y-90865609D02*
X152050666Y-90960847D01*
X152050666Y-90960847D02*
X152050666Y-91198942D01*
X152050666Y-91198942D02*
X152003047Y-91294180D01*
X152003047Y-91294180D02*
X151955428Y-91341800D01*
X151955428Y-91341800D02*
X151860190Y-91389419D01*
X151860190Y-91389419D02*
X151622095Y-91389419D01*
X151622095Y-91389419D02*
X151526857Y-91341800D01*
X151526857Y-91341800D02*
X151479238Y-91294180D01*
D11*
X104989333Y-88751580D02*
X104941714Y-88799200D01*
X104941714Y-88799200D02*
X104798857Y-88846819D01*
X104798857Y-88846819D02*
X104703619Y-88846819D01*
X104703619Y-88846819D02*
X104560762Y-88799200D01*
X104560762Y-88799200D02*
X104465524Y-88703961D01*
X104465524Y-88703961D02*
X104417905Y-88608723D01*
X104417905Y-88608723D02*
X104370286Y-88418247D01*
X104370286Y-88418247D02*
X104370286Y-88275390D01*
X104370286Y-88275390D02*
X104417905Y-88084914D01*
X104417905Y-88084914D02*
X104465524Y-87989676D01*
X104465524Y-87989676D02*
X104560762Y-87894438D01*
X104560762Y-87894438D02*
X104703619Y-87846819D01*
X104703619Y-87846819D02*
X104798857Y-87846819D01*
X104798857Y-87846819D02*
X104941714Y-87894438D01*
X104941714Y-87894438D02*
X104989333Y-87942057D01*
X105370286Y-87942057D02*
X105417905Y-87894438D01*
X105417905Y-87894438D02*
X105513143Y-87846819D01*
X105513143Y-87846819D02*
X105751238Y-87846819D01*
X105751238Y-87846819D02*
X105846476Y-87894438D01*
X105846476Y-87894438D02*
X105894095Y-87942057D01*
X105894095Y-87942057D02*
X105941714Y-88037295D01*
X105941714Y-88037295D02*
X105941714Y-88132533D01*
X105941714Y-88132533D02*
X105894095Y-88275390D01*
X105894095Y-88275390D02*
X105322667Y-88846819D01*
X105322667Y-88846819D02*
X105941714Y-88846819D01*
X103914819Y-97258094D02*
X102914819Y-97258094D01*
X102914819Y-97258094D02*
X102914819Y-97019999D01*
X102914819Y-97019999D02*
X102962438Y-96877142D01*
X102962438Y-96877142D02*
X103057676Y-96781904D01*
X103057676Y-96781904D02*
X103152914Y-96734285D01*
X103152914Y-96734285D02*
X103343390Y-96686666D01*
X103343390Y-96686666D02*
X103486247Y-96686666D01*
X103486247Y-96686666D02*
X103676723Y-96734285D01*
X103676723Y-96734285D02*
X103771961Y-96781904D01*
X103771961Y-96781904D02*
X103867200Y-96877142D01*
X103867200Y-96877142D02*
X103914819Y-97019999D01*
X103914819Y-97019999D02*
X103914819Y-97258094D01*
X103248152Y-95829523D02*
X103914819Y-95829523D01*
X102867200Y-96067618D02*
X103581485Y-96305713D01*
X103581485Y-96305713D02*
X103581485Y-95686666D01*
X100844819Y-90431904D02*
X99844819Y-90431904D01*
X100844819Y-89860476D02*
X100273390Y-90289047D01*
X99844819Y-89860476D02*
X100416247Y-90431904D01*
X144613333Y-67923580D02*
X144565714Y-67971200D01*
X144565714Y-67971200D02*
X144422857Y-68018819D01*
X144422857Y-68018819D02*
X144327619Y-68018819D01*
X144327619Y-68018819D02*
X144184762Y-67971200D01*
X144184762Y-67971200D02*
X144089524Y-67875961D01*
X144089524Y-67875961D02*
X144041905Y-67780723D01*
X144041905Y-67780723D02*
X143994286Y-67590247D01*
X143994286Y-67590247D02*
X143994286Y-67447390D01*
X143994286Y-67447390D02*
X144041905Y-67256914D01*
X144041905Y-67256914D02*
X144089524Y-67161676D01*
X144089524Y-67161676D02*
X144184762Y-67066438D01*
X144184762Y-67066438D02*
X144327619Y-67018819D01*
X144327619Y-67018819D02*
X144422857Y-67018819D01*
X144422857Y-67018819D02*
X144565714Y-67066438D01*
X144565714Y-67066438D02*
X144613333Y-67114057D01*
X145518095Y-67018819D02*
X145041905Y-67018819D01*
X145041905Y-67018819D02*
X144994286Y-67495009D01*
X144994286Y-67495009D02*
X145041905Y-67447390D01*
X145041905Y-67447390D02*
X145137143Y-67399771D01*
X145137143Y-67399771D02*
X145375238Y-67399771D01*
X145375238Y-67399771D02*
X145470476Y-67447390D01*
X145470476Y-67447390D02*
X145518095Y-67495009D01*
X145518095Y-67495009D02*
X145565714Y-67590247D01*
X145565714Y-67590247D02*
X145565714Y-67828342D01*
X145565714Y-67828342D02*
X145518095Y-67923580D01*
X145518095Y-67923580D02*
X145470476Y-67971200D01*
X145470476Y-67971200D02*
X145375238Y-68018819D01*
X145375238Y-68018819D02*
X145137143Y-68018819D01*
X145137143Y-68018819D02*
X145041905Y-67971200D01*
X145041905Y-67971200D02*
X144994286Y-67923580D01*
D10*
X162988666Y-80229419D02*
X162988666Y-80943704D01*
X162988666Y-80943704D02*
X162941047Y-81086561D01*
X162941047Y-81086561D02*
X162845809Y-81181800D01*
X162845809Y-81181800D02*
X162702952Y-81229419D01*
X162702952Y-81229419D02*
X162607714Y-81229419D01*
X163369619Y-80229419D02*
X163988666Y-80229419D01*
X163988666Y-80229419D02*
X163655333Y-80610371D01*
X163655333Y-80610371D02*
X163798190Y-80610371D01*
X163798190Y-80610371D02*
X163893428Y-80657990D01*
X163893428Y-80657990D02*
X163941047Y-80705609D01*
X163941047Y-80705609D02*
X163988666Y-80800847D01*
X163988666Y-80800847D02*
X163988666Y-81038942D01*
X163988666Y-81038942D02*
X163941047Y-81134180D01*
X163941047Y-81134180D02*
X163893428Y-81181800D01*
X163893428Y-81181800D02*
X163798190Y-81229419D01*
X163798190Y-81229419D02*
X163512476Y-81229419D01*
X163512476Y-81229419D02*
X163417238Y-81181800D01*
X163417238Y-81181800D02*
X163369619Y-81134180D01*
D11*
X89182819Y-76938094D02*
X88182819Y-76938094D01*
X88182819Y-76938094D02*
X88182819Y-76699999D01*
X88182819Y-76699999D02*
X88230438Y-76557142D01*
X88230438Y-76557142D02*
X88325676Y-76461904D01*
X88325676Y-76461904D02*
X88420914Y-76414285D01*
X88420914Y-76414285D02*
X88611390Y-76366666D01*
X88611390Y-76366666D02*
X88754247Y-76366666D01*
X88754247Y-76366666D02*
X88944723Y-76414285D01*
X88944723Y-76414285D02*
X89039961Y-76461904D01*
X89039961Y-76461904D02*
X89135200Y-76557142D01*
X89135200Y-76557142D02*
X89182819Y-76699999D01*
X89182819Y-76699999D02*
X89182819Y-76938094D01*
X88182819Y-76033332D02*
X88182819Y-75414285D01*
X88182819Y-75414285D02*
X88563771Y-75747618D01*
X88563771Y-75747618D02*
X88563771Y-75604761D01*
X88563771Y-75604761D02*
X88611390Y-75509523D01*
X88611390Y-75509523D02*
X88659009Y-75461904D01*
X88659009Y-75461904D02*
X88754247Y-75414285D01*
X88754247Y-75414285D02*
X88992342Y-75414285D01*
X88992342Y-75414285D02*
X89087580Y-75461904D01*
X89087580Y-75461904D02*
X89135200Y-75509523D01*
X89135200Y-75509523D02*
X89182819Y-75604761D01*
X89182819Y-75604761D02*
X89182819Y-75890475D01*
X89182819Y-75890475D02*
X89135200Y-75985713D01*
X89135200Y-75985713D02*
X89087580Y-76033332D01*
X86112819Y-70111904D02*
X85112819Y-70111904D01*
X86112819Y-69540476D02*
X85541390Y-69969047D01*
X85112819Y-69540476D02*
X85684247Y-70111904D01*
D10*
X69516666Y-85055419D02*
X69516666Y-85769704D01*
X69516666Y-85769704D02*
X69469047Y-85912561D01*
X69469047Y-85912561D02*
X69373809Y-86007800D01*
X69373809Y-86007800D02*
X69230952Y-86055419D01*
X69230952Y-86055419D02*
X69135714Y-86055419D01*
X70516666Y-86055419D02*
X69945238Y-86055419D01*
X70230952Y-86055419D02*
X70230952Y-85055419D01*
X70230952Y-85055419D02*
X70135714Y-85198276D01*
X70135714Y-85198276D02*
X70040476Y-85293514D01*
X70040476Y-85293514D02*
X69945238Y-85341133D01*
D11*
X104989333Y-68431580D02*
X104941714Y-68479200D01*
X104941714Y-68479200D02*
X104798857Y-68526819D01*
X104798857Y-68526819D02*
X104703619Y-68526819D01*
X104703619Y-68526819D02*
X104560762Y-68479200D01*
X104560762Y-68479200D02*
X104465524Y-68383961D01*
X104465524Y-68383961D02*
X104417905Y-68288723D01*
X104417905Y-68288723D02*
X104370286Y-68098247D01*
X104370286Y-68098247D02*
X104370286Y-67955390D01*
X104370286Y-67955390D02*
X104417905Y-67764914D01*
X104417905Y-67764914D02*
X104465524Y-67669676D01*
X104465524Y-67669676D02*
X104560762Y-67574438D01*
X104560762Y-67574438D02*
X104703619Y-67526819D01*
X104703619Y-67526819D02*
X104798857Y-67526819D01*
X104798857Y-67526819D02*
X104941714Y-67574438D01*
X104941714Y-67574438D02*
X104989333Y-67622057D01*
X105941714Y-68526819D02*
X105370286Y-68526819D01*
X105656000Y-68526819D02*
X105656000Y-67526819D01*
X105656000Y-67526819D02*
X105560762Y-67669676D01*
X105560762Y-67669676D02*
X105465524Y-67764914D01*
X105465524Y-67764914D02*
X105370286Y-67812533D01*
D10*
X151050666Y-70577419D02*
X151050666Y-71291704D01*
X151050666Y-71291704D02*
X151003047Y-71434561D01*
X151003047Y-71434561D02*
X150907809Y-71529800D01*
X150907809Y-71529800D02*
X150764952Y-71577419D01*
X150764952Y-71577419D02*
X150669714Y-71577419D01*
X151955428Y-70577419D02*
X151764952Y-70577419D01*
X151764952Y-70577419D02*
X151669714Y-70625038D01*
X151669714Y-70625038D02*
X151622095Y-70672657D01*
X151622095Y-70672657D02*
X151526857Y-70815514D01*
X151526857Y-70815514D02*
X151479238Y-71005990D01*
X151479238Y-71005990D02*
X151479238Y-71386942D01*
X151479238Y-71386942D02*
X151526857Y-71482180D01*
X151526857Y-71482180D02*
X151574476Y-71529800D01*
X151574476Y-71529800D02*
X151669714Y-71577419D01*
X151669714Y-71577419D02*
X151860190Y-71577419D01*
X151860190Y-71577419D02*
X151955428Y-71529800D01*
X151955428Y-71529800D02*
X152003047Y-71482180D01*
X152003047Y-71482180D02*
X152050666Y-71386942D01*
X152050666Y-71386942D02*
X152050666Y-71148847D01*
X152050666Y-71148847D02*
X152003047Y-71053609D01*
X152003047Y-71053609D02*
X151955428Y-71005990D01*
X151955428Y-71005990D02*
X151860190Y-70958371D01*
X151860190Y-70958371D02*
X151669714Y-70958371D01*
X151669714Y-70958371D02*
X151574476Y-71005990D01*
X151574476Y-71005990D02*
X151526857Y-71053609D01*
X151526857Y-71053609D02*
X151479238Y-71148847D01*
D11*
X152425333Y-66011580D02*
X152377714Y-66059200D01*
X152377714Y-66059200D02*
X152234857Y-66106819D01*
X152234857Y-66106819D02*
X152139619Y-66106819D01*
X152139619Y-66106819D02*
X151996762Y-66059200D01*
X151996762Y-66059200D02*
X151901524Y-65963961D01*
X151901524Y-65963961D02*
X151853905Y-65868723D01*
X151853905Y-65868723D02*
X151806286Y-65678247D01*
X151806286Y-65678247D02*
X151806286Y-65535390D01*
X151806286Y-65535390D02*
X151853905Y-65344914D01*
X151853905Y-65344914D02*
X151901524Y-65249676D01*
X151901524Y-65249676D02*
X151996762Y-65154438D01*
X151996762Y-65154438D02*
X152139619Y-65106819D01*
X152139619Y-65106819D02*
X152234857Y-65106819D01*
X152234857Y-65106819D02*
X152377714Y-65154438D01*
X152377714Y-65154438D02*
X152425333Y-65202057D01*
X152758667Y-65106819D02*
X153377714Y-65106819D01*
X153377714Y-65106819D02*
X153044381Y-65487771D01*
X153044381Y-65487771D02*
X153187238Y-65487771D01*
X153187238Y-65487771D02*
X153282476Y-65535390D01*
X153282476Y-65535390D02*
X153330095Y-65583009D01*
X153330095Y-65583009D02*
X153377714Y-65678247D01*
X153377714Y-65678247D02*
X153377714Y-65916342D01*
X153377714Y-65916342D02*
X153330095Y-66011580D01*
X153330095Y-66011580D02*
X153282476Y-66059200D01*
X153282476Y-66059200D02*
X153187238Y-66106819D01*
X153187238Y-66106819D02*
X152901524Y-66106819D01*
X152901524Y-66106819D02*
X152806286Y-66059200D01*
X152806286Y-66059200D02*
X152758667Y-66011580D01*
D10*
X69516666Y-70323419D02*
X69516666Y-71037704D01*
X69516666Y-71037704D02*
X69469047Y-71180561D01*
X69469047Y-71180561D02*
X69373809Y-71275800D01*
X69373809Y-71275800D02*
X69230952Y-71323419D01*
X69230952Y-71323419D02*
X69135714Y-71323419D01*
X70421428Y-70656752D02*
X70421428Y-71323419D01*
X70183333Y-70275800D02*
X69945238Y-70990085D01*
X69945238Y-70990085D02*
X70564285Y-70990085D01*
D11*
X145121333Y-88243580D02*
X145073714Y-88291200D01*
X145073714Y-88291200D02*
X144930857Y-88338819D01*
X144930857Y-88338819D02*
X144835619Y-88338819D01*
X144835619Y-88338819D02*
X144692762Y-88291200D01*
X144692762Y-88291200D02*
X144597524Y-88195961D01*
X144597524Y-88195961D02*
X144549905Y-88100723D01*
X144549905Y-88100723D02*
X144502286Y-87910247D01*
X144502286Y-87910247D02*
X144502286Y-87767390D01*
X144502286Y-87767390D02*
X144549905Y-87576914D01*
X144549905Y-87576914D02*
X144597524Y-87481676D01*
X144597524Y-87481676D02*
X144692762Y-87386438D01*
X144692762Y-87386438D02*
X144835619Y-87338819D01*
X144835619Y-87338819D02*
X144930857Y-87338819D01*
X144930857Y-87338819D02*
X145073714Y-87386438D01*
X145073714Y-87386438D02*
X145121333Y-87434057D01*
X145978476Y-87338819D02*
X145788000Y-87338819D01*
X145788000Y-87338819D02*
X145692762Y-87386438D01*
X145692762Y-87386438D02*
X145645143Y-87434057D01*
X145645143Y-87434057D02*
X145549905Y-87576914D01*
X145549905Y-87576914D02*
X145502286Y-87767390D01*
X145502286Y-87767390D02*
X145502286Y-88148342D01*
X145502286Y-88148342D02*
X145549905Y-88243580D01*
X145549905Y-88243580D02*
X145597524Y-88291200D01*
X145597524Y-88291200D02*
X145692762Y-88338819D01*
X145692762Y-88338819D02*
X145883238Y-88338819D01*
X145883238Y-88338819D02*
X145978476Y-88291200D01*
X145978476Y-88291200D02*
X146026095Y-88243580D01*
X146026095Y-88243580D02*
X146073714Y-88148342D01*
X146073714Y-88148342D02*
X146073714Y-87910247D01*
X146073714Y-87910247D02*
X146026095Y-87815009D01*
X146026095Y-87815009D02*
X145978476Y-87767390D01*
X145978476Y-87767390D02*
X145883238Y-87719771D01*
X145883238Y-87719771D02*
X145692762Y-87719771D01*
X145692762Y-87719771D02*
X145597524Y-87767390D01*
X145597524Y-87767390D02*
X145549905Y-87815009D01*
X145549905Y-87815009D02*
X145502286Y-87910247D01*
D10*
X162988666Y-70577419D02*
X162988666Y-71291704D01*
X162988666Y-71291704D02*
X162941047Y-71434561D01*
X162941047Y-71434561D02*
X162845809Y-71529800D01*
X162845809Y-71529800D02*
X162702952Y-71577419D01*
X162702952Y-71577419D02*
X162607714Y-71577419D01*
X163893428Y-70577419D02*
X163702952Y-70577419D01*
X163702952Y-70577419D02*
X163607714Y-70625038D01*
X163607714Y-70625038D02*
X163560095Y-70672657D01*
X163560095Y-70672657D02*
X163464857Y-70815514D01*
X163464857Y-70815514D02*
X163417238Y-71005990D01*
X163417238Y-71005990D02*
X163417238Y-71386942D01*
X163417238Y-71386942D02*
X163464857Y-71482180D01*
X163464857Y-71482180D02*
X163512476Y-71529800D01*
X163512476Y-71529800D02*
X163607714Y-71577419D01*
X163607714Y-71577419D02*
X163798190Y-71577419D01*
X163798190Y-71577419D02*
X163893428Y-71529800D01*
X163893428Y-71529800D02*
X163941047Y-71482180D01*
X163941047Y-71482180D02*
X163988666Y-71386942D01*
X163988666Y-71386942D02*
X163988666Y-71148847D01*
X163988666Y-71148847D02*
X163941047Y-71053609D01*
X163941047Y-71053609D02*
X163893428Y-71005990D01*
X163893428Y-71005990D02*
X163798190Y-70958371D01*
X163798190Y-70958371D02*
X163607714Y-70958371D01*
X163607714Y-70958371D02*
X163512476Y-71005990D01*
X163512476Y-71005990D02*
X163464857Y-71053609D01*
X163464857Y-71053609D02*
X163417238Y-71148847D01*
D11*
X103914819Y-76938094D02*
X102914819Y-76938094D01*
X102914819Y-76938094D02*
X102914819Y-76699999D01*
X102914819Y-76699999D02*
X102962438Y-76557142D01*
X102962438Y-76557142D02*
X103057676Y-76461904D01*
X103057676Y-76461904D02*
X103152914Y-76414285D01*
X103152914Y-76414285D02*
X103343390Y-76366666D01*
X103343390Y-76366666D02*
X103486247Y-76366666D01*
X103486247Y-76366666D02*
X103676723Y-76414285D01*
X103676723Y-76414285D02*
X103771961Y-76461904D01*
X103771961Y-76461904D02*
X103867200Y-76557142D01*
X103867200Y-76557142D02*
X103914819Y-76699999D01*
X103914819Y-76699999D02*
X103914819Y-76938094D01*
X103914819Y-75414285D02*
X103914819Y-75985713D01*
X103914819Y-75699999D02*
X102914819Y-75699999D01*
X102914819Y-75699999D02*
X103057676Y-75795237D01*
X103057676Y-75795237D02*
X103152914Y-75890475D01*
X103152914Y-75890475D02*
X103200533Y-75985713D01*
X100844819Y-70111904D02*
X99844819Y-70111904D01*
X100844819Y-69540476D02*
X100273390Y-69969047D01*
X99844819Y-69540476D02*
X100416247Y-70111904D01*
D10*
X162988666Y-90389419D02*
X162988666Y-91103704D01*
X162988666Y-91103704D02*
X162941047Y-91246561D01*
X162941047Y-91246561D02*
X162845809Y-91341800D01*
X162845809Y-91341800D02*
X162702952Y-91389419D01*
X162702952Y-91389419D02*
X162607714Y-91389419D01*
X163941047Y-90389419D02*
X163464857Y-90389419D01*
X163464857Y-90389419D02*
X163417238Y-90865609D01*
X163417238Y-90865609D02*
X163464857Y-90817990D01*
X163464857Y-90817990D02*
X163560095Y-90770371D01*
X163560095Y-90770371D02*
X163798190Y-90770371D01*
X163798190Y-90770371D02*
X163893428Y-90817990D01*
X163893428Y-90817990D02*
X163941047Y-90865609D01*
X163941047Y-90865609D02*
X163988666Y-90960847D01*
X163988666Y-90960847D02*
X163988666Y-91198942D01*
X163988666Y-91198942D02*
X163941047Y-91294180D01*
X163941047Y-91294180D02*
X163893428Y-91341800D01*
X163893428Y-91341800D02*
X163798190Y-91389419D01*
X163798190Y-91389419D02*
X163560095Y-91389419D01*
X163560095Y-91389419D02*
X163464857Y-91341800D01*
X163464857Y-91341800D02*
X163417238Y-91294180D01*
X69516666Y-77689419D02*
X69516666Y-78403704D01*
X69516666Y-78403704D02*
X69469047Y-78546561D01*
X69469047Y-78546561D02*
X69373809Y-78641800D01*
X69373809Y-78641800D02*
X69230952Y-78689419D01*
X69230952Y-78689419D02*
X69135714Y-78689419D01*
X69945238Y-77784657D02*
X69992857Y-77737038D01*
X69992857Y-77737038D02*
X70088095Y-77689419D01*
X70088095Y-77689419D02*
X70326190Y-77689419D01*
X70326190Y-77689419D02*
X70421428Y-77737038D01*
X70421428Y-77737038D02*
X70469047Y-77784657D01*
X70469047Y-77784657D02*
X70516666Y-77879895D01*
X70516666Y-77879895D02*
X70516666Y-77975133D01*
X70516666Y-77975133D02*
X70469047Y-78117990D01*
X70469047Y-78117990D02*
X69897619Y-78689419D01*
X69897619Y-78689419D02*
X70516666Y-78689419D01*
D11*
X89182819Y-97258094D02*
X88182819Y-97258094D01*
X88182819Y-97258094D02*
X88182819Y-97019999D01*
X88182819Y-97019999D02*
X88230438Y-96877142D01*
X88230438Y-96877142D02*
X88325676Y-96781904D01*
X88325676Y-96781904D02*
X88420914Y-96734285D01*
X88420914Y-96734285D02*
X88611390Y-96686666D01*
X88611390Y-96686666D02*
X88754247Y-96686666D01*
X88754247Y-96686666D02*
X88944723Y-96734285D01*
X88944723Y-96734285D02*
X89039961Y-96781904D01*
X89039961Y-96781904D02*
X89135200Y-96877142D01*
X89135200Y-96877142D02*
X89182819Y-97019999D01*
X89182819Y-97019999D02*
X89182819Y-97258094D01*
X88278057Y-96305713D02*
X88230438Y-96258094D01*
X88230438Y-96258094D02*
X88182819Y-96162856D01*
X88182819Y-96162856D02*
X88182819Y-95924761D01*
X88182819Y-95924761D02*
X88230438Y-95829523D01*
X88230438Y-95829523D02*
X88278057Y-95781904D01*
X88278057Y-95781904D02*
X88373295Y-95734285D01*
X88373295Y-95734285D02*
X88468533Y-95734285D01*
X88468533Y-95734285D02*
X88611390Y-95781904D01*
X88611390Y-95781904D02*
X89182819Y-96353332D01*
X89182819Y-96353332D02*
X89182819Y-95734285D01*
X86112819Y-90431904D02*
X85112819Y-90431904D01*
X86112819Y-89860476D02*
X85541390Y-90289047D01*
X85112819Y-89860476D02*
X85684247Y-90431904D01*
D10*
X151050666Y-80229419D02*
X151050666Y-80943704D01*
X151050666Y-80943704D02*
X151003047Y-81086561D01*
X151003047Y-81086561D02*
X150907809Y-81181800D01*
X150907809Y-81181800D02*
X150764952Y-81229419D01*
X150764952Y-81229419D02*
X150669714Y-81229419D01*
X151431619Y-80229419D02*
X152050666Y-80229419D01*
X152050666Y-80229419D02*
X151717333Y-80610371D01*
X151717333Y-80610371D02*
X151860190Y-80610371D01*
X151860190Y-80610371D02*
X151955428Y-80657990D01*
X151955428Y-80657990D02*
X152003047Y-80705609D01*
X152003047Y-80705609D02*
X152050666Y-80800847D01*
X152050666Y-80800847D02*
X152050666Y-81038942D01*
X152050666Y-81038942D02*
X152003047Y-81134180D01*
X152003047Y-81134180D02*
X151955428Y-81181800D01*
X151955428Y-81181800D02*
X151860190Y-81229419D01*
X151860190Y-81229419D02*
X151574476Y-81229419D01*
X151574476Y-81229419D02*
X151479238Y-81181800D01*
X151479238Y-81181800D02*
X151431619Y-81134180D01*
D12*
%TO.C,C4*%
X148872000Y-105034000D02*
X148872000Y-99294000D01*
X156312000Y-99294000D02*
X148872000Y-99294000D01*
X156312000Y-105034000D02*
X148872000Y-105034000D01*
X156312000Y-105034000D02*
X156312000Y-99294000D01*
%TO.C,J5*%
D10*
X146304000Y-93472000D02*
X156464000Y-93472000D01*
X156464000Y-98552000D01*
X146304000Y-98552000D01*
X146304000Y-93472000D01*
D12*
%TO.C,C2*%
X112860000Y-98647000D02*
X105520000Y-98647000D01*
X112860000Y-98687000D02*
X105530000Y-98687000D01*
X112860000Y-98727000D02*
X105541000Y-98727000D01*
X112860000Y-98767000D02*
X105552000Y-98767000D01*
X112860000Y-98807000D02*
X105563000Y-98807000D01*
X112860000Y-98847000D02*
X105575000Y-98847000D01*
X112860000Y-98887000D02*
X105586000Y-98887000D01*
X112860000Y-98927000D02*
X105598000Y-98927000D01*
X112860000Y-98967000D02*
X105610000Y-98967000D01*
X112860000Y-99007000D02*
X105622000Y-99007000D01*
X112860000Y-99047000D02*
X105635000Y-99047000D01*
X112860000Y-99087000D02*
X105647000Y-99087000D01*
X112860000Y-99127000D02*
X105660000Y-99127000D01*
X112860000Y-99167000D02*
X105673000Y-99167000D01*
X112860000Y-99207000D02*
X105686000Y-99207000D01*
X112860000Y-99247000D02*
X105700000Y-99247000D01*
X112860000Y-99287000D02*
X105713000Y-99287000D01*
X112860000Y-99327000D02*
X105727000Y-99327000D01*
X112860000Y-99367000D02*
X105741000Y-99367000D01*
X112860000Y-99407000D02*
X105755000Y-99407000D01*
X112860000Y-99447000D02*
X105770000Y-99447000D01*
X112860000Y-99487000D02*
X105784000Y-99487000D01*
X112860000Y-99527000D02*
X105799000Y-99527000D01*
X112860000Y-99567000D02*
X105814000Y-99567000D01*
X112860000Y-99607000D02*
X105830000Y-99607000D01*
X112860000Y-99647000D02*
X105845000Y-99647000D01*
X112860000Y-99687000D02*
X105861000Y-99687000D01*
X112860000Y-99727000D02*
X105877000Y-99727000D01*
X112860000Y-99767000D02*
X105893000Y-99767000D01*
X112860000Y-99807000D02*
X105910000Y-99807000D01*
X112860000Y-99847000D02*
X105926000Y-99847000D01*
X112860000Y-99887000D02*
X105943000Y-99887000D01*
X112860000Y-99927000D02*
X105960000Y-99927000D01*
X112860000Y-99967000D02*
X105977000Y-99967000D01*
X112860000Y-100007000D02*
X105995000Y-100007000D01*
X112860000Y-100047000D02*
X106013000Y-100047000D01*
X112860000Y-100087000D02*
X106031000Y-100087000D01*
X112860000Y-100127000D02*
X106049000Y-100127000D01*
X112860000Y-100167000D02*
X106067000Y-100167000D01*
X112860000Y-100207000D02*
X106086000Y-100207000D01*
X112860000Y-100247000D02*
X106105000Y-100247000D01*
X112860000Y-100287000D02*
X106124000Y-100287000D01*
X112860000Y-100327000D02*
X106144000Y-100327000D01*
X112860000Y-100367000D02*
X106163000Y-100367000D01*
X112860000Y-100407000D02*
X106183000Y-100407000D01*
X112860000Y-100447000D02*
X106203000Y-100447000D01*
X112860000Y-100487000D02*
X106224000Y-100487000D01*
X112860000Y-100527000D02*
X106244000Y-100527000D01*
X112860000Y-100567000D02*
X106265000Y-100567000D01*
X112860000Y-100607000D02*
X106286000Y-100607000D01*
X112860000Y-100647000D02*
X106308000Y-100647000D01*
X112860000Y-100687000D02*
X106329000Y-100687000D01*
X112860000Y-100727000D02*
X106351000Y-100727000D01*
X112860000Y-100767000D02*
X106373000Y-100767000D01*
X112860000Y-100807000D02*
X106396000Y-100807000D01*
X112860000Y-100847000D02*
X106418000Y-100847000D01*
X112860000Y-100887000D02*
X106441000Y-100887000D01*
X112860000Y-100927000D02*
X106465000Y-100927000D01*
X112860000Y-100967000D02*
X106488000Y-100967000D01*
X112860000Y-101007000D02*
X106512000Y-101007000D01*
X112860000Y-101047000D02*
X106536000Y-101047000D01*
X112860000Y-101087000D02*
X106560000Y-101087000D01*
X112860000Y-101127000D02*
X106585000Y-101127000D01*
X112860000Y-101167000D02*
X106610000Y-101167000D01*
X112860000Y-101207000D02*
X106635000Y-101207000D01*
X112860000Y-101247000D02*
X106660000Y-101247000D01*
X112860000Y-101287000D02*
X106686000Y-101287000D01*
X112860000Y-101327000D02*
X106712000Y-101327000D01*
X112860000Y-101367000D02*
X106739000Y-101367000D01*
X112860000Y-101407000D02*
X106765000Y-101407000D01*
X112860000Y-101447000D02*
X106792000Y-101447000D01*
X112860000Y-101487000D02*
X106820000Y-101487000D01*
X114340000Y-105446000D02*
X114260000Y-105446000D01*
X115114000Y-105406000D02*
X113486000Y-105406000D01*
X115466000Y-105366000D02*
X113134000Y-105366000D01*
X115735000Y-105326000D02*
X112865000Y-105326000D01*
X115961000Y-105286000D02*
X112639000Y-105286000D01*
X116160000Y-105246000D02*
X112440000Y-105246000D01*
X116339000Y-105206000D02*
X112261000Y-105206000D01*
X116503000Y-105166000D02*
X112097000Y-105166000D01*
X116655000Y-105126000D02*
X111945000Y-105126000D01*
X116798000Y-105086000D02*
X111802000Y-105086000D01*
X116932000Y-105046000D02*
X111668000Y-105046000D01*
X117059000Y-105006000D02*
X111541000Y-105006000D01*
X117180000Y-104966000D02*
X111420000Y-104966000D01*
X117296000Y-104926000D02*
X111304000Y-104926000D01*
X117407000Y-104886000D02*
X111193000Y-104886000D01*
X117514000Y-104846000D02*
X111086000Y-104846000D01*
X117617000Y-104806000D02*
X110983000Y-104806000D01*
X117716000Y-104766000D02*
X110884000Y-104766000D01*
X117812000Y-104726000D02*
X110788000Y-104726000D01*
X117905000Y-104686000D02*
X110695000Y-104686000D01*
X117996000Y-104646000D02*
X110604000Y-104646000D01*
X118084000Y-104606000D02*
X110516000Y-104606000D01*
X118169000Y-104566000D02*
X110431000Y-104566000D01*
X118252000Y-104526000D02*
X110348000Y-104526000D01*
X118333000Y-104487000D02*
X110267000Y-104487000D01*
X118413000Y-104447000D02*
X110187000Y-104447000D01*
X118490000Y-104407000D02*
X110110000Y-104407000D01*
X118565000Y-104367000D02*
X110035000Y-104367000D01*
X118639000Y-104327000D02*
X109961000Y-104327000D01*
X118712000Y-104287000D02*
X109888000Y-104287000D01*
X118782000Y-104247000D02*
X109818000Y-104247000D01*
X118852000Y-104207000D02*
X109748000Y-104207000D01*
X118920000Y-104167000D02*
X109680000Y-104167000D01*
X118986000Y-104127000D02*
X109614000Y-104127000D01*
X119052000Y-104087000D02*
X109548000Y-104087000D01*
X119116000Y-104047000D02*
X109484000Y-104047000D01*
X119179000Y-104007000D02*
X109421000Y-104007000D01*
X119241000Y-103967000D02*
X109359000Y-103967000D01*
X119302000Y-103927000D02*
X109298000Y-103927000D01*
X119362000Y-103887000D02*
X109238000Y-103887000D01*
X119415000Y-86566560D02*
X119415000Y-88366560D01*
X119420000Y-103847000D02*
X109180000Y-103847000D01*
X119478000Y-103807000D02*
X109122000Y-103807000D01*
X119535000Y-103767000D02*
X109065000Y-103767000D01*
X119591000Y-103727000D02*
X109009000Y-103727000D01*
X119646000Y-103687000D02*
X108954000Y-103687000D01*
X119700000Y-103647000D02*
X108900000Y-103647000D01*
X119754000Y-103607000D02*
X108846000Y-103607000D01*
X119806000Y-103567000D02*
X108794000Y-103567000D01*
X119858000Y-103527000D02*
X108742000Y-103527000D01*
X119909000Y-103487000D02*
X108691000Y-103487000D01*
X119960000Y-103447000D02*
X108640000Y-103447000D01*
X120009000Y-103407000D02*
X108591000Y-103407000D01*
X120058000Y-103367000D02*
X108542000Y-103367000D01*
X120106000Y-103327000D02*
X108494000Y-103327000D01*
X120154000Y-103287000D02*
X108446000Y-103287000D01*
X120201000Y-103247000D02*
X108399000Y-103247000D01*
X120247000Y-103207000D02*
X108353000Y-103207000D01*
X120293000Y-103167000D02*
X108307000Y-103167000D01*
X120315000Y-87466560D02*
X118515000Y-87466560D01*
X120338000Y-103127000D02*
X108262000Y-103127000D01*
X120382000Y-103087000D02*
X108218000Y-103087000D01*
X120426000Y-103047000D02*
X108174000Y-103047000D01*
X120470000Y-103007000D02*
X108130000Y-103007000D01*
X120512000Y-102967000D02*
X108088000Y-102967000D01*
X120554000Y-102927000D02*
X108046000Y-102927000D01*
X120596000Y-102887000D02*
X108004000Y-102887000D01*
X120637000Y-102847000D02*
X107963000Y-102847000D01*
X120678000Y-102807000D02*
X107922000Y-102807000D01*
X120718000Y-102767000D02*
X107882000Y-102767000D01*
X120758000Y-102727000D02*
X107842000Y-102727000D01*
X120797000Y-102687000D02*
X107803000Y-102687000D01*
X120836000Y-102647000D02*
X107764000Y-102647000D01*
X120874000Y-102607000D02*
X107726000Y-102607000D01*
X120912000Y-102567000D02*
X107688000Y-102567000D01*
X120949000Y-102527000D02*
X107651000Y-102527000D01*
X120986000Y-102487000D02*
X107614000Y-102487000D01*
X121022000Y-102447000D02*
X107578000Y-102447000D01*
X121058000Y-102407000D02*
X107542000Y-102407000D01*
X121094000Y-102367000D02*
X107506000Y-102367000D01*
X121129000Y-102327000D02*
X107471000Y-102327000D01*
X121164000Y-102287000D02*
X107436000Y-102287000D01*
X121198000Y-102247000D02*
X107402000Y-102247000D01*
X121232000Y-102207000D02*
X107368000Y-102207000D01*
X121265000Y-102167000D02*
X107335000Y-102167000D01*
X121299000Y-102127000D02*
X107301000Y-102127000D01*
X121331000Y-102087000D02*
X107269000Y-102087000D01*
X121364000Y-102047000D02*
X107236000Y-102047000D01*
X121396000Y-102007000D02*
X107204000Y-102007000D01*
X121427000Y-101967000D02*
X107173000Y-101967000D01*
X121459000Y-101927000D02*
X107141000Y-101927000D01*
X121490000Y-101887000D02*
X107110000Y-101887000D01*
X121520000Y-101847000D02*
X107080000Y-101847000D01*
X121550000Y-101807000D02*
X107050000Y-101807000D01*
X121580000Y-101767000D02*
X107020000Y-101767000D01*
X121610000Y-101727000D02*
X106990000Y-101727000D01*
X121639000Y-101687000D02*
X106961000Y-101687000D01*
X121668000Y-101647000D02*
X106932000Y-101647000D01*
X121697000Y-101607000D02*
X106903000Y-101607000D01*
X121725000Y-101567000D02*
X106875000Y-101567000D01*
X121753000Y-101527000D02*
X106847000Y-101527000D01*
X121780000Y-101487000D02*
X115740000Y-101487000D01*
X121808000Y-101447000D02*
X115740000Y-101447000D01*
X121835000Y-101407000D02*
X115740000Y-101407000D01*
X121861000Y-101367000D02*
X115740000Y-101367000D01*
X121888000Y-101327000D02*
X115740000Y-101327000D01*
X121914000Y-101287000D02*
X115740000Y-101287000D01*
X121940000Y-101247000D02*
X115740000Y-101247000D01*
X121965000Y-101207000D02*
X115740000Y-101207000D01*
X121990000Y-101167000D02*
X115740000Y-101167000D01*
X122015000Y-101127000D02*
X115740000Y-101127000D01*
X122040000Y-101087000D02*
X115740000Y-101087000D01*
X122064000Y-101047000D02*
X115740000Y-101047000D01*
X122088000Y-101007000D02*
X115740000Y-101007000D01*
X122112000Y-100967000D02*
X115740000Y-100967000D01*
X122135000Y-100927000D02*
X115740000Y-100927000D01*
X122159000Y-100887000D02*
X115740000Y-100887000D01*
X122182000Y-100847000D02*
X115740000Y-100847000D01*
X122204000Y-100807000D02*
X115740000Y-100807000D01*
X122227000Y-100767000D02*
X115740000Y-100767000D01*
X122249000Y-100727000D02*
X115740000Y-100727000D01*
X122271000Y-100687000D02*
X115740000Y-100687000D01*
X122292000Y-100647000D02*
X115740000Y-100647000D01*
X122314000Y-100607000D02*
X115740000Y-100607000D01*
X122335000Y-100567000D02*
X115740000Y-100567000D01*
X122356000Y-100527000D02*
X115740000Y-100527000D01*
X122376000Y-100487000D02*
X115740000Y-100487000D01*
X122397000Y-100447000D02*
X115740000Y-100447000D01*
X122417000Y-100407000D02*
X115740000Y-100407000D01*
X122437000Y-100367000D02*
X115740000Y-100367000D01*
X122456000Y-100327000D02*
X115740000Y-100327000D01*
X122476000Y-100287000D02*
X115740000Y-100287000D01*
X122495000Y-100247000D02*
X115740000Y-100247000D01*
X122514000Y-100207000D02*
X115740000Y-100207000D01*
X122533000Y-100167000D02*
X115740000Y-100167000D01*
X122551000Y-100127000D02*
X115740000Y-100127000D01*
X122569000Y-100087000D02*
X115740000Y-100087000D01*
X122587000Y-100047000D02*
X115740000Y-100047000D01*
X122605000Y-100007000D02*
X115740000Y-100007000D01*
X122623000Y-99967000D02*
X115740000Y-99967000D01*
X122640000Y-99927000D02*
X115740000Y-99927000D01*
X122657000Y-99887000D02*
X115740000Y-99887000D01*
X122674000Y-99847000D02*
X115740000Y-99847000D01*
X122690000Y-99807000D02*
X115740000Y-99807000D01*
X122707000Y-99767000D02*
X115740000Y-99767000D01*
X122723000Y-99727000D02*
X115740000Y-99727000D01*
X122739000Y-99687000D02*
X115740000Y-99687000D01*
X122755000Y-99647000D02*
X115740000Y-99647000D01*
X122770000Y-99607000D02*
X115740000Y-99607000D01*
X122786000Y-99567000D02*
X115740000Y-99567000D01*
X122801000Y-99527000D02*
X115740000Y-99527000D01*
X122816000Y-99487000D02*
X115740000Y-99487000D01*
X122830000Y-99447000D02*
X115740000Y-99447000D01*
X122845000Y-99407000D02*
X115740000Y-99407000D01*
X122859000Y-99367000D02*
X115740000Y-99367000D01*
X122873000Y-99327000D02*
X115740000Y-99327000D01*
X122887000Y-99287000D02*
X115740000Y-99287000D01*
X122900000Y-99247000D02*
X115740000Y-99247000D01*
X122914000Y-99207000D02*
X115740000Y-99207000D01*
X122927000Y-99167000D02*
X115740000Y-99167000D01*
X122940000Y-99127000D02*
X115740000Y-99127000D01*
X122953000Y-99087000D02*
X115740000Y-99087000D01*
X122965000Y-99047000D02*
X115740000Y-99047000D01*
X122978000Y-99007000D02*
X115740000Y-99007000D01*
X122990000Y-98967000D02*
X115740000Y-98967000D01*
X123002000Y-98927000D02*
X115740000Y-98927000D01*
X123014000Y-98887000D02*
X115740000Y-98887000D01*
X123025000Y-98847000D02*
X115740000Y-98847000D01*
X123037000Y-98807000D02*
X115740000Y-98807000D01*
X123048000Y-98767000D02*
X115740000Y-98767000D01*
X123059000Y-98727000D02*
X115740000Y-98727000D01*
X123070000Y-98687000D02*
X115740000Y-98687000D01*
X123080000Y-98647000D02*
X115740000Y-98647000D01*
X123091000Y-98607000D02*
X105509000Y-98607000D01*
X123101000Y-98567000D02*
X105499000Y-98567000D01*
X123111000Y-98527000D02*
X105489000Y-98527000D01*
X123121000Y-98487000D02*
X105479000Y-98487000D01*
X123131000Y-98447000D02*
X105469000Y-98447000D01*
X123140000Y-98407000D02*
X105460000Y-98407000D01*
X123149000Y-98367000D02*
X105451000Y-98367000D01*
X123158000Y-98327000D02*
X105442000Y-98327000D01*
X123167000Y-98287000D02*
X105433000Y-98287000D01*
X123176000Y-98247000D02*
X105424000Y-98247000D01*
X123185000Y-98207000D02*
X105415000Y-98207000D01*
X123193000Y-98167000D02*
X105407000Y-98167000D01*
X123201000Y-98127000D02*
X105399000Y-98127000D01*
X123209000Y-98087000D02*
X105391000Y-98087000D01*
X123217000Y-98047000D02*
X105383000Y-98047000D01*
X123224000Y-98007000D02*
X105376000Y-98007000D01*
X123232000Y-97967000D02*
X105368000Y-97967000D01*
X123239000Y-97927000D02*
X105361000Y-97927000D01*
X123246000Y-97887000D02*
X105354000Y-97887000D01*
X123253000Y-97847000D02*
X105347000Y-97847000D01*
X123260000Y-97807000D02*
X105340000Y-97807000D01*
X123266000Y-97767000D02*
X105334000Y-97767000D01*
X123272000Y-97727000D02*
X105328000Y-97727000D01*
X123279000Y-97687000D02*
X105321000Y-97687000D01*
X123284000Y-97647000D02*
X105316000Y-97647000D01*
X123290000Y-97607000D02*
X105310000Y-97607000D01*
X123296000Y-97567000D02*
X105304000Y-97567000D01*
X123301000Y-97527000D02*
X105299000Y-97527000D01*
X123306000Y-97487000D02*
X105294000Y-97487000D01*
X123311000Y-97447000D02*
X105289000Y-97447000D01*
X123316000Y-97407000D02*
X105284000Y-97407000D01*
X123321000Y-97367000D02*
X105279000Y-97367000D01*
X123326000Y-97327000D02*
X105274000Y-97327000D01*
X123330000Y-97287000D02*
X105270000Y-97287000D01*
X123334000Y-97247000D02*
X105266000Y-97247000D01*
X123338000Y-97207000D02*
X105262000Y-97207000D01*
X123342000Y-97167000D02*
X105258000Y-97167000D01*
X123345000Y-97127000D02*
X105255000Y-97127000D01*
X123349000Y-97087000D02*
X105251000Y-97087000D01*
X123352000Y-97047000D02*
X105248000Y-97047000D01*
X123355000Y-97006000D02*
X105245000Y-97006000D01*
X123358000Y-96966000D02*
X105242000Y-96966000D01*
X123361000Y-96926000D02*
X105239000Y-96926000D01*
X123363000Y-96886000D02*
X105237000Y-96886000D01*
X123366000Y-96846000D02*
X105234000Y-96846000D01*
X123368000Y-96806000D02*
X105232000Y-96806000D01*
X123370000Y-96766000D02*
X105230000Y-96766000D01*
X123372000Y-96726000D02*
X105228000Y-96726000D01*
X123373000Y-96686000D02*
X105227000Y-96686000D01*
X123375000Y-96646000D02*
X105225000Y-96646000D01*
X123376000Y-96606000D02*
X105224000Y-96606000D01*
X123377000Y-96566000D02*
X105223000Y-96566000D01*
X123378000Y-96526000D02*
X105222000Y-96526000D01*
X123379000Y-96486000D02*
X105221000Y-96486000D01*
X123380000Y-96366000D02*
X105220000Y-96366000D01*
X123380000Y-96406000D02*
X105220000Y-96406000D01*
X123380000Y-96446000D02*
X105220000Y-96446000D01*
X123381000Y-96326000D02*
X105219000Y-96326000D01*
X123420000Y-96326000D02*
G75*
G02*
X105180000Y-96326000I-9120000J0D01*
G01*
X105180000Y-96326000D02*
G75*
G02*
X123420000Y-96326000I9120000J0D01*
G01*
%TO.C,D4*%
X93120000Y-91850000D02*
X93120000Y-101190000D01*
X93120000Y-101190000D02*
X95950000Y-101190000D01*
X95950000Y-91850000D02*
X93120000Y-91850000D01*
X99630000Y-91850000D02*
X102460000Y-91850000D01*
X102460000Y-91850000D02*
X102460000Y-101190000D01*
X102460000Y-93215000D02*
X93120000Y-93215000D01*
X102460000Y-93335000D02*
X93120000Y-93335000D01*
X102460000Y-93455000D02*
X93120000Y-93455000D01*
X102460000Y-101190000D02*
X99630000Y-101190000D01*
%TO.C,C5*%
X134196000Y-78327000D02*
X126856000Y-78327000D01*
X134196000Y-78367000D02*
X126866000Y-78367000D01*
X134196000Y-78407000D02*
X126877000Y-78407000D01*
X134196000Y-78447000D02*
X126888000Y-78447000D01*
X134196000Y-78487000D02*
X126899000Y-78487000D01*
X134196000Y-78527000D02*
X126911000Y-78527000D01*
X134196000Y-78567000D02*
X126922000Y-78567000D01*
X134196000Y-78607000D02*
X126934000Y-78607000D01*
X134196000Y-78647000D02*
X126946000Y-78647000D01*
X134196000Y-78687000D02*
X126958000Y-78687000D01*
X134196000Y-78727000D02*
X126971000Y-78727000D01*
X134196000Y-78767000D02*
X126983000Y-78767000D01*
X134196000Y-78807000D02*
X126996000Y-78807000D01*
X134196000Y-78847000D02*
X127009000Y-78847000D01*
X134196000Y-78887000D02*
X127022000Y-78887000D01*
X134196000Y-78927000D02*
X127036000Y-78927000D01*
X134196000Y-78967000D02*
X127049000Y-78967000D01*
X134196000Y-79007000D02*
X127063000Y-79007000D01*
X134196000Y-79047000D02*
X127077000Y-79047000D01*
X134196000Y-79087000D02*
X127091000Y-79087000D01*
X134196000Y-79127000D02*
X127106000Y-79127000D01*
X134196000Y-79167000D02*
X127120000Y-79167000D01*
X134196000Y-79207000D02*
X127135000Y-79207000D01*
X134196000Y-79247000D02*
X127150000Y-79247000D01*
X134196000Y-79287000D02*
X127166000Y-79287000D01*
X134196000Y-79327000D02*
X127181000Y-79327000D01*
X134196000Y-79367000D02*
X127197000Y-79367000D01*
X134196000Y-79407000D02*
X127213000Y-79407000D01*
X134196000Y-79447000D02*
X127229000Y-79447000D01*
X134196000Y-79487000D02*
X127246000Y-79487000D01*
X134196000Y-79527000D02*
X127262000Y-79527000D01*
X134196000Y-79567000D02*
X127279000Y-79567000D01*
X134196000Y-79607000D02*
X127296000Y-79607000D01*
X134196000Y-79647000D02*
X127313000Y-79647000D01*
X134196000Y-79687000D02*
X127331000Y-79687000D01*
X134196000Y-79727000D02*
X127349000Y-79727000D01*
X134196000Y-79767000D02*
X127367000Y-79767000D01*
X134196000Y-79807000D02*
X127385000Y-79807000D01*
X134196000Y-79847000D02*
X127403000Y-79847000D01*
X134196000Y-79887000D02*
X127422000Y-79887000D01*
X134196000Y-79927000D02*
X127441000Y-79927000D01*
X134196000Y-79967000D02*
X127460000Y-79967000D01*
X134196000Y-80007000D02*
X127480000Y-80007000D01*
X134196000Y-80047000D02*
X127499000Y-80047000D01*
X134196000Y-80087000D02*
X127519000Y-80087000D01*
X134196000Y-80127000D02*
X127539000Y-80127000D01*
X134196000Y-80167000D02*
X127560000Y-80167000D01*
X134196000Y-80207000D02*
X127580000Y-80207000D01*
X134196000Y-80247000D02*
X127601000Y-80247000D01*
X134196000Y-80287000D02*
X127622000Y-80287000D01*
X134196000Y-80327000D02*
X127644000Y-80327000D01*
X134196000Y-80367000D02*
X127665000Y-80367000D01*
X134196000Y-80407000D02*
X127687000Y-80407000D01*
X134196000Y-80447000D02*
X127709000Y-80447000D01*
X134196000Y-80487000D02*
X127732000Y-80487000D01*
X134196000Y-80527000D02*
X127754000Y-80527000D01*
X134196000Y-80567000D02*
X127777000Y-80567000D01*
X134196000Y-80607000D02*
X127801000Y-80607000D01*
X134196000Y-80647000D02*
X127824000Y-80647000D01*
X134196000Y-80687000D02*
X127848000Y-80687000D01*
X134196000Y-80727000D02*
X127872000Y-80727000D01*
X134196000Y-80767000D02*
X127896000Y-80767000D01*
X134196000Y-80807000D02*
X127921000Y-80807000D01*
X134196000Y-80847000D02*
X127946000Y-80847000D01*
X134196000Y-80887000D02*
X127971000Y-80887000D01*
X134196000Y-80927000D02*
X127996000Y-80927000D01*
X134196000Y-80967000D02*
X128022000Y-80967000D01*
X134196000Y-81007000D02*
X128048000Y-81007000D01*
X134196000Y-81047000D02*
X128075000Y-81047000D01*
X134196000Y-81087000D02*
X128101000Y-81087000D01*
X134196000Y-81127000D02*
X128128000Y-81127000D01*
X134196000Y-81167000D02*
X128156000Y-81167000D01*
X135676000Y-85126000D02*
X135596000Y-85126000D01*
X136450000Y-85086000D02*
X134822000Y-85086000D01*
X136802000Y-85046000D02*
X134470000Y-85046000D01*
X137071000Y-85006000D02*
X134201000Y-85006000D01*
X137297000Y-84966000D02*
X133975000Y-84966000D01*
X137496000Y-84926000D02*
X133776000Y-84926000D01*
X137675000Y-84886000D02*
X133597000Y-84886000D01*
X137839000Y-84846000D02*
X133433000Y-84846000D01*
X137991000Y-84806000D02*
X133281000Y-84806000D01*
X138134000Y-84766000D02*
X133138000Y-84766000D01*
X138268000Y-84726000D02*
X133004000Y-84726000D01*
X138395000Y-84686000D02*
X132877000Y-84686000D01*
X138516000Y-84646000D02*
X132756000Y-84646000D01*
X138632000Y-84606000D02*
X132640000Y-84606000D01*
X138743000Y-84566000D02*
X132529000Y-84566000D01*
X138850000Y-84526000D02*
X132422000Y-84526000D01*
X138953000Y-84486000D02*
X132319000Y-84486000D01*
X139052000Y-84446000D02*
X132220000Y-84446000D01*
X139148000Y-84406000D02*
X132124000Y-84406000D01*
X139241000Y-84366000D02*
X132031000Y-84366000D01*
X139332000Y-84326000D02*
X131940000Y-84326000D01*
X139420000Y-84286000D02*
X131852000Y-84286000D01*
X139505000Y-84246000D02*
X131767000Y-84246000D01*
X139588000Y-84206000D02*
X131684000Y-84206000D01*
X139669000Y-84167000D02*
X131603000Y-84167000D01*
X139749000Y-84127000D02*
X131523000Y-84127000D01*
X139826000Y-84087000D02*
X131446000Y-84087000D01*
X139901000Y-84047000D02*
X131371000Y-84047000D01*
X139975000Y-84007000D02*
X131297000Y-84007000D01*
X140048000Y-83967000D02*
X131224000Y-83967000D01*
X140118000Y-83927000D02*
X131154000Y-83927000D01*
X140188000Y-83887000D02*
X131084000Y-83887000D01*
X140256000Y-83847000D02*
X131016000Y-83847000D01*
X140322000Y-83807000D02*
X130950000Y-83807000D01*
X140388000Y-83767000D02*
X130884000Y-83767000D01*
X140452000Y-83727000D02*
X130820000Y-83727000D01*
X140515000Y-83687000D02*
X130757000Y-83687000D01*
X140577000Y-83647000D02*
X130695000Y-83647000D01*
X140638000Y-83607000D02*
X130634000Y-83607000D01*
X140698000Y-83567000D02*
X130574000Y-83567000D01*
X140751000Y-66246560D02*
X140751000Y-68046560D01*
X140756000Y-83527000D02*
X130516000Y-83527000D01*
X140814000Y-83487000D02*
X130458000Y-83487000D01*
X140871000Y-83447000D02*
X130401000Y-83447000D01*
X140927000Y-83407000D02*
X130345000Y-83407000D01*
X140982000Y-83367000D02*
X130290000Y-83367000D01*
X141036000Y-83327000D02*
X130236000Y-83327000D01*
X141090000Y-83287000D02*
X130182000Y-83287000D01*
X141142000Y-83247000D02*
X130130000Y-83247000D01*
X141194000Y-83207000D02*
X130078000Y-83207000D01*
X141245000Y-83167000D02*
X130027000Y-83167000D01*
X141296000Y-83127000D02*
X129976000Y-83127000D01*
X141345000Y-83087000D02*
X129927000Y-83087000D01*
X141394000Y-83047000D02*
X129878000Y-83047000D01*
X141442000Y-83007000D02*
X129830000Y-83007000D01*
X141490000Y-82967000D02*
X129782000Y-82967000D01*
X141537000Y-82927000D02*
X129735000Y-82927000D01*
X141583000Y-82887000D02*
X129689000Y-82887000D01*
X141629000Y-82847000D02*
X129643000Y-82847000D01*
X141651000Y-67146560D02*
X139851000Y-67146560D01*
X141674000Y-82807000D02*
X129598000Y-82807000D01*
X141718000Y-82767000D02*
X129554000Y-82767000D01*
X141762000Y-82727000D02*
X129510000Y-82727000D01*
X141806000Y-82687000D02*
X129466000Y-82687000D01*
X141848000Y-82647000D02*
X129424000Y-82647000D01*
X141890000Y-82607000D02*
X129382000Y-82607000D01*
X141932000Y-82567000D02*
X129340000Y-82567000D01*
X141973000Y-82527000D02*
X129299000Y-82527000D01*
X142014000Y-82487000D02*
X129258000Y-82487000D01*
X142054000Y-82447000D02*
X129218000Y-82447000D01*
X142094000Y-82407000D02*
X129178000Y-82407000D01*
X142133000Y-82367000D02*
X129139000Y-82367000D01*
X142172000Y-82327000D02*
X129100000Y-82327000D01*
X142210000Y-82287000D02*
X129062000Y-82287000D01*
X142248000Y-82247000D02*
X129024000Y-82247000D01*
X142285000Y-82207000D02*
X128987000Y-82207000D01*
X142322000Y-82167000D02*
X128950000Y-82167000D01*
X142358000Y-82127000D02*
X128914000Y-82127000D01*
X142394000Y-82087000D02*
X128878000Y-82087000D01*
X142430000Y-82047000D02*
X128842000Y-82047000D01*
X142465000Y-82007000D02*
X128807000Y-82007000D01*
X142500000Y-81967000D02*
X128772000Y-81967000D01*
X142534000Y-81927000D02*
X128738000Y-81927000D01*
X142568000Y-81887000D02*
X128704000Y-81887000D01*
X142601000Y-81847000D02*
X128671000Y-81847000D01*
X142635000Y-81807000D02*
X128637000Y-81807000D01*
X142667000Y-81767000D02*
X128605000Y-81767000D01*
X142700000Y-81727000D02*
X128572000Y-81727000D01*
X142732000Y-81687000D02*
X128540000Y-81687000D01*
X142763000Y-81647000D02*
X128509000Y-81647000D01*
X142795000Y-81607000D02*
X128477000Y-81607000D01*
X142826000Y-81567000D02*
X128446000Y-81567000D01*
X142856000Y-81527000D02*
X128416000Y-81527000D01*
X142886000Y-81487000D02*
X128386000Y-81487000D01*
X142916000Y-81447000D02*
X128356000Y-81447000D01*
X142946000Y-81407000D02*
X128326000Y-81407000D01*
X142975000Y-81367000D02*
X128297000Y-81367000D01*
X143004000Y-81327000D02*
X128268000Y-81327000D01*
X143033000Y-81287000D02*
X128239000Y-81287000D01*
X143061000Y-81247000D02*
X128211000Y-81247000D01*
X143089000Y-81207000D02*
X128183000Y-81207000D01*
X143116000Y-81167000D02*
X137076000Y-81167000D01*
X143144000Y-81127000D02*
X137076000Y-81127000D01*
X143171000Y-81087000D02*
X137076000Y-81087000D01*
X143197000Y-81047000D02*
X137076000Y-81047000D01*
X143224000Y-81007000D02*
X137076000Y-81007000D01*
X143250000Y-80967000D02*
X137076000Y-80967000D01*
X143276000Y-80927000D02*
X137076000Y-80927000D01*
X143301000Y-80887000D02*
X137076000Y-80887000D01*
X143326000Y-80847000D02*
X137076000Y-80847000D01*
X143351000Y-80807000D02*
X137076000Y-80807000D01*
X143376000Y-80767000D02*
X137076000Y-80767000D01*
X143400000Y-80727000D02*
X137076000Y-80727000D01*
X143424000Y-80687000D02*
X137076000Y-80687000D01*
X143448000Y-80647000D02*
X137076000Y-80647000D01*
X143471000Y-80607000D02*
X137076000Y-80607000D01*
X143495000Y-80567000D02*
X137076000Y-80567000D01*
X143518000Y-80527000D02*
X137076000Y-80527000D01*
X143540000Y-80487000D02*
X137076000Y-80487000D01*
X143563000Y-80447000D02*
X137076000Y-80447000D01*
X143585000Y-80407000D02*
X137076000Y-80407000D01*
X143607000Y-80367000D02*
X137076000Y-80367000D01*
X143628000Y-80327000D02*
X137076000Y-80327000D01*
X143650000Y-80287000D02*
X137076000Y-80287000D01*
X143671000Y-80247000D02*
X137076000Y-80247000D01*
X143692000Y-80207000D02*
X137076000Y-80207000D01*
X143712000Y-80167000D02*
X137076000Y-80167000D01*
X143733000Y-80127000D02*
X137076000Y-80127000D01*
X143753000Y-80087000D02*
X137076000Y-80087000D01*
X143773000Y-80047000D02*
X137076000Y-80047000D01*
X143792000Y-80007000D02*
X137076000Y-80007000D01*
X143812000Y-79967000D02*
X137076000Y-79967000D01*
X143831000Y-79927000D02*
X137076000Y-79927000D01*
X143850000Y-79887000D02*
X137076000Y-79887000D01*
X143869000Y-79847000D02*
X137076000Y-79847000D01*
X143887000Y-79807000D02*
X137076000Y-79807000D01*
X143905000Y-79767000D02*
X137076000Y-79767000D01*
X143923000Y-79727000D02*
X137076000Y-79727000D01*
X143941000Y-79687000D02*
X137076000Y-79687000D01*
X143959000Y-79647000D02*
X137076000Y-79647000D01*
X143976000Y-79607000D02*
X137076000Y-79607000D01*
X143993000Y-79567000D02*
X137076000Y-79567000D01*
X144010000Y-79527000D02*
X137076000Y-79527000D01*
X144026000Y-79487000D02*
X137076000Y-79487000D01*
X144043000Y-79447000D02*
X137076000Y-79447000D01*
X144059000Y-79407000D02*
X137076000Y-79407000D01*
X144075000Y-79367000D02*
X137076000Y-79367000D01*
X144091000Y-79327000D02*
X137076000Y-79327000D01*
X144106000Y-79287000D02*
X137076000Y-79287000D01*
X144122000Y-79247000D02*
X137076000Y-79247000D01*
X144137000Y-79207000D02*
X137076000Y-79207000D01*
X144152000Y-79167000D02*
X137076000Y-79167000D01*
X144166000Y-79127000D02*
X137076000Y-79127000D01*
X144181000Y-79087000D02*
X137076000Y-79087000D01*
X144195000Y-79047000D02*
X137076000Y-79047000D01*
X144209000Y-79007000D02*
X137076000Y-79007000D01*
X144223000Y-78967000D02*
X137076000Y-78967000D01*
X144236000Y-78927000D02*
X137076000Y-78927000D01*
X144250000Y-78887000D02*
X137076000Y-78887000D01*
X144263000Y-78847000D02*
X137076000Y-78847000D01*
X144276000Y-78807000D02*
X137076000Y-78807000D01*
X144289000Y-78767000D02*
X137076000Y-78767000D01*
X144301000Y-78727000D02*
X137076000Y-78727000D01*
X144314000Y-78687000D02*
X137076000Y-78687000D01*
X144326000Y-78647000D02*
X137076000Y-78647000D01*
X144338000Y-78607000D02*
X137076000Y-78607000D01*
X144350000Y-78567000D02*
X137076000Y-78567000D01*
X144361000Y-78527000D02*
X137076000Y-78527000D01*
X144373000Y-78487000D02*
X137076000Y-78487000D01*
X144384000Y-78447000D02*
X137076000Y-78447000D01*
X144395000Y-78407000D02*
X137076000Y-78407000D01*
X144406000Y-78367000D02*
X137076000Y-78367000D01*
X144416000Y-78327000D02*
X137076000Y-78327000D01*
X144427000Y-78287000D02*
X126845000Y-78287000D01*
X144437000Y-78247000D02*
X126835000Y-78247000D01*
X144447000Y-78207000D02*
X126825000Y-78207000D01*
X144457000Y-78167000D02*
X126815000Y-78167000D01*
X144467000Y-78127000D02*
X126805000Y-78127000D01*
X144476000Y-78087000D02*
X126796000Y-78087000D01*
X144485000Y-78047000D02*
X126787000Y-78047000D01*
X144494000Y-78007000D02*
X126778000Y-78007000D01*
X144503000Y-77967000D02*
X126769000Y-77967000D01*
X144512000Y-77927000D02*
X126760000Y-77927000D01*
X144521000Y-77887000D02*
X126751000Y-77887000D01*
X144529000Y-77847000D02*
X126743000Y-77847000D01*
X144537000Y-77807000D02*
X126735000Y-77807000D01*
X144545000Y-77767000D02*
X126727000Y-77767000D01*
X144553000Y-77727000D02*
X126719000Y-77727000D01*
X144560000Y-77687000D02*
X126712000Y-77687000D01*
X144568000Y-77647000D02*
X126704000Y-77647000D01*
X144575000Y-77607000D02*
X126697000Y-77607000D01*
X144582000Y-77567000D02*
X126690000Y-77567000D01*
X144589000Y-77527000D02*
X126683000Y-77527000D01*
X144596000Y-77487000D02*
X126676000Y-77487000D01*
X144602000Y-77447000D02*
X126670000Y-77447000D01*
X144608000Y-77407000D02*
X126664000Y-77407000D01*
X144615000Y-77367000D02*
X126657000Y-77367000D01*
X144620000Y-77327000D02*
X126652000Y-77327000D01*
X144626000Y-77287000D02*
X126646000Y-77287000D01*
X144632000Y-77247000D02*
X126640000Y-77247000D01*
X144637000Y-77207000D02*
X126635000Y-77207000D01*
X144642000Y-77167000D02*
X126630000Y-77167000D01*
X144647000Y-77127000D02*
X126625000Y-77127000D01*
X144652000Y-77087000D02*
X126620000Y-77087000D01*
X144657000Y-77047000D02*
X126615000Y-77047000D01*
X144662000Y-77007000D02*
X126610000Y-77007000D01*
X144666000Y-76967000D02*
X126606000Y-76967000D01*
X144670000Y-76927000D02*
X126602000Y-76927000D01*
X144674000Y-76887000D02*
X126598000Y-76887000D01*
X144678000Y-76847000D02*
X126594000Y-76847000D01*
X144681000Y-76807000D02*
X126591000Y-76807000D01*
X144685000Y-76767000D02*
X126587000Y-76767000D01*
X144688000Y-76727000D02*
X126584000Y-76727000D01*
X144691000Y-76686000D02*
X126581000Y-76686000D01*
X144694000Y-76646000D02*
X126578000Y-76646000D01*
X144697000Y-76606000D02*
X126575000Y-76606000D01*
X144699000Y-76566000D02*
X126573000Y-76566000D01*
X144702000Y-76526000D02*
X126570000Y-76526000D01*
X144704000Y-76486000D02*
X126568000Y-76486000D01*
X144706000Y-76446000D02*
X126566000Y-76446000D01*
X144708000Y-76406000D02*
X126564000Y-76406000D01*
X144709000Y-76366000D02*
X126563000Y-76366000D01*
X144711000Y-76326000D02*
X126561000Y-76326000D01*
X144712000Y-76286000D02*
X126560000Y-76286000D01*
X144713000Y-76246000D02*
X126559000Y-76246000D01*
X144714000Y-76206000D02*
X126558000Y-76206000D01*
X144715000Y-76166000D02*
X126557000Y-76166000D01*
X144716000Y-76046000D02*
X126556000Y-76046000D01*
X144716000Y-76086000D02*
X126556000Y-76086000D01*
X144716000Y-76126000D02*
X126556000Y-76126000D01*
X144717000Y-76006000D02*
X126555000Y-76006000D01*
X144756000Y-76006000D02*
G75*
G02*
X126516000Y-76006000I-9120000J0D01*
G01*
X126516000Y-76006000D02*
G75*
G02*
X144756000Y-76006000I9120000J0D01*
G01*
%TO.C,J3*%
D10*
X158242000Y-83312000D02*
X168402000Y-83312000D01*
X168402000Y-88392000D01*
X158242000Y-88392000D01*
X158242000Y-83312000D01*
D12*
%TO.C,D3*%
X78388000Y-71530000D02*
X78388000Y-80870000D01*
X78388000Y-80870000D02*
X81218000Y-80870000D01*
X81218000Y-71530000D02*
X78388000Y-71530000D01*
X84898000Y-71530000D02*
X87728000Y-71530000D01*
X87728000Y-71530000D02*
X87728000Y-80870000D01*
X87728000Y-72895000D02*
X78388000Y-72895000D01*
X87728000Y-73015000D02*
X78388000Y-73015000D01*
X87728000Y-73135000D02*
X78388000Y-73135000D01*
X87728000Y-80870000D02*
X84898000Y-80870000D01*
%TO.C,J1*%
D10*
X64770000Y-86614000D02*
X74930000Y-86614000D01*
X74930000Y-91694000D01*
X64770000Y-91694000D01*
X64770000Y-86614000D01*
D12*
%TO.C,C1*%
X112860000Y-78327000D02*
X105520000Y-78327000D01*
X112860000Y-78367000D02*
X105530000Y-78367000D01*
X112860000Y-78407000D02*
X105541000Y-78407000D01*
X112860000Y-78447000D02*
X105552000Y-78447000D01*
X112860000Y-78487000D02*
X105563000Y-78487000D01*
X112860000Y-78527000D02*
X105575000Y-78527000D01*
X112860000Y-78567000D02*
X105586000Y-78567000D01*
X112860000Y-78607000D02*
X105598000Y-78607000D01*
X112860000Y-78647000D02*
X105610000Y-78647000D01*
X112860000Y-78687000D02*
X105622000Y-78687000D01*
X112860000Y-78727000D02*
X105635000Y-78727000D01*
X112860000Y-78767000D02*
X105647000Y-78767000D01*
X112860000Y-78807000D02*
X105660000Y-78807000D01*
X112860000Y-78847000D02*
X105673000Y-78847000D01*
X112860000Y-78887000D02*
X105686000Y-78887000D01*
X112860000Y-78927000D02*
X105700000Y-78927000D01*
X112860000Y-78967000D02*
X105713000Y-78967000D01*
X112860000Y-79007000D02*
X105727000Y-79007000D01*
X112860000Y-79047000D02*
X105741000Y-79047000D01*
X112860000Y-79087000D02*
X105755000Y-79087000D01*
X112860000Y-79127000D02*
X105770000Y-79127000D01*
X112860000Y-79167000D02*
X105784000Y-79167000D01*
X112860000Y-79207000D02*
X105799000Y-79207000D01*
X112860000Y-79247000D02*
X105814000Y-79247000D01*
X112860000Y-79287000D02*
X105830000Y-79287000D01*
X112860000Y-79327000D02*
X105845000Y-79327000D01*
X112860000Y-79367000D02*
X105861000Y-79367000D01*
X112860000Y-79407000D02*
X105877000Y-79407000D01*
X112860000Y-79447000D02*
X105893000Y-79447000D01*
X112860000Y-79487000D02*
X105910000Y-79487000D01*
X112860000Y-79527000D02*
X105926000Y-79527000D01*
X112860000Y-79567000D02*
X105943000Y-79567000D01*
X112860000Y-79607000D02*
X105960000Y-79607000D01*
X112860000Y-79647000D02*
X105977000Y-79647000D01*
X112860000Y-79687000D02*
X105995000Y-79687000D01*
X112860000Y-79727000D02*
X106013000Y-79727000D01*
X112860000Y-79767000D02*
X106031000Y-79767000D01*
X112860000Y-79807000D02*
X106049000Y-79807000D01*
X112860000Y-79847000D02*
X106067000Y-79847000D01*
X112860000Y-79887000D02*
X106086000Y-79887000D01*
X112860000Y-79927000D02*
X106105000Y-79927000D01*
X112860000Y-79967000D02*
X106124000Y-79967000D01*
X112860000Y-80007000D02*
X106144000Y-80007000D01*
X112860000Y-80047000D02*
X106163000Y-80047000D01*
X112860000Y-80087000D02*
X106183000Y-80087000D01*
X112860000Y-80127000D02*
X106203000Y-80127000D01*
X112860000Y-80167000D02*
X106224000Y-80167000D01*
X112860000Y-80207000D02*
X106244000Y-80207000D01*
X112860000Y-80247000D02*
X106265000Y-80247000D01*
X112860000Y-80287000D02*
X106286000Y-80287000D01*
X112860000Y-80327000D02*
X106308000Y-80327000D01*
X112860000Y-80367000D02*
X106329000Y-80367000D01*
X112860000Y-80407000D02*
X106351000Y-80407000D01*
X112860000Y-80447000D02*
X106373000Y-80447000D01*
X112860000Y-80487000D02*
X106396000Y-80487000D01*
X112860000Y-80527000D02*
X106418000Y-80527000D01*
X112860000Y-80567000D02*
X106441000Y-80567000D01*
X112860000Y-80607000D02*
X106465000Y-80607000D01*
X112860000Y-80647000D02*
X106488000Y-80647000D01*
X112860000Y-80687000D02*
X106512000Y-80687000D01*
X112860000Y-80727000D02*
X106536000Y-80727000D01*
X112860000Y-80767000D02*
X106560000Y-80767000D01*
X112860000Y-80807000D02*
X106585000Y-80807000D01*
X112860000Y-80847000D02*
X106610000Y-80847000D01*
X112860000Y-80887000D02*
X106635000Y-80887000D01*
X112860000Y-80927000D02*
X106660000Y-80927000D01*
X112860000Y-80967000D02*
X106686000Y-80967000D01*
X112860000Y-81007000D02*
X106712000Y-81007000D01*
X112860000Y-81047000D02*
X106739000Y-81047000D01*
X112860000Y-81087000D02*
X106765000Y-81087000D01*
X112860000Y-81127000D02*
X106792000Y-81127000D01*
X112860000Y-81167000D02*
X106820000Y-81167000D01*
X114340000Y-85126000D02*
X114260000Y-85126000D01*
X115114000Y-85086000D02*
X113486000Y-85086000D01*
X115466000Y-85046000D02*
X113134000Y-85046000D01*
X115735000Y-85006000D02*
X112865000Y-85006000D01*
X115961000Y-84966000D02*
X112639000Y-84966000D01*
X116160000Y-84926000D02*
X112440000Y-84926000D01*
X116339000Y-84886000D02*
X112261000Y-84886000D01*
X116503000Y-84846000D02*
X112097000Y-84846000D01*
X116655000Y-84806000D02*
X111945000Y-84806000D01*
X116798000Y-84766000D02*
X111802000Y-84766000D01*
X116932000Y-84726000D02*
X111668000Y-84726000D01*
X117059000Y-84686000D02*
X111541000Y-84686000D01*
X117180000Y-84646000D02*
X111420000Y-84646000D01*
X117296000Y-84606000D02*
X111304000Y-84606000D01*
X117407000Y-84566000D02*
X111193000Y-84566000D01*
X117514000Y-84526000D02*
X111086000Y-84526000D01*
X117617000Y-84486000D02*
X110983000Y-84486000D01*
X117716000Y-84446000D02*
X110884000Y-84446000D01*
X117812000Y-84406000D02*
X110788000Y-84406000D01*
X117905000Y-84366000D02*
X110695000Y-84366000D01*
X117996000Y-84326000D02*
X110604000Y-84326000D01*
X118084000Y-84286000D02*
X110516000Y-84286000D01*
X118169000Y-84246000D02*
X110431000Y-84246000D01*
X118252000Y-84206000D02*
X110348000Y-84206000D01*
X118333000Y-84167000D02*
X110267000Y-84167000D01*
X118413000Y-84127000D02*
X110187000Y-84127000D01*
X118490000Y-84087000D02*
X110110000Y-84087000D01*
X118565000Y-84047000D02*
X110035000Y-84047000D01*
X118639000Y-84007000D02*
X109961000Y-84007000D01*
X118712000Y-83967000D02*
X109888000Y-83967000D01*
X118782000Y-83927000D02*
X109818000Y-83927000D01*
X118852000Y-83887000D02*
X109748000Y-83887000D01*
X118920000Y-83847000D02*
X109680000Y-83847000D01*
X118986000Y-83807000D02*
X109614000Y-83807000D01*
X119052000Y-83767000D02*
X109548000Y-83767000D01*
X119116000Y-83727000D02*
X109484000Y-83727000D01*
X119179000Y-83687000D02*
X109421000Y-83687000D01*
X119241000Y-83647000D02*
X109359000Y-83647000D01*
X119302000Y-83607000D02*
X109298000Y-83607000D01*
X119362000Y-83567000D02*
X109238000Y-83567000D01*
X119415000Y-66246560D02*
X119415000Y-68046560D01*
X119420000Y-83527000D02*
X109180000Y-83527000D01*
X119478000Y-83487000D02*
X109122000Y-83487000D01*
X119535000Y-83447000D02*
X109065000Y-83447000D01*
X119591000Y-83407000D02*
X109009000Y-83407000D01*
X119646000Y-83367000D02*
X108954000Y-83367000D01*
X119700000Y-83327000D02*
X108900000Y-83327000D01*
X119754000Y-83287000D02*
X108846000Y-83287000D01*
X119806000Y-83247000D02*
X108794000Y-83247000D01*
X119858000Y-83207000D02*
X108742000Y-83207000D01*
X119909000Y-83167000D02*
X108691000Y-83167000D01*
X119960000Y-83127000D02*
X108640000Y-83127000D01*
X120009000Y-83087000D02*
X108591000Y-83087000D01*
X120058000Y-83047000D02*
X108542000Y-83047000D01*
X120106000Y-83007000D02*
X108494000Y-83007000D01*
X120154000Y-82967000D02*
X108446000Y-82967000D01*
X120201000Y-82927000D02*
X108399000Y-82927000D01*
X120247000Y-82887000D02*
X108353000Y-82887000D01*
X120293000Y-82847000D02*
X108307000Y-82847000D01*
X120315000Y-67146560D02*
X118515000Y-67146560D01*
X120338000Y-82807000D02*
X108262000Y-82807000D01*
X120382000Y-82767000D02*
X108218000Y-82767000D01*
X120426000Y-82727000D02*
X108174000Y-82727000D01*
X120470000Y-82687000D02*
X108130000Y-82687000D01*
X120512000Y-82647000D02*
X108088000Y-82647000D01*
X120554000Y-82607000D02*
X108046000Y-82607000D01*
X120596000Y-82567000D02*
X108004000Y-82567000D01*
X120637000Y-82527000D02*
X107963000Y-82527000D01*
X120678000Y-82487000D02*
X107922000Y-82487000D01*
X120718000Y-82447000D02*
X107882000Y-82447000D01*
X120758000Y-82407000D02*
X107842000Y-82407000D01*
X120797000Y-82367000D02*
X107803000Y-82367000D01*
X120836000Y-82327000D02*
X107764000Y-82327000D01*
X120874000Y-82287000D02*
X107726000Y-82287000D01*
X120912000Y-82247000D02*
X107688000Y-82247000D01*
X120949000Y-82207000D02*
X107651000Y-82207000D01*
X120986000Y-82167000D02*
X107614000Y-82167000D01*
X121022000Y-82127000D02*
X107578000Y-82127000D01*
X121058000Y-82087000D02*
X107542000Y-82087000D01*
X121094000Y-82047000D02*
X107506000Y-82047000D01*
X121129000Y-82007000D02*
X107471000Y-82007000D01*
X121164000Y-81967000D02*
X107436000Y-81967000D01*
X121198000Y-81927000D02*
X107402000Y-81927000D01*
X121232000Y-81887000D02*
X107368000Y-81887000D01*
X121265000Y-81847000D02*
X107335000Y-81847000D01*
X121299000Y-81807000D02*
X107301000Y-81807000D01*
X121331000Y-81767000D02*
X107269000Y-81767000D01*
X121364000Y-81727000D02*
X107236000Y-81727000D01*
X121396000Y-81687000D02*
X107204000Y-81687000D01*
X121427000Y-81647000D02*
X107173000Y-81647000D01*
X121459000Y-81607000D02*
X107141000Y-81607000D01*
X121490000Y-81567000D02*
X107110000Y-81567000D01*
X121520000Y-81527000D02*
X107080000Y-81527000D01*
X121550000Y-81487000D02*
X107050000Y-81487000D01*
X121580000Y-81447000D02*
X107020000Y-81447000D01*
X121610000Y-81407000D02*
X106990000Y-81407000D01*
X121639000Y-81367000D02*
X106961000Y-81367000D01*
X121668000Y-81327000D02*
X106932000Y-81327000D01*
X121697000Y-81287000D02*
X106903000Y-81287000D01*
X121725000Y-81247000D02*
X106875000Y-81247000D01*
X121753000Y-81207000D02*
X106847000Y-81207000D01*
X121780000Y-81167000D02*
X115740000Y-81167000D01*
X121808000Y-81127000D02*
X115740000Y-81127000D01*
X121835000Y-81087000D02*
X115740000Y-81087000D01*
X121861000Y-81047000D02*
X115740000Y-81047000D01*
X121888000Y-81007000D02*
X115740000Y-81007000D01*
X121914000Y-80967000D02*
X115740000Y-80967000D01*
X121940000Y-80927000D02*
X115740000Y-80927000D01*
X121965000Y-80887000D02*
X115740000Y-80887000D01*
X121990000Y-80847000D02*
X115740000Y-80847000D01*
X122015000Y-80807000D02*
X115740000Y-80807000D01*
X122040000Y-80767000D02*
X115740000Y-80767000D01*
X122064000Y-80727000D02*
X115740000Y-80727000D01*
X122088000Y-80687000D02*
X115740000Y-80687000D01*
X122112000Y-80647000D02*
X115740000Y-80647000D01*
X122135000Y-80607000D02*
X115740000Y-80607000D01*
X122159000Y-80567000D02*
X115740000Y-80567000D01*
X122182000Y-80527000D02*
X115740000Y-80527000D01*
X122204000Y-80487000D02*
X115740000Y-80487000D01*
X122227000Y-80447000D02*
X115740000Y-80447000D01*
X122249000Y-80407000D02*
X115740000Y-80407000D01*
X122271000Y-80367000D02*
X115740000Y-80367000D01*
X122292000Y-80327000D02*
X115740000Y-80327000D01*
X122314000Y-80287000D02*
X115740000Y-80287000D01*
X122335000Y-80247000D02*
X115740000Y-80247000D01*
X122356000Y-80207000D02*
X115740000Y-80207000D01*
X122376000Y-80167000D02*
X115740000Y-80167000D01*
X122397000Y-80127000D02*
X115740000Y-80127000D01*
X122417000Y-80087000D02*
X115740000Y-80087000D01*
X122437000Y-80047000D02*
X115740000Y-80047000D01*
X122456000Y-80007000D02*
X115740000Y-80007000D01*
X122476000Y-79967000D02*
X115740000Y-79967000D01*
X122495000Y-79927000D02*
X115740000Y-79927000D01*
X122514000Y-79887000D02*
X115740000Y-79887000D01*
X122533000Y-79847000D02*
X115740000Y-79847000D01*
X122551000Y-79807000D02*
X115740000Y-79807000D01*
X122569000Y-79767000D02*
X115740000Y-79767000D01*
X122587000Y-79727000D02*
X115740000Y-79727000D01*
X122605000Y-79687000D02*
X115740000Y-79687000D01*
X122623000Y-79647000D02*
X115740000Y-79647000D01*
X122640000Y-79607000D02*
X115740000Y-79607000D01*
X122657000Y-79567000D02*
X115740000Y-79567000D01*
X122674000Y-79527000D02*
X115740000Y-79527000D01*
X122690000Y-79487000D02*
X115740000Y-79487000D01*
X122707000Y-79447000D02*
X115740000Y-79447000D01*
X122723000Y-79407000D02*
X115740000Y-79407000D01*
X122739000Y-79367000D02*
X115740000Y-79367000D01*
X122755000Y-79327000D02*
X115740000Y-79327000D01*
X122770000Y-79287000D02*
X115740000Y-79287000D01*
X122786000Y-79247000D02*
X115740000Y-79247000D01*
X122801000Y-79207000D02*
X115740000Y-79207000D01*
X122816000Y-79167000D02*
X115740000Y-79167000D01*
X122830000Y-79127000D02*
X115740000Y-79127000D01*
X122845000Y-79087000D02*
X115740000Y-79087000D01*
X122859000Y-79047000D02*
X115740000Y-79047000D01*
X122873000Y-79007000D02*
X115740000Y-79007000D01*
X122887000Y-78967000D02*
X115740000Y-78967000D01*
X122900000Y-78927000D02*
X115740000Y-78927000D01*
X122914000Y-78887000D02*
X115740000Y-78887000D01*
X122927000Y-78847000D02*
X115740000Y-78847000D01*
X122940000Y-78807000D02*
X115740000Y-78807000D01*
X122953000Y-78767000D02*
X115740000Y-78767000D01*
X122965000Y-78727000D02*
X115740000Y-78727000D01*
X122978000Y-78687000D02*
X115740000Y-78687000D01*
X122990000Y-78647000D02*
X115740000Y-78647000D01*
X123002000Y-78607000D02*
X115740000Y-78607000D01*
X123014000Y-78567000D02*
X115740000Y-78567000D01*
X123025000Y-78527000D02*
X115740000Y-78527000D01*
X123037000Y-78487000D02*
X115740000Y-78487000D01*
X123048000Y-78447000D02*
X115740000Y-78447000D01*
X123059000Y-78407000D02*
X115740000Y-78407000D01*
X123070000Y-78367000D02*
X115740000Y-78367000D01*
X123080000Y-78327000D02*
X115740000Y-78327000D01*
X123091000Y-78287000D02*
X105509000Y-78287000D01*
X123101000Y-78247000D02*
X105499000Y-78247000D01*
X123111000Y-78207000D02*
X105489000Y-78207000D01*
X123121000Y-78167000D02*
X105479000Y-78167000D01*
X123131000Y-78127000D02*
X105469000Y-78127000D01*
X123140000Y-78087000D02*
X105460000Y-78087000D01*
X123149000Y-78047000D02*
X105451000Y-78047000D01*
X123158000Y-78007000D02*
X105442000Y-78007000D01*
X123167000Y-77967000D02*
X105433000Y-77967000D01*
X123176000Y-77927000D02*
X105424000Y-77927000D01*
X123185000Y-77887000D02*
X105415000Y-77887000D01*
X123193000Y-77847000D02*
X105407000Y-77847000D01*
X123201000Y-77807000D02*
X105399000Y-77807000D01*
X123209000Y-77767000D02*
X105391000Y-77767000D01*
X123217000Y-77727000D02*
X105383000Y-77727000D01*
X123224000Y-77687000D02*
X105376000Y-77687000D01*
X123232000Y-77647000D02*
X105368000Y-77647000D01*
X123239000Y-77607000D02*
X105361000Y-77607000D01*
X123246000Y-77567000D02*
X105354000Y-77567000D01*
X123253000Y-77527000D02*
X105347000Y-77527000D01*
X123260000Y-77487000D02*
X105340000Y-77487000D01*
X123266000Y-77447000D02*
X105334000Y-77447000D01*
X123272000Y-77407000D02*
X105328000Y-77407000D01*
X123279000Y-77367000D02*
X105321000Y-77367000D01*
X123284000Y-77327000D02*
X105316000Y-77327000D01*
X123290000Y-77287000D02*
X105310000Y-77287000D01*
X123296000Y-77247000D02*
X105304000Y-77247000D01*
X123301000Y-77207000D02*
X105299000Y-77207000D01*
X123306000Y-77167000D02*
X105294000Y-77167000D01*
X123311000Y-77127000D02*
X105289000Y-77127000D01*
X123316000Y-77087000D02*
X105284000Y-77087000D01*
X123321000Y-77047000D02*
X105279000Y-77047000D01*
X123326000Y-77007000D02*
X105274000Y-77007000D01*
X123330000Y-76967000D02*
X105270000Y-76967000D01*
X123334000Y-76927000D02*
X105266000Y-76927000D01*
X123338000Y-76887000D02*
X105262000Y-76887000D01*
X123342000Y-76847000D02*
X105258000Y-76847000D01*
X123345000Y-76807000D02*
X105255000Y-76807000D01*
X123349000Y-76767000D02*
X105251000Y-76767000D01*
X123352000Y-76727000D02*
X105248000Y-76727000D01*
X123355000Y-76686000D02*
X105245000Y-76686000D01*
X123358000Y-76646000D02*
X105242000Y-76646000D01*
X123361000Y-76606000D02*
X105239000Y-76606000D01*
X123363000Y-76566000D02*
X105237000Y-76566000D01*
X123366000Y-76526000D02*
X105234000Y-76526000D01*
X123368000Y-76486000D02*
X105232000Y-76486000D01*
X123370000Y-76446000D02*
X105230000Y-76446000D01*
X123372000Y-76406000D02*
X105228000Y-76406000D01*
X123373000Y-76366000D02*
X105227000Y-76366000D01*
X123375000Y-76326000D02*
X105225000Y-76326000D01*
X123376000Y-76286000D02*
X105224000Y-76286000D01*
X123377000Y-76246000D02*
X105223000Y-76246000D01*
X123378000Y-76206000D02*
X105222000Y-76206000D01*
X123379000Y-76166000D02*
X105221000Y-76166000D01*
X123380000Y-76046000D02*
X105220000Y-76046000D01*
X123380000Y-76086000D02*
X105220000Y-76086000D01*
X123380000Y-76126000D02*
X105220000Y-76126000D01*
X123381000Y-76006000D02*
X105219000Y-76006000D01*
X123420000Y-76006000D02*
G75*
G02*
X105180000Y-76006000I-9120000J0D01*
G01*
X105180000Y-76006000D02*
G75*
G02*
X123420000Y-76006000I9120000J0D01*
G01*
%TO.C,J6*%
D10*
X146304000Y-73660000D02*
X156464000Y-73660000D01*
X156464000Y-78740000D01*
X146304000Y-78740000D01*
X146304000Y-73660000D01*
D12*
%TO.C,C3*%
X148872000Y-66782000D02*
X148872000Y-72522000D01*
X148872000Y-66782000D02*
X156312000Y-66782000D01*
X148872000Y-72522000D02*
X156312000Y-72522000D01*
X156312000Y-66782000D02*
X156312000Y-72522000D01*
%TO.C,J4*%
D10*
X64770000Y-71728000D02*
X74930000Y-71728000D01*
X74930000Y-76808000D01*
X64770000Y-76808000D01*
X64770000Y-71728000D01*
D12*
%TO.C,C6*%
X134196000Y-99035000D02*
X126856000Y-99035000D01*
X134196000Y-99075000D02*
X126866000Y-99075000D01*
X134196000Y-99115000D02*
X126877000Y-99115000D01*
X134196000Y-99155000D02*
X126888000Y-99155000D01*
X134196000Y-99195000D02*
X126899000Y-99195000D01*
X134196000Y-99235000D02*
X126911000Y-99235000D01*
X134196000Y-99275000D02*
X126922000Y-99275000D01*
X134196000Y-99315000D02*
X126934000Y-99315000D01*
X134196000Y-99355000D02*
X126946000Y-99355000D01*
X134196000Y-99395000D02*
X126958000Y-99395000D01*
X134196000Y-99435000D02*
X126971000Y-99435000D01*
X134196000Y-99475000D02*
X126983000Y-99475000D01*
X134196000Y-99515000D02*
X126996000Y-99515000D01*
X134196000Y-99555000D02*
X127009000Y-99555000D01*
X134196000Y-99595000D02*
X127022000Y-99595000D01*
X134196000Y-99635000D02*
X127036000Y-99635000D01*
X134196000Y-99675000D02*
X127049000Y-99675000D01*
X134196000Y-99715000D02*
X127063000Y-99715000D01*
X134196000Y-99755000D02*
X127077000Y-99755000D01*
X134196000Y-99795000D02*
X127091000Y-99795000D01*
X134196000Y-99835000D02*
X127106000Y-99835000D01*
X134196000Y-99875000D02*
X127120000Y-99875000D01*
X134196000Y-99915000D02*
X127135000Y-99915000D01*
X134196000Y-99955000D02*
X127150000Y-99955000D01*
X134196000Y-99995000D02*
X127166000Y-99995000D01*
X134196000Y-100035000D02*
X127181000Y-100035000D01*
X134196000Y-100075000D02*
X127197000Y-100075000D01*
X134196000Y-100115000D02*
X127213000Y-100115000D01*
X134196000Y-100155000D02*
X127229000Y-100155000D01*
X134196000Y-100195000D02*
X127246000Y-100195000D01*
X134196000Y-100235000D02*
X127262000Y-100235000D01*
X134196000Y-100275000D02*
X127279000Y-100275000D01*
X134196000Y-100315000D02*
X127296000Y-100315000D01*
X134196000Y-100355000D02*
X127313000Y-100355000D01*
X134196000Y-100395000D02*
X127331000Y-100395000D01*
X134196000Y-100435000D02*
X127349000Y-100435000D01*
X134196000Y-100475000D02*
X127367000Y-100475000D01*
X134196000Y-100515000D02*
X127385000Y-100515000D01*
X134196000Y-100555000D02*
X127403000Y-100555000D01*
X134196000Y-100595000D02*
X127422000Y-100595000D01*
X134196000Y-100635000D02*
X127441000Y-100635000D01*
X134196000Y-100675000D02*
X127460000Y-100675000D01*
X134196000Y-100715000D02*
X127480000Y-100715000D01*
X134196000Y-100755000D02*
X127499000Y-100755000D01*
X134196000Y-100795000D02*
X127519000Y-100795000D01*
X134196000Y-100835000D02*
X127539000Y-100835000D01*
X134196000Y-100875000D02*
X127560000Y-100875000D01*
X134196000Y-100915000D02*
X127580000Y-100915000D01*
X134196000Y-100955000D02*
X127601000Y-100955000D01*
X134196000Y-100995000D02*
X127622000Y-100995000D01*
X134196000Y-101035000D02*
X127644000Y-101035000D01*
X134196000Y-101075000D02*
X127665000Y-101075000D01*
X134196000Y-101115000D02*
X127687000Y-101115000D01*
X134196000Y-101155000D02*
X127709000Y-101155000D01*
X134196000Y-101195000D02*
X127732000Y-101195000D01*
X134196000Y-101235000D02*
X127754000Y-101235000D01*
X134196000Y-101275000D02*
X127777000Y-101275000D01*
X134196000Y-101315000D02*
X127801000Y-101315000D01*
X134196000Y-101355000D02*
X127824000Y-101355000D01*
X134196000Y-101395000D02*
X127848000Y-101395000D01*
X134196000Y-101435000D02*
X127872000Y-101435000D01*
X134196000Y-101475000D02*
X127896000Y-101475000D01*
X134196000Y-101515000D02*
X127921000Y-101515000D01*
X134196000Y-101555000D02*
X127946000Y-101555000D01*
X134196000Y-101595000D02*
X127971000Y-101595000D01*
X134196000Y-101635000D02*
X127996000Y-101635000D01*
X134196000Y-101675000D02*
X128022000Y-101675000D01*
X134196000Y-101715000D02*
X128048000Y-101715000D01*
X134196000Y-101755000D02*
X128075000Y-101755000D01*
X134196000Y-101795000D02*
X128101000Y-101795000D01*
X134196000Y-101835000D02*
X128128000Y-101835000D01*
X134196000Y-101875000D02*
X128156000Y-101875000D01*
X135676000Y-105834000D02*
X135596000Y-105834000D01*
X136450000Y-105794000D02*
X134822000Y-105794000D01*
X136802000Y-105754000D02*
X134470000Y-105754000D01*
X137071000Y-105714000D02*
X134201000Y-105714000D01*
X137297000Y-105674000D02*
X133975000Y-105674000D01*
X137496000Y-105634000D02*
X133776000Y-105634000D01*
X137675000Y-105594000D02*
X133597000Y-105594000D01*
X137839000Y-105554000D02*
X133433000Y-105554000D01*
X137991000Y-105514000D02*
X133281000Y-105514000D01*
X138134000Y-105474000D02*
X133138000Y-105474000D01*
X138268000Y-105434000D02*
X133004000Y-105434000D01*
X138395000Y-105394000D02*
X132877000Y-105394000D01*
X138516000Y-105354000D02*
X132756000Y-105354000D01*
X138632000Y-105314000D02*
X132640000Y-105314000D01*
X138743000Y-105274000D02*
X132529000Y-105274000D01*
X138850000Y-105234000D02*
X132422000Y-105234000D01*
X138953000Y-105194000D02*
X132319000Y-105194000D01*
X139052000Y-105154000D02*
X132220000Y-105154000D01*
X139148000Y-105114000D02*
X132124000Y-105114000D01*
X139241000Y-105074000D02*
X132031000Y-105074000D01*
X139332000Y-105034000D02*
X131940000Y-105034000D01*
X139420000Y-104994000D02*
X131852000Y-104994000D01*
X139505000Y-104954000D02*
X131767000Y-104954000D01*
X139588000Y-104914000D02*
X131684000Y-104914000D01*
X139669000Y-104875000D02*
X131603000Y-104875000D01*
X139749000Y-104835000D02*
X131523000Y-104835000D01*
X139826000Y-104795000D02*
X131446000Y-104795000D01*
X139901000Y-104755000D02*
X131371000Y-104755000D01*
X139975000Y-104715000D02*
X131297000Y-104715000D01*
X140048000Y-104675000D02*
X131224000Y-104675000D01*
X140118000Y-104635000D02*
X131154000Y-104635000D01*
X140188000Y-104595000D02*
X131084000Y-104595000D01*
X140256000Y-104555000D02*
X131016000Y-104555000D01*
X140322000Y-104515000D02*
X130950000Y-104515000D01*
X140388000Y-104475000D02*
X130884000Y-104475000D01*
X140452000Y-104435000D02*
X130820000Y-104435000D01*
X140515000Y-104395000D02*
X130757000Y-104395000D01*
X140577000Y-104355000D02*
X130695000Y-104355000D01*
X140638000Y-104315000D02*
X130634000Y-104315000D01*
X140698000Y-104275000D02*
X130574000Y-104275000D01*
X140751000Y-86954560D02*
X140751000Y-88754560D01*
X140756000Y-104235000D02*
X130516000Y-104235000D01*
X140814000Y-104195000D02*
X130458000Y-104195000D01*
X140871000Y-104155000D02*
X130401000Y-104155000D01*
X140927000Y-104115000D02*
X130345000Y-104115000D01*
X140982000Y-104075000D02*
X130290000Y-104075000D01*
X141036000Y-104035000D02*
X130236000Y-104035000D01*
X141090000Y-103995000D02*
X130182000Y-103995000D01*
X141142000Y-103955000D02*
X130130000Y-103955000D01*
X141194000Y-103915000D02*
X130078000Y-103915000D01*
X141245000Y-103875000D02*
X130027000Y-103875000D01*
X141296000Y-103835000D02*
X129976000Y-103835000D01*
X141345000Y-103795000D02*
X129927000Y-103795000D01*
X141394000Y-103755000D02*
X129878000Y-103755000D01*
X141442000Y-103715000D02*
X129830000Y-103715000D01*
X141490000Y-103675000D02*
X129782000Y-103675000D01*
X141537000Y-103635000D02*
X129735000Y-103635000D01*
X141583000Y-103595000D02*
X129689000Y-103595000D01*
X141629000Y-103555000D02*
X129643000Y-103555000D01*
X141651000Y-87854560D02*
X139851000Y-87854560D01*
X141674000Y-103515000D02*
X129598000Y-103515000D01*
X141718000Y-103475000D02*
X129554000Y-103475000D01*
X141762000Y-103435000D02*
X129510000Y-103435000D01*
X141806000Y-103395000D02*
X129466000Y-103395000D01*
X141848000Y-103355000D02*
X129424000Y-103355000D01*
X141890000Y-103315000D02*
X129382000Y-103315000D01*
X141932000Y-103275000D02*
X129340000Y-103275000D01*
X141973000Y-103235000D02*
X129299000Y-103235000D01*
X142014000Y-103195000D02*
X129258000Y-103195000D01*
X142054000Y-103155000D02*
X129218000Y-103155000D01*
X142094000Y-103115000D02*
X129178000Y-103115000D01*
X142133000Y-103075000D02*
X129139000Y-103075000D01*
X142172000Y-103035000D02*
X129100000Y-103035000D01*
X142210000Y-102995000D02*
X129062000Y-102995000D01*
X142248000Y-102955000D02*
X129024000Y-102955000D01*
X142285000Y-102915000D02*
X128987000Y-102915000D01*
X142322000Y-102875000D02*
X128950000Y-102875000D01*
X142358000Y-102835000D02*
X128914000Y-102835000D01*
X142394000Y-102795000D02*
X128878000Y-102795000D01*
X142430000Y-102755000D02*
X128842000Y-102755000D01*
X142465000Y-102715000D02*
X128807000Y-102715000D01*
X142500000Y-102675000D02*
X128772000Y-102675000D01*
X142534000Y-102635000D02*
X128738000Y-102635000D01*
X142568000Y-102595000D02*
X128704000Y-102595000D01*
X142601000Y-102555000D02*
X128671000Y-102555000D01*
X142635000Y-102515000D02*
X128637000Y-102515000D01*
X142667000Y-102475000D02*
X128605000Y-102475000D01*
X142700000Y-102435000D02*
X128572000Y-102435000D01*
X142732000Y-102395000D02*
X128540000Y-102395000D01*
X142763000Y-102355000D02*
X128509000Y-102355000D01*
X142795000Y-102315000D02*
X128477000Y-102315000D01*
X142826000Y-102275000D02*
X128446000Y-102275000D01*
X142856000Y-102235000D02*
X128416000Y-102235000D01*
X142886000Y-102195000D02*
X128386000Y-102195000D01*
X142916000Y-102155000D02*
X128356000Y-102155000D01*
X142946000Y-102115000D02*
X128326000Y-102115000D01*
X142975000Y-102075000D02*
X128297000Y-102075000D01*
X143004000Y-102035000D02*
X128268000Y-102035000D01*
X143033000Y-101995000D02*
X128239000Y-101995000D01*
X143061000Y-101955000D02*
X128211000Y-101955000D01*
X143089000Y-101915000D02*
X128183000Y-101915000D01*
X143116000Y-101875000D02*
X137076000Y-101875000D01*
X143144000Y-101835000D02*
X137076000Y-101835000D01*
X143171000Y-101795000D02*
X137076000Y-101795000D01*
X143197000Y-101755000D02*
X137076000Y-101755000D01*
X143224000Y-101715000D02*
X137076000Y-101715000D01*
X143250000Y-101675000D02*
X137076000Y-101675000D01*
X143276000Y-101635000D02*
X137076000Y-101635000D01*
X143301000Y-101595000D02*
X137076000Y-101595000D01*
X143326000Y-101555000D02*
X137076000Y-101555000D01*
X143351000Y-101515000D02*
X137076000Y-101515000D01*
X143376000Y-101475000D02*
X137076000Y-101475000D01*
X143400000Y-101435000D02*
X137076000Y-101435000D01*
X143424000Y-101395000D02*
X137076000Y-101395000D01*
X143448000Y-101355000D02*
X137076000Y-101355000D01*
X143471000Y-101315000D02*
X137076000Y-101315000D01*
X143495000Y-101275000D02*
X137076000Y-101275000D01*
X143518000Y-101235000D02*
X137076000Y-101235000D01*
X143540000Y-101195000D02*
X137076000Y-101195000D01*
X143563000Y-101155000D02*
X137076000Y-101155000D01*
X143585000Y-101115000D02*
X137076000Y-101115000D01*
X143607000Y-101075000D02*
X137076000Y-101075000D01*
X143628000Y-101035000D02*
X137076000Y-101035000D01*
X143650000Y-100995000D02*
X137076000Y-100995000D01*
X143671000Y-100955000D02*
X137076000Y-100955000D01*
X143692000Y-100915000D02*
X137076000Y-100915000D01*
X143712000Y-100875000D02*
X137076000Y-100875000D01*
X143733000Y-100835000D02*
X137076000Y-100835000D01*
X143753000Y-100795000D02*
X137076000Y-100795000D01*
X143773000Y-100755000D02*
X137076000Y-100755000D01*
X143792000Y-100715000D02*
X137076000Y-100715000D01*
X143812000Y-100675000D02*
X137076000Y-100675000D01*
X143831000Y-100635000D02*
X137076000Y-100635000D01*
X143850000Y-100595000D02*
X137076000Y-100595000D01*
X143869000Y-100555000D02*
X137076000Y-100555000D01*
X143887000Y-100515000D02*
X137076000Y-100515000D01*
X143905000Y-100475000D02*
X137076000Y-100475000D01*
X143923000Y-100435000D02*
X137076000Y-100435000D01*
X143941000Y-100395000D02*
X137076000Y-100395000D01*
X143959000Y-100355000D02*
X137076000Y-100355000D01*
X143976000Y-100315000D02*
X137076000Y-100315000D01*
X143993000Y-100275000D02*
X137076000Y-100275000D01*
X144010000Y-100235000D02*
X137076000Y-100235000D01*
X144026000Y-100195000D02*
X137076000Y-100195000D01*
X144043000Y-100155000D02*
X137076000Y-100155000D01*
X144059000Y-100115000D02*
X137076000Y-100115000D01*
X144075000Y-100075000D02*
X137076000Y-100075000D01*
X144091000Y-100035000D02*
X137076000Y-100035000D01*
X144106000Y-99995000D02*
X137076000Y-99995000D01*
X144122000Y-99955000D02*
X137076000Y-99955000D01*
X144137000Y-99915000D02*
X137076000Y-99915000D01*
X144152000Y-99875000D02*
X137076000Y-99875000D01*
X144166000Y-99835000D02*
X137076000Y-99835000D01*
X144181000Y-99795000D02*
X137076000Y-99795000D01*
X144195000Y-99755000D02*
X137076000Y-99755000D01*
X144209000Y-99715000D02*
X137076000Y-99715000D01*
X144223000Y-99675000D02*
X137076000Y-99675000D01*
X144236000Y-99635000D02*
X137076000Y-99635000D01*
X144250000Y-99595000D02*
X137076000Y-99595000D01*
X144263000Y-99555000D02*
X137076000Y-99555000D01*
X144276000Y-99515000D02*
X137076000Y-99515000D01*
X144289000Y-99475000D02*
X137076000Y-99475000D01*
X144301000Y-99435000D02*
X137076000Y-99435000D01*
X144314000Y-99395000D02*
X137076000Y-99395000D01*
X144326000Y-99355000D02*
X137076000Y-99355000D01*
X144338000Y-99315000D02*
X137076000Y-99315000D01*
X144350000Y-99275000D02*
X137076000Y-99275000D01*
X144361000Y-99235000D02*
X137076000Y-99235000D01*
X144373000Y-99195000D02*
X137076000Y-99195000D01*
X144384000Y-99155000D02*
X137076000Y-99155000D01*
X144395000Y-99115000D02*
X137076000Y-99115000D01*
X144406000Y-99075000D02*
X137076000Y-99075000D01*
X144416000Y-99035000D02*
X137076000Y-99035000D01*
X144427000Y-98995000D02*
X126845000Y-98995000D01*
X144437000Y-98955000D02*
X126835000Y-98955000D01*
X144447000Y-98915000D02*
X126825000Y-98915000D01*
X144457000Y-98875000D02*
X126815000Y-98875000D01*
X144467000Y-98835000D02*
X126805000Y-98835000D01*
X144476000Y-98795000D02*
X126796000Y-98795000D01*
X144485000Y-98755000D02*
X126787000Y-98755000D01*
X144494000Y-98715000D02*
X126778000Y-98715000D01*
X144503000Y-98675000D02*
X126769000Y-98675000D01*
X144512000Y-98635000D02*
X126760000Y-98635000D01*
X144521000Y-98595000D02*
X126751000Y-98595000D01*
X144529000Y-98555000D02*
X126743000Y-98555000D01*
X144537000Y-98515000D02*
X126735000Y-98515000D01*
X144545000Y-98475000D02*
X126727000Y-98475000D01*
X144553000Y-98435000D02*
X126719000Y-98435000D01*
X144560000Y-98395000D02*
X126712000Y-98395000D01*
X144568000Y-98355000D02*
X126704000Y-98355000D01*
X144575000Y-98315000D02*
X126697000Y-98315000D01*
X144582000Y-98275000D02*
X126690000Y-98275000D01*
X144589000Y-98235000D02*
X126683000Y-98235000D01*
X144596000Y-98195000D02*
X126676000Y-98195000D01*
X144602000Y-98155000D02*
X126670000Y-98155000D01*
X144608000Y-98115000D02*
X126664000Y-98115000D01*
X144615000Y-98075000D02*
X126657000Y-98075000D01*
X144620000Y-98035000D02*
X126652000Y-98035000D01*
X144626000Y-97995000D02*
X126646000Y-97995000D01*
X144632000Y-97955000D02*
X126640000Y-97955000D01*
X144637000Y-97915000D02*
X126635000Y-97915000D01*
X144642000Y-97875000D02*
X126630000Y-97875000D01*
X144647000Y-97835000D02*
X126625000Y-97835000D01*
X144652000Y-97795000D02*
X126620000Y-97795000D01*
X144657000Y-97755000D02*
X126615000Y-97755000D01*
X144662000Y-97715000D02*
X126610000Y-97715000D01*
X144666000Y-97675000D02*
X126606000Y-97675000D01*
X144670000Y-97635000D02*
X126602000Y-97635000D01*
X144674000Y-97595000D02*
X126598000Y-97595000D01*
X144678000Y-97555000D02*
X126594000Y-97555000D01*
X144681000Y-97515000D02*
X126591000Y-97515000D01*
X144685000Y-97475000D02*
X126587000Y-97475000D01*
X144688000Y-97435000D02*
X126584000Y-97435000D01*
X144691000Y-97394000D02*
X126581000Y-97394000D01*
X144694000Y-97354000D02*
X126578000Y-97354000D01*
X144697000Y-97314000D02*
X126575000Y-97314000D01*
X144699000Y-97274000D02*
X126573000Y-97274000D01*
X144702000Y-97234000D02*
X126570000Y-97234000D01*
X144704000Y-97194000D02*
X126568000Y-97194000D01*
X144706000Y-97154000D02*
X126566000Y-97154000D01*
X144708000Y-97114000D02*
X126564000Y-97114000D01*
X144709000Y-97074000D02*
X126563000Y-97074000D01*
X144711000Y-97034000D02*
X126561000Y-97034000D01*
X144712000Y-96994000D02*
X126560000Y-96994000D01*
X144713000Y-96954000D02*
X126559000Y-96954000D01*
X144714000Y-96914000D02*
X126558000Y-96914000D01*
X144715000Y-96874000D02*
X126557000Y-96874000D01*
X144716000Y-96754000D02*
X126556000Y-96754000D01*
X144716000Y-96794000D02*
X126556000Y-96794000D01*
X144716000Y-96834000D02*
X126556000Y-96834000D01*
X144717000Y-96714000D02*
X126555000Y-96714000D01*
X144756000Y-96714000D02*
G75*
G02*
X126516000Y-96714000I-9120000J0D01*
G01*
X126516000Y-96714000D02*
G75*
G02*
X144756000Y-96714000I9120000J0D01*
G01*
%TO.C,J6*%
D10*
X158242000Y-73660000D02*
X168402000Y-73660000D01*
X168402000Y-78740000D01*
X158242000Y-78740000D01*
X158242000Y-73660000D01*
D12*
%TO.C,D1*%
X93120000Y-71530000D02*
X93120000Y-80870000D01*
X93120000Y-80870000D02*
X95950000Y-80870000D01*
X95950000Y-71530000D02*
X93120000Y-71530000D01*
X99630000Y-71530000D02*
X102460000Y-71530000D01*
X102460000Y-71530000D02*
X102460000Y-80870000D01*
X102460000Y-72895000D02*
X93120000Y-72895000D01*
X102460000Y-73015000D02*
X93120000Y-73015000D01*
X102460000Y-73135000D02*
X93120000Y-73135000D01*
X102460000Y-80870000D02*
X99630000Y-80870000D01*
%TO.C,J5*%
D10*
X158242000Y-93472000D02*
X168402000Y-93472000D01*
X168402000Y-98552000D01*
X158242000Y-98552000D01*
X158242000Y-93472000D01*
%TO.C,J2*%
X64770000Y-79094000D02*
X74930000Y-79094000D01*
X74930000Y-84174000D01*
X64770000Y-84174000D01*
X64770000Y-79094000D01*
D12*
%TO.C,D2*%
X78388000Y-91850000D02*
X78388000Y-101190000D01*
X78388000Y-101190000D02*
X81218000Y-101190000D01*
X81218000Y-91850000D02*
X78388000Y-91850000D01*
X84898000Y-91850000D02*
X87728000Y-91850000D01*
X87728000Y-91850000D02*
X87728000Y-101190000D01*
X87728000Y-93215000D02*
X78388000Y-93215000D01*
X87728000Y-93335000D02*
X78388000Y-93335000D01*
X87728000Y-93455000D02*
X78388000Y-93455000D01*
X87728000Y-101190000D02*
X84898000Y-101190000D01*
%TO.C,J3*%
D10*
X146304000Y-83312000D02*
X156464000Y-83312000D01*
X156464000Y-88392000D01*
X146304000Y-88392000D01*
X146304000Y-83312000D01*
%TD*%
M02*
