%TF.GenerationSoftware,KiCad,Pcbnew,8.0.5*%
%TF.CreationDate,2024-11-22T10:32:01-05:00*%
%TF.ProjectId,power_supply,706f7765-725f-4737-9570-706c792e6b69,rev?*%
%TF.SameCoordinates,Original*%
%TF.FileFunction,Copper,L2,Bot*%
%TF.FilePolarity,Positive*%
%FSLAX46Y46*%
G04 Gerber Fmt 4.6, Leading zero omitted, Abs format (unit mm)*
G04 Created by KiCad (PCBNEW 8.0.5) date 2024-11-22 10:32:01*
%MOMM*%
%LPD*%
G01*
G04 APERTURE LIST*
%TA.AperFunction,ComponentPad*%
%ADD10C,1.600000*%
%TD*%
%TA.AperFunction,ComponentPad*%
%ADD11C,3.000000*%
%TD*%
%TA.AperFunction,ComponentPad*%
%ADD12C,5.600000*%
%TD*%
%TA.AperFunction,ComponentPad*%
%ADD13R,2.400000X2.400000*%
%TD*%
%TA.AperFunction,ComponentPad*%
%ADD14C,2.400000*%
%TD*%
%TA.AperFunction,ComponentPad*%
%ADD15R,3.200000X3.200000*%
%TD*%
%TA.AperFunction,ComponentPad*%
%ADD16O,3.200000X3.200000*%
%TD*%
G04 APERTURE END LIST*
D10*
%TO.P,C4,1*%
%TO.N,GND*%
X155092000Y-102164000D03*
%TO.P,C4,2*%
%TO.N,/V-*%
X150092000Y-102164000D03*
%TD*%
D11*
%TO.P,J5,1,1*%
%TO.N,/V-*%
X148844000Y-96012000D03*
%TO.P,J5,2,2*%
X153924000Y-96012000D03*
%TD*%
D12*
%TO.P,REF\u002A\u002A,1*%
%TO.N,GND*%
X165608000Y-104704000D03*
%TD*%
D13*
%TO.P,C2,1*%
%TO.N,GND*%
X114300000Y-92576000D03*
D14*
%TO.P,C2,2*%
%TO.N,/V-*%
X114300000Y-100076000D03*
%TD*%
D15*
%TO.P,D4,1,K*%
%TO.N,/AC1*%
X97790000Y-90170000D03*
D16*
%TO.P,D4,2,A*%
%TO.N,/V-*%
X97790000Y-102870000D03*
%TD*%
D12*
%TO.P,REF\u002A\u002A,1*%
%TO.N,GND*%
X67310000Y-66294000D03*
%TD*%
D13*
%TO.P,C5,1*%
%TO.N,/V+*%
X135636000Y-72256000D03*
D14*
%TO.P,C5,2*%
%TO.N,GND*%
X135636000Y-79756000D03*
%TD*%
D11*
%TO.P,J3,1,1*%
%TO.N,GND*%
X160782000Y-85852000D03*
%TO.P,J3,2,2*%
X165862000Y-85852000D03*
%TD*%
D15*
%TO.P,D3,1,K*%
%TO.N,/V+*%
X83058000Y-69850000D03*
D16*
%TO.P,D3,2,A*%
%TO.N,/AC2*%
X83058000Y-82550000D03*
%TD*%
D11*
%TO.P,J1,1,1*%
%TO.N,/AC1*%
X67310000Y-89154000D03*
%TO.P,J1,2,2*%
X72390000Y-89154000D03*
%TD*%
D12*
%TO.P,REF\u002A\u002A,1*%
%TO.N,GND*%
X67310000Y-104648000D03*
%TD*%
D13*
%TO.P,C1,1*%
%TO.N,/V+*%
X114300000Y-72256000D03*
D14*
%TO.P,C1,2*%
%TO.N,GND*%
X114300000Y-79756000D03*
%TD*%
D12*
%TO.P,REF\u002A\u002A,1*%
%TO.N,GND*%
X165608000Y-66040000D03*
%TD*%
D11*
%TO.P,J6,1,1*%
%TO.N,/V+*%
X148844000Y-76200000D03*
%TO.P,J6,2,2*%
X153924000Y-76200000D03*
%TD*%
D10*
%TO.P,C3,1*%
%TO.N,/V+*%
X150092000Y-69652000D03*
%TO.P,C3,2*%
%TO.N,GND*%
X155092000Y-69652000D03*
%TD*%
D11*
%TO.P,J4,1,1*%
%TO.N,/AC2*%
X67310000Y-74268000D03*
%TO.P,J4,2,2*%
X72390000Y-74268000D03*
%TD*%
D13*
%TO.P,C6,1*%
%TO.N,GND*%
X135636000Y-92964000D03*
D14*
%TO.P,C6,2*%
%TO.N,/V-*%
X135636000Y-100464000D03*
%TD*%
D11*
%TO.P,J6,1,1*%
%TO.N,/V+*%
X160782000Y-76200000D03*
%TO.P,J6,2,2*%
X165862000Y-76200000D03*
%TD*%
D15*
%TO.P,D1,1,K*%
%TO.N,/V+*%
X97790000Y-69850000D03*
D16*
%TO.P,D1,2,A*%
%TO.N,/AC1*%
X97790000Y-82550000D03*
%TD*%
D11*
%TO.P,J5,1,1*%
%TO.N,/V-*%
X160782000Y-96012000D03*
%TO.P,J5,2,2*%
X165862000Y-96012000D03*
%TD*%
%TO.P,J2,1,1*%
%TO.N,GND*%
X67310000Y-81634000D03*
%TO.P,J2,2,2*%
X72390000Y-81634000D03*
%TD*%
D15*
%TO.P,D2,1,K*%
%TO.N,/AC2*%
X83058000Y-90170000D03*
D16*
%TO.P,D2,2,A*%
%TO.N,/V-*%
X83058000Y-102870000D03*
%TD*%
D11*
%TO.P,J3,1,1*%
%TO.N,GND*%
X148844000Y-85852000D03*
%TO.P,J3,2,2*%
X153924000Y-85852000D03*
%TD*%
%TA.AperFunction,Conductor*%
%TO.N,GND*%
G36*
X166167471Y-62230195D02*
G01*
X166208136Y-62232478D01*
X166492949Y-62248473D01*
X166506748Y-62250027D01*
X166824695Y-62304049D01*
X166838252Y-62307143D01*
X167148148Y-62396423D01*
X167161272Y-62401016D01*
X167459215Y-62524427D01*
X167471737Y-62530456D01*
X167754006Y-62686461D01*
X167765779Y-62693859D01*
X168028789Y-62880475D01*
X168039649Y-62889135D01*
X168156993Y-62994000D01*
X168280127Y-63104039D01*
X168289958Y-63113870D01*
X168388266Y-63223877D01*
X168504859Y-63354344D01*
X168513528Y-63365216D01*
X168700139Y-63628219D01*
X168707538Y-63639993D01*
X168863539Y-63922255D01*
X168869572Y-63934784D01*
X168992983Y-64232727D01*
X168997576Y-64245851D01*
X169086856Y-64555747D01*
X169089950Y-64569304D01*
X169143970Y-64887240D01*
X169145527Y-64901058D01*
X169163805Y-65226527D01*
X169164000Y-65233480D01*
X169164000Y-105454519D01*
X169163805Y-105461472D01*
X169145527Y-105786941D01*
X169143970Y-105800759D01*
X169089950Y-106118695D01*
X169086856Y-106132252D01*
X168997576Y-106442148D01*
X168992983Y-106455272D01*
X168869572Y-106753215D01*
X168863539Y-106765744D01*
X168707538Y-107048006D01*
X168700139Y-107059780D01*
X168513528Y-107322783D01*
X168504859Y-107333655D01*
X168289960Y-107574127D01*
X168280127Y-107583960D01*
X168039655Y-107798859D01*
X168028783Y-107807528D01*
X167765780Y-107994139D01*
X167754006Y-108001538D01*
X167471744Y-108157539D01*
X167459215Y-108163572D01*
X167161272Y-108286983D01*
X167148148Y-108291576D01*
X166838252Y-108380856D01*
X166824695Y-108383950D01*
X166506759Y-108437970D01*
X166492941Y-108439527D01*
X166167472Y-108457805D01*
X166160519Y-108458000D01*
X66249481Y-108458000D01*
X66242528Y-108457805D01*
X65917058Y-108439527D01*
X65903240Y-108437970D01*
X65585304Y-108383950D01*
X65571747Y-108380856D01*
X65261851Y-108291576D01*
X65248727Y-108286983D01*
X64950784Y-108163572D01*
X64938255Y-108157539D01*
X64655993Y-108001538D01*
X64644219Y-107994139D01*
X64381216Y-107807528D01*
X64370344Y-107798859D01*
X64342664Y-107774123D01*
X64129870Y-107583958D01*
X64120039Y-107574127D01*
X63949586Y-107383390D01*
X63905135Y-107333649D01*
X63896475Y-107322789D01*
X63709859Y-107059779D01*
X63702461Y-107048006D01*
X63595239Y-106854002D01*
X63546456Y-106765737D01*
X63540427Y-106753215D01*
X63417016Y-106455272D01*
X63412423Y-106442148D01*
X63323143Y-106132252D01*
X63320049Y-106118695D01*
X63266027Y-105800748D01*
X63264473Y-105786949D01*
X63246195Y-105461471D01*
X63246000Y-105454519D01*
X63246000Y-104647997D01*
X64005153Y-104647997D01*
X64005153Y-104648002D01*
X64024526Y-105005314D01*
X64024527Y-105005331D01*
X64082415Y-105358431D01*
X64082421Y-105358457D01*
X64178147Y-105703232D01*
X64178149Y-105703239D01*
X64310597Y-106035659D01*
X64310606Y-106035677D01*
X64478218Y-106351827D01*
X64679024Y-106647994D01*
X64679035Y-106648008D01*
X64806441Y-106798002D01*
X64806442Y-106798002D01*
X66015747Y-105588697D01*
X66089588Y-105690330D01*
X66267670Y-105868412D01*
X66369300Y-105942251D01*
X65157257Y-107154294D01*
X65170495Y-107166836D01*
X65455367Y-107383388D01*
X65455370Y-107383390D01*
X65761990Y-107567876D01*
X66086739Y-107718122D01*
X66086744Y-107718123D01*
X66425855Y-107832383D01*
X66775339Y-107909311D01*
X67131075Y-107947999D01*
X67131085Y-107948000D01*
X67488915Y-107948000D01*
X67488924Y-107947999D01*
X67844660Y-107909311D01*
X68194144Y-107832383D01*
X68533255Y-107718123D01*
X68533260Y-107718122D01*
X68858009Y-107567876D01*
X69164629Y-107383390D01*
X69164632Y-107383388D01*
X69449509Y-107166831D01*
X69462742Y-107154295D01*
X69462742Y-107154294D01*
X68250699Y-105942251D01*
X68352330Y-105868412D01*
X68530412Y-105690330D01*
X68604251Y-105588698D01*
X69813556Y-106798002D01*
X69940972Y-106647998D01*
X69940975Y-106647994D01*
X70141781Y-106351827D01*
X70309393Y-106035677D01*
X70309402Y-106035659D01*
X70441850Y-105703239D01*
X70441852Y-105703232D01*
X70537578Y-105358457D01*
X70537584Y-105358431D01*
X70595472Y-105005331D01*
X70595473Y-105005314D01*
X70614847Y-104648002D01*
X70614847Y-104647997D01*
X70595473Y-104290685D01*
X70595472Y-104290668D01*
X70537584Y-103937568D01*
X70537578Y-103937542D01*
X70441852Y-103592767D01*
X70441850Y-103592760D01*
X70309402Y-103260340D01*
X70309393Y-103260322D01*
X70141781Y-102944172D01*
X70091491Y-102870000D01*
X80952592Y-102870000D01*
X80972201Y-103156680D01*
X80972201Y-103156684D01*
X80972202Y-103156686D01*
X80990143Y-103243024D01*
X81030666Y-103438034D01*
X81030667Y-103438037D01*
X81126894Y-103708793D01*
X81126893Y-103708793D01*
X81259098Y-103963935D01*
X81424812Y-104198700D01*
X81494514Y-104273332D01*
X81620947Y-104408708D01*
X81843853Y-104590055D01*
X81939137Y-104647999D01*
X82089382Y-104739365D01*
X82276237Y-104820526D01*
X82352942Y-104853844D01*
X82629642Y-104931371D01*
X82879920Y-104965771D01*
X82914321Y-104970500D01*
X82914322Y-104970500D01*
X83201679Y-104970500D01*
X83232370Y-104966281D01*
X83486358Y-104931371D01*
X83763058Y-104853844D01*
X83876015Y-104804779D01*
X84026617Y-104739365D01*
X84026620Y-104739363D01*
X84026625Y-104739361D01*
X84272147Y-104590055D01*
X84495053Y-104408708D01*
X84691189Y-104198698D01*
X84856901Y-103963936D01*
X84989104Y-103708797D01*
X85085334Y-103438032D01*
X85143798Y-103156686D01*
X85163408Y-102870000D01*
X95684592Y-102870000D01*
X95704201Y-103156680D01*
X95704201Y-103156684D01*
X95704202Y-103156686D01*
X95722143Y-103243024D01*
X95762666Y-103438034D01*
X95762667Y-103438037D01*
X95858894Y-103708793D01*
X95858893Y-103708793D01*
X95991098Y-103963935D01*
X96156812Y-104198700D01*
X96226514Y-104273332D01*
X96352947Y-104408708D01*
X96575853Y-104590055D01*
X96671137Y-104647999D01*
X96821382Y-104739365D01*
X97008237Y-104820526D01*
X97084942Y-104853844D01*
X97361642Y-104931371D01*
X97611920Y-104965771D01*
X97646321Y-104970500D01*
X97646322Y-104970500D01*
X97933679Y-104970500D01*
X97964370Y-104966281D01*
X98218358Y-104931371D01*
X98495058Y-104853844D01*
X98608015Y-104804779D01*
X98758617Y-104739365D01*
X98758620Y-104739363D01*
X98758625Y-104739361D01*
X98816778Y-104703997D01*
X162303153Y-104703997D01*
X162303153Y-104704002D01*
X162322526Y-105061314D01*
X162322527Y-105061331D01*
X162380415Y-105414431D01*
X162380421Y-105414457D01*
X162476147Y-105759232D01*
X162476149Y-105759239D01*
X162608597Y-106091659D01*
X162608606Y-106091677D01*
X162776218Y-106407827D01*
X162977024Y-106703994D01*
X162977035Y-106704008D01*
X163104441Y-106854002D01*
X163104442Y-106854002D01*
X164313747Y-105644697D01*
X164387588Y-105746330D01*
X164565670Y-105924412D01*
X164667300Y-105998251D01*
X163455257Y-107210294D01*
X163468495Y-107222836D01*
X163753367Y-107439388D01*
X163753370Y-107439390D01*
X164059990Y-107623876D01*
X164384739Y-107774122D01*
X164384744Y-107774123D01*
X164723855Y-107888383D01*
X165073339Y-107965311D01*
X165429075Y-108003999D01*
X165429085Y-108004000D01*
X165786915Y-108004000D01*
X165786924Y-108003999D01*
X166142660Y-107965311D01*
X166492144Y-107888383D01*
X166831255Y-107774123D01*
X166831260Y-107774122D01*
X167156009Y-107623876D01*
X167462629Y-107439390D01*
X167462632Y-107439388D01*
X167747509Y-107222831D01*
X167760742Y-107210295D01*
X167760742Y-107210294D01*
X166548699Y-105998251D01*
X166650330Y-105924412D01*
X166828412Y-105746330D01*
X166902251Y-105644698D01*
X168111556Y-106854002D01*
X168238972Y-106703998D01*
X168238975Y-106703994D01*
X168439781Y-106407827D01*
X168607393Y-106091677D01*
X168607402Y-106091659D01*
X168739850Y-105759239D01*
X168739852Y-105759232D01*
X168835578Y-105414457D01*
X168835584Y-105414431D01*
X168893472Y-105061331D01*
X168893473Y-105061314D01*
X168912847Y-104704002D01*
X168912847Y-104703997D01*
X168893473Y-104346685D01*
X168893472Y-104346668D01*
X168835584Y-103993568D01*
X168835578Y-103993542D01*
X168739852Y-103648767D01*
X168739850Y-103648760D01*
X168607402Y-103316340D01*
X168607393Y-103316322D01*
X168439781Y-103000172D01*
X168238975Y-102704005D01*
X168238964Y-102703991D01*
X168111556Y-102553996D01*
X166902251Y-103763301D01*
X166828412Y-103661670D01*
X166650330Y-103483588D01*
X166548698Y-103409748D01*
X167760742Y-102197704D01*
X167747504Y-102185163D01*
X167462632Y-101968611D01*
X167462629Y-101968609D01*
X167156009Y-101784123D01*
X166831260Y-101633877D01*
X166831255Y-101633876D01*
X166492144Y-101519616D01*
X166142660Y-101442688D01*
X165786924Y-101404000D01*
X165429075Y-101404000D01*
X165073339Y-101442688D01*
X164723855Y-101519616D01*
X164384744Y-101633876D01*
X164384739Y-101633877D01*
X164059990Y-101784123D01*
X163753370Y-101968609D01*
X163753367Y-101968611D01*
X163468486Y-102185170D01*
X163468485Y-102185171D01*
X163455257Y-102197702D01*
X163455256Y-102197703D01*
X164667301Y-103409748D01*
X164565670Y-103483588D01*
X164387588Y-103661670D01*
X164313748Y-103763301D01*
X163104442Y-102553995D01*
X163104441Y-102553996D01*
X162977033Y-102703992D01*
X162776218Y-103000172D01*
X162608606Y-103316322D01*
X162608597Y-103316340D01*
X162476149Y-103648760D01*
X162476147Y-103648767D01*
X162380421Y-103993542D01*
X162380415Y-103993568D01*
X162322527Y-104346668D01*
X162322526Y-104346685D01*
X162303153Y-104703997D01*
X98816778Y-104703997D01*
X99004147Y-104590055D01*
X99227053Y-104408708D01*
X99423189Y-104198698D01*
X99588901Y-103963936D01*
X99721104Y-103708797D01*
X99817334Y-103438032D01*
X99875798Y-103156686D01*
X99895408Y-102870000D01*
X99875798Y-102583314D01*
X99817334Y-102301968D01*
X99721105Y-102031206D01*
X99721106Y-102031206D01*
X99588901Y-101776064D01*
X99423187Y-101541299D01*
X99299843Y-101409231D01*
X99227053Y-101331292D01*
X99098452Y-101226667D01*
X99004146Y-101149944D01*
X98758617Y-101000634D01*
X98495063Y-100886158D01*
X98495061Y-100886157D01*
X98495058Y-100886156D01*
X98365578Y-100849877D01*
X98218364Y-100808630D01*
X98218359Y-100808629D01*
X98218358Y-100808629D01*
X98076018Y-100789064D01*
X97933679Y-100769500D01*
X97933678Y-100769500D01*
X97646322Y-100769500D01*
X97646321Y-100769500D01*
X97361642Y-100808629D01*
X97361635Y-100808630D01*
X97153861Y-100866845D01*
X97084942Y-100886156D01*
X97084939Y-100886156D01*
X97084936Y-100886158D01*
X97084935Y-100886158D01*
X96821382Y-101000634D01*
X96575853Y-101149944D01*
X96352950Y-101331289D01*
X96156812Y-101541299D01*
X95991098Y-101776064D01*
X95858894Y-102031206D01*
X95762667Y-102301962D01*
X95762666Y-102301965D01*
X95704201Y-102583319D01*
X95684592Y-102870000D01*
X85163408Y-102870000D01*
X85143798Y-102583314D01*
X85085334Y-102301968D01*
X84989105Y-102031206D01*
X84989106Y-102031206D01*
X84856901Y-101776064D01*
X84691187Y-101541299D01*
X84567843Y-101409231D01*
X84495053Y-101331292D01*
X84366452Y-101226667D01*
X84272146Y-101149944D01*
X84026617Y-101000634D01*
X83763063Y-100886158D01*
X83763061Y-100886157D01*
X83763058Y-100886156D01*
X83633578Y-100849877D01*
X83486364Y-100808630D01*
X83486359Y-100808629D01*
X83486358Y-100808629D01*
X83344018Y-100789064D01*
X83201679Y-100769500D01*
X83201678Y-100769500D01*
X82914322Y-100769500D01*
X82914321Y-100769500D01*
X82629642Y-100808629D01*
X82629635Y-100808630D01*
X82421861Y-100866845D01*
X82352942Y-100886156D01*
X82352939Y-100886156D01*
X82352936Y-100886158D01*
X82352935Y-100886158D01*
X82089382Y-101000634D01*
X81843853Y-101149944D01*
X81620950Y-101331289D01*
X81424812Y-101541299D01*
X81259098Y-101776064D01*
X81126894Y-102031206D01*
X81030667Y-102301962D01*
X81030666Y-102301965D01*
X80972201Y-102583319D01*
X80952592Y-102870000D01*
X70091491Y-102870000D01*
X69940975Y-102648005D01*
X69940964Y-102647991D01*
X69813556Y-102497996D01*
X68604251Y-103707301D01*
X68530412Y-103605670D01*
X68352330Y-103427588D01*
X68250698Y-103353748D01*
X69462742Y-102141704D01*
X69449504Y-102129163D01*
X69164632Y-101912611D01*
X69164629Y-101912609D01*
X68858009Y-101728123D01*
X68533260Y-101577877D01*
X68533255Y-101577876D01*
X68194144Y-101463616D01*
X67844660Y-101386688D01*
X67488924Y-101348000D01*
X67131075Y-101348000D01*
X66775339Y-101386688D01*
X66425855Y-101463616D01*
X66086744Y-101577876D01*
X66086739Y-101577877D01*
X65761990Y-101728123D01*
X65455370Y-101912609D01*
X65455367Y-101912611D01*
X65170486Y-102129170D01*
X65170485Y-102129171D01*
X65157257Y-102141702D01*
X65157256Y-102141703D01*
X66369301Y-103353748D01*
X66267670Y-103427588D01*
X66089588Y-103605670D01*
X66015748Y-103707301D01*
X64806442Y-102497995D01*
X64806441Y-102497996D01*
X64679033Y-102647992D01*
X64478218Y-102944172D01*
X64310606Y-103260322D01*
X64310597Y-103260340D01*
X64178149Y-103592760D01*
X64178147Y-103592767D01*
X64082421Y-103937542D01*
X64082415Y-103937568D01*
X64024527Y-104290668D01*
X64024526Y-104290685D01*
X64005153Y-104647997D01*
X63246000Y-104647997D01*
X63246000Y-100075995D01*
X112594732Y-100075995D01*
X112594732Y-100076004D01*
X112613777Y-100330154D01*
X112644327Y-100464004D01*
X112670492Y-100578637D01*
X112763607Y-100815888D01*
X112891041Y-101036612D01*
X113049950Y-101235877D01*
X113236783Y-101409232D01*
X113447366Y-101552805D01*
X113447371Y-101552807D01*
X113447372Y-101552808D01*
X113447373Y-101552809D01*
X113569328Y-101611538D01*
X113676992Y-101663387D01*
X113676993Y-101663387D01*
X113676996Y-101663389D01*
X113920542Y-101738513D01*
X114172565Y-101776500D01*
X114427435Y-101776500D01*
X114679458Y-101738513D01*
X114923004Y-101663389D01*
X115152634Y-101552805D01*
X115363217Y-101409232D01*
X115550050Y-101235877D01*
X115708959Y-101036612D01*
X115836393Y-100815888D01*
X115929508Y-100578637D01*
X115955674Y-100463995D01*
X133930732Y-100463995D01*
X133930732Y-100464004D01*
X133949777Y-100718154D01*
X133988122Y-100886156D01*
X134006492Y-100966637D01*
X134099607Y-101203888D01*
X134227041Y-101424612D01*
X134385950Y-101623877D01*
X134572783Y-101797232D01*
X134783366Y-101940805D01*
X134783371Y-101940807D01*
X134783372Y-101940808D01*
X134783373Y-101940809D01*
X134905328Y-101999538D01*
X135012992Y-102051387D01*
X135012993Y-102051387D01*
X135012996Y-102051389D01*
X135256542Y-102126513D01*
X135508565Y-102164500D01*
X135763435Y-102164500D01*
X135766765Y-102163998D01*
X148786532Y-102163998D01*
X148786532Y-102164001D01*
X148806364Y-102390686D01*
X148806366Y-102390697D01*
X148865258Y-102610488D01*
X148865261Y-102610497D01*
X148961431Y-102816732D01*
X148961432Y-102816734D01*
X149091954Y-103003141D01*
X149252858Y-103164045D01*
X149252861Y-103164047D01*
X149439266Y-103294568D01*
X149645504Y-103390739D01*
X149865308Y-103449635D01*
X150027230Y-103463801D01*
X150091998Y-103469468D01*
X150092000Y-103469468D01*
X150092002Y-103469468D01*
X150148673Y-103464509D01*
X150318692Y-103449635D01*
X150538496Y-103390739D01*
X150744734Y-103294568D01*
X150931139Y-103164047D01*
X151092047Y-103003139D01*
X151222568Y-102816734D01*
X151318739Y-102610496D01*
X151377635Y-102390692D01*
X151395616Y-102185170D01*
X151397468Y-102164001D01*
X151397468Y-102163998D01*
X151397468Y-102163997D01*
X153787034Y-102163997D01*
X153787034Y-102164002D01*
X153806858Y-102390599D01*
X153806860Y-102390610D01*
X153865730Y-102610317D01*
X153865735Y-102610331D01*
X153961863Y-102816478D01*
X154012974Y-102889472D01*
X154692000Y-102210446D01*
X154692000Y-102216661D01*
X154719259Y-102318394D01*
X154771920Y-102409606D01*
X154846394Y-102484080D01*
X154937606Y-102536741D01*
X155039339Y-102564000D01*
X155045553Y-102564000D01*
X154366526Y-103243025D01*
X154439513Y-103294132D01*
X154439521Y-103294136D01*
X154645668Y-103390264D01*
X154645682Y-103390269D01*
X154865389Y-103449139D01*
X154865400Y-103449141D01*
X155091998Y-103468966D01*
X155092002Y-103468966D01*
X155318599Y-103449141D01*
X155318610Y-103449139D01*
X155538317Y-103390269D01*
X155538331Y-103390264D01*
X155744478Y-103294136D01*
X155817471Y-103243024D01*
X155138447Y-102564000D01*
X155144661Y-102564000D01*
X155246394Y-102536741D01*
X155337606Y-102484080D01*
X155412080Y-102409606D01*
X155464741Y-102318394D01*
X155492000Y-102216661D01*
X155492000Y-102210447D01*
X156171024Y-102889471D01*
X156222136Y-102816478D01*
X156318264Y-102610331D01*
X156318269Y-102610317D01*
X156377139Y-102390610D01*
X156377141Y-102390599D01*
X156396966Y-102164002D01*
X156396966Y-102163997D01*
X156377141Y-101937400D01*
X156377139Y-101937389D01*
X156318269Y-101717682D01*
X156318264Y-101717668D01*
X156222136Y-101511521D01*
X156222132Y-101511513D01*
X156171025Y-101438526D01*
X155492000Y-102117551D01*
X155492000Y-102111339D01*
X155464741Y-102009606D01*
X155412080Y-101918394D01*
X155337606Y-101843920D01*
X155246394Y-101791259D01*
X155144661Y-101764000D01*
X155138448Y-101764000D01*
X155817472Y-101084974D01*
X155744478Y-101033863D01*
X155538331Y-100937735D01*
X155538317Y-100937730D01*
X155318610Y-100878860D01*
X155318599Y-100878858D01*
X155092002Y-100859034D01*
X155091998Y-100859034D01*
X154865400Y-100878858D01*
X154865389Y-100878860D01*
X154645682Y-100937730D01*
X154645673Y-100937734D01*
X154439516Y-101033866D01*
X154439512Y-101033868D01*
X154366526Y-101084973D01*
X154366526Y-101084974D01*
X155045553Y-101764000D01*
X155039339Y-101764000D01*
X154937606Y-101791259D01*
X154846394Y-101843920D01*
X154771920Y-101918394D01*
X154719259Y-102009606D01*
X154692000Y-102111339D01*
X154692000Y-102117552D01*
X154012974Y-101438526D01*
X154012973Y-101438526D01*
X153961868Y-101511512D01*
X153961866Y-101511516D01*
X153865734Y-101717673D01*
X153865730Y-101717682D01*
X153806860Y-101937389D01*
X153806858Y-101937400D01*
X153787034Y-102163997D01*
X151397468Y-102163997D01*
X151387616Y-102051389D01*
X151377635Y-101937308D01*
X151318739Y-101717504D01*
X151222568Y-101511266D01*
X151092047Y-101324861D01*
X151092045Y-101324858D01*
X150931141Y-101163954D01*
X150744734Y-101033432D01*
X150744732Y-101033431D01*
X150538497Y-100937261D01*
X150538488Y-100937258D01*
X150318697Y-100878366D01*
X150318693Y-100878365D01*
X150318692Y-100878365D01*
X150318691Y-100878364D01*
X150318686Y-100878364D01*
X150092002Y-100858532D01*
X150091998Y-100858532D01*
X149865313Y-100878364D01*
X149865302Y-100878366D01*
X149645511Y-100937258D01*
X149645502Y-100937261D01*
X149439267Y-101033431D01*
X149439265Y-101033432D01*
X149252858Y-101163954D01*
X149091954Y-101324858D01*
X148961432Y-101511265D01*
X148961431Y-101511267D01*
X148865261Y-101717502D01*
X148865258Y-101717511D01*
X148806366Y-101937302D01*
X148806364Y-101937313D01*
X148786532Y-102163998D01*
X135766765Y-102163998D01*
X136015458Y-102126513D01*
X136259004Y-102051389D01*
X136488634Y-101940805D01*
X136699217Y-101797232D01*
X136886050Y-101623877D01*
X137044959Y-101424612D01*
X137172393Y-101203888D01*
X137265508Y-100966637D01*
X137322222Y-100718157D01*
X137341268Y-100464000D01*
X137322222Y-100209843D01*
X137265508Y-99961363D01*
X137172393Y-99724112D01*
X137044959Y-99503388D01*
X136886050Y-99304123D01*
X136699217Y-99130768D01*
X136488634Y-98987195D01*
X136488630Y-98987193D01*
X136488627Y-98987191D01*
X136488626Y-98987190D01*
X136259006Y-98876612D01*
X136259008Y-98876612D01*
X136015466Y-98801489D01*
X136015462Y-98801488D01*
X136015458Y-98801487D01*
X135894231Y-98783214D01*
X135763440Y-98763500D01*
X135763435Y-98763500D01*
X135508565Y-98763500D01*
X135508559Y-98763500D01*
X135351609Y-98787157D01*
X135256542Y-98801487D01*
X135256539Y-98801488D01*
X135256533Y-98801489D01*
X135012992Y-98876612D01*
X134783373Y-98987190D01*
X134783372Y-98987191D01*
X134572782Y-99130768D01*
X134385952Y-99304121D01*
X134385950Y-99304123D01*
X134227041Y-99503388D01*
X134099608Y-99724109D01*
X134006492Y-99961362D01*
X134006490Y-99961369D01*
X133949777Y-100209845D01*
X133930732Y-100463995D01*
X115955674Y-100463995D01*
X115986222Y-100330157D01*
X116005268Y-100076000D01*
X115986222Y-99821843D01*
X115929508Y-99573363D01*
X115836393Y-99336112D01*
X115708959Y-99115388D01*
X115550050Y-98916123D01*
X115363217Y-98742768D01*
X115152634Y-98599195D01*
X115152630Y-98599193D01*
X115152627Y-98599191D01*
X115152626Y-98599190D01*
X114923006Y-98488612D01*
X114923008Y-98488612D01*
X114679466Y-98413489D01*
X114679462Y-98413488D01*
X114679458Y-98413487D01*
X114558231Y-98395214D01*
X114427440Y-98375500D01*
X114427435Y-98375500D01*
X114172565Y-98375500D01*
X114172559Y-98375500D01*
X114015609Y-98399157D01*
X113920542Y-98413487D01*
X113920539Y-98413488D01*
X113920533Y-98413489D01*
X113676992Y-98488612D01*
X113447373Y-98599190D01*
X113447372Y-98599191D01*
X113236782Y-98742768D01*
X113049952Y-98916121D01*
X113049950Y-98916123D01*
X112891041Y-99115388D01*
X112763608Y-99336109D01*
X112670492Y-99573362D01*
X112670490Y-99573369D01*
X112613777Y-99821845D01*
X112594732Y-100075995D01*
X63246000Y-100075995D01*
X63246000Y-96011998D01*
X146838390Y-96011998D01*
X146838390Y-96012001D01*
X146858804Y-96297433D01*
X146919628Y-96577037D01*
X147019635Y-96845166D01*
X147156770Y-97096309D01*
X147156775Y-97096317D01*
X147328254Y-97325387D01*
X147328270Y-97325405D01*
X147530594Y-97527729D01*
X147530612Y-97527745D01*
X147759682Y-97699224D01*
X147759690Y-97699229D01*
X148010833Y-97836364D01*
X148010832Y-97836364D01*
X148010836Y-97836365D01*
X148010839Y-97836367D01*
X148278954Y-97936369D01*
X148278960Y-97936370D01*
X148278962Y-97936371D01*
X148558566Y-97997195D01*
X148558568Y-97997195D01*
X148558572Y-97997196D01*
X148812220Y-98015337D01*
X148843999Y-98017610D01*
X148844000Y-98017610D01*
X148844001Y-98017610D01*
X148872595Y-98015564D01*
X149129428Y-97997196D01*
X149409046Y-97936369D01*
X149677161Y-97836367D01*
X149928315Y-97699226D01*
X150157395Y-97527739D01*
X150359739Y-97325395D01*
X150531226Y-97096315D01*
X150668367Y-96845161D01*
X150768369Y-96577046D01*
X150829196Y-96297428D01*
X150849610Y-96012000D01*
X150849610Y-96011998D01*
X151918390Y-96011998D01*
X151918390Y-96012001D01*
X151938804Y-96297433D01*
X151999628Y-96577037D01*
X152099635Y-96845166D01*
X152236770Y-97096309D01*
X152236775Y-97096317D01*
X152408254Y-97325387D01*
X152408270Y-97325405D01*
X152610594Y-97527729D01*
X152610612Y-97527745D01*
X152839682Y-97699224D01*
X152839690Y-97699229D01*
X153090833Y-97836364D01*
X153090832Y-97836364D01*
X153090836Y-97836365D01*
X153090839Y-97836367D01*
X153358954Y-97936369D01*
X153358960Y-97936370D01*
X153358962Y-97936371D01*
X153638566Y-97997195D01*
X153638568Y-97997195D01*
X153638572Y-97997196D01*
X153892220Y-98015337D01*
X153923999Y-98017610D01*
X153924000Y-98017610D01*
X153924001Y-98017610D01*
X153952595Y-98015564D01*
X154209428Y-97997196D01*
X154489046Y-97936369D01*
X154757161Y-97836367D01*
X155008315Y-97699226D01*
X155237395Y-97527739D01*
X155439739Y-97325395D01*
X155611226Y-97096315D01*
X155748367Y-96845161D01*
X155848369Y-96577046D01*
X155909196Y-96297428D01*
X155929610Y-96012000D01*
X155929610Y-96011998D01*
X158776390Y-96011998D01*
X158776390Y-96012001D01*
X158796804Y-96297433D01*
X158857628Y-96577037D01*
X158957635Y-96845166D01*
X159094770Y-97096309D01*
X159094775Y-97096317D01*
X159266254Y-97325387D01*
X159266270Y-97325405D01*
X159468594Y-97527729D01*
X159468612Y-97527745D01*
X159697682Y-97699224D01*
X159697690Y-97699229D01*
X159948833Y-97836364D01*
X159948832Y-97836364D01*
X159948836Y-97836365D01*
X159948839Y-97836367D01*
X160216954Y-97936369D01*
X160216960Y-97936370D01*
X160216962Y-97936371D01*
X160496566Y-97997195D01*
X160496568Y-97997195D01*
X160496572Y-97997196D01*
X160750220Y-98015337D01*
X160781999Y-98017610D01*
X160782000Y-98017610D01*
X160782001Y-98017610D01*
X160810595Y-98015564D01*
X161067428Y-97997196D01*
X161347046Y-97936369D01*
X161615161Y-97836367D01*
X161866315Y-97699226D01*
X162095395Y-97527739D01*
X162297739Y-97325395D01*
X162469226Y-97096315D01*
X162606367Y-96845161D01*
X162706369Y-96577046D01*
X162767196Y-96297428D01*
X162787610Y-96012000D01*
X162787610Y-96011998D01*
X163856390Y-96011998D01*
X163856390Y-96012001D01*
X163876804Y-96297433D01*
X163937628Y-96577037D01*
X164037635Y-96845166D01*
X164174770Y-97096309D01*
X164174775Y-97096317D01*
X164346254Y-97325387D01*
X164346270Y-97325405D01*
X164548594Y-97527729D01*
X164548612Y-97527745D01*
X164777682Y-97699224D01*
X164777690Y-97699229D01*
X165028833Y-97836364D01*
X165028832Y-97836364D01*
X165028836Y-97836365D01*
X165028839Y-97836367D01*
X165296954Y-97936369D01*
X165296960Y-97936370D01*
X165296962Y-97936371D01*
X165576566Y-97997195D01*
X165576568Y-97997195D01*
X165576572Y-97997196D01*
X165830220Y-98015337D01*
X165861999Y-98017610D01*
X165862000Y-98017610D01*
X165862001Y-98017610D01*
X165890595Y-98015564D01*
X166147428Y-97997196D01*
X166427046Y-97936369D01*
X166695161Y-97836367D01*
X166946315Y-97699226D01*
X167175395Y-97527739D01*
X167377739Y-97325395D01*
X167549226Y-97096315D01*
X167686367Y-96845161D01*
X167786369Y-96577046D01*
X167847196Y-96297428D01*
X167867610Y-96012000D01*
X167847196Y-95726572D01*
X167786369Y-95446954D01*
X167686367Y-95178839D01*
X167549226Y-94927685D01*
X167549224Y-94927682D01*
X167377745Y-94698612D01*
X167377729Y-94698594D01*
X167175405Y-94496270D01*
X167175387Y-94496254D01*
X166946317Y-94324775D01*
X166946309Y-94324770D01*
X166695166Y-94187635D01*
X166695167Y-94187635D01*
X166549186Y-94133187D01*
X166427046Y-94087631D01*
X166427043Y-94087630D01*
X166427037Y-94087628D01*
X166147433Y-94026804D01*
X165862001Y-94006390D01*
X165861999Y-94006390D01*
X165576566Y-94026804D01*
X165296962Y-94087628D01*
X165028833Y-94187635D01*
X164777690Y-94324770D01*
X164777682Y-94324775D01*
X164548612Y-94496254D01*
X164548594Y-94496270D01*
X164346270Y-94698594D01*
X164346254Y-94698612D01*
X164174775Y-94927682D01*
X164174770Y-94927690D01*
X164037635Y-95178833D01*
X163937628Y-95446962D01*
X163876804Y-95726566D01*
X163856390Y-96011998D01*
X162787610Y-96011998D01*
X162767196Y-95726572D01*
X162706369Y-95446954D01*
X162606367Y-95178839D01*
X162469226Y-94927685D01*
X162469224Y-94927682D01*
X162297745Y-94698612D01*
X162297729Y-94698594D01*
X162095405Y-94496270D01*
X162095387Y-94496254D01*
X161866317Y-94324775D01*
X161866309Y-94324770D01*
X161615166Y-94187635D01*
X161615167Y-94187635D01*
X161469186Y-94133187D01*
X161347046Y-94087631D01*
X161347043Y-94087630D01*
X161347037Y-94087628D01*
X161067433Y-94026804D01*
X160782001Y-94006390D01*
X160781999Y-94006390D01*
X160496566Y-94026804D01*
X160216962Y-94087628D01*
X159948833Y-94187635D01*
X159697690Y-94324770D01*
X159697682Y-94324775D01*
X159468612Y-94496254D01*
X159468594Y-94496270D01*
X159266270Y-94698594D01*
X159266254Y-94698612D01*
X159094775Y-94927682D01*
X159094770Y-94927690D01*
X158957635Y-95178833D01*
X158857628Y-95446962D01*
X158796804Y-95726566D01*
X158776390Y-96011998D01*
X155929610Y-96011998D01*
X155909196Y-95726572D01*
X155848369Y-95446954D01*
X155748367Y-95178839D01*
X155611226Y-94927685D01*
X155611224Y-94927682D01*
X155439745Y-94698612D01*
X155439729Y-94698594D01*
X155237405Y-94496270D01*
X155237387Y-94496254D01*
X155008317Y-94324775D01*
X155008309Y-94324770D01*
X154757166Y-94187635D01*
X154757167Y-94187635D01*
X154611186Y-94133187D01*
X154489046Y-94087631D01*
X154489043Y-94087630D01*
X154489037Y-94087628D01*
X154209433Y-94026804D01*
X153924001Y-94006390D01*
X153923999Y-94006390D01*
X153638566Y-94026804D01*
X153358962Y-94087628D01*
X153090833Y-94187635D01*
X152839690Y-94324770D01*
X152839682Y-94324775D01*
X152610612Y-94496254D01*
X152610594Y-94496270D01*
X152408270Y-94698594D01*
X152408254Y-94698612D01*
X152236775Y-94927682D01*
X152236770Y-94927690D01*
X152099635Y-95178833D01*
X151999628Y-95446962D01*
X151938804Y-95726566D01*
X151918390Y-96011998D01*
X150849610Y-96011998D01*
X150829196Y-95726572D01*
X150768369Y-95446954D01*
X150668367Y-95178839D01*
X150531226Y-94927685D01*
X150531224Y-94927682D01*
X150359745Y-94698612D01*
X150359729Y-94698594D01*
X150157405Y-94496270D01*
X150157387Y-94496254D01*
X149928317Y-94324775D01*
X149928309Y-94324770D01*
X149677166Y-94187635D01*
X149677167Y-94187635D01*
X149531186Y-94133187D01*
X149409046Y-94087631D01*
X149409043Y-94087630D01*
X149409037Y-94087628D01*
X149129433Y-94026804D01*
X148844001Y-94006390D01*
X148843999Y-94006390D01*
X148558566Y-94026804D01*
X148278962Y-94087628D01*
X148010833Y-94187635D01*
X147759690Y-94324770D01*
X147759682Y-94324775D01*
X147530612Y-94496254D01*
X147530594Y-94496270D01*
X147328270Y-94698594D01*
X147328254Y-94698612D01*
X147156775Y-94927682D01*
X147156770Y-94927690D01*
X147019635Y-95178833D01*
X146919628Y-95446962D01*
X146858804Y-95726566D01*
X146838390Y-96011998D01*
X63246000Y-96011998D01*
X63246000Y-89153998D01*
X65304390Y-89153998D01*
X65304390Y-89154001D01*
X65324804Y-89439433D01*
X65385628Y-89719037D01*
X65485635Y-89987166D01*
X65622770Y-90238309D01*
X65622775Y-90238317D01*
X65794254Y-90467387D01*
X65794270Y-90467405D01*
X65996594Y-90669729D01*
X65996612Y-90669745D01*
X66225682Y-90841224D01*
X66225690Y-90841229D01*
X66476833Y-90978364D01*
X66476832Y-90978364D01*
X66476836Y-90978365D01*
X66476839Y-90978367D01*
X66744954Y-91078369D01*
X66744960Y-91078370D01*
X66744962Y-91078371D01*
X67024566Y-91139195D01*
X67024568Y-91139195D01*
X67024572Y-91139196D01*
X67278220Y-91157337D01*
X67309999Y-91159610D01*
X67310000Y-91159610D01*
X67310001Y-91159610D01*
X67338595Y-91157564D01*
X67595428Y-91139196D01*
X67875046Y-91078369D01*
X68143161Y-90978367D01*
X68394315Y-90841226D01*
X68623395Y-90669739D01*
X68825739Y-90467395D01*
X68997226Y-90238315D01*
X69134367Y-89987161D01*
X69234369Y-89719046D01*
X69295196Y-89439428D01*
X69315610Y-89154000D01*
X69315610Y-89153998D01*
X70384390Y-89153998D01*
X70384390Y-89154001D01*
X70404804Y-89439433D01*
X70465628Y-89719037D01*
X70565635Y-89987166D01*
X70702770Y-90238309D01*
X70702775Y-90238317D01*
X70874254Y-90467387D01*
X70874270Y-90467405D01*
X71076594Y-90669729D01*
X71076612Y-90669745D01*
X71305682Y-90841224D01*
X71305690Y-90841229D01*
X71556833Y-90978364D01*
X71556832Y-90978364D01*
X71556836Y-90978365D01*
X71556839Y-90978367D01*
X71824954Y-91078369D01*
X71824960Y-91078370D01*
X71824962Y-91078371D01*
X72104566Y-91139195D01*
X72104568Y-91139195D01*
X72104572Y-91139196D01*
X72358220Y-91157337D01*
X72389999Y-91159610D01*
X72390000Y-91159610D01*
X72390001Y-91159610D01*
X72418595Y-91157564D01*
X72675428Y-91139196D01*
X72955046Y-91078369D01*
X73223161Y-90978367D01*
X73474315Y-90841226D01*
X73703395Y-90669739D01*
X73905739Y-90467395D01*
X74077226Y-90238315D01*
X74214367Y-89987161D01*
X74314369Y-89719046D01*
X74375196Y-89439428D01*
X74395610Y-89154000D01*
X74375196Y-88868572D01*
X74314369Y-88588954D01*
X74289447Y-88522135D01*
X80957500Y-88522135D01*
X80957500Y-91817870D01*
X80957501Y-91817876D01*
X80963908Y-91877483D01*
X81014202Y-92012328D01*
X81014206Y-92012335D01*
X81100452Y-92127544D01*
X81100455Y-92127547D01*
X81215664Y-92213793D01*
X81215671Y-92213797D01*
X81350517Y-92264091D01*
X81350516Y-92264091D01*
X81357444Y-92264835D01*
X81410127Y-92270500D01*
X84705872Y-92270499D01*
X84765483Y-92264091D01*
X84900331Y-92213796D01*
X85015546Y-92127546D01*
X85101796Y-92012331D01*
X85152091Y-91877483D01*
X85158500Y-91817873D01*
X85158499Y-88522135D01*
X95689500Y-88522135D01*
X95689500Y-91817870D01*
X95689501Y-91817876D01*
X95695908Y-91877483D01*
X95746202Y-92012328D01*
X95746206Y-92012335D01*
X95832452Y-92127544D01*
X95832455Y-92127547D01*
X95947664Y-92213793D01*
X95947671Y-92213797D01*
X96082517Y-92264091D01*
X96082516Y-92264091D01*
X96089444Y-92264835D01*
X96142127Y-92270500D01*
X99437872Y-92270499D01*
X99497483Y-92264091D01*
X99632331Y-92213796D01*
X99747546Y-92127546D01*
X99833796Y-92012331D01*
X99884091Y-91877483D01*
X99890500Y-91817873D01*
X99890500Y-91328155D01*
X112600000Y-91328155D01*
X112600000Y-92326000D01*
X113751518Y-92326000D01*
X113740889Y-92344409D01*
X113700000Y-92497009D01*
X113700000Y-92654991D01*
X113740889Y-92807591D01*
X113751518Y-92826000D01*
X112600000Y-92826000D01*
X112600000Y-93823844D01*
X112606401Y-93883372D01*
X112606403Y-93883379D01*
X112656645Y-94018086D01*
X112656649Y-94018093D01*
X112742809Y-94133187D01*
X112742812Y-94133190D01*
X112857906Y-94219350D01*
X112857913Y-94219354D01*
X112992620Y-94269596D01*
X112992627Y-94269598D01*
X113052155Y-94275999D01*
X113052172Y-94276000D01*
X114050000Y-94276000D01*
X114050000Y-93124482D01*
X114068409Y-93135111D01*
X114221009Y-93176000D01*
X114378991Y-93176000D01*
X114531591Y-93135111D01*
X114550000Y-93124482D01*
X114550000Y-94276000D01*
X115547828Y-94276000D01*
X115547844Y-94275999D01*
X115607372Y-94269598D01*
X115607379Y-94269596D01*
X115742086Y-94219354D01*
X115742093Y-94219350D01*
X115857187Y-94133190D01*
X115857190Y-94133187D01*
X115943350Y-94018093D01*
X115943354Y-94018086D01*
X115993596Y-93883379D01*
X115993598Y-93883372D01*
X115999999Y-93823844D01*
X116000000Y-93823827D01*
X116000000Y-92826000D01*
X114848482Y-92826000D01*
X114859111Y-92807591D01*
X114900000Y-92654991D01*
X114900000Y-92497009D01*
X114859111Y-92344409D01*
X114848482Y-92326000D01*
X116000000Y-92326000D01*
X116000000Y-91716155D01*
X133936000Y-91716155D01*
X133936000Y-92714000D01*
X135087518Y-92714000D01*
X135076889Y-92732409D01*
X135036000Y-92885009D01*
X135036000Y-93042991D01*
X135076889Y-93195591D01*
X135087518Y-93214000D01*
X133936000Y-93214000D01*
X133936000Y-94211844D01*
X133942401Y-94271372D01*
X133942403Y-94271379D01*
X133992645Y-94406086D01*
X133992649Y-94406093D01*
X134078809Y-94521187D01*
X134078812Y-94521190D01*
X134193906Y-94607350D01*
X134193913Y-94607354D01*
X134328620Y-94657596D01*
X134328627Y-94657598D01*
X134388155Y-94663999D01*
X134388172Y-94664000D01*
X135386000Y-94664000D01*
X135386000Y-93512482D01*
X135404409Y-93523111D01*
X135557009Y-93564000D01*
X135714991Y-93564000D01*
X135867591Y-93523111D01*
X135886000Y-93512482D01*
X135886000Y-94664000D01*
X136883828Y-94664000D01*
X136883844Y-94663999D01*
X136943372Y-94657598D01*
X136943379Y-94657596D01*
X137078086Y-94607354D01*
X137078093Y-94607350D01*
X137193187Y-94521190D01*
X137193190Y-94521187D01*
X137279350Y-94406093D01*
X137279354Y-94406086D01*
X137329596Y-94271379D01*
X137329598Y-94271372D01*
X137335999Y-94211844D01*
X137336000Y-94211827D01*
X137336000Y-93214000D01*
X136184482Y-93214000D01*
X136195111Y-93195591D01*
X136236000Y-93042991D01*
X136236000Y-92885009D01*
X136195111Y-92732409D01*
X136184482Y-92714000D01*
X137336000Y-92714000D01*
X137336000Y-91716172D01*
X137335999Y-91716155D01*
X137329598Y-91656627D01*
X137329596Y-91656620D01*
X137279354Y-91521913D01*
X137279350Y-91521906D01*
X137193190Y-91406812D01*
X137193187Y-91406809D01*
X137078093Y-91320649D01*
X137078086Y-91320645D01*
X136943379Y-91270403D01*
X136943372Y-91270401D01*
X136883844Y-91264000D01*
X135886000Y-91264000D01*
X135886000Y-92415517D01*
X135867591Y-92404889D01*
X135714991Y-92364000D01*
X135557009Y-92364000D01*
X135404409Y-92404889D01*
X135386000Y-92415517D01*
X135386000Y-91264000D01*
X134388155Y-91264000D01*
X134328627Y-91270401D01*
X134328620Y-91270403D01*
X134193913Y-91320645D01*
X134193906Y-91320649D01*
X134078812Y-91406809D01*
X134078809Y-91406812D01*
X133992649Y-91521906D01*
X133992645Y-91521913D01*
X133942403Y-91656620D01*
X133942401Y-91656627D01*
X133936000Y-91716155D01*
X116000000Y-91716155D01*
X116000000Y-91328172D01*
X115999999Y-91328155D01*
X115993598Y-91268627D01*
X115993596Y-91268620D01*
X115943354Y-91133913D01*
X115943350Y-91133906D01*
X115857190Y-91018812D01*
X115857187Y-91018809D01*
X115742093Y-90932649D01*
X115742086Y-90932645D01*
X115607379Y-90882403D01*
X115607372Y-90882401D01*
X115547844Y-90876000D01*
X114550000Y-90876000D01*
X114550000Y-92027517D01*
X114531591Y-92016889D01*
X114378991Y-91976000D01*
X114221009Y-91976000D01*
X114068409Y-92016889D01*
X114050000Y-92027517D01*
X114050000Y-90876000D01*
X113052155Y-90876000D01*
X112992627Y-90882401D01*
X112992620Y-90882403D01*
X112857913Y-90932645D01*
X112857906Y-90932649D01*
X112742812Y-91018809D01*
X112742809Y-91018812D01*
X112656649Y-91133906D01*
X112656645Y-91133913D01*
X112606403Y-91268620D01*
X112606401Y-91268627D01*
X112600000Y-91328155D01*
X99890500Y-91328155D01*
X99890499Y-88522128D01*
X99884091Y-88462517D01*
X99833796Y-88327669D01*
X99833795Y-88327668D01*
X99833793Y-88327664D01*
X99747547Y-88212455D01*
X99747544Y-88212452D01*
X99632335Y-88126206D01*
X99632328Y-88126202D01*
X99497482Y-88075908D01*
X99497483Y-88075908D01*
X99437883Y-88069501D01*
X99437881Y-88069500D01*
X99437873Y-88069500D01*
X99437864Y-88069500D01*
X96142129Y-88069500D01*
X96142123Y-88069501D01*
X96082516Y-88075908D01*
X95947671Y-88126202D01*
X95947664Y-88126206D01*
X95832455Y-88212452D01*
X95832452Y-88212455D01*
X95746206Y-88327664D01*
X95746202Y-88327671D01*
X95695908Y-88462517D01*
X95689501Y-88522116D01*
X95689501Y-88522123D01*
X95689500Y-88522135D01*
X85158499Y-88522135D01*
X85158499Y-88522128D01*
X85152091Y-88462517D01*
X85101796Y-88327669D01*
X85101795Y-88327668D01*
X85101793Y-88327664D01*
X85015547Y-88212455D01*
X85015544Y-88212452D01*
X84900335Y-88126206D01*
X84900328Y-88126202D01*
X84765482Y-88075908D01*
X84765483Y-88075908D01*
X84705883Y-88069501D01*
X84705881Y-88069500D01*
X84705873Y-88069500D01*
X84705864Y-88069500D01*
X81410129Y-88069500D01*
X81410123Y-88069501D01*
X81350516Y-88075908D01*
X81215671Y-88126202D01*
X81215664Y-88126206D01*
X81100455Y-88212452D01*
X81100452Y-88212455D01*
X81014206Y-88327664D01*
X81014202Y-88327671D01*
X80963908Y-88462517D01*
X80957501Y-88522116D01*
X80957501Y-88522123D01*
X80957500Y-88522135D01*
X74289447Y-88522135D01*
X74214367Y-88320839D01*
X74077226Y-88069685D01*
X73918094Y-87857109D01*
X73905745Y-87840612D01*
X73905729Y-87840594D01*
X73703405Y-87638270D01*
X73703387Y-87638254D01*
X73474317Y-87466775D01*
X73474309Y-87466770D01*
X73223166Y-87329635D01*
X73223167Y-87329635D01*
X73115915Y-87289632D01*
X72955046Y-87229631D01*
X72955043Y-87229630D01*
X72955037Y-87229628D01*
X72675433Y-87168804D01*
X72390001Y-87148390D01*
X72389999Y-87148390D01*
X72104566Y-87168804D01*
X71824962Y-87229628D01*
X71556833Y-87329635D01*
X71305690Y-87466770D01*
X71305682Y-87466775D01*
X71076612Y-87638254D01*
X71076594Y-87638270D01*
X70874270Y-87840594D01*
X70874254Y-87840612D01*
X70702779Y-88069678D01*
X70702770Y-88069690D01*
X70565635Y-88320833D01*
X70465628Y-88588962D01*
X70404804Y-88868566D01*
X70384390Y-89153998D01*
X69315610Y-89153998D01*
X69295196Y-88868572D01*
X69234369Y-88588954D01*
X69134367Y-88320839D01*
X68997226Y-88069685D01*
X68838094Y-87857109D01*
X68825745Y-87840612D01*
X68825729Y-87840594D01*
X68623405Y-87638270D01*
X68623387Y-87638254D01*
X68394317Y-87466775D01*
X68394309Y-87466770D01*
X68143166Y-87329635D01*
X68143167Y-87329635D01*
X68035915Y-87289632D01*
X67875046Y-87229631D01*
X67875043Y-87229630D01*
X67875037Y-87229628D01*
X67595433Y-87168804D01*
X67310001Y-87148390D01*
X67309999Y-87148390D01*
X67024566Y-87168804D01*
X66744962Y-87229628D01*
X66476833Y-87329635D01*
X66225690Y-87466770D01*
X66225682Y-87466775D01*
X65996612Y-87638254D01*
X65996594Y-87638270D01*
X65794270Y-87840594D01*
X65794254Y-87840612D01*
X65622779Y-88069678D01*
X65622770Y-88069690D01*
X65485635Y-88320833D01*
X65385628Y-88588962D01*
X65324804Y-88868566D01*
X65304390Y-89153998D01*
X63246000Y-89153998D01*
X63246000Y-85851998D01*
X146838891Y-85851998D01*
X146838891Y-85852001D01*
X146859300Y-86137362D01*
X146920109Y-86416895D01*
X147020091Y-86684958D01*
X147157191Y-86936038D01*
X147157196Y-86936046D01*
X147263882Y-87078561D01*
X147263883Y-87078562D01*
X148242958Y-86099487D01*
X148267978Y-86159890D01*
X148339112Y-86266351D01*
X148429649Y-86356888D01*
X148536110Y-86428022D01*
X148596511Y-86453041D01*
X147617436Y-87432115D01*
X147759960Y-87538807D01*
X147759961Y-87538808D01*
X148011042Y-87675908D01*
X148011041Y-87675908D01*
X148279104Y-87775890D01*
X148558637Y-87836699D01*
X148843999Y-87857109D01*
X148844001Y-87857109D01*
X149129362Y-87836699D01*
X149408895Y-87775890D01*
X149676958Y-87675908D01*
X149928047Y-87538803D01*
X150070561Y-87432116D01*
X150070562Y-87432115D01*
X149091489Y-86453041D01*
X149151890Y-86428022D01*
X149258351Y-86356888D01*
X149348888Y-86266351D01*
X149420022Y-86159890D01*
X149445041Y-86099488D01*
X150424115Y-87078562D01*
X150424116Y-87078561D01*
X150530803Y-86936047D01*
X150667908Y-86684958D01*
X150767890Y-86416895D01*
X150828699Y-86137362D01*
X150849109Y-85852001D01*
X150849109Y-85851998D01*
X151918891Y-85851998D01*
X151918891Y-85852001D01*
X151939300Y-86137362D01*
X152000109Y-86416895D01*
X152100091Y-86684958D01*
X152237191Y-86936038D01*
X152237196Y-86936046D01*
X152343882Y-87078561D01*
X152343883Y-87078562D01*
X153322958Y-86099487D01*
X153347978Y-86159890D01*
X153419112Y-86266351D01*
X153509649Y-86356888D01*
X153616110Y-86428022D01*
X153676511Y-86453041D01*
X152697436Y-87432115D01*
X152839960Y-87538807D01*
X152839961Y-87538808D01*
X153091042Y-87675908D01*
X153091041Y-87675908D01*
X153359104Y-87775890D01*
X153638637Y-87836699D01*
X153923999Y-87857109D01*
X153924001Y-87857109D01*
X154209362Y-87836699D01*
X154488895Y-87775890D01*
X154756958Y-87675908D01*
X155008047Y-87538803D01*
X155150561Y-87432116D01*
X155150562Y-87432115D01*
X154171489Y-86453041D01*
X154231890Y-86428022D01*
X154338351Y-86356888D01*
X154428888Y-86266351D01*
X154500022Y-86159890D01*
X154525041Y-86099488D01*
X155504115Y-87078562D01*
X155504116Y-87078561D01*
X155610803Y-86936047D01*
X155747908Y-86684958D01*
X155847890Y-86416895D01*
X155908699Y-86137362D01*
X155929109Y-85852001D01*
X155929109Y-85851998D01*
X158776891Y-85851998D01*
X158776891Y-85852001D01*
X158797300Y-86137362D01*
X158858109Y-86416895D01*
X158958091Y-86684958D01*
X159095191Y-86936038D01*
X159095196Y-86936046D01*
X159201882Y-87078561D01*
X159201883Y-87078562D01*
X160180958Y-86099487D01*
X160205978Y-86159890D01*
X160277112Y-86266351D01*
X160367649Y-86356888D01*
X160474110Y-86428022D01*
X160534511Y-86453041D01*
X159555436Y-87432115D01*
X159697960Y-87538807D01*
X159697961Y-87538808D01*
X159949042Y-87675908D01*
X159949041Y-87675908D01*
X160217104Y-87775890D01*
X160496637Y-87836699D01*
X160781999Y-87857109D01*
X160782001Y-87857109D01*
X161067362Y-87836699D01*
X161346895Y-87775890D01*
X161614958Y-87675908D01*
X161866047Y-87538803D01*
X162008561Y-87432116D01*
X162008562Y-87432115D01*
X161029489Y-86453041D01*
X161089890Y-86428022D01*
X161196351Y-86356888D01*
X161286888Y-86266351D01*
X161358022Y-86159890D01*
X161383041Y-86099488D01*
X162362115Y-87078562D01*
X162362116Y-87078561D01*
X162468803Y-86936047D01*
X162605908Y-86684958D01*
X162705890Y-86416895D01*
X162766699Y-86137362D01*
X162787109Y-85852001D01*
X162787109Y-85851998D01*
X163856891Y-85851998D01*
X163856891Y-85852001D01*
X163877300Y-86137362D01*
X163938109Y-86416895D01*
X164038091Y-86684958D01*
X164175191Y-86936038D01*
X164175196Y-86936046D01*
X164281882Y-87078561D01*
X164281883Y-87078562D01*
X165260958Y-86099487D01*
X165285978Y-86159890D01*
X165357112Y-86266351D01*
X165447649Y-86356888D01*
X165554110Y-86428022D01*
X165614511Y-86453041D01*
X164635436Y-87432115D01*
X164777960Y-87538807D01*
X164777961Y-87538808D01*
X165029042Y-87675908D01*
X165029041Y-87675908D01*
X165297104Y-87775890D01*
X165576637Y-87836699D01*
X165861999Y-87857109D01*
X165862001Y-87857109D01*
X166147362Y-87836699D01*
X166426895Y-87775890D01*
X166694958Y-87675908D01*
X166946047Y-87538803D01*
X167088561Y-87432116D01*
X167088562Y-87432115D01*
X166109489Y-86453041D01*
X166169890Y-86428022D01*
X166276351Y-86356888D01*
X166366888Y-86266351D01*
X166438022Y-86159890D01*
X166463041Y-86099488D01*
X167442115Y-87078562D01*
X167442116Y-87078561D01*
X167548803Y-86936047D01*
X167685908Y-86684958D01*
X167785890Y-86416895D01*
X167846699Y-86137362D01*
X167867109Y-85852001D01*
X167867109Y-85851998D01*
X167846699Y-85566637D01*
X167785890Y-85287104D01*
X167685908Y-85019041D01*
X167548808Y-84767961D01*
X167548807Y-84767960D01*
X167442115Y-84625436D01*
X166463041Y-85604510D01*
X166438022Y-85544110D01*
X166366888Y-85437649D01*
X166276351Y-85347112D01*
X166169890Y-85275978D01*
X166109488Y-85250958D01*
X167088562Y-84271883D01*
X167088561Y-84271882D01*
X166946046Y-84165196D01*
X166946038Y-84165191D01*
X166694957Y-84028091D01*
X166694958Y-84028091D01*
X166426895Y-83928109D01*
X166147362Y-83867300D01*
X165862001Y-83846891D01*
X165861999Y-83846891D01*
X165576637Y-83867300D01*
X165297104Y-83928109D01*
X165029041Y-84028091D01*
X164777961Y-84165191D01*
X164777953Y-84165196D01*
X164635437Y-84271882D01*
X164635436Y-84271883D01*
X165614512Y-85250958D01*
X165554110Y-85275978D01*
X165447649Y-85347112D01*
X165357112Y-85437649D01*
X165285978Y-85544110D01*
X165260958Y-85604511D01*
X164281883Y-84625436D01*
X164281882Y-84625437D01*
X164175196Y-84767953D01*
X164175191Y-84767961D01*
X164038091Y-85019041D01*
X163938109Y-85287104D01*
X163877300Y-85566637D01*
X163856891Y-85851998D01*
X162787109Y-85851998D01*
X162766699Y-85566637D01*
X162705890Y-85287104D01*
X162605908Y-85019041D01*
X162468808Y-84767961D01*
X162468807Y-84767960D01*
X162362115Y-84625436D01*
X161383041Y-85604510D01*
X161358022Y-85544110D01*
X161286888Y-85437649D01*
X161196351Y-85347112D01*
X161089890Y-85275978D01*
X161029488Y-85250958D01*
X162008562Y-84271883D01*
X162008561Y-84271882D01*
X161866046Y-84165196D01*
X161866038Y-84165191D01*
X161614957Y-84028091D01*
X161614958Y-84028091D01*
X161346895Y-83928109D01*
X161067362Y-83867300D01*
X160782001Y-83846891D01*
X160781999Y-83846891D01*
X160496637Y-83867300D01*
X160217104Y-83928109D01*
X159949041Y-84028091D01*
X159697961Y-84165191D01*
X159697953Y-84165196D01*
X159555437Y-84271882D01*
X159555436Y-84271883D01*
X160534512Y-85250958D01*
X160474110Y-85275978D01*
X160367649Y-85347112D01*
X160277112Y-85437649D01*
X160205978Y-85544110D01*
X160180958Y-85604511D01*
X159201883Y-84625436D01*
X159201882Y-84625437D01*
X159095196Y-84767953D01*
X159095191Y-84767961D01*
X158958091Y-85019041D01*
X158858109Y-85287104D01*
X158797300Y-85566637D01*
X158776891Y-85851998D01*
X155929109Y-85851998D01*
X155908699Y-85566637D01*
X155847890Y-85287104D01*
X155747908Y-85019041D01*
X155610808Y-84767961D01*
X155610807Y-84767960D01*
X155504115Y-84625436D01*
X154525041Y-85604510D01*
X154500022Y-85544110D01*
X154428888Y-85437649D01*
X154338351Y-85347112D01*
X154231890Y-85275978D01*
X154171488Y-85250958D01*
X155150562Y-84271883D01*
X155150561Y-84271882D01*
X155008046Y-84165196D01*
X155008038Y-84165191D01*
X154756957Y-84028091D01*
X154756958Y-84028091D01*
X154488895Y-83928109D01*
X154209362Y-83867300D01*
X153924001Y-83846891D01*
X153923999Y-83846891D01*
X153638637Y-83867300D01*
X153359104Y-83928109D01*
X153091041Y-84028091D01*
X152839961Y-84165191D01*
X152839953Y-84165196D01*
X152697437Y-84271882D01*
X152697436Y-84271883D01*
X153676512Y-85250958D01*
X153616110Y-85275978D01*
X153509649Y-85347112D01*
X153419112Y-85437649D01*
X153347978Y-85544110D01*
X153322958Y-85604511D01*
X152343883Y-84625436D01*
X152343882Y-84625437D01*
X152237196Y-84767953D01*
X152237191Y-84767961D01*
X152100091Y-85019041D01*
X152000109Y-85287104D01*
X151939300Y-85566637D01*
X151918891Y-85851998D01*
X150849109Y-85851998D01*
X150828699Y-85566637D01*
X150767890Y-85287104D01*
X150667908Y-85019041D01*
X150530808Y-84767961D01*
X150530807Y-84767960D01*
X150424115Y-84625436D01*
X149445041Y-85604510D01*
X149420022Y-85544110D01*
X149348888Y-85437649D01*
X149258351Y-85347112D01*
X149151890Y-85275978D01*
X149091488Y-85250958D01*
X150070562Y-84271883D01*
X150070561Y-84271882D01*
X149928046Y-84165196D01*
X149928038Y-84165191D01*
X149676957Y-84028091D01*
X149676958Y-84028091D01*
X149408895Y-83928109D01*
X149129362Y-83867300D01*
X148844001Y-83846891D01*
X148843999Y-83846891D01*
X148558637Y-83867300D01*
X148279104Y-83928109D01*
X148011041Y-84028091D01*
X147759961Y-84165191D01*
X147759953Y-84165196D01*
X147617437Y-84271882D01*
X147617436Y-84271883D01*
X148596512Y-85250958D01*
X148536110Y-85275978D01*
X148429649Y-85347112D01*
X148339112Y-85437649D01*
X148267978Y-85544110D01*
X148242958Y-85604511D01*
X147263883Y-84625436D01*
X147263882Y-84625437D01*
X147157196Y-84767953D01*
X147157191Y-84767961D01*
X147020091Y-85019041D01*
X146920109Y-85287104D01*
X146859300Y-85566637D01*
X146838891Y-85851998D01*
X63246000Y-85851998D01*
X63246000Y-81633998D01*
X65304891Y-81633998D01*
X65304891Y-81634001D01*
X65325300Y-81919362D01*
X65386109Y-82198895D01*
X65486091Y-82466958D01*
X65623191Y-82718038D01*
X65623196Y-82718046D01*
X65729882Y-82860561D01*
X65729883Y-82860562D01*
X66708958Y-81881487D01*
X66733978Y-81941890D01*
X66805112Y-82048351D01*
X66895649Y-82138888D01*
X67002110Y-82210022D01*
X67062511Y-82235041D01*
X66083436Y-83214115D01*
X66225960Y-83320807D01*
X66225961Y-83320808D01*
X66477042Y-83457908D01*
X66477041Y-83457908D01*
X66745104Y-83557890D01*
X67024637Y-83618699D01*
X67309999Y-83639109D01*
X67310001Y-83639109D01*
X67595362Y-83618699D01*
X67874895Y-83557890D01*
X68142958Y-83457908D01*
X68394047Y-83320803D01*
X68536561Y-83214116D01*
X68536562Y-83214115D01*
X67557489Y-82235041D01*
X67617890Y-82210022D01*
X67724351Y-82138888D01*
X67814888Y-82048351D01*
X67886022Y-81941890D01*
X67911041Y-81881488D01*
X68890115Y-82860562D01*
X68890116Y-82860561D01*
X68996803Y-82718047D01*
X69133908Y-82466958D01*
X69233890Y-82198895D01*
X69294699Y-81919362D01*
X69315109Y-81634001D01*
X69315109Y-81633998D01*
X70384891Y-81633998D01*
X70384891Y-81634001D01*
X70405300Y-81919362D01*
X70466109Y-82198895D01*
X70566091Y-82466958D01*
X70703191Y-82718038D01*
X70703196Y-82718046D01*
X70809882Y-82860561D01*
X70809883Y-82860562D01*
X71788958Y-81881487D01*
X71813978Y-81941890D01*
X71885112Y-82048351D01*
X71975649Y-82138888D01*
X72082110Y-82210022D01*
X72142511Y-82235041D01*
X71163436Y-83214115D01*
X71305960Y-83320807D01*
X71305961Y-83320808D01*
X71557042Y-83457908D01*
X71557041Y-83457908D01*
X71825104Y-83557890D01*
X72104637Y-83618699D01*
X72389999Y-83639109D01*
X72390001Y-83639109D01*
X72675362Y-83618699D01*
X72954895Y-83557890D01*
X73222958Y-83457908D01*
X73474047Y-83320803D01*
X73616561Y-83214116D01*
X73616562Y-83214115D01*
X72637489Y-82235041D01*
X72697890Y-82210022D01*
X72804351Y-82138888D01*
X72894888Y-82048351D01*
X72966022Y-81941890D01*
X72991041Y-81881488D01*
X73970115Y-82860562D01*
X73970116Y-82860561D01*
X74076803Y-82718047D01*
X74168564Y-82550000D01*
X80952592Y-82550000D01*
X80972201Y-82836680D01*
X80972201Y-82836684D01*
X80972202Y-82836686D01*
X80993984Y-82941509D01*
X81030666Y-83118034D01*
X81030667Y-83118037D01*
X81126894Y-83388793D01*
X81126893Y-83388793D01*
X81259098Y-83643935D01*
X81424812Y-83878700D01*
X81509923Y-83969831D01*
X81620947Y-84088708D01*
X81714964Y-84165196D01*
X81843853Y-84270055D01*
X82089382Y-84419365D01*
X82276237Y-84500526D01*
X82352942Y-84533844D01*
X82629642Y-84611371D01*
X82879920Y-84645771D01*
X82914321Y-84650500D01*
X82914322Y-84650500D01*
X83201679Y-84650500D01*
X83232370Y-84646281D01*
X83486358Y-84611371D01*
X83763058Y-84533844D01*
X83876015Y-84484779D01*
X84026617Y-84419365D01*
X84026620Y-84419363D01*
X84026625Y-84419361D01*
X84272147Y-84270055D01*
X84495053Y-84088708D01*
X84691189Y-83878698D01*
X84856901Y-83643936D01*
X84989104Y-83388797D01*
X85085334Y-83118032D01*
X85143798Y-82836686D01*
X85163408Y-82550000D01*
X95684592Y-82550000D01*
X95704201Y-82836680D01*
X95704201Y-82836684D01*
X95704202Y-82836686D01*
X95725984Y-82941509D01*
X95762666Y-83118034D01*
X95762667Y-83118037D01*
X95858894Y-83388793D01*
X95858893Y-83388793D01*
X95991098Y-83643935D01*
X96156812Y-83878700D01*
X96241923Y-83969831D01*
X96352947Y-84088708D01*
X96446964Y-84165196D01*
X96575853Y-84270055D01*
X96821382Y-84419365D01*
X97008237Y-84500526D01*
X97084942Y-84533844D01*
X97361642Y-84611371D01*
X97611920Y-84645771D01*
X97646321Y-84650500D01*
X97646322Y-84650500D01*
X97933679Y-84650500D01*
X97964370Y-84646281D01*
X98218358Y-84611371D01*
X98495058Y-84533844D01*
X98608015Y-84484779D01*
X98758617Y-84419365D01*
X98758620Y-84419363D01*
X98758625Y-84419361D01*
X99004147Y-84270055D01*
X99227053Y-84088708D01*
X99423189Y-83878698D01*
X99588901Y-83643936D01*
X99721104Y-83388797D01*
X99817334Y-83118032D01*
X99875798Y-82836686D01*
X99895408Y-82550000D01*
X99875798Y-82263314D01*
X99817334Y-81981968D01*
X99721105Y-81711206D01*
X99721106Y-81711206D01*
X99588901Y-81456064D01*
X99423187Y-81221299D01*
X99331136Y-81122738D01*
X99227053Y-81011292D01*
X99004147Y-80829945D01*
X99004146Y-80829944D01*
X98758617Y-80680634D01*
X98495063Y-80566158D01*
X98495061Y-80566157D01*
X98495058Y-80566156D01*
X98365578Y-80529877D01*
X98218364Y-80488630D01*
X98218359Y-80488629D01*
X98218358Y-80488629D01*
X98076018Y-80469064D01*
X97933679Y-80449500D01*
X97933678Y-80449500D01*
X97646322Y-80449500D01*
X97646321Y-80449500D01*
X97361642Y-80488629D01*
X97361635Y-80488630D01*
X97153861Y-80546845D01*
X97084942Y-80566156D01*
X97084939Y-80566156D01*
X97084936Y-80566158D01*
X97084935Y-80566158D01*
X96821382Y-80680634D01*
X96575853Y-80829944D01*
X96352950Y-81011289D01*
X96156812Y-81221299D01*
X95991098Y-81456064D01*
X95858894Y-81711206D01*
X95762667Y-81981962D01*
X95762666Y-81981965D01*
X95704201Y-82263319D01*
X95684592Y-82550000D01*
X85163408Y-82550000D01*
X85143798Y-82263314D01*
X85085334Y-81981968D01*
X84989105Y-81711206D01*
X84989106Y-81711206D01*
X84856901Y-81456064D01*
X84691187Y-81221299D01*
X84599136Y-81122738D01*
X84495053Y-81011292D01*
X84272147Y-80829945D01*
X84272146Y-80829944D01*
X84026617Y-80680634D01*
X83763063Y-80566158D01*
X83763061Y-80566157D01*
X83763058Y-80566156D01*
X83633578Y-80529877D01*
X83486364Y-80488630D01*
X83486359Y-80488629D01*
X83486358Y-80488629D01*
X83344018Y-80469064D01*
X83201679Y-80449500D01*
X83201678Y-80449500D01*
X82914322Y-80449500D01*
X82914321Y-80449500D01*
X82629642Y-80488629D01*
X82629635Y-80488630D01*
X82421861Y-80546845D01*
X82352942Y-80566156D01*
X82352939Y-80566156D01*
X82352936Y-80566158D01*
X82352935Y-80566158D01*
X82089382Y-80680634D01*
X81843853Y-80829944D01*
X81620950Y-81011289D01*
X81424812Y-81221299D01*
X81259098Y-81456064D01*
X81126894Y-81711206D01*
X81030667Y-81981962D01*
X81030666Y-81981965D01*
X80972201Y-82263319D01*
X80952592Y-82550000D01*
X74168564Y-82550000D01*
X74213908Y-82466958D01*
X74313890Y-82198895D01*
X74374699Y-81919362D01*
X74395109Y-81634001D01*
X74395109Y-81633998D01*
X74374699Y-81348637D01*
X74313890Y-81069104D01*
X74213908Y-80801041D01*
X74076808Y-80549961D01*
X74076807Y-80549960D01*
X73970115Y-80407436D01*
X72991041Y-81386510D01*
X72966022Y-81326110D01*
X72894888Y-81219649D01*
X72804351Y-81129112D01*
X72697890Y-81057978D01*
X72637488Y-81032958D01*
X73616562Y-80053883D01*
X73616561Y-80053882D01*
X73474046Y-79947196D01*
X73474038Y-79947191D01*
X73222957Y-79810091D01*
X73222958Y-79810091D01*
X73077921Y-79755995D01*
X112595233Y-79755995D01*
X112595233Y-79756004D01*
X112614273Y-80010079D01*
X112670968Y-80258477D01*
X112670973Y-80258494D01*
X112764058Y-80495671D01*
X112764057Y-80495671D01*
X112891454Y-80716327D01*
X112891461Y-80716338D01*
X112933452Y-80768991D01*
X112933453Y-80768992D01*
X113735387Y-79967058D01*
X113740889Y-79987591D01*
X113819881Y-80124408D01*
X113931592Y-80236119D01*
X114068409Y-80315111D01*
X114088940Y-80320612D01*
X113286813Y-81122738D01*
X113447616Y-81232371D01*
X113447624Y-81232376D01*
X113677176Y-81342921D01*
X113677174Y-81342921D01*
X113920652Y-81418024D01*
X113920658Y-81418026D01*
X114172595Y-81455999D01*
X114172604Y-81456000D01*
X114427396Y-81456000D01*
X114427404Y-81455999D01*
X114679341Y-81418026D01*
X114679347Y-81418024D01*
X114922824Y-81342921D01*
X115152376Y-81232376D01*
X115152377Y-81232375D01*
X115313185Y-81122738D01*
X114511060Y-80320612D01*
X114531591Y-80315111D01*
X114668408Y-80236119D01*
X114780119Y-80124408D01*
X114859111Y-79987591D01*
X114864612Y-79967059D01*
X115666544Y-80768992D01*
X115666546Y-80768991D01*
X115708544Y-80716330D01*
X115835941Y-80495671D01*
X115929026Y-80258494D01*
X115929031Y-80258477D01*
X115985726Y-80010079D01*
X116004767Y-79756004D01*
X116004767Y-79755995D01*
X133931233Y-79755995D01*
X133931233Y-79756004D01*
X133950273Y-80010079D01*
X134006968Y-80258477D01*
X134006973Y-80258494D01*
X134100058Y-80495671D01*
X134100057Y-80495671D01*
X134227454Y-80716327D01*
X134227461Y-80716338D01*
X134269452Y-80768991D01*
X134269453Y-80768992D01*
X135071387Y-79967058D01*
X135076889Y-79987591D01*
X135155881Y-80124408D01*
X135267592Y-80236119D01*
X135404409Y-80315111D01*
X135424940Y-80320612D01*
X134622813Y-81122738D01*
X134783616Y-81232371D01*
X134783624Y-81232376D01*
X135013176Y-81342921D01*
X135013174Y-81342921D01*
X135256652Y-81418024D01*
X135256658Y-81418026D01*
X135508595Y-81455999D01*
X135508604Y-81456000D01*
X135763396Y-81456000D01*
X135763404Y-81455999D01*
X136015341Y-81418026D01*
X136015347Y-81418024D01*
X136258824Y-81342921D01*
X136488376Y-81232376D01*
X136488377Y-81232375D01*
X136649185Y-81122738D01*
X135847060Y-80320612D01*
X135867591Y-80315111D01*
X136004408Y-80236119D01*
X136116119Y-80124408D01*
X136195111Y-79987591D01*
X136200612Y-79967059D01*
X137002545Y-80768992D01*
X137002546Y-80768991D01*
X137044544Y-80716330D01*
X137171941Y-80495671D01*
X137265026Y-80258494D01*
X137265031Y-80258477D01*
X137321726Y-80010079D01*
X137340767Y-79756004D01*
X137340767Y-79755995D01*
X137321726Y-79501920D01*
X137265031Y-79253522D01*
X137265026Y-79253505D01*
X137171941Y-79016328D01*
X137171942Y-79016328D01*
X137044545Y-78795672D01*
X137002545Y-78743006D01*
X136200612Y-79544939D01*
X136195111Y-79524409D01*
X136116119Y-79387592D01*
X136004408Y-79275881D01*
X135867591Y-79196889D01*
X135847059Y-79191387D01*
X136649185Y-78389260D01*
X136488384Y-78279628D01*
X136488376Y-78279623D01*
X136258823Y-78169078D01*
X136258825Y-78169078D01*
X136015347Y-78093975D01*
X136015341Y-78093973D01*
X135763404Y-78056000D01*
X135508595Y-78056000D01*
X135256658Y-78093973D01*
X135256652Y-78093975D01*
X135013175Y-78169078D01*
X134783622Y-78279625D01*
X134783609Y-78279632D01*
X134622813Y-78389259D01*
X135424941Y-79191387D01*
X135404409Y-79196889D01*
X135267592Y-79275881D01*
X135155881Y-79387592D01*
X135076889Y-79524409D01*
X135071387Y-79544940D01*
X134269452Y-78743006D01*
X134227457Y-78795667D01*
X134100058Y-79016328D01*
X134006973Y-79253505D01*
X134006968Y-79253522D01*
X133950273Y-79501920D01*
X133931233Y-79755995D01*
X116004767Y-79755995D01*
X115985726Y-79501920D01*
X115929031Y-79253522D01*
X115929026Y-79253505D01*
X115835941Y-79016328D01*
X115835942Y-79016328D01*
X115708545Y-78795672D01*
X115666545Y-78743006D01*
X114864612Y-79544939D01*
X114859111Y-79524409D01*
X114780119Y-79387592D01*
X114668408Y-79275881D01*
X114531591Y-79196889D01*
X114511059Y-79191387D01*
X115313185Y-78389260D01*
X115152384Y-78279628D01*
X115152376Y-78279623D01*
X114922823Y-78169078D01*
X114922825Y-78169078D01*
X114679347Y-78093975D01*
X114679341Y-78093973D01*
X114427404Y-78056000D01*
X114172595Y-78056000D01*
X113920658Y-78093973D01*
X113920652Y-78093975D01*
X113677175Y-78169078D01*
X113447622Y-78279625D01*
X113447609Y-78279632D01*
X113286813Y-78389259D01*
X114088941Y-79191387D01*
X114068409Y-79196889D01*
X113931592Y-79275881D01*
X113819881Y-79387592D01*
X113740889Y-79524409D01*
X113735387Y-79544940D01*
X112933452Y-78743006D01*
X112891457Y-78795667D01*
X112764058Y-79016328D01*
X112670973Y-79253505D01*
X112670968Y-79253522D01*
X112614273Y-79501920D01*
X112595233Y-79755995D01*
X73077921Y-79755995D01*
X72954895Y-79710109D01*
X72675362Y-79649300D01*
X72390001Y-79628891D01*
X72389999Y-79628891D01*
X72104637Y-79649300D01*
X71825104Y-79710109D01*
X71557041Y-79810091D01*
X71305961Y-79947191D01*
X71305953Y-79947196D01*
X71163437Y-80053882D01*
X71163436Y-80053883D01*
X72142512Y-81032958D01*
X72082110Y-81057978D01*
X71975649Y-81129112D01*
X71885112Y-81219649D01*
X71813978Y-81326110D01*
X71788958Y-81386511D01*
X70809883Y-80407436D01*
X70809882Y-80407437D01*
X70703196Y-80549953D01*
X70703191Y-80549961D01*
X70566091Y-80801041D01*
X70466109Y-81069104D01*
X70405300Y-81348637D01*
X70384891Y-81633998D01*
X69315109Y-81633998D01*
X69294699Y-81348637D01*
X69233890Y-81069104D01*
X69133908Y-80801041D01*
X68996808Y-80549961D01*
X68996807Y-80549960D01*
X68890115Y-80407436D01*
X67911041Y-81386510D01*
X67886022Y-81326110D01*
X67814888Y-81219649D01*
X67724351Y-81129112D01*
X67617890Y-81057978D01*
X67557488Y-81032958D01*
X68536562Y-80053883D01*
X68536561Y-80053882D01*
X68394046Y-79947196D01*
X68394038Y-79947191D01*
X68142957Y-79810091D01*
X68142958Y-79810091D01*
X67874895Y-79710109D01*
X67595362Y-79649300D01*
X67310001Y-79628891D01*
X67309999Y-79628891D01*
X67024637Y-79649300D01*
X66745104Y-79710109D01*
X66477041Y-79810091D01*
X66225961Y-79947191D01*
X66225953Y-79947196D01*
X66083437Y-80053882D01*
X66083436Y-80053883D01*
X67062512Y-81032958D01*
X67002110Y-81057978D01*
X66895649Y-81129112D01*
X66805112Y-81219649D01*
X66733978Y-81326110D01*
X66708958Y-81386511D01*
X65729883Y-80407436D01*
X65729882Y-80407437D01*
X65623196Y-80549953D01*
X65623191Y-80549961D01*
X65486091Y-80801041D01*
X65386109Y-81069104D01*
X65325300Y-81348637D01*
X65304891Y-81633998D01*
X63246000Y-81633998D01*
X63246000Y-74267998D01*
X65304390Y-74267998D01*
X65304390Y-74268001D01*
X65324804Y-74553433D01*
X65385628Y-74833037D01*
X65385630Y-74833043D01*
X65385631Y-74833046D01*
X65405608Y-74886605D01*
X65485635Y-75101166D01*
X65622770Y-75352309D01*
X65622775Y-75352317D01*
X65794254Y-75581387D01*
X65794270Y-75581405D01*
X65996594Y-75783729D01*
X65996612Y-75783745D01*
X66225682Y-75955224D01*
X66225690Y-75955229D01*
X66476833Y-76092364D01*
X66476832Y-76092364D01*
X66476836Y-76092365D01*
X66476839Y-76092367D01*
X66744954Y-76192369D01*
X66744960Y-76192370D01*
X66744962Y-76192371D01*
X67024566Y-76253195D01*
X67024568Y-76253195D01*
X67024572Y-76253196D01*
X67278220Y-76271337D01*
X67309999Y-76273610D01*
X67310000Y-76273610D01*
X67310001Y-76273610D01*
X67338595Y-76271564D01*
X67595428Y-76253196D01*
X67875046Y-76192369D01*
X68143161Y-76092367D01*
X68394315Y-75955226D01*
X68623395Y-75783739D01*
X68825739Y-75581395D01*
X68997226Y-75352315D01*
X69134367Y-75101161D01*
X69234369Y-74833046D01*
X69295196Y-74553428D01*
X69315610Y-74268000D01*
X69315610Y-74267998D01*
X70384390Y-74267998D01*
X70384390Y-74268001D01*
X70404804Y-74553433D01*
X70465628Y-74833037D01*
X70465630Y-74833043D01*
X70465631Y-74833046D01*
X70485608Y-74886605D01*
X70565635Y-75101166D01*
X70702770Y-75352309D01*
X70702775Y-75352317D01*
X70874254Y-75581387D01*
X70874270Y-75581405D01*
X71076594Y-75783729D01*
X71076612Y-75783745D01*
X71305682Y-75955224D01*
X71305690Y-75955229D01*
X71556833Y-76092364D01*
X71556832Y-76092364D01*
X71556836Y-76092365D01*
X71556839Y-76092367D01*
X71824954Y-76192369D01*
X71824960Y-76192370D01*
X71824962Y-76192371D01*
X72104566Y-76253195D01*
X72104568Y-76253195D01*
X72104572Y-76253196D01*
X72358220Y-76271337D01*
X72389999Y-76273610D01*
X72390000Y-76273610D01*
X72390001Y-76273610D01*
X72418595Y-76271564D01*
X72675428Y-76253196D01*
X72919976Y-76199998D01*
X146838390Y-76199998D01*
X146838390Y-76200001D01*
X146858804Y-76485433D01*
X146919628Y-76765037D01*
X147019635Y-77033166D01*
X147156770Y-77284309D01*
X147156775Y-77284317D01*
X147328254Y-77513387D01*
X147328270Y-77513405D01*
X147530594Y-77715729D01*
X147530612Y-77715745D01*
X147759682Y-77887224D01*
X147759690Y-77887229D01*
X148010833Y-78024364D01*
X148010832Y-78024364D01*
X148010836Y-78024365D01*
X148010839Y-78024367D01*
X148278954Y-78124369D01*
X148278960Y-78124370D01*
X148278962Y-78124371D01*
X148558566Y-78185195D01*
X148558568Y-78185195D01*
X148558572Y-78185196D01*
X148812220Y-78203337D01*
X148843999Y-78205610D01*
X148844000Y-78205610D01*
X148844001Y-78205610D01*
X148872595Y-78203564D01*
X149129428Y-78185196D01*
X149203522Y-78169078D01*
X149409037Y-78124371D01*
X149409037Y-78124370D01*
X149409046Y-78124369D01*
X149677161Y-78024367D01*
X149928315Y-77887226D01*
X150157395Y-77715739D01*
X150359739Y-77513395D01*
X150531226Y-77284315D01*
X150668367Y-77033161D01*
X150768369Y-76765046D01*
X150829196Y-76485428D01*
X150849610Y-76200000D01*
X150849610Y-76199998D01*
X151918390Y-76199998D01*
X151918390Y-76200001D01*
X151938804Y-76485433D01*
X151999628Y-76765037D01*
X152099635Y-77033166D01*
X152236770Y-77284309D01*
X152236775Y-77284317D01*
X152408254Y-77513387D01*
X152408270Y-77513405D01*
X152610594Y-77715729D01*
X152610612Y-77715745D01*
X152839682Y-77887224D01*
X152839690Y-77887229D01*
X153090833Y-78024364D01*
X153090832Y-78024364D01*
X153090836Y-78024365D01*
X153090839Y-78024367D01*
X153358954Y-78124369D01*
X153358960Y-78124370D01*
X153358962Y-78124371D01*
X153638566Y-78185195D01*
X153638568Y-78185195D01*
X153638572Y-78185196D01*
X153892220Y-78203337D01*
X153923999Y-78205610D01*
X153924000Y-78205610D01*
X153924001Y-78205610D01*
X153952595Y-78203564D01*
X154209428Y-78185196D01*
X154283522Y-78169078D01*
X154489037Y-78124371D01*
X154489037Y-78124370D01*
X154489046Y-78124369D01*
X154757161Y-78024367D01*
X155008315Y-77887226D01*
X155237395Y-77715739D01*
X155439739Y-77513395D01*
X155611226Y-77284315D01*
X155748367Y-77033161D01*
X155848369Y-76765046D01*
X155909196Y-76485428D01*
X155929610Y-76200000D01*
X155929610Y-76199998D01*
X158776390Y-76199998D01*
X158776390Y-76200001D01*
X158796804Y-76485433D01*
X158857628Y-76765037D01*
X158957635Y-77033166D01*
X159094770Y-77284309D01*
X159094775Y-77284317D01*
X159266254Y-77513387D01*
X159266270Y-77513405D01*
X159468594Y-77715729D01*
X159468612Y-77715745D01*
X159697682Y-77887224D01*
X159697690Y-77887229D01*
X159948833Y-78024364D01*
X159948832Y-78024364D01*
X159948836Y-78024365D01*
X159948839Y-78024367D01*
X160216954Y-78124369D01*
X160216960Y-78124370D01*
X160216962Y-78124371D01*
X160496566Y-78185195D01*
X160496568Y-78185195D01*
X160496572Y-78185196D01*
X160750220Y-78203337D01*
X160781999Y-78205610D01*
X160782000Y-78205610D01*
X160782001Y-78205610D01*
X160810595Y-78203564D01*
X161067428Y-78185196D01*
X161141522Y-78169078D01*
X161347037Y-78124371D01*
X161347037Y-78124370D01*
X161347046Y-78124369D01*
X161615161Y-78024367D01*
X161866315Y-77887226D01*
X162095395Y-77715739D01*
X162297739Y-77513395D01*
X162469226Y-77284315D01*
X162606367Y-77033161D01*
X162706369Y-76765046D01*
X162767196Y-76485428D01*
X162787610Y-76200000D01*
X162787610Y-76199998D01*
X163856390Y-76199998D01*
X163856390Y-76200001D01*
X163876804Y-76485433D01*
X163937628Y-76765037D01*
X164037635Y-77033166D01*
X164174770Y-77284309D01*
X164174775Y-77284317D01*
X164346254Y-77513387D01*
X164346270Y-77513405D01*
X164548594Y-77715729D01*
X164548612Y-77715745D01*
X164777682Y-77887224D01*
X164777690Y-77887229D01*
X165028833Y-78024364D01*
X165028832Y-78024364D01*
X165028836Y-78024365D01*
X165028839Y-78024367D01*
X165296954Y-78124369D01*
X165296960Y-78124370D01*
X165296962Y-78124371D01*
X165576566Y-78185195D01*
X165576568Y-78185195D01*
X165576572Y-78185196D01*
X165830220Y-78203337D01*
X165861999Y-78205610D01*
X165862000Y-78205610D01*
X165862001Y-78205610D01*
X165890595Y-78203564D01*
X166147428Y-78185196D01*
X166221522Y-78169078D01*
X166427037Y-78124371D01*
X166427037Y-78124370D01*
X166427046Y-78124369D01*
X166695161Y-78024367D01*
X166946315Y-77887226D01*
X167175395Y-77715739D01*
X167377739Y-77513395D01*
X167549226Y-77284315D01*
X167686367Y-77033161D01*
X167786369Y-76765046D01*
X167847196Y-76485428D01*
X167867610Y-76200000D01*
X167847196Y-75914572D01*
X167818736Y-75783745D01*
X167786371Y-75634962D01*
X167786370Y-75634960D01*
X167786369Y-75634954D01*
X167686367Y-75366839D01*
X167678437Y-75352317D01*
X167549229Y-75115690D01*
X167549224Y-75115682D01*
X167377745Y-74886612D01*
X167377729Y-74886594D01*
X167175405Y-74684270D01*
X167175387Y-74684254D01*
X166946317Y-74512775D01*
X166946309Y-74512770D01*
X166695166Y-74375635D01*
X166695167Y-74375635D01*
X166587915Y-74335632D01*
X166427046Y-74275631D01*
X166427043Y-74275630D01*
X166427037Y-74275628D01*
X166147433Y-74214804D01*
X165862001Y-74194390D01*
X165861999Y-74194390D01*
X165576566Y-74214804D01*
X165296962Y-74275628D01*
X165028833Y-74375635D01*
X164777690Y-74512770D01*
X164777682Y-74512775D01*
X164548612Y-74684254D01*
X164548594Y-74684270D01*
X164346270Y-74886594D01*
X164346254Y-74886612D01*
X164174775Y-75115682D01*
X164174770Y-75115690D01*
X164037635Y-75366833D01*
X163937628Y-75634962D01*
X163876804Y-75914566D01*
X163856390Y-76199998D01*
X162787610Y-76199998D01*
X162767196Y-75914572D01*
X162738736Y-75783745D01*
X162706371Y-75634962D01*
X162706370Y-75634960D01*
X162706369Y-75634954D01*
X162606367Y-75366839D01*
X162598437Y-75352317D01*
X162469229Y-75115690D01*
X162469224Y-75115682D01*
X162297745Y-74886612D01*
X162297729Y-74886594D01*
X162095405Y-74684270D01*
X162095387Y-74684254D01*
X161866317Y-74512775D01*
X161866309Y-74512770D01*
X161615166Y-74375635D01*
X161615167Y-74375635D01*
X161507915Y-74335632D01*
X161347046Y-74275631D01*
X161347043Y-74275630D01*
X161347037Y-74275628D01*
X161067433Y-74214804D01*
X160782001Y-74194390D01*
X160781999Y-74194390D01*
X160496566Y-74214804D01*
X160216962Y-74275628D01*
X159948833Y-74375635D01*
X159697690Y-74512770D01*
X159697682Y-74512775D01*
X159468612Y-74684254D01*
X159468594Y-74684270D01*
X159266270Y-74886594D01*
X159266254Y-74886612D01*
X159094775Y-75115682D01*
X159094770Y-75115690D01*
X158957635Y-75366833D01*
X158857628Y-75634962D01*
X158796804Y-75914566D01*
X158776390Y-76199998D01*
X155929610Y-76199998D01*
X155909196Y-75914572D01*
X155880736Y-75783745D01*
X155848371Y-75634962D01*
X155848370Y-75634960D01*
X155848369Y-75634954D01*
X155748367Y-75366839D01*
X155740437Y-75352317D01*
X155611229Y-75115690D01*
X155611224Y-75115682D01*
X155439745Y-74886612D01*
X155439729Y-74886594D01*
X155237405Y-74684270D01*
X155237387Y-74684254D01*
X155008317Y-74512775D01*
X155008309Y-74512770D01*
X154757166Y-74375635D01*
X154757167Y-74375635D01*
X154649915Y-74335632D01*
X154489046Y-74275631D01*
X154489043Y-74275630D01*
X154489037Y-74275628D01*
X154209433Y-74214804D01*
X153924001Y-74194390D01*
X153923999Y-74194390D01*
X153638566Y-74214804D01*
X153358962Y-74275628D01*
X153090833Y-74375635D01*
X152839690Y-74512770D01*
X152839682Y-74512775D01*
X152610612Y-74684254D01*
X152610594Y-74684270D01*
X152408270Y-74886594D01*
X152408254Y-74886612D01*
X152236775Y-75115682D01*
X152236770Y-75115690D01*
X152099635Y-75366833D01*
X151999628Y-75634962D01*
X151938804Y-75914566D01*
X151918390Y-76199998D01*
X150849610Y-76199998D01*
X150829196Y-75914572D01*
X150800736Y-75783745D01*
X150768371Y-75634962D01*
X150768370Y-75634960D01*
X150768369Y-75634954D01*
X150668367Y-75366839D01*
X150660437Y-75352317D01*
X150531229Y-75115690D01*
X150531224Y-75115682D01*
X150359745Y-74886612D01*
X150359729Y-74886594D01*
X150157405Y-74684270D01*
X150157387Y-74684254D01*
X149928317Y-74512775D01*
X149928309Y-74512770D01*
X149677166Y-74375635D01*
X149677167Y-74375635D01*
X149569915Y-74335632D01*
X149409046Y-74275631D01*
X149409043Y-74275630D01*
X149409037Y-74275628D01*
X149129433Y-74214804D01*
X148844001Y-74194390D01*
X148843999Y-74194390D01*
X148558566Y-74214804D01*
X148278962Y-74275628D01*
X148010833Y-74375635D01*
X147759690Y-74512770D01*
X147759682Y-74512775D01*
X147530612Y-74684254D01*
X147530594Y-74684270D01*
X147328270Y-74886594D01*
X147328254Y-74886612D01*
X147156775Y-75115682D01*
X147156770Y-75115690D01*
X147019635Y-75366833D01*
X146919628Y-75634962D01*
X146858804Y-75914566D01*
X146838390Y-76199998D01*
X72919976Y-76199998D01*
X72955046Y-76192369D01*
X73223161Y-76092367D01*
X73474315Y-75955226D01*
X73703395Y-75783739D01*
X73905739Y-75581395D01*
X74077226Y-75352315D01*
X74214367Y-75101161D01*
X74314369Y-74833046D01*
X74375196Y-74553428D01*
X74395610Y-74268000D01*
X74375196Y-73982572D01*
X74369524Y-73956500D01*
X74314371Y-73702962D01*
X74314370Y-73702960D01*
X74314369Y-73702954D01*
X74214367Y-73434839D01*
X74077226Y-73183685D01*
X74077224Y-73183682D01*
X73905745Y-72954612D01*
X73905729Y-72954594D01*
X73703405Y-72752270D01*
X73703387Y-72752254D01*
X73474317Y-72580775D01*
X73474309Y-72580770D01*
X73223166Y-72443635D01*
X73223167Y-72443635D01*
X73115915Y-72403632D01*
X72955046Y-72343631D01*
X72955043Y-72343630D01*
X72955037Y-72343628D01*
X72675433Y-72282804D01*
X72390001Y-72262390D01*
X72389999Y-72262390D01*
X72104566Y-72282804D01*
X71824962Y-72343628D01*
X71556833Y-72443635D01*
X71305690Y-72580770D01*
X71305682Y-72580775D01*
X71076612Y-72752254D01*
X71076594Y-72752270D01*
X70874270Y-72954594D01*
X70874254Y-72954612D01*
X70702775Y-73183682D01*
X70702770Y-73183690D01*
X70565635Y-73434833D01*
X70465628Y-73702962D01*
X70404804Y-73982566D01*
X70384390Y-74267998D01*
X69315610Y-74267998D01*
X69295196Y-73982572D01*
X69289524Y-73956500D01*
X69234371Y-73702962D01*
X69234370Y-73702960D01*
X69234369Y-73702954D01*
X69134367Y-73434839D01*
X68997226Y-73183685D01*
X68997224Y-73183682D01*
X68825745Y-72954612D01*
X68825729Y-72954594D01*
X68623405Y-72752270D01*
X68623387Y-72752254D01*
X68394317Y-72580775D01*
X68394309Y-72580770D01*
X68143166Y-72443635D01*
X68143167Y-72443635D01*
X68035915Y-72403632D01*
X67875046Y-72343631D01*
X67875043Y-72343630D01*
X67875037Y-72343628D01*
X67595433Y-72282804D01*
X67310001Y-72262390D01*
X67309999Y-72262390D01*
X67024566Y-72282804D01*
X66744962Y-72343628D01*
X66476833Y-72443635D01*
X66225690Y-72580770D01*
X66225682Y-72580775D01*
X65996612Y-72752254D01*
X65996594Y-72752270D01*
X65794270Y-72954594D01*
X65794254Y-72954612D01*
X65622775Y-73183682D01*
X65622770Y-73183690D01*
X65485635Y-73434833D01*
X65385628Y-73702962D01*
X65324804Y-73982566D01*
X65304390Y-74267998D01*
X63246000Y-74267998D01*
X63246000Y-66293997D01*
X64005153Y-66293997D01*
X64005153Y-66294002D01*
X64024526Y-66651314D01*
X64024527Y-66651331D01*
X64082415Y-67004431D01*
X64082421Y-67004457D01*
X64178147Y-67349232D01*
X64178149Y-67349239D01*
X64310597Y-67681659D01*
X64310606Y-67681677D01*
X64478218Y-67997827D01*
X64679024Y-68293994D01*
X64679035Y-68294008D01*
X64806441Y-68444002D01*
X64806442Y-68444002D01*
X66015747Y-67234697D01*
X66089588Y-67336330D01*
X66267670Y-67514412D01*
X66369300Y-67588251D01*
X65157257Y-68800294D01*
X65170495Y-68812836D01*
X65455367Y-69029388D01*
X65455370Y-69029390D01*
X65761990Y-69213876D01*
X66086739Y-69364122D01*
X66086744Y-69364123D01*
X66425855Y-69478383D01*
X66775339Y-69555311D01*
X67131075Y-69593999D01*
X67131085Y-69594000D01*
X67488915Y-69594000D01*
X67488924Y-69593999D01*
X67844660Y-69555311D01*
X68194144Y-69478383D01*
X68533255Y-69364123D01*
X68533260Y-69364122D01*
X68858009Y-69213876D01*
X69164629Y-69029390D01*
X69164632Y-69029388D01*
X69449509Y-68812831D01*
X69462742Y-68800295D01*
X69462742Y-68800294D01*
X68250699Y-67588251D01*
X68352330Y-67514412D01*
X68530412Y-67336330D01*
X68604251Y-67234698D01*
X69813556Y-68444002D01*
X69940972Y-68293998D01*
X69940975Y-68293994D01*
X70003257Y-68202135D01*
X80957500Y-68202135D01*
X80957500Y-71497870D01*
X80957501Y-71497876D01*
X80963908Y-71557483D01*
X81014202Y-71692328D01*
X81014206Y-71692335D01*
X81100452Y-71807544D01*
X81100455Y-71807547D01*
X81215664Y-71893793D01*
X81215671Y-71893797D01*
X81350517Y-71944091D01*
X81350516Y-71944091D01*
X81357444Y-71944835D01*
X81410127Y-71950500D01*
X84705872Y-71950499D01*
X84765483Y-71944091D01*
X84900331Y-71893796D01*
X85015546Y-71807546D01*
X85101796Y-71692331D01*
X85152091Y-71557483D01*
X85158500Y-71497873D01*
X85158499Y-68202135D01*
X95689500Y-68202135D01*
X95689500Y-71497870D01*
X95689501Y-71497876D01*
X95695908Y-71557483D01*
X95746202Y-71692328D01*
X95746206Y-71692335D01*
X95832452Y-71807544D01*
X95832455Y-71807547D01*
X95947664Y-71893793D01*
X95947671Y-71893797D01*
X96082517Y-71944091D01*
X96082516Y-71944091D01*
X96089444Y-71944835D01*
X96142127Y-71950500D01*
X99437872Y-71950499D01*
X99497483Y-71944091D01*
X99632331Y-71893796D01*
X99747546Y-71807546D01*
X99833796Y-71692331D01*
X99884091Y-71557483D01*
X99890500Y-71497873D01*
X99890500Y-71008135D01*
X112599500Y-71008135D01*
X112599500Y-73503870D01*
X112599501Y-73503876D01*
X112605908Y-73563483D01*
X112656202Y-73698328D01*
X112656206Y-73698335D01*
X112742452Y-73813544D01*
X112742455Y-73813547D01*
X112857664Y-73899793D01*
X112857671Y-73899797D01*
X112992517Y-73950091D01*
X112992516Y-73950091D01*
X112999444Y-73950835D01*
X113052127Y-73956500D01*
X115547872Y-73956499D01*
X115607483Y-73950091D01*
X115742331Y-73899796D01*
X115857546Y-73813546D01*
X115943796Y-73698331D01*
X115994091Y-73563483D01*
X116000500Y-73503873D01*
X116000499Y-71008135D01*
X133935500Y-71008135D01*
X133935500Y-73503870D01*
X133935501Y-73503876D01*
X133941908Y-73563483D01*
X133992202Y-73698328D01*
X133992206Y-73698335D01*
X134078452Y-73813544D01*
X134078455Y-73813547D01*
X134193664Y-73899793D01*
X134193671Y-73899797D01*
X134328517Y-73950091D01*
X134328516Y-73950091D01*
X134335444Y-73950835D01*
X134388127Y-73956500D01*
X136883872Y-73956499D01*
X136943483Y-73950091D01*
X137078331Y-73899796D01*
X137193546Y-73813546D01*
X137279796Y-73698331D01*
X137330091Y-73563483D01*
X137336500Y-73503873D01*
X137336499Y-71008128D01*
X137330091Y-70948517D01*
X137326032Y-70937635D01*
X137279797Y-70813671D01*
X137279793Y-70813664D01*
X137193547Y-70698455D01*
X137193544Y-70698452D01*
X137078335Y-70612206D01*
X137078328Y-70612202D01*
X136943482Y-70561908D01*
X136943483Y-70561908D01*
X136883883Y-70555501D01*
X136883881Y-70555500D01*
X136883873Y-70555500D01*
X136883864Y-70555500D01*
X134388129Y-70555500D01*
X134388123Y-70555501D01*
X134328516Y-70561908D01*
X134193671Y-70612202D01*
X134193664Y-70612206D01*
X134078455Y-70698452D01*
X134078452Y-70698455D01*
X133992206Y-70813664D01*
X133992202Y-70813671D01*
X133941908Y-70948517D01*
X133935501Y-71008116D01*
X133935501Y-71008123D01*
X133935500Y-71008135D01*
X116000499Y-71008135D01*
X116000499Y-71008128D01*
X115994091Y-70948517D01*
X115990032Y-70937635D01*
X115943797Y-70813671D01*
X115943793Y-70813664D01*
X115857547Y-70698455D01*
X115857544Y-70698452D01*
X115742335Y-70612206D01*
X115742328Y-70612202D01*
X115607482Y-70561908D01*
X115607483Y-70561908D01*
X115547883Y-70555501D01*
X115547881Y-70555500D01*
X115547873Y-70555500D01*
X115547864Y-70555500D01*
X113052129Y-70555500D01*
X113052123Y-70555501D01*
X112992516Y-70561908D01*
X112857671Y-70612202D01*
X112857664Y-70612206D01*
X112742455Y-70698452D01*
X112742452Y-70698455D01*
X112656206Y-70813664D01*
X112656202Y-70813671D01*
X112605908Y-70948517D01*
X112599501Y-71008116D01*
X112599501Y-71008123D01*
X112599500Y-71008135D01*
X99890500Y-71008135D01*
X99890500Y-69651998D01*
X148786532Y-69651998D01*
X148786532Y-69652001D01*
X148806364Y-69878686D01*
X148806366Y-69878697D01*
X148865258Y-70098488D01*
X148865261Y-70098497D01*
X148961431Y-70304732D01*
X148961432Y-70304734D01*
X149091954Y-70491141D01*
X149252858Y-70652045D01*
X149252861Y-70652047D01*
X149439266Y-70782568D01*
X149645504Y-70878739D01*
X149865308Y-70937635D01*
X150027230Y-70951801D01*
X150091998Y-70957468D01*
X150092000Y-70957468D01*
X150092002Y-70957468D01*
X150148673Y-70952509D01*
X150318692Y-70937635D01*
X150538496Y-70878739D01*
X150744734Y-70782568D01*
X150931139Y-70652047D01*
X151092047Y-70491139D01*
X151222568Y-70304734D01*
X151318739Y-70098496D01*
X151377635Y-69878692D01*
X151397468Y-69652000D01*
X151397468Y-69651997D01*
X153787034Y-69651997D01*
X153787034Y-69652002D01*
X153806858Y-69878599D01*
X153806860Y-69878610D01*
X153865730Y-70098317D01*
X153865735Y-70098331D01*
X153961863Y-70304478D01*
X154012974Y-70377472D01*
X154692000Y-69698446D01*
X154692000Y-69704661D01*
X154719259Y-69806394D01*
X154771920Y-69897606D01*
X154846394Y-69972080D01*
X154937606Y-70024741D01*
X155039339Y-70052000D01*
X155045553Y-70052000D01*
X154366526Y-70731025D01*
X154439513Y-70782132D01*
X154439521Y-70782136D01*
X154645668Y-70878264D01*
X154645682Y-70878269D01*
X154865389Y-70937139D01*
X154865400Y-70937141D01*
X155091998Y-70956966D01*
X155092002Y-70956966D01*
X155318599Y-70937141D01*
X155318610Y-70937139D01*
X155538317Y-70878269D01*
X155538331Y-70878264D01*
X155744478Y-70782136D01*
X155817471Y-70731024D01*
X155138447Y-70052000D01*
X155144661Y-70052000D01*
X155246394Y-70024741D01*
X155337606Y-69972080D01*
X155412080Y-69897606D01*
X155464741Y-69806394D01*
X155492000Y-69704661D01*
X155492000Y-69698447D01*
X156171024Y-70377471D01*
X156222136Y-70304478D01*
X156318264Y-70098331D01*
X156318269Y-70098317D01*
X156377139Y-69878610D01*
X156377141Y-69878599D01*
X156396966Y-69652002D01*
X156396966Y-69651997D01*
X156377141Y-69425400D01*
X156377139Y-69425389D01*
X156318269Y-69205682D01*
X156318264Y-69205668D01*
X156222136Y-68999521D01*
X156222132Y-68999513D01*
X156171025Y-68926526D01*
X155492000Y-69605551D01*
X155492000Y-69599339D01*
X155464741Y-69497606D01*
X155412080Y-69406394D01*
X155337606Y-69331920D01*
X155246394Y-69279259D01*
X155144661Y-69252000D01*
X155138448Y-69252000D01*
X155817472Y-68572974D01*
X155744478Y-68521863D01*
X155538331Y-68425735D01*
X155538317Y-68425730D01*
X155318610Y-68366860D01*
X155318599Y-68366858D01*
X155092002Y-68347034D01*
X155091998Y-68347034D01*
X154865400Y-68366858D01*
X154865389Y-68366860D01*
X154645682Y-68425730D01*
X154645673Y-68425734D01*
X154439516Y-68521866D01*
X154439512Y-68521868D01*
X154366526Y-68572973D01*
X154366526Y-68572974D01*
X155045553Y-69252000D01*
X155039339Y-69252000D01*
X154937606Y-69279259D01*
X154846394Y-69331920D01*
X154771920Y-69406394D01*
X154719259Y-69497606D01*
X154692000Y-69599339D01*
X154692000Y-69605552D01*
X154012974Y-68926526D01*
X154012973Y-68926526D01*
X153961868Y-68999512D01*
X153961866Y-68999516D01*
X153865734Y-69205673D01*
X153865730Y-69205682D01*
X153806860Y-69425389D01*
X153806858Y-69425400D01*
X153787034Y-69651997D01*
X151397468Y-69651997D01*
X151377635Y-69425308D01*
X151318739Y-69205504D01*
X151222568Y-68999266D01*
X151092047Y-68812861D01*
X151092045Y-68812858D01*
X150931141Y-68651954D01*
X150744734Y-68521432D01*
X150744732Y-68521431D01*
X150538497Y-68425261D01*
X150538488Y-68425258D01*
X150318697Y-68366366D01*
X150318693Y-68366365D01*
X150318692Y-68366365D01*
X150318691Y-68366364D01*
X150318686Y-68366364D01*
X150092002Y-68346532D01*
X150091998Y-68346532D01*
X149865313Y-68366364D01*
X149865302Y-68366366D01*
X149645511Y-68425258D01*
X149645502Y-68425261D01*
X149439267Y-68521431D01*
X149439265Y-68521432D01*
X149252858Y-68651954D01*
X149091954Y-68812858D01*
X148961432Y-68999265D01*
X148961431Y-68999267D01*
X148865261Y-69205502D01*
X148865258Y-69205511D01*
X148806366Y-69425302D01*
X148806364Y-69425313D01*
X148786532Y-69651998D01*
X99890500Y-69651998D01*
X99890499Y-68202128D01*
X99884091Y-68142517D01*
X99845852Y-68039994D01*
X99833797Y-68007671D01*
X99833793Y-68007664D01*
X99747547Y-67892455D01*
X99747544Y-67892452D01*
X99632335Y-67806206D01*
X99632328Y-67806202D01*
X99497482Y-67755908D01*
X99497483Y-67755908D01*
X99437883Y-67749501D01*
X99437881Y-67749500D01*
X99437873Y-67749500D01*
X99437864Y-67749500D01*
X96142129Y-67749500D01*
X96142123Y-67749501D01*
X96082516Y-67755908D01*
X95947671Y-67806202D01*
X95947664Y-67806206D01*
X95832455Y-67892452D01*
X95832452Y-67892455D01*
X95746206Y-68007664D01*
X95746202Y-68007671D01*
X95695908Y-68142517D01*
X95689501Y-68202116D01*
X95689501Y-68202123D01*
X95689500Y-68202135D01*
X85158499Y-68202135D01*
X85158499Y-68202128D01*
X85152091Y-68142517D01*
X85113852Y-68039994D01*
X85101797Y-68007671D01*
X85101793Y-68007664D01*
X85015547Y-67892455D01*
X85015544Y-67892452D01*
X84900335Y-67806206D01*
X84900328Y-67806202D01*
X84765482Y-67755908D01*
X84765483Y-67755908D01*
X84705883Y-67749501D01*
X84705881Y-67749500D01*
X84705873Y-67749500D01*
X84705864Y-67749500D01*
X81410129Y-67749500D01*
X81410123Y-67749501D01*
X81350516Y-67755908D01*
X81215671Y-67806202D01*
X81215664Y-67806206D01*
X81100455Y-67892452D01*
X81100452Y-67892455D01*
X81014206Y-68007664D01*
X81014202Y-68007671D01*
X80963908Y-68142517D01*
X80957501Y-68202116D01*
X80957501Y-68202123D01*
X80957500Y-68202135D01*
X70003257Y-68202135D01*
X70141781Y-67997827D01*
X70309393Y-67681677D01*
X70309402Y-67681659D01*
X70441850Y-67349239D01*
X70441852Y-67349232D01*
X70537578Y-67004457D01*
X70537584Y-67004431D01*
X70595472Y-66651331D01*
X70595473Y-66651314D01*
X70614847Y-66294002D01*
X70614847Y-66293997D01*
X70601075Y-66039997D01*
X162303153Y-66039997D01*
X162303153Y-66040002D01*
X162322526Y-66397314D01*
X162322527Y-66397331D01*
X162380415Y-66750431D01*
X162380421Y-66750457D01*
X162476147Y-67095232D01*
X162476149Y-67095239D01*
X162608597Y-67427659D01*
X162608606Y-67427677D01*
X162776218Y-67743827D01*
X162977024Y-68039994D01*
X162977035Y-68040008D01*
X163104441Y-68190002D01*
X163104442Y-68190002D01*
X164313747Y-66980697D01*
X164387588Y-67082330D01*
X164565670Y-67260412D01*
X164667300Y-67334251D01*
X163455257Y-68546294D01*
X163468495Y-68558836D01*
X163753367Y-68775388D01*
X163753370Y-68775390D01*
X164059990Y-68959876D01*
X164384739Y-69110122D01*
X164384744Y-69110123D01*
X164723855Y-69224383D01*
X165073339Y-69301311D01*
X165429075Y-69339999D01*
X165429085Y-69340000D01*
X165786915Y-69340000D01*
X165786924Y-69339999D01*
X166142660Y-69301311D01*
X166492144Y-69224383D01*
X166831255Y-69110123D01*
X166831260Y-69110122D01*
X167156009Y-68959876D01*
X167462629Y-68775390D01*
X167462632Y-68775388D01*
X167747509Y-68558831D01*
X167760742Y-68546295D01*
X167760742Y-68546294D01*
X166548699Y-67334251D01*
X166650330Y-67260412D01*
X166828412Y-67082330D01*
X166902251Y-66980698D01*
X168111556Y-68190002D01*
X168238972Y-68039998D01*
X168238975Y-68039994D01*
X168439781Y-67743827D01*
X168607393Y-67427677D01*
X168607402Y-67427659D01*
X168739850Y-67095239D01*
X168739852Y-67095232D01*
X168835578Y-66750457D01*
X168835584Y-66750431D01*
X168893472Y-66397331D01*
X168893473Y-66397314D01*
X168912847Y-66040002D01*
X168912847Y-66039997D01*
X168893473Y-65682685D01*
X168893472Y-65682668D01*
X168835584Y-65329568D01*
X168835578Y-65329542D01*
X168739852Y-64984767D01*
X168739850Y-64984760D01*
X168607402Y-64652340D01*
X168607393Y-64652322D01*
X168439781Y-64336172D01*
X168238975Y-64040005D01*
X168238964Y-64039991D01*
X168111556Y-63889996D01*
X166902251Y-65099301D01*
X166828412Y-64997670D01*
X166650330Y-64819588D01*
X166548698Y-64745748D01*
X167760742Y-63533704D01*
X167747504Y-63521163D01*
X167462632Y-63304611D01*
X167462629Y-63304609D01*
X167156009Y-63120123D01*
X166831260Y-62969877D01*
X166831255Y-62969876D01*
X166492144Y-62855616D01*
X166142660Y-62778688D01*
X165786924Y-62740000D01*
X165429075Y-62740000D01*
X165073339Y-62778688D01*
X164723855Y-62855616D01*
X164384744Y-62969876D01*
X164384739Y-62969877D01*
X164059990Y-63120123D01*
X163753370Y-63304609D01*
X163753367Y-63304611D01*
X163468486Y-63521170D01*
X163468485Y-63521171D01*
X163455257Y-63533702D01*
X163455256Y-63533703D01*
X164667301Y-64745748D01*
X164565670Y-64819588D01*
X164387588Y-64997670D01*
X164313748Y-65099301D01*
X163104442Y-63889995D01*
X163104441Y-63889996D01*
X162977033Y-64039992D01*
X162776218Y-64336172D01*
X162608606Y-64652322D01*
X162608597Y-64652340D01*
X162476149Y-64984760D01*
X162476147Y-64984767D01*
X162380421Y-65329542D01*
X162380415Y-65329568D01*
X162322527Y-65682668D01*
X162322526Y-65682685D01*
X162303153Y-66039997D01*
X70601075Y-66039997D01*
X70595473Y-65936685D01*
X70595472Y-65936668D01*
X70537584Y-65583568D01*
X70537578Y-65583542D01*
X70441852Y-65238767D01*
X70441850Y-65238760D01*
X70309402Y-64906340D01*
X70309393Y-64906322D01*
X70141781Y-64590172D01*
X69940975Y-64294005D01*
X69940964Y-64293991D01*
X69813556Y-64143996D01*
X68604251Y-65353301D01*
X68530412Y-65251670D01*
X68352330Y-65073588D01*
X68250698Y-64999748D01*
X69462742Y-63787704D01*
X69449504Y-63775163D01*
X69164632Y-63558611D01*
X69164629Y-63558609D01*
X68858009Y-63374123D01*
X68533260Y-63223877D01*
X68533255Y-63223876D01*
X68194144Y-63109616D01*
X67844660Y-63032688D01*
X67488924Y-62994000D01*
X67131075Y-62994000D01*
X66775339Y-63032688D01*
X66425855Y-63109616D01*
X66086744Y-63223876D01*
X66086739Y-63223877D01*
X65761990Y-63374123D01*
X65455370Y-63558609D01*
X65455367Y-63558611D01*
X65170486Y-63775170D01*
X65170485Y-63775171D01*
X65157257Y-63787702D01*
X65157256Y-63787703D01*
X66369301Y-64999748D01*
X66267670Y-65073588D01*
X66089588Y-65251670D01*
X66015748Y-65353301D01*
X64806442Y-64143995D01*
X64806441Y-64143996D01*
X64679033Y-64293992D01*
X64478218Y-64590172D01*
X64310606Y-64906322D01*
X64310597Y-64906340D01*
X64178149Y-65238760D01*
X64178147Y-65238767D01*
X64082421Y-65583542D01*
X64082415Y-65583568D01*
X64024527Y-65936668D01*
X64024526Y-65936685D01*
X64005153Y-66293997D01*
X63246000Y-66293997D01*
X63246000Y-65233480D01*
X63246195Y-65226528D01*
X63246800Y-65215753D01*
X63264473Y-64901048D01*
X63266027Y-64887253D01*
X63320049Y-64569299D01*
X63323143Y-64555747D01*
X63412423Y-64245851D01*
X63417016Y-64232727D01*
X63453770Y-64143995D01*
X63540430Y-63934775D01*
X63546452Y-63922269D01*
X63702467Y-63639983D01*
X63709854Y-63628228D01*
X63896482Y-63365201D01*
X63905128Y-63354358D01*
X64120049Y-63113861D01*
X64129861Y-63104049D01*
X64370358Y-62889128D01*
X64381201Y-62880482D01*
X64644228Y-62693854D01*
X64655983Y-62686467D01*
X64938269Y-62530452D01*
X64950775Y-62524430D01*
X65248727Y-62401016D01*
X65261847Y-62396424D01*
X65571753Y-62307141D01*
X65585299Y-62304049D01*
X65903253Y-62250027D01*
X65917048Y-62248473D01*
X66205283Y-62232286D01*
X66242529Y-62230195D01*
X66249481Y-62230000D01*
X166160519Y-62230000D01*
X166167471Y-62230195D01*
G37*
%TD.AperFunction*%
%TD*%
M02*
