%TF.GenerationSoftware,KiCad,Pcbnew,8.0.5*%
%TF.CreationDate,2024-11-22T10:32:01-05:00*%
%TF.ProjectId,power_supply,706f7765-725f-4737-9570-706c792e6b69,rev?*%
%TF.SameCoordinates,Original*%
%TF.FileFunction,Soldermask,Bot*%
%TF.FilePolarity,Negative*%
%FSLAX46Y46*%
G04 Gerber Fmt 4.6, Leading zero omitted, Abs format (unit mm)*
G04 Created by KiCad (PCBNEW 8.0.5) date 2024-11-22 10:32:01*
%MOMM*%
%LPD*%
G01*
G04 APERTURE LIST*
%ADD10C,1.600000*%
%ADD11C,3.000000*%
%ADD12C,5.600000*%
%ADD13R,2.400000X2.400000*%
%ADD14C,2.400000*%
%ADD15R,3.200000X3.200000*%
%ADD16O,3.200000X3.200000*%
G04 APERTURE END LIST*
D10*
%TO.C,C4*%
X155092000Y-102164000D03*
X150092000Y-102164000D03*
%TD*%
D11*
%TO.C,J5*%
X148844000Y-96012000D03*
X153924000Y-96012000D03*
%TD*%
D12*
%TO.C,REF\u002A\u002A*%
X165608000Y-104704000D03*
%TD*%
D13*
%TO.C,C2*%
X114300000Y-92576000D03*
D14*
X114300000Y-100076000D03*
%TD*%
D15*
%TO.C,D4*%
X97790000Y-90170000D03*
D16*
X97790000Y-102870000D03*
%TD*%
D12*
%TO.C,REF\u002A\u002A*%
X67310000Y-66294000D03*
%TD*%
D13*
%TO.C,C5*%
X135636000Y-72256000D03*
D14*
X135636000Y-79756000D03*
%TD*%
D11*
%TO.C,J3*%
X160782000Y-85852000D03*
X165862000Y-85852000D03*
%TD*%
D15*
%TO.C,D3*%
X83058000Y-69850000D03*
D16*
X83058000Y-82550000D03*
%TD*%
D11*
%TO.C,J1*%
X67310000Y-89154000D03*
X72390000Y-89154000D03*
%TD*%
D12*
%TO.C,REF\u002A\u002A*%
X67310000Y-104648000D03*
%TD*%
D13*
%TO.C,C1*%
X114300000Y-72256000D03*
D14*
X114300000Y-79756000D03*
%TD*%
D12*
%TO.C,REF\u002A\u002A*%
X165608000Y-66040000D03*
%TD*%
D11*
%TO.C,J6*%
X148844000Y-76200000D03*
X153924000Y-76200000D03*
%TD*%
D10*
%TO.C,C3*%
X150092000Y-69652000D03*
X155092000Y-69652000D03*
%TD*%
D11*
%TO.C,J4*%
X67310000Y-74268000D03*
X72390000Y-74268000D03*
%TD*%
D13*
%TO.C,C6*%
X135636000Y-92964000D03*
D14*
X135636000Y-100464000D03*
%TD*%
D11*
%TO.C,J6*%
X160782000Y-76200000D03*
X165862000Y-76200000D03*
%TD*%
D15*
%TO.C,D1*%
X97790000Y-69850000D03*
D16*
X97790000Y-82550000D03*
%TD*%
D11*
%TO.C,J5*%
X160782000Y-96012000D03*
X165862000Y-96012000D03*
%TD*%
%TO.C,J2*%
X67310000Y-81634000D03*
X72390000Y-81634000D03*
%TD*%
D15*
%TO.C,D2*%
X83058000Y-90170000D03*
D16*
X83058000Y-102870000D03*
%TD*%
D11*
%TO.C,J3*%
X148844000Y-85852000D03*
X153924000Y-85852000D03*
%TD*%
M02*
