%TF.GenerationSoftware,KiCad,Pcbnew,8.0.5*%
%TF.CreationDate,2024-11-22T10:32:01-05:00*%
%TF.ProjectId,power_supply,706f7765-725f-4737-9570-706c792e6b69,rev?*%
%TF.SameCoordinates,Original*%
%TF.FileFunction,Copper,L1,Top*%
%TF.FilePolarity,Positive*%
%FSLAX46Y46*%
G04 Gerber Fmt 4.6, Leading zero omitted, Abs format (unit mm)*
G04 Created by KiCad (PCBNEW 8.0.5) date 2024-11-22 10:32:01*
%MOMM*%
%LPD*%
G01*
G04 APERTURE LIST*
%TA.AperFunction,ComponentPad*%
%ADD10C,1.600000*%
%TD*%
%TA.AperFunction,ComponentPad*%
%ADD11C,3.000000*%
%TD*%
%TA.AperFunction,ComponentPad*%
%ADD12C,5.600000*%
%TD*%
%TA.AperFunction,ComponentPad*%
%ADD13R,2.400000X2.400000*%
%TD*%
%TA.AperFunction,ComponentPad*%
%ADD14C,2.400000*%
%TD*%
%TA.AperFunction,ComponentPad*%
%ADD15R,3.200000X3.200000*%
%TD*%
%TA.AperFunction,ComponentPad*%
%ADD16O,3.200000X3.200000*%
%TD*%
%TA.AperFunction,Conductor*%
%ADD17C,6.000000*%
%TD*%
%TA.AperFunction,Conductor*%
%ADD18C,4.000000*%
%TD*%
G04 APERTURE END LIST*
D10*
%TO.P,C4,1*%
%TO.N,GND*%
X155092000Y-102164000D03*
%TO.P,C4,2*%
%TO.N,/V-*%
X150092000Y-102164000D03*
%TD*%
D11*
%TO.P,J5,1,1*%
%TO.N,/V-*%
X148844000Y-96012000D03*
%TO.P,J5,2,2*%
X153924000Y-96012000D03*
%TD*%
D12*
%TO.P,REF\u002A\u002A,1*%
%TO.N,GND*%
X165608000Y-104704000D03*
%TD*%
D13*
%TO.P,C2,1*%
%TO.N,GND*%
X114300000Y-92576000D03*
D14*
%TO.P,C2,2*%
%TO.N,/V-*%
X114300000Y-100076000D03*
%TD*%
D15*
%TO.P,D4,1,K*%
%TO.N,/AC1*%
X97790000Y-90170000D03*
D16*
%TO.P,D4,2,A*%
%TO.N,/V-*%
X97790000Y-102870000D03*
%TD*%
D12*
%TO.P,REF\u002A\u002A,1*%
%TO.N,GND*%
X67310000Y-66294000D03*
%TD*%
D13*
%TO.P,C5,1*%
%TO.N,/V+*%
X135636000Y-72256000D03*
D14*
%TO.P,C5,2*%
%TO.N,GND*%
X135636000Y-79756000D03*
%TD*%
D11*
%TO.P,J3,1,1*%
%TO.N,GND*%
X160782000Y-85852000D03*
%TO.P,J3,2,2*%
X165862000Y-85852000D03*
%TD*%
D15*
%TO.P,D3,1,K*%
%TO.N,/V+*%
X83058000Y-69850000D03*
D16*
%TO.P,D3,2,A*%
%TO.N,/AC2*%
X83058000Y-82550000D03*
%TD*%
D11*
%TO.P,J1,1,1*%
%TO.N,/AC1*%
X67310000Y-89154000D03*
%TO.P,J1,2,2*%
X72390000Y-89154000D03*
%TD*%
D12*
%TO.P,REF\u002A\u002A,1*%
%TO.N,GND*%
X67310000Y-104648000D03*
%TD*%
D13*
%TO.P,C1,1*%
%TO.N,/V+*%
X114300000Y-72256000D03*
D14*
%TO.P,C1,2*%
%TO.N,GND*%
X114300000Y-79756000D03*
%TD*%
D12*
%TO.P,REF\u002A\u002A,1*%
%TO.N,GND*%
X165608000Y-66040000D03*
%TD*%
D11*
%TO.P,J6,1,1*%
%TO.N,/V+*%
X148844000Y-76200000D03*
%TO.P,J6,2,2*%
X153924000Y-76200000D03*
%TD*%
D10*
%TO.P,C3,1*%
%TO.N,/V+*%
X150092000Y-69652000D03*
%TO.P,C3,2*%
%TO.N,GND*%
X155092000Y-69652000D03*
%TD*%
D11*
%TO.P,J4,1,1*%
%TO.N,/AC2*%
X67310000Y-74268000D03*
%TO.P,J4,2,2*%
X72390000Y-74268000D03*
%TD*%
D13*
%TO.P,C6,1*%
%TO.N,GND*%
X135636000Y-92964000D03*
D14*
%TO.P,C6,2*%
%TO.N,/V-*%
X135636000Y-100464000D03*
%TD*%
D11*
%TO.P,J6,1,1*%
%TO.N,/V+*%
X160782000Y-76200000D03*
%TO.P,J6,2,2*%
X165862000Y-76200000D03*
%TD*%
D15*
%TO.P,D1,1,K*%
%TO.N,/V+*%
X97790000Y-69850000D03*
D16*
%TO.P,D1,2,A*%
%TO.N,/AC1*%
X97790000Y-82550000D03*
%TD*%
D11*
%TO.P,J5,1,1*%
%TO.N,/V-*%
X160782000Y-96012000D03*
%TO.P,J5,2,2*%
X165862000Y-96012000D03*
%TD*%
%TO.P,J2,1,1*%
%TO.N,GND*%
X67310000Y-81634000D03*
%TO.P,J2,2,2*%
X72390000Y-81634000D03*
%TD*%
D15*
%TO.P,D2,1,K*%
%TO.N,/AC2*%
X83058000Y-90170000D03*
D16*
%TO.P,D2,2,A*%
%TO.N,/V-*%
X83058000Y-102870000D03*
%TD*%
D11*
%TO.P,J3,1,1*%
%TO.N,GND*%
X148844000Y-85852000D03*
%TO.P,J3,2,2*%
X153924000Y-85852000D03*
%TD*%
D17*
%TO.N,/V+*%
X151432000Y-76200000D02*
X165862000Y-76200000D01*
X83058000Y-69850000D02*
X97790000Y-69850000D01*
X114300000Y-72256000D02*
X147488000Y-72256000D01*
X147488000Y-72256000D02*
X151432000Y-76200000D01*
X111894000Y-69850000D02*
X114300000Y-72256000D01*
X97790000Y-69850000D02*
X111894000Y-69850000D01*
X153924000Y-76200000D02*
X148844000Y-76200000D01*
X147488000Y-72256000D02*
X150092000Y-69652000D01*
%TO.N,/V-*%
X148004000Y-100076000D02*
X152068000Y-96012000D01*
X97790000Y-102870000D02*
X111506000Y-102870000D01*
X111506000Y-102870000D02*
X114300000Y-100076000D01*
X153924000Y-96012000D02*
X148844000Y-96012000D01*
X114300000Y-100076000D02*
X148004000Y-100076000D01*
X83058000Y-102870000D02*
X97790000Y-102870000D01*
X148004000Y-100076000D02*
X150092000Y-102164000D01*
X152068000Y-96012000D02*
X165862000Y-96012000D01*
D18*
%TO.N,/AC1*%
X90678000Y-97282000D02*
X97790000Y-90170000D01*
X72898000Y-89154000D02*
X81026000Y-97282000D01*
X67310000Y-89154000D02*
X72898000Y-89154000D01*
D17*
X97790000Y-90170000D02*
X97790000Y-82550000D01*
D18*
X81026000Y-97282000D02*
X90678000Y-97282000D01*
D17*
%TO.N,/AC2*%
X83058000Y-90170000D02*
X83058000Y-82550000D01*
D18*
X75184000Y-74676000D02*
X83058000Y-82550000D01*
X67310000Y-74268000D02*
X74014000Y-74268000D01*
%TD*%
M02*
