%TF.GenerationSoftware,KiCad,Pcbnew,8.0.7*%
%TF.CreationDate,2025-02-07T19:18:43-05:00*%
%TF.ProjectId,power_supply,706f7765-725f-4737-9570-706c792e6b69,rev?*%
%TF.SameCoordinates,Original*%
%TF.FileFunction,Soldermask,Top*%
%TF.FilePolarity,Negative*%
%FSLAX46Y46*%
G04 Gerber Fmt 4.6, Leading zero omitted, Abs format (unit mm)*
G04 Created by KiCad (PCBNEW 8.0.7) date 2025-02-07 19:18:43*
%MOMM*%
%LPD*%
G01*
G04 APERTURE LIST*
%ADD10C,3.000000*%
%ADD11R,2.400000X2.400000*%
%ADD12C,2.400000*%
%ADD13R,3.200000X3.200000*%
%ADD14O,3.200000X3.200000*%
%ADD15C,3.200000*%
%ADD16R,2.600000X2.600000*%
%ADD17C,2.600000*%
%ADD18C,5.600000*%
G04 APERTURE END LIST*
D10*
%TO.C,J5*%
X169772000Y-104140000D03*
X169772000Y-99060000D03*
%TD*%
D11*
%TO.C,C2*%
X114300000Y-92576000D03*
D12*
X114300000Y-100076000D03*
%TD*%
D13*
%TO.C,D4*%
X97790000Y-90170000D03*
D14*
X97790000Y-102870000D03*
%TD*%
D11*
%TO.C,C5*%
X135128000Y-72256000D03*
D12*
X135128000Y-79756000D03*
%TD*%
D15*
%TO.C,REF\u002A\u002A*%
X186182000Y-104648000D03*
%TD*%
D10*
%TO.C,J3*%
X176276000Y-88392000D03*
X176276000Y-83312000D03*
%TD*%
D13*
%TO.C,D3*%
X83058000Y-69850000D03*
D14*
X83058000Y-82550000D03*
%TD*%
D10*
%TO.C,J1*%
X67056000Y-97028000D03*
X72136000Y-97028000D03*
%TD*%
D11*
%TO.C,C8*%
X155702000Y-93084000D03*
D12*
X155702000Y-100584000D03*
%TD*%
D11*
%TO.C,C7*%
X155702000Y-72136000D03*
D12*
X155702000Y-79636000D03*
%TD*%
D11*
%TO.C,C1*%
X114300000Y-72256000D03*
D12*
X114300000Y-79756000D03*
%TD*%
D16*
%TO.C,J7*%
X184963000Y-88352000D03*
D17*
X184963000Y-83352000D03*
%TD*%
D18*
%TO.C,REF\u002A\u002A*%
X186182000Y-65786000D03*
%TD*%
D10*
%TO.C,J6*%
X169772000Y-73406000D03*
X169772000Y-68326000D03*
%TD*%
%TO.C,J4*%
X67310000Y-74268000D03*
X72390000Y-74268000D03*
%TD*%
D11*
%TO.C,C6*%
X135128000Y-92964000D03*
D12*
X135128000Y-100464000D03*
%TD*%
D10*
%TO.C,J6*%
X176276000Y-73406000D03*
X176276000Y-68326000D03*
%TD*%
D13*
%TO.C,D1*%
X97790000Y-69850000D03*
D14*
X97790000Y-82550000D03*
%TD*%
D10*
%TO.C,J5*%
X176276000Y-104140000D03*
X176276000Y-99060000D03*
%TD*%
%TO.C,J2*%
X67310000Y-85344000D03*
X72390000Y-85344000D03*
%TD*%
D15*
%TO.C,REF\u002A\u002A*%
X67310000Y-66294000D03*
%TD*%
D13*
%TO.C,D2*%
X83058000Y-90170000D03*
D14*
X83058000Y-102870000D03*
%TD*%
D10*
%TO.C,J3*%
X169772000Y-88392000D03*
X169772000Y-83312000D03*
%TD*%
D15*
%TO.C,REF\u002A\u002A*%
X67310000Y-104648000D03*
%TD*%
M02*
