%TF.GenerationSoftware,KiCad,Pcbnew,9.0.0*%
%TF.CreationDate,2025-03-24T19:19:09-04:00*%
%TF.ProjectId,classab-amp,636c6173-7361-4622-9d61-6d702e6b6963,rev?*%
%TF.SameCoordinates,Original*%
%TF.FileFunction,Copper,L2,Bot*%
%TF.FilePolarity,Positive*%
%FSLAX46Y46*%
G04 Gerber Fmt 4.6, Leading zero omitted, Abs format (unit mm)*
G04 Created by KiCad (PCBNEW 9.0.0) date 2025-03-24 19:19:09*
%MOMM*%
%LPD*%
G01*
G04 APERTURE LIST*
G04 Aperture macros list*
%AMRoundRect*
0 Rectangle with rounded corners*
0 $1 Rounding radius*
0 $2 $3 $4 $5 $6 $7 $8 $9 X,Y pos of 4 corners*
0 Add a 4 corners polygon primitive as box body*
4,1,4,$2,$3,$4,$5,$6,$7,$8,$9,$2,$3,0*
0 Add four circle primitives for the rounded corners*
1,1,$1+$1,$2,$3*
1,1,$1+$1,$4,$5*
1,1,$1+$1,$6,$7*
1,1,$1+$1,$8,$9*
0 Add four rect primitives between the rounded corners*
20,1,$1+$1,$2,$3,$4,$5,0*
20,1,$1+$1,$4,$5,$6,$7,0*
20,1,$1+$1,$6,$7,$8,$9,0*
20,1,$1+$1,$8,$9,$2,$3,0*%
G04 Aperture macros list end*
%TA.AperFunction,ComponentPad*%
%ADD10C,1.400000*%
%TD*%
%TA.AperFunction,ComponentPad*%
%ADD11O,1.400000X1.400000*%
%TD*%
%TA.AperFunction,ComponentPad*%
%ADD12R,1.710000X1.800000*%
%TD*%
%TA.AperFunction,ComponentPad*%
%ADD13O,1.710000X1.800000*%
%TD*%
%TA.AperFunction,ComponentPad*%
%ADD14R,1.200000X1.200000*%
%TD*%
%TA.AperFunction,ComponentPad*%
%ADD15C,1.200000*%
%TD*%
%TA.AperFunction,ComponentPad*%
%ADD16R,1.500000X1.500000*%
%TD*%
%TA.AperFunction,ComponentPad*%
%ADD17C,1.500000*%
%TD*%
%TA.AperFunction,ComponentPad*%
%ADD18R,1.600000X1.600000*%
%TD*%
%TA.AperFunction,ComponentPad*%
%ADD19C,1.600000*%
%TD*%
%TA.AperFunction,ComponentPad*%
%ADD20C,1.308000*%
%TD*%
%TA.AperFunction,ComponentPad*%
%ADD21RoundRect,0.250001X0.949999X-0.949999X0.949999X0.949999X-0.949999X0.949999X-0.949999X-0.949999X0*%
%TD*%
%TA.AperFunction,ComponentPad*%
%ADD22C,2.400000*%
%TD*%
%TA.AperFunction,ComponentPad*%
%ADD23O,1.600000X1.600000*%
%TD*%
%TA.AperFunction,ComponentPad*%
%ADD24C,3.000000*%
%TD*%
%TA.AperFunction,ComponentPad*%
%ADD25R,1.800000X1.710000*%
%TD*%
%TA.AperFunction,ComponentPad*%
%ADD26O,1.800000X1.710000*%
%TD*%
%TA.AperFunction,ComponentPad*%
%ADD27R,2.200000X2.200000*%
%TD*%
%TA.AperFunction,ComponentPad*%
%ADD28O,2.200000X2.200000*%
%TD*%
%TA.AperFunction,ComponentPad*%
%ADD29O,2.400000X2.400000*%
%TD*%
%TA.AperFunction,ComponentPad*%
%ADD30R,4.500000X2.500000*%
%TD*%
%TA.AperFunction,ComponentPad*%
%ADD31O,4.500000X2.500000*%
%TD*%
%TA.AperFunction,Conductor*%
%ADD32C,1.000000*%
%TD*%
%TA.AperFunction,Conductor*%
%ADD33C,2.000000*%
%TD*%
%TA.AperFunction,Conductor*%
%ADD34C,5.000000*%
%TD*%
%TA.AperFunction,Conductor*%
%ADD35C,4.000000*%
%TD*%
%TA.AperFunction,Conductor*%
%ADD36C,0.500000*%
%TD*%
G04 APERTURE END LIST*
D10*
%TO.P,R5,1*%
%TO.N,Net-(Q1-C)*%
X216408000Y-100584000D03*
D11*
%TO.P,R5,2*%
%TO.N,Net-(C2-Pad2)*%
X216408000Y-92964000D03*
%TD*%
D12*
%TO.P,Q12,1,E*%
%TO.N,Net-(Q12-E)*%
X253227000Y-109861000D03*
D13*
%TO.P,Q12,2,C*%
%TO.N,Net-(Q11-E)*%
X250947000Y-109861000D03*
%TO.P,Q12,3,B*%
%TO.N,Net-(Q12-B)*%
X248667000Y-109861000D03*
%TD*%
D10*
%TO.P,R9,1*%
%TO.N,B+*%
X220472000Y-92964000D03*
D11*
%TO.P,R9,2*%
%TO.N,Net-(Q1-B)*%
X220472000Y-100584000D03*
%TD*%
D14*
%TO.P,C5,1*%
%TO.N,B+*%
X239776000Y-54356000D03*
D15*
%TO.P,C5,2*%
%TO.N,Net-(C5-Pad2)*%
X237776000Y-54356000D03*
%TD*%
D16*
%TO.P,Q4,1,E*%
%TO.N,Net-(Q1-B)*%
X219718000Y-109982000D03*
D17*
%TO.P,Q4,2,B*%
%TO.N,Net-(Q1-C)*%
X217178000Y-107442000D03*
%TO.P,Q4,3,C*%
%TO.N,Net-(Q4-C)*%
X219718000Y-104902000D03*
%TD*%
D18*
%TO.P,C13,1*%
%TO.N,B+*%
X251068651Y-62230000D03*
D19*
%TO.P,C13,2*%
%TO.N,PWRGND*%
X246068651Y-62230000D03*
%TD*%
D20*
%TO.P,RV1,1,1*%
%TO.N,Net-(Q11-B)*%
X226822000Y-94996000D03*
%TO.P,RV1,2,2*%
X226822000Y-97536000D03*
%TO.P,RV1,3,3*%
%TO.N,Net-(R18-Pad1)*%
X226822000Y-100076000D03*
%TD*%
D16*
%TO.P,Q1,1,E*%
%TO.N,B+*%
X224028000Y-104902000D03*
D17*
%TO.P,Q1,2,B*%
%TO.N,Net-(Q1-B)*%
X226568000Y-107442000D03*
%TO.P,Q1,3,C*%
%TO.N,Net-(Q1-C)*%
X224028000Y-109982000D03*
%TD*%
D10*
%TO.P,R3,1*%
%TO.N,Net-(J2-Pin_2)*%
X224282000Y-72136000D03*
D11*
%TO.P,R3,2*%
%TO.N,Net-(C3-Pad2)*%
X231902000Y-72136000D03*
%TD*%
D16*
%TO.P,Q3,1,E*%
%TO.N,Net-(Q3-E)*%
X219456000Y-149630000D03*
D17*
%TO.P,Q3,2,B*%
%TO.N,Net-(Q3-B)*%
X216916000Y-147090000D03*
%TO.P,Q3,3,C*%
%TO.N,Net-(Q2-C)*%
X219456000Y-144550000D03*
%TD*%
D21*
%TO.P,J2,1,Pin_1*%
%TO.N,GNDS*%
X217424000Y-70500000D03*
D22*
%TO.P,J2,2,Pin_2*%
%TO.N,Net-(J2-Pin_2)*%
X217424000Y-67000000D03*
%TO.P,J2,3,Pin_3*%
%TO.N,Net-(J2-Pin_3)*%
X217424000Y-63500000D03*
%TD*%
D19*
%TO.P,R18,1*%
%TO.N,Net-(R18-Pad1)*%
X232918000Y-103661000D03*
D23*
%TO.P,R18,2*%
%TO.N,Net-(Q11-E)*%
X232918000Y-101121000D03*
%TD*%
D24*
%TO.P,J3,1,1*%
%TO.N,B-*%
X255778000Y-132842000D03*
%TO.P,J3,2,2*%
X255778000Y-127762000D03*
%TD*%
D25*
%TO.P,Q11,1,E*%
%TO.N,Net-(Q11-E)*%
X271018000Y-96630000D03*
D26*
%TO.P,Q11,2,C*%
%TO.N,Net-(Q10-C)*%
X271018000Y-98910000D03*
%TO.P,Q11,3,B*%
%TO.N,Net-(Q11-B)*%
X271018000Y-101190000D03*
%TD*%
D24*
%TO.P,J4,1,1*%
%TO.N,B+*%
X259588000Y-73660000D03*
%TO.P,J4,2,2*%
X259588000Y-68580000D03*
%TD*%
D19*
%TO.P,C1,1*%
%TO.N,Net-(J2-Pin_3)*%
X225592000Y-63754000D03*
%TO.P,C1,2*%
%TO.N,GNDS*%
X230592000Y-63754000D03*
%TD*%
D25*
%TO.P,Q13,1,E*%
%TO.N,Net-(Q13-E)*%
X271018000Y-84900000D03*
D26*
%TO.P,Q13,2,C*%
%TO.N,B+*%
X271018000Y-87180000D03*
%TO.P,Q13,3,B*%
%TO.N,Net-(Q10-C)*%
X271018000Y-89460000D03*
%TD*%
D10*
%TO.P,R16,1*%
%TO.N,Net-(C5-Pad2)*%
X232156000Y-55880000D03*
D11*
%TO.P,R16,2*%
%TO.N,PWRGND*%
X224536000Y-55880000D03*
%TD*%
D16*
%TO.P,Q7,1,E*%
%TO.N,B-*%
X235966000Y-133612000D03*
D17*
%TO.P,Q7,2,B*%
%TO.N,Net-(Q12-E)*%
X238506000Y-131072000D03*
%TO.P,Q7,3,C*%
%TO.N,Net-(Q2-C)*%
X241046000Y-133612000D03*
%TD*%
D25*
%TO.P,Q14,1,E*%
%TO.N,Net-(Q14-E)*%
X271272000Y-108204000D03*
D26*
%TO.P,Q14,2,C*%
%TO.N,B-*%
X271272000Y-110484000D03*
%TO.P,Q14,3,B*%
%TO.N,Net-(Q11-E)*%
X271272000Y-112764000D03*
%TD*%
D27*
%TO.P,D9,1,K*%
%TO.N,PWRGND*%
X261366000Y-136906000D03*
D28*
%TO.P,D9,2,A*%
%TO.N,B-*%
X261366000Y-147066000D03*
%TD*%
D19*
%TO.P,C12,1*%
%TO.N,B-*%
X251166000Y-129286000D03*
%TO.P,C12,2*%
%TO.N,PWRGND*%
X246166000Y-129286000D03*
%TD*%
D10*
%TO.P,R1,1*%
%TO.N,Net-(J2-Pin_3)*%
X216408000Y-76962000D03*
D11*
%TO.P,R1,2*%
%TO.N,Net-(J1-Pin_2)*%
X216408000Y-84582000D03*
%TD*%
D14*
%TO.P,C7,1*%
%TO.N,Net-(Q10-C)*%
X232453401Y-97282000D03*
D15*
%TO.P,C7,2*%
%TO.N,Net-(Q11-E)*%
X234453401Y-97282000D03*
%TD*%
D27*
%TO.P,D8,1,K*%
%TO.N,B+*%
X258318000Y-54356000D03*
D28*
%TO.P,D8,2,A*%
%TO.N,PWRGND*%
X248158000Y-54356000D03*
%TD*%
D10*
%TO.P,R2,1*%
%TO.N,GNDS*%
X224282000Y-68326000D03*
D11*
%TO.P,R2,2*%
%TO.N,PWRGND*%
X231902000Y-68326000D03*
%TD*%
D21*
%TO.P,J1,1,Pin_1*%
%TO.N,GNDS*%
X217424000Y-57912000D03*
D22*
%TO.P,J1,2,Pin_2*%
%TO.N,Net-(J1-Pin_2)*%
X217424000Y-54412000D03*
%TD*%
%TO.P,R24,1*%
%TO.N,PWRGND*%
X240047000Y-82804000D03*
D29*
%TO.P,R24,2*%
%TO.N,Net-(C15-Pad2)*%
X245127000Y-82804000D03*
%TD*%
D14*
%TO.P,C3,1*%
%TO.N,Net-(D1-A)*%
X219710000Y-76200000D03*
D15*
%TO.P,C3,2*%
%TO.N,Net-(C3-Pad2)*%
X221710000Y-76200000D03*
%TD*%
D19*
%TO.P,R8,1*%
%TO.N,Net-(Q2-E)*%
X217395000Y-114808000D03*
D23*
%TO.P,R8,2*%
%TO.N,Net-(Q4-C)*%
X219935000Y-114808000D03*
%TD*%
D18*
%TO.P,C4,1*%
%TO.N,Net-(D3-K)*%
X226568000Y-140324651D03*
D19*
%TO.P,C4,2*%
%TO.N,GNDS*%
X226568000Y-135324651D03*
%TD*%
D18*
%TO.P,D1,1,K*%
%TO.N,Net-(D1-K)*%
X224282000Y-131318000D03*
D23*
%TO.P,D1,2,A*%
%TO.N,Net-(D1-A)*%
X216662000Y-131318000D03*
%TD*%
D10*
%TO.P,R12,1*%
%TO.N,Net-(D3-K)*%
X230632000Y-119126000D03*
D11*
%TO.P,R12,2*%
%TO.N,Net-(D1-K)*%
X230632000Y-111506000D03*
%TD*%
D10*
%TO.P,R23,1*%
%TO.N,Net-(Q14-E)*%
X264922000Y-117856000D03*
D11*
%TO.P,R23,2*%
%TO.N,Net-(D7-K)*%
X272542000Y-117856000D03*
%TD*%
D10*
%TO.P,R19,1*%
%TO.N,B+*%
X240792000Y-57658000D03*
D11*
%TO.P,R19,2*%
%TO.N,Net-(Q10-E)*%
X240792000Y-65278000D03*
%TD*%
D19*
%TO.P,R17,1*%
%TO.N,Net-(Q10-C)*%
X232918000Y-90141000D03*
D23*
%TO.P,R17,2*%
%TO.N,Net-(Q11-B)*%
X232918000Y-92681000D03*
%TD*%
D19*
%TO.P,C15,1*%
%TO.N,/SPEAKER*%
X257008000Y-84074000D03*
%TO.P,C15,2*%
%TO.N,Net-(C15-Pad2)*%
X252008000Y-84074000D03*
%TD*%
D18*
%TO.P,C14,1*%
%TO.N,PWRGND*%
X250073349Y-141224000D03*
D19*
%TO.P,C14,2*%
%TO.N,B-*%
X255073349Y-141224000D03*
%TD*%
D30*
%TO.P,Q15,1,G*%
%TO.N,Net-(D4-K)*%
X270678000Y-63014000D03*
D31*
%TO.P,Q15,2,D*%
%TO.N,B+*%
X270678000Y-68464000D03*
%TO.P,Q15,3,S*%
%TO.N,/SPEAKER*%
X270678000Y-73914000D03*
%TD*%
D16*
%TO.P,Q5,1,E*%
%TO.N,Net-(Q5-E)*%
X223774000Y-144550000D03*
D17*
%TO.P,Q5,2,B*%
%TO.N,Net-(Q3-B)*%
X226314000Y-147090000D03*
%TO.P,Q5,3,C*%
X223774000Y-149630000D03*
%TD*%
D19*
%TO.P,C9,1*%
%TO.N,Net-(Q11-E)*%
X251166000Y-117348000D03*
%TO.P,C9,2*%
%TO.N,PWRGND*%
X246166000Y-117348000D03*
%TD*%
%TO.P,C10,1*%
%TO.N,Net-(Q13-E)*%
X260858000Y-93766000D03*
%TO.P,C10,2*%
%TO.N,Net-(Q14-E)*%
X260858000Y-98766000D03*
%TD*%
D10*
%TO.P,R20,1*%
%TO.N,Net-(Q12-E)*%
X254254000Y-113792000D03*
D11*
%TO.P,R20,2*%
%TO.N,B-*%
X254254000Y-121412000D03*
%TD*%
D10*
%TO.P,R11,1*%
%TO.N,Net-(Q5-E)*%
X231394000Y-144526000D03*
D11*
%TO.P,R11,2*%
%TO.N,B-*%
X239014000Y-144526000D03*
%TD*%
D10*
%TO.P,R4,1*%
%TO.N,GNDS*%
X226060000Y-76200000D03*
D11*
%TO.P,R4,2*%
%TO.N,Net-(D1-A)*%
X226060000Y-83820000D03*
%TD*%
D10*
%TO.P,R22,1*%
%TO.N,Net-(Q13-E)*%
X264922000Y-57404000D03*
D11*
%TO.P,R22,2*%
%TO.N,Net-(D4-K)*%
X272542000Y-57404000D03*
%TD*%
D16*
%TO.P,Q6,1,E*%
%TO.N,Net-(Q6-E)*%
X223766000Y-118872000D03*
D17*
%TO.P,Q6,2,B*%
%TO.N,Net-(D1-K)*%
X226306000Y-121412000D03*
%TO.P,Q6,3,C*%
%TO.N,Net-(Q3-B)*%
X223766000Y-123952000D03*
%TD*%
D10*
%TO.P,R13,1*%
%TO.N,Net-(Q12-B)*%
X232918000Y-125730000D03*
D11*
%TO.P,R13,2*%
%TO.N,B-*%
X232918000Y-133350000D03*
%TD*%
D18*
%TO.P,D3,1,K*%
%TO.N,Net-(D3-K)*%
X217170000Y-141732000D03*
D23*
%TO.P,D3,2,A*%
%TO.N,GNDS*%
X217170000Y-134112000D03*
%TD*%
D12*
%TO.P,Q10,1,E*%
%TO.N,Net-(Q10-E)*%
X253481000Y-76333000D03*
D13*
%TO.P,Q10,2,C*%
%TO.N,Net-(Q10-C)*%
X251201000Y-76333000D03*
%TO.P,Q10,3,B*%
%TO.N,Net-(Q10-B)*%
X248921000Y-76333000D03*
%TD*%
D27*
%TO.P,D6,1,K*%
%TO.N,/SPEAKER*%
X258064000Y-104140000D03*
D28*
%TO.P,D6,2,A*%
%TO.N,Net-(D6-A)*%
X258064000Y-114300000D03*
%TD*%
D10*
%TO.P,R7,1*%
%TO.N,Net-(Q3-E)*%
X231394000Y-149606000D03*
D11*
%TO.P,R7,2*%
%TO.N,B-*%
X239014000Y-149606000D03*
%TD*%
D18*
%TO.P,D2,1,K*%
%TO.N,Net-(D1-A)*%
X216662000Y-127762000D03*
D23*
%TO.P,D2,2,A*%
%TO.N,Net-(D1-K)*%
X224282000Y-127762000D03*
%TD*%
D24*
%TO.P,J6,1,1*%
%TO.N,PWRGND*%
X245972000Y-100076000D03*
%TO.P,J6,2,2*%
X245972000Y-94996000D03*
%TD*%
D27*
%TO.P,D4,1,K*%
%TO.N,Net-(D4-K)*%
X255270000Y-61976000D03*
D28*
%TO.P,D4,2,A*%
%TO.N,Net-(D4-A)*%
X265430000Y-61976000D03*
%TD*%
D10*
%TO.P,R6,1*%
%TO.N,Net-(C2-Pad2)*%
X216408000Y-87884000D03*
D11*
%TO.P,R6,2*%
%TO.N,PWRGND*%
X224028000Y-87884000D03*
%TD*%
D10*
%TO.P,R14,1*%
%TO.N,Net-(D1-K)*%
X247142000Y-104140000D03*
D11*
%TO.P,R14,2*%
%TO.N,/SPEAKER*%
X254762000Y-104140000D03*
%TD*%
D19*
%TO.P,C6,1*%
%TO.N,Net-(Q2-C)*%
X238466000Y-117602000D03*
%TO.P,C6,2*%
%TO.N,Net-(Q11-E)*%
X233466000Y-117602000D03*
%TD*%
D10*
%TO.P,R21,1*%
%TO.N,Net-(Q13-E)*%
X265684000Y-92456000D03*
D11*
%TO.P,R21,2*%
%TO.N,Net-(Q14-E)*%
X265684000Y-100076000D03*
%TD*%
D19*
%TO.P,C8,1*%
%TO.N,Net-(Q10-C)*%
X233466000Y-76708000D03*
%TO.P,C8,2*%
%TO.N,PWRGND*%
X238466000Y-76708000D03*
%TD*%
D24*
%TO.P,J5,1,1*%
%TO.N,/SPEAKER*%
X252730000Y-100076000D03*
%TO.P,J5,2,2*%
X252730000Y-94996000D03*
%TD*%
D16*
%TO.P,Q2,1,E*%
%TO.N,Net-(Q2-E)*%
X219464000Y-123952000D03*
D17*
%TO.P,Q2,2,B*%
%TO.N,Net-(D1-A)*%
X216924000Y-121412000D03*
%TO.P,Q2,3,C*%
%TO.N,Net-(Q2-C)*%
X219464000Y-118872000D03*
%TD*%
D19*
%TO.P,C11,1*%
%TO.N,PWRGND*%
X249722000Y-70358000D03*
%TO.P,C11,2*%
%TO.N,B+*%
X254722000Y-70358000D03*
%TD*%
D16*
%TO.P,Q9,1,E*%
%TO.N,B+*%
X233934000Y-70620000D03*
D17*
%TO.P,Q9,2,B*%
%TO.N,Net-(Q10-E)*%
X236474000Y-68080000D03*
%TO.P,Q9,3,C*%
%TO.N,Net-(Q10-B)*%
X239014000Y-70620000D03*
%TD*%
D18*
%TO.P,D5,1,K*%
%TO.N,/SPEAKER*%
X265430000Y-80264000D03*
D23*
%TO.P,D5,2,A*%
%TO.N,Net-(D4-A)*%
X265430000Y-72644000D03*
%TD*%
D14*
%TO.P,C2,1*%
%TO.N,B+*%
X221996000Y-82042000D03*
D15*
%TO.P,C2,2*%
%TO.N,Net-(C2-Pad2)*%
X219996000Y-82042000D03*
%TD*%
D19*
%TO.P,R10,1*%
%TO.N,Net-(Q4-C)*%
X223745000Y-114808000D03*
D23*
%TO.P,R10,2*%
%TO.N,Net-(Q6-E)*%
X226285000Y-114808000D03*
%TD*%
D24*
%TO.P,J7,1,1*%
%TO.N,PWRGND*%
X239876000Y-100076000D03*
%TO.P,J7,2,2*%
X239876000Y-94996000D03*
%TD*%
D30*
%TO.P,Q16,1,G*%
%TO.N,Net-(D7-K)*%
X270678000Y-122704000D03*
D31*
%TO.P,Q16,2,D*%
%TO.N,B-*%
X270678000Y-128154000D03*
%TO.P,Q16,3,S*%
%TO.N,/SPEAKER*%
X270678000Y-133604000D03*
%TD*%
D16*
%TO.P,Q8,1,E*%
%TO.N,Net-(Q12-B)*%
X235966000Y-124976000D03*
D17*
%TO.P,Q8,2,B*%
%TO.N,Net-(Q2-C)*%
X238506000Y-122436000D03*
%TO.P,Q8,3,C*%
%TO.N,PWRGND*%
X241046000Y-124976000D03*
%TD*%
D10*
%TO.P,R15,1*%
%TO.N,Net-(Q10-B)*%
X236728000Y-65278000D03*
D11*
%TO.P,R15,2*%
%TO.N,Net-(C5-Pad2)*%
X236728000Y-57658000D03*
%TD*%
D18*
%TO.P,D7,1,K*%
%TO.N,Net-(D7-K)*%
X265684000Y-122682000D03*
D23*
%TO.P,D7,2,A*%
%TO.N,Net-(D6-A)*%
X258064000Y-122682000D03*
%TD*%
D32*
%TO.N,GNDS*%
X218382651Y-135324651D02*
X217170000Y-134112000D01*
X217424000Y-70500000D02*
X219624000Y-70500000D01*
X224282000Y-68326000D02*
X223266000Y-67310000D01*
X226568000Y-135324651D02*
X218382651Y-135324651D01*
X223266000Y-63754000D02*
X217424000Y-57912000D01*
X219624000Y-70500000D02*
X225324000Y-76200000D01*
X224028000Y-68326000D02*
X224282000Y-68326000D01*
X223266000Y-67310000D02*
X223266000Y-63754000D01*
X217424000Y-70500000D02*
X221854000Y-70500000D01*
X225324000Y-76200000D02*
X226060000Y-76200000D01*
X221854000Y-70500000D02*
X224028000Y-68326000D01*
D33*
%TO.N,B+*%
X259588000Y-65024000D02*
X258318000Y-63754000D01*
X259588000Y-68580000D02*
X259588000Y-66040000D01*
X259588000Y-66040000D02*
X259588000Y-65024000D01*
D34*
X259588000Y-71538680D02*
X262662680Y-68464000D01*
D33*
X258826000Y-67818000D02*
X259588000Y-68580000D01*
D34*
X262662680Y-68464000D02*
X270678000Y-68464000D01*
D33*
X258318000Y-63754000D02*
X258318000Y-54356000D01*
D34*
X259588000Y-73660000D02*
X259588000Y-71538680D01*
D33*
X254722000Y-70358000D02*
X257810000Y-70358000D01*
X259588000Y-66040000D02*
X253862651Y-66040000D01*
X253862651Y-66040000D02*
X251068651Y-63246000D01*
X257810000Y-70358000D02*
X259588000Y-68580000D01*
D35*
%TO.N,/SPEAKER*%
X257304000Y-102618000D02*
X257304000Y-92439095D01*
D33*
X263652000Y-84074000D02*
X263920905Y-83805095D01*
D35*
X255640905Y-92439095D02*
X252830000Y-95250000D01*
D33*
X257008000Y-84074000D02*
X263652000Y-84074000D01*
D35*
X265938000Y-78654000D02*
X265938000Y-83805095D01*
X265938000Y-83805095D02*
X263920905Y-83805095D01*
X270678000Y-133604000D02*
X266428000Y-133604000D01*
X266428000Y-133604000D02*
X261664000Y-128840000D01*
D34*
X254254000Y-100330000D02*
X258064000Y-104140000D01*
D35*
X261664000Y-107740000D02*
X258064000Y-104140000D01*
X261664000Y-128840000D02*
X261664000Y-107740000D01*
X257304000Y-92439095D02*
X255640905Y-92439095D01*
D34*
X252830000Y-100330000D02*
X254254000Y-100330000D01*
D35*
X263920905Y-83805095D02*
X252730000Y-94996000D01*
D34*
X252830000Y-100330000D02*
X252830000Y-95250000D01*
D35*
X258064000Y-103378000D02*
X257304000Y-102618000D01*
X258064000Y-104140000D02*
X258064000Y-103378000D01*
X270678000Y-73914000D02*
X265938000Y-78654000D01*
D33*
%TO.N,PWRGND*%
X245912000Y-122722000D02*
X243332000Y-120142000D01*
X247894000Y-70358000D02*
X247894000Y-73019000D01*
D32*
X246166000Y-107228000D02*
X243840000Y-104902000D01*
D33*
X243332000Y-104902000D02*
X243332000Y-120142000D01*
D32*
X235712000Y-85090000D02*
X235585000Y-85217000D01*
D33*
X238506000Y-93626000D02*
X239640000Y-94760000D01*
D32*
X224028000Y-87884000D02*
X224220000Y-87692000D01*
D33*
X240047000Y-82804000D02*
X238523000Y-84328000D01*
X238523000Y-84328000D02*
X238506000Y-84328000D01*
D34*
X245972000Y-100076000D02*
X244956000Y-100076000D01*
D32*
X235712000Y-78232000D02*
X235712000Y-85090000D01*
D33*
X243332000Y-103532000D02*
X240715000Y-100915000D01*
D32*
X235585000Y-85217000D02*
X235712000Y-85344000D01*
X230124000Y-68834000D02*
X230124000Y-79756000D01*
D34*
X245972000Y-100076000D02*
X245972000Y-94996000D01*
X244956000Y-100076000D02*
X239876000Y-94996000D01*
D33*
X243332000Y-120142000D02*
X243332000Y-138176000D01*
D32*
X231902000Y-68326000D02*
X230632000Y-68326000D01*
X230632000Y-68326000D02*
X230124000Y-68834000D01*
D33*
X238506000Y-84328000D02*
X238506000Y-93626000D01*
D34*
X239876000Y-94996000D02*
X239640000Y-94760000D01*
D32*
X243840000Y-104902000D02*
X243332000Y-104902000D01*
X239876000Y-93846308D02*
X239876000Y-94996000D01*
D33*
X243332000Y-138176000D02*
X246380000Y-141224000D01*
X242427000Y-94091000D02*
X243332000Y-94996000D01*
D32*
X228473000Y-83185000D02*
X230170207Y-84882207D01*
D34*
X243332000Y-94996000D02*
X245972000Y-94996000D01*
D32*
X241046000Y-124976000D02*
X241046000Y-101754000D01*
D36*
X240715000Y-100915000D02*
X240715000Y-101423000D01*
D32*
X237236000Y-76708000D02*
X235712000Y-78232000D01*
X230378000Y-85055415D02*
X236491292Y-91168708D01*
D33*
X246166000Y-129286000D02*
X245912000Y-129032000D01*
X254450651Y-136906000D02*
X250132651Y-141224000D01*
D34*
X239876000Y-100076000D02*
X239876000Y-94996000D01*
D32*
X238466000Y-76708000D02*
X237236000Y-76708000D01*
D34*
X239876000Y-94996000D02*
X243332000Y-94996000D01*
D32*
X235712000Y-85344000D02*
X235712000Y-90389416D01*
X246166000Y-117348000D02*
X246166000Y-107228000D01*
X230124000Y-79756000D02*
X235585000Y-85217000D01*
X228473000Y-62103000D02*
X228473000Y-83185000D01*
D33*
X243332000Y-104902000D02*
X243332000Y-103532000D01*
X249722000Y-70358000D02*
X247894000Y-70358000D01*
X248158000Y-60140651D02*
X242992000Y-65306651D01*
X261366000Y-136906000D02*
X254450651Y-136906000D01*
X247894000Y-73019000D02*
X242427000Y-78486000D01*
D32*
X224536000Y-55880000D02*
X224536000Y-58166000D01*
X236491292Y-91168708D02*
X239640000Y-94317415D01*
X224536000Y-58166000D02*
X228473000Y-62103000D01*
D33*
X248158000Y-54356000D02*
X248158000Y-60140651D01*
D34*
X239876000Y-100076000D02*
X245972000Y-100076000D01*
D33*
X245912000Y-129032000D02*
X245912000Y-122722000D01*
D32*
X235712000Y-90389416D02*
X236491292Y-91168708D01*
X224220000Y-87692000D02*
X233014586Y-87692000D01*
D33*
X250132651Y-141224000D02*
X246380000Y-141224000D01*
X242992000Y-65306651D02*
X242992000Y-77921000D01*
D32*
X241046000Y-101754000D02*
X240715000Y-101423000D01*
D33*
X242992000Y-77921000D02*
X242427000Y-78486000D01*
X242427000Y-78486000D02*
X242427000Y-94091000D01*
D32*
%TO.N,Net-(Q11-E)*%
X232664000Y-116800000D02*
X232664000Y-107442000D01*
X273172000Y-96896000D02*
X272906000Y-96630000D01*
X272906000Y-96630000D02*
X271018000Y-96630000D01*
X235712000Y-101600000D02*
X235233000Y-101121000D01*
X233466000Y-117602000D02*
X232664000Y-116800000D01*
X232664000Y-107442000D02*
X235712000Y-104394000D01*
X273172000Y-112674000D02*
X273172000Y-96896000D01*
X235233000Y-101121000D02*
X232918000Y-101121000D01*
X271272000Y-112764000D02*
X273082000Y-112764000D01*
X235712000Y-104394000D02*
X235712000Y-101600000D01*
X273082000Y-112764000D02*
X273172000Y-112674000D01*
%TO.N,Net-(D1-A)*%
X215392000Y-104258164D02*
X215392000Y-119880000D01*
X215392000Y-119880000D02*
X216924000Y-121412000D01*
X223401836Y-83820000D02*
X218362000Y-88859836D01*
X218362000Y-101288164D02*
X215392000Y-104258164D01*
X226060000Y-83820000D02*
X223401836Y-83820000D01*
X218362000Y-88859836D02*
X218362000Y-101288164D01*
D36*
%TO.N,Net-(Q2-C)*%
X213868000Y-143534000D02*
X214884000Y-144550000D01*
X216154000Y-129540000D02*
X213868000Y-131826000D01*
X220964000Y-120372000D02*
X220964000Y-125238000D01*
X218948000Y-129540000D02*
X216154000Y-129540000D01*
X218948000Y-127254000D02*
X218948000Y-129540000D01*
X214884000Y-144550000D02*
X219456000Y-144550000D01*
X213868000Y-131826000D02*
X213868000Y-143534000D01*
X220964000Y-125238000D02*
X218948000Y-127254000D01*
X219464000Y-118872000D02*
X220964000Y-120372000D01*
D32*
%TO.N,Net-(Q10-C)*%
X269543000Y-98910000D02*
X269118000Y-98485000D01*
X271018000Y-98910000D02*
X269543000Y-98910000D01*
X234918000Y-93391805D02*
X234918000Y-91716736D01*
X232410000Y-97282000D02*
X232410000Y-95899805D01*
X269118000Y-91360000D02*
X271018000Y-89460000D01*
X233420484Y-90219220D02*
X233005000Y-90219220D01*
X269118000Y-98485000D02*
X269118000Y-91360000D01*
X232410000Y-95899805D02*
X234918000Y-93391805D01*
X234918000Y-91716736D02*
X233420484Y-90219220D01*
D33*
%TO.N,Net-(C15-Pad2)*%
X245381000Y-82550000D02*
X245127000Y-82804000D01*
X252008000Y-84074000D02*
X250484000Y-82550000D01*
X250484000Y-82550000D02*
X245381000Y-82550000D01*
D36*
%TO.N,Net-(D1-K)*%
X226306000Y-123533321D02*
X226306000Y-121412000D01*
X224536000Y-127762000D02*
X224536000Y-125303321D01*
X224536000Y-125303321D02*
X226306000Y-123533321D01*
D32*
%TO.N,Net-(J1-Pin_2)*%
X214707000Y-82881000D02*
X214707000Y-55431944D01*
X215726944Y-54412000D02*
X217424000Y-54412000D01*
X214707000Y-55431944D02*
X215726944Y-54412000D01*
X216408000Y-84582000D02*
X214707000Y-82881000D01*
D36*
%TO.N,Net-(Q1-B)*%
X222258000Y-107442000D02*
X226568000Y-107442000D01*
X219718000Y-109982000D02*
X222258000Y-107442000D01*
D32*
%TO.N,Net-(Q10-B)*%
X239014000Y-67564000D02*
X239014000Y-70620000D01*
X236728000Y-65278000D02*
X239014000Y-67564000D01*
%TD*%
M02*
