M48
; DRILL file {KiCad 9.0.0} date 2025-03-24T19:19:12-0400
; FORMAT={-:-/ absolute / inch / decimal}
; #@! TF.CreationDate,2025-03-24T19:19:12-04:00
; #@! TF.GenerationSoftware,Kicad,Pcbnew,9.0.0
; #@! TF.FileFunction,Plated,1,2,PTH
FMAT,2
INCH
; #@! TA.AperFunction,Plated,PTH,ComponentDrill
T1C0.0236
; #@! TA.AperFunction,Plated,PTH,ComponentDrill
T2C0.0276
; #@! TA.AperFunction,Plated,PTH,ComponentDrill
T3C0.0315
; #@! TA.AperFunction,Plated,PTH,ComponentDrill
T4C0.0394
; #@! TA.AperFunction,Plated,PTH,ComponentDrill
T5C0.0433
; #@! TA.AperFunction,Plated,PTH,ComponentDrill
T6C0.0472
; #@! TA.AperFunction,Plated,PTH,ComponentDrill
T7C0.0551
; #@! TA.AperFunction,Plated,PTH,ComponentDrill
T8C0.0591
%
G90
G05
T1
X8.65Y-3.0
X8.6613Y-3.23
X8.7287Y-3.0
X8.74Y-3.23
X9.1517Y-3.83
X9.2304Y-3.83
X9.3613Y-2.14
X9.44Y-2.14
T2
X8.52Y-3.03
X8.52Y-3.33
X8.52Y-3.46
X8.52Y-3.66
X8.52Y-3.96
X8.68Y-3.66
X8.68Y-3.96
X8.82Y-3.46
X8.83Y-2.69
X8.83Y-2.84
X8.84Y-2.2
X8.9Y-3.0
X8.9Y-3.3
X9.08Y-4.39
X9.08Y-4.69
X9.11Y-5.69
X9.11Y-5.89
X9.13Y-2.69
X9.13Y-2.84
X9.14Y-2.2
X9.17Y-4.95
X9.17Y-5.25
X9.32Y-2.27
X9.32Y-2.57
X9.41Y-5.69
X9.41Y-5.89
X9.48Y-2.27
X9.48Y-2.57
X9.73Y-4.1
X10.01Y-4.48
X10.01Y-4.78
X10.03Y-4.1
X10.43Y-2.26
X10.43Y-4.64
X10.46Y-3.64
X10.46Y-3.94
X10.73Y-2.26
X10.73Y-4.64
T3
X8.53Y-5.03
X8.53Y-5.17
X8.54Y-5.7909
X8.5403Y-4.78
X8.55Y-5.28
X8.55Y-5.58
X8.5503Y-4.23
X8.5589Y-4.52
X8.64Y-5.6909
X8.64Y-5.8909
X8.6403Y-4.68
X8.6403Y-4.88
X8.6503Y-4.13
X8.6503Y-4.33
X8.6589Y-4.52
X8.8089Y-4.52
X8.8097Y-4.68
X8.8097Y-4.88
X8.81Y-5.6909
X8.81Y-5.8909
X8.82Y-4.13
X8.82Y-4.33
X8.83Y-5.03
X8.83Y-5.17
X8.8816Y-2.51
X8.9089Y-4.52
X8.9097Y-4.78
X8.91Y-5.7909
X8.92Y-4.23
X8.92Y-5.3277
X8.92Y-5.5246
X8.93Y-3.74
X8.93Y-3.84
X8.93Y-3.94
X9.0784Y-2.51
X9.17Y-3.5489
X9.17Y-3.6489
X9.17Y-3.9811
X9.17Y-4.0811
X9.1916Y-3.02
X9.1916Y-4.63
X9.21Y-2.7803
X9.29Y-4.9203
X9.29Y-5.2603
X9.31Y-2.6803
X9.3884Y-3.02
X9.3884Y-4.63
X9.39Y-4.8203
X9.39Y-5.1603
X9.41Y-2.7803
X9.49Y-4.9203
X9.49Y-5.2603
X9.6877Y-2.45
X9.6916Y-4.62
X9.6916Y-5.09
X9.8316Y-2.77
X9.8454Y-5.56
X9.8846Y-2.45
X9.8884Y-4.62
X9.8884Y-5.09
X9.9216Y-3.31
X10.0284Y-2.77
X10.0423Y-5.56
X10.1184Y-3.31
X10.16Y-4.83
X10.27Y-3.6916
X10.27Y-3.8884
X10.45Y-2.86
X10.45Y-3.16
X10.46Y-4.83
T4
X9.79Y-4.3252
X9.8Y-3.0052
X9.8798Y-4.3252
X9.8898Y-3.0052
X9.9696Y-4.3252
X9.9796Y-3.0052
X10.67Y-3.3425
X10.67Y-3.4323
X10.67Y-3.522
X10.67Y-3.8043
X10.67Y-3.8941
X10.67Y-3.9839
X10.68Y-4.26
X10.68Y-4.3498
X10.68Y-4.4395
T5
X9.77Y-2.14
X10.05Y-2.44
X10.16Y-4.1
X10.16Y-4.5
X10.17Y-2.14
X10.29Y-5.39
X10.29Y-5.79
X10.45Y-2.44
T6
X8.56Y-2.1422
X8.56Y-2.28
X8.56Y-2.5
X8.56Y-2.6378
X8.56Y-2.7756
X9.4507Y-3.26
X9.6507Y-3.26
T7
X9.4439Y-3.74
X9.4439Y-3.94
X9.6839Y-3.74
X9.6839Y-3.94
X9.95Y-3.74
X9.95Y-3.94
X10.07Y-5.03
X10.07Y-5.23
X10.22Y-2.7
X10.22Y-2.9
T8
X10.6566Y-2.4809
X10.6566Y-2.6954
X10.6566Y-2.91
X10.6566Y-4.8309
X10.6566Y-5.0454
X10.6566Y-5.26
M30
