%TF.GenerationSoftware,KiCad,Pcbnew,9.0.0*%
%TF.CreationDate,2025-03-24T19:19:09-04:00*%
%TF.ProjectId,classab-amp,636c6173-7361-4622-9d61-6d702e6b6963,rev?*%
%TF.SameCoordinates,Original*%
%TF.FileFunction,Soldermask,Top*%
%TF.FilePolarity,Negative*%
%FSLAX46Y46*%
G04 Gerber Fmt 4.6, Leading zero omitted, Abs format (unit mm)*
G04 Created by KiCad (PCBNEW 9.0.0) date 2025-03-24 19:19:09*
%MOMM*%
%LPD*%
G01*
G04 APERTURE LIST*
G04 Aperture macros list*
%AMRoundRect*
0 Rectangle with rounded corners*
0 $1 Rounding radius*
0 $2 $3 $4 $5 $6 $7 $8 $9 X,Y pos of 4 corners*
0 Add a 4 corners polygon primitive as box body*
4,1,4,$2,$3,$4,$5,$6,$7,$8,$9,$2,$3,0*
0 Add four circle primitives for the rounded corners*
1,1,$1+$1,$2,$3*
1,1,$1+$1,$4,$5*
1,1,$1+$1,$6,$7*
1,1,$1+$1,$8,$9*
0 Add four rect primitives between the rounded corners*
20,1,$1+$1,$2,$3,$4,$5,0*
20,1,$1+$1,$4,$5,$6,$7,0*
20,1,$1+$1,$6,$7,$8,$9,0*
20,1,$1+$1,$8,$9,$2,$3,0*%
G04 Aperture macros list end*
%ADD10C,1.400000*%
%ADD11O,1.400000X1.400000*%
%ADD12R,1.710000X1.800000*%
%ADD13O,1.710000X1.800000*%
%ADD14C,3.200000*%
%ADD15R,1.200000X1.200000*%
%ADD16C,1.200000*%
%ADD17R,1.500000X1.500000*%
%ADD18C,1.500000*%
%ADD19R,1.600000X1.600000*%
%ADD20C,1.600000*%
%ADD21C,1.512000*%
%ADD22RoundRect,0.250001X0.949999X-0.949999X0.949999X0.949999X-0.949999X0.949999X-0.949999X-0.949999X0*%
%ADD23C,2.400000*%
%ADD24O,1.600000X1.600000*%
%ADD25C,3.000000*%
%ADD26R,1.800000X1.710000*%
%ADD27O,1.800000X1.710000*%
%ADD28R,2.200000X2.200000*%
%ADD29O,2.200000X2.200000*%
%ADD30O,2.400000X2.400000*%
%ADD31R,4.500000X2.500000*%
%ADD32O,4.500000X2.500000*%
G04 APERTURE END LIST*
D10*
%TO.C,R5*%
X216408000Y-100584000D03*
D11*
X216408000Y-92964000D03*
%TD*%
D12*
%TO.C,Q12*%
X253227000Y-109861000D03*
D13*
X250947000Y-109861000D03*
X248667000Y-109861000D03*
%TD*%
D10*
%TO.C,R9*%
X220472000Y-92964000D03*
D11*
X220472000Y-100584000D03*
%TD*%
D14*
%TO.C,H1*%
X216408000Y-47752000D03*
%TD*%
D15*
%TO.C,C5*%
X239776000Y-54356000D03*
D16*
X237776000Y-54356000D03*
%TD*%
D17*
%TO.C,Q4*%
X219718000Y-109982000D03*
D18*
X217178000Y-107442000D03*
X219718000Y-104902000D03*
%TD*%
D14*
%TO.C,H4*%
X271780000Y-154432000D03*
%TD*%
D19*
%TO.C,C13*%
X251068651Y-62230000D03*
D20*
X246068651Y-62230000D03*
%TD*%
D21*
%TO.C,RV1*%
X226822000Y-94996000D03*
X226822000Y-97536000D03*
X226822000Y-100076000D03*
%TD*%
D17*
%TO.C,Q1*%
X224028000Y-104902000D03*
D18*
X226568000Y-107442000D03*
X224028000Y-109982000D03*
%TD*%
D10*
%TO.C,R3*%
X224282000Y-72136000D03*
D11*
X231902000Y-72136000D03*
%TD*%
D17*
%TO.C,Q3*%
X219456000Y-149630000D03*
D18*
X216916000Y-147090000D03*
X219456000Y-144550000D03*
%TD*%
D22*
%TO.C,J2*%
X217424000Y-70500000D03*
D23*
X217424000Y-67000000D03*
X217424000Y-63500000D03*
%TD*%
D20*
%TO.C,R18*%
X232918000Y-103661000D03*
D24*
X232918000Y-101121000D03*
%TD*%
D25*
%TO.C,J3*%
X255778000Y-132842000D03*
X255778000Y-127762000D03*
%TD*%
D26*
%TO.C,Q11*%
X271018000Y-96630000D03*
D27*
X271018000Y-98910000D03*
X271018000Y-101190000D03*
%TD*%
D25*
%TO.C,J4*%
X259588000Y-73660000D03*
X259588000Y-68580000D03*
%TD*%
D20*
%TO.C,C1*%
X225592000Y-63754000D03*
X230592000Y-63754000D03*
%TD*%
D26*
%TO.C,Q13*%
X271018000Y-84900000D03*
D27*
X271018000Y-87180000D03*
X271018000Y-89460000D03*
%TD*%
D10*
%TO.C,R16*%
X232156000Y-55880000D03*
D11*
X224536000Y-55880000D03*
%TD*%
D17*
%TO.C,Q7*%
X235966000Y-133612000D03*
D18*
X238506000Y-131072000D03*
X241046000Y-133612000D03*
%TD*%
D26*
%TO.C,Q14*%
X271272000Y-108204000D03*
D27*
X271272000Y-110484000D03*
X271272000Y-112764000D03*
%TD*%
D28*
%TO.C,D9*%
X261366000Y-136906000D03*
D29*
X261366000Y-147066000D03*
%TD*%
D20*
%TO.C,C12*%
X251166000Y-129286000D03*
X246166000Y-129286000D03*
%TD*%
D10*
%TO.C,R1*%
X216408000Y-76962000D03*
D11*
X216408000Y-84582000D03*
%TD*%
D15*
%TO.C,C7*%
X232453401Y-97282000D03*
D16*
X234453401Y-97282000D03*
%TD*%
D28*
%TO.C,D8*%
X258318000Y-54356000D03*
D29*
X248158000Y-54356000D03*
%TD*%
D10*
%TO.C,R2*%
X224282000Y-68326000D03*
D11*
X231902000Y-68326000D03*
%TD*%
D22*
%TO.C,J1*%
X217424000Y-57912000D03*
D23*
X217424000Y-54412000D03*
%TD*%
%TO.C,R24*%
X240047000Y-82804000D03*
D30*
X245127000Y-82804000D03*
%TD*%
D15*
%TO.C,C3*%
X219710000Y-76200000D03*
D16*
X221710000Y-76200000D03*
%TD*%
D20*
%TO.C,R8*%
X217395000Y-114808000D03*
D24*
X219935000Y-114808000D03*
%TD*%
D19*
%TO.C,C4*%
X226568000Y-140324651D03*
D20*
X226568000Y-135324651D03*
%TD*%
D19*
%TO.C,D1*%
X224282000Y-131318000D03*
D24*
X216662000Y-131318000D03*
%TD*%
D10*
%TO.C,R12*%
X230632000Y-119126000D03*
D11*
X230632000Y-111506000D03*
%TD*%
D14*
%TO.C,H2*%
X271780000Y-47498000D03*
%TD*%
D10*
%TO.C,R23*%
X264922000Y-117856000D03*
D11*
X272542000Y-117856000D03*
%TD*%
D10*
%TO.C,R19*%
X240792000Y-57658000D03*
D11*
X240792000Y-65278000D03*
%TD*%
D20*
%TO.C,R17*%
X232918000Y-90141000D03*
D24*
X232918000Y-92681000D03*
%TD*%
D20*
%TO.C,C15*%
X257008000Y-84074000D03*
X252008000Y-84074000D03*
%TD*%
D19*
%TO.C,C14*%
X250073349Y-141224000D03*
D20*
X255073349Y-141224000D03*
%TD*%
D31*
%TO.C,Q15*%
X270678000Y-63014000D03*
D32*
X270678000Y-68464000D03*
X270678000Y-73914000D03*
%TD*%
D17*
%TO.C,Q5*%
X223774000Y-144550000D03*
D18*
X226314000Y-147090000D03*
X223774000Y-149630000D03*
%TD*%
D20*
%TO.C,C9*%
X251166000Y-117348000D03*
X246166000Y-117348000D03*
%TD*%
%TO.C,C10*%
X260858000Y-93766000D03*
X260858000Y-98766000D03*
%TD*%
D10*
%TO.C,R20*%
X254254000Y-113792000D03*
D11*
X254254000Y-121412000D03*
%TD*%
D14*
%TO.C,H3*%
X216408000Y-154686000D03*
%TD*%
D10*
%TO.C,R11*%
X231394000Y-144526000D03*
D11*
X239014000Y-144526000D03*
%TD*%
D10*
%TO.C,R4*%
X226060000Y-76200000D03*
D11*
X226060000Y-83820000D03*
%TD*%
D10*
%TO.C,R22*%
X264922000Y-57404000D03*
D11*
X272542000Y-57404000D03*
%TD*%
D17*
%TO.C,Q6*%
X223766000Y-118872000D03*
D18*
X226306000Y-121412000D03*
X223766000Y-123952000D03*
%TD*%
D10*
%TO.C,R13*%
X232918000Y-125730000D03*
D11*
X232918000Y-133350000D03*
%TD*%
D19*
%TO.C,D3*%
X217170000Y-141732000D03*
D24*
X217170000Y-134112000D03*
%TD*%
D12*
%TO.C,Q10*%
X253481000Y-76333000D03*
D13*
X251201000Y-76333000D03*
X248921000Y-76333000D03*
%TD*%
D28*
%TO.C,D6*%
X258064000Y-104140000D03*
D29*
X258064000Y-114300000D03*
%TD*%
D10*
%TO.C,R7*%
X231394000Y-149606000D03*
D11*
X239014000Y-149606000D03*
%TD*%
D19*
%TO.C,D2*%
X216662000Y-127762000D03*
D24*
X224282000Y-127762000D03*
%TD*%
D25*
%TO.C,J6*%
X245972000Y-100076000D03*
X245972000Y-94996000D03*
%TD*%
D28*
%TO.C,D4*%
X255270000Y-61976000D03*
D29*
X265430000Y-61976000D03*
%TD*%
D10*
%TO.C,R6*%
X216408000Y-87884000D03*
D11*
X224028000Y-87884000D03*
%TD*%
D10*
%TO.C,R14*%
X247142000Y-104140000D03*
D11*
X254762000Y-104140000D03*
%TD*%
D20*
%TO.C,C6*%
X238466000Y-117602000D03*
X233466000Y-117602000D03*
%TD*%
D10*
%TO.C,R21*%
X265684000Y-92456000D03*
D11*
X265684000Y-100076000D03*
%TD*%
D20*
%TO.C,C8*%
X233466000Y-76708000D03*
X238466000Y-76708000D03*
%TD*%
D25*
%TO.C,J5*%
X252730000Y-100076000D03*
X252730000Y-94996000D03*
%TD*%
D17*
%TO.C,Q2*%
X219464000Y-123952000D03*
D18*
X216924000Y-121412000D03*
X219464000Y-118872000D03*
%TD*%
D20*
%TO.C,C11*%
X249722000Y-70358000D03*
X254722000Y-70358000D03*
%TD*%
D17*
%TO.C,Q9*%
X233934000Y-70620000D03*
D18*
X236474000Y-68080000D03*
X239014000Y-70620000D03*
%TD*%
D19*
%TO.C,D5*%
X265430000Y-80264000D03*
D24*
X265430000Y-72644000D03*
%TD*%
D15*
%TO.C,C2*%
X221996000Y-82042000D03*
D16*
X219996000Y-82042000D03*
%TD*%
D20*
%TO.C,R10*%
X223745000Y-114808000D03*
D24*
X226285000Y-114808000D03*
%TD*%
D25*
%TO.C,J7*%
X239876000Y-100076000D03*
X239876000Y-94996000D03*
%TD*%
D31*
%TO.C,Q16*%
X270678000Y-122704000D03*
D32*
X270678000Y-128154000D03*
X270678000Y-133604000D03*
%TD*%
D17*
%TO.C,Q8*%
X235966000Y-124976000D03*
D18*
X238506000Y-122436000D03*
X241046000Y-124976000D03*
%TD*%
D10*
%TO.C,R15*%
X236728000Y-65278000D03*
D11*
X236728000Y-57658000D03*
%TD*%
D19*
%TO.C,D7*%
X265684000Y-122682000D03*
D24*
X258064000Y-122682000D03*
%TD*%
M02*
