%TF.GenerationSoftware,KiCad,Pcbnew,8.0.7*%
%TF.CreationDate,2025-02-07T08:27:31-05:00*%
%TF.ProjectId,classab-amp,636c6173-7361-4622-9d61-6d702e6b6963,rev?*%
%TF.SameCoordinates,Original*%
%TF.FileFunction,Copper,L1,Top*%
%TF.FilePolarity,Positive*%
%FSLAX46Y46*%
G04 Gerber Fmt 4.6, Leading zero omitted, Abs format (unit mm)*
G04 Created by KiCad (PCBNEW 8.0.7) date 2025-02-07 08:27:31*
%MOMM*%
%LPD*%
G01*
G04 APERTURE LIST*
%TA.AperFunction,ComponentPad*%
%ADD10R,1.710000X1.800000*%
%TD*%
%TA.AperFunction,ComponentPad*%
%ADD11O,1.710000X1.800000*%
%TD*%
%TA.AperFunction,ComponentPad*%
%ADD12C,1.400000*%
%TD*%
%TA.AperFunction,ComponentPad*%
%ADD13O,1.400000X1.400000*%
%TD*%
%TA.AperFunction,ComponentPad*%
%ADD14C,1.308000*%
%TD*%
%TA.AperFunction,ComponentPad*%
%ADD15R,1.200000X1.200000*%
%TD*%
%TA.AperFunction,ComponentPad*%
%ADD16C,1.200000*%
%TD*%
%TA.AperFunction,ComponentPad*%
%ADD17R,1.500000X1.500000*%
%TD*%
%TA.AperFunction,ComponentPad*%
%ADD18C,1.500000*%
%TD*%
%TA.AperFunction,ComponentPad*%
%ADD19R,1.600000X1.600000*%
%TD*%
%TA.AperFunction,ComponentPad*%
%ADD20C,1.600000*%
%TD*%
%TA.AperFunction,ComponentPad*%
%ADD21O,1.600000X1.600000*%
%TD*%
%TA.AperFunction,ComponentPad*%
%ADD22C,3.000000*%
%TD*%
%TA.AperFunction,ComponentPad*%
%ADD23R,1.800000X1.710000*%
%TD*%
%TA.AperFunction,ComponentPad*%
%ADD24O,1.800000X1.710000*%
%TD*%
%TA.AperFunction,ComponentPad*%
%ADD25R,2.200000X2.200000*%
%TD*%
%TA.AperFunction,ComponentPad*%
%ADD26O,2.200000X2.200000*%
%TD*%
%TA.AperFunction,ComponentPad*%
%ADD27R,2.400000X2.400000*%
%TD*%
%TA.AperFunction,ComponentPad*%
%ADD28C,2.400000*%
%TD*%
%TA.AperFunction,ComponentPad*%
%ADD29O,2.400000X2.400000*%
%TD*%
%TA.AperFunction,ComponentPad*%
%ADD30R,4.500000X2.500000*%
%TD*%
%TA.AperFunction,ComponentPad*%
%ADD31O,4.500000X2.500000*%
%TD*%
%TA.AperFunction,Conductor*%
%ADD32C,1.000000*%
%TD*%
%TA.AperFunction,Conductor*%
%ADD33C,0.500000*%
%TD*%
%TA.AperFunction,Conductor*%
%ADD34C,5.000000*%
%TD*%
%TA.AperFunction,Conductor*%
%ADD35C,2.000000*%
%TD*%
G04 APERTURE END LIST*
D10*
%TO.P,Q8,1,E*%
%TO.N,Net-(Q15-B)*%
X253227000Y-109861000D03*
D11*
%TO.P,Q8,2,C*%
%TO.N,Net-(Q14-B)*%
X250947000Y-109861000D03*
%TO.P,Q8,3,B*%
%TO.N,Net-(Q12-E)*%
X248667000Y-109861000D03*
%TD*%
D12*
%TO.P,R4,1*%
%TO.N,B+*%
X220472000Y-92964000D03*
D13*
%TO.P,R4,2*%
%TO.N,Net-(Q3-E)*%
X220472000Y-100584000D03*
%TD*%
D14*
%TO.P,RV1,1,1*%
%TO.N,Net-(Q7-B)*%
X226790000Y-94996000D03*
%TO.P,RV1,2,2*%
X226790000Y-97536000D03*
%TO.P,RV1,3,3*%
%TO.N,Net-(R12-Pad1)*%
X226790000Y-100076000D03*
%TD*%
D15*
%TO.P,C11,1*%
%TO.N,B+*%
X239776000Y-54356000D03*
D16*
%TO.P,C11,2*%
%TO.N,Net-(C11-Pad2)*%
X237776000Y-54356000D03*
%TD*%
D17*
%TO.P,Q3,1,E*%
%TO.N,Net-(Q3-E)*%
X219718000Y-109982000D03*
D18*
%TO.P,Q3,2,B*%
%TO.N,Net-(Q3-B)*%
X217178000Y-107442000D03*
%TO.P,Q3,3,C*%
%TO.N,Net-(Q3-C)*%
X219718000Y-104902000D03*
%TD*%
D19*
%TO.P,C12,1*%
%TO.N,B+*%
X251068651Y-63246000D03*
D20*
%TO.P,C12,2*%
%TO.N,PWRGND*%
X246068651Y-63246000D03*
%TD*%
D17*
%TO.P,Q4,1,E*%
%TO.N,B+*%
X224028000Y-104902000D03*
D18*
%TO.P,Q4,2,B*%
%TO.N,Net-(Q3-E)*%
X226568000Y-107442000D03*
%TO.P,Q4,3,C*%
%TO.N,Net-(Q3-B)*%
X224028000Y-109982000D03*
%TD*%
D17*
%TO.P,Q11,1,E*%
%TO.N,Net-(Q11-E)*%
X219456000Y-149630000D03*
D18*
%TO.P,Q11,2,B*%
%TO.N,Net-(Q11-B)*%
X216916000Y-147090000D03*
%TO.P,Q11,3,C*%
%TO.N,Net-(Q1-C)*%
X219456000Y-144550000D03*
%TD*%
D20*
%TO.P,R12,1*%
%TO.N,Net-(R12-Pad1)*%
X234442000Y-103661000D03*
D21*
%TO.P,R12,2*%
%TO.N,Net-(Q14-B)*%
X234442000Y-101121000D03*
%TD*%
D22*
%TO.P,J2,1,1*%
%TO.N,B-*%
X255778000Y-132842000D03*
%TO.P,J2,2,2*%
X255778000Y-127762000D03*
%TD*%
D23*
%TO.P,Q7,1,E*%
%TO.N,Net-(Q14-B)*%
X271018000Y-93594000D03*
D24*
%TO.P,Q7,2,C*%
%TO.N,Net-(Q13-B)*%
X271018000Y-95874000D03*
%TO.P,Q7,3,B*%
%TO.N,Net-(Q7-B)*%
X271018000Y-98154000D03*
%TD*%
D22*
%TO.P,J4,1,1*%
%TO.N,B+*%
X259588000Y-73660000D03*
%TO.P,J4,2,2*%
X259588000Y-68580000D03*
%TD*%
D20*
%TO.P,C2,1*%
%TO.N,Net-(D8-A)*%
X225592000Y-64516000D03*
%TO.P,C2,2*%
%TO.N,PWRGND*%
X230592000Y-64516000D03*
%TD*%
D23*
%TO.P,Q13,1,E*%
%TO.N,Net-(Q13-E)*%
X271018000Y-81864000D03*
D24*
%TO.P,Q13,2,C*%
%TO.N,B+*%
X271018000Y-84144000D03*
%TO.P,Q13,3,B*%
%TO.N,Net-(Q13-B)*%
X271018000Y-86424000D03*
%TD*%
D12*
%TO.P,R16,1*%
%TO.N,Net-(C11-Pad2)*%
X232156000Y-58166000D03*
D13*
%TO.P,R16,2*%
%TO.N,PWRGND*%
X224536000Y-58166000D03*
%TD*%
D12*
%TO.P,R22,1*%
%TO.N,GNDS*%
X223266000Y-69596000D03*
D13*
%TO.P,R22,2*%
%TO.N,PWRGND*%
X230886000Y-69596000D03*
%TD*%
D17*
%TO.P,Q15,1,E*%
%TO.N,B-*%
X235966000Y-133612000D03*
D18*
%TO.P,Q15,2,B*%
%TO.N,Net-(Q15-B)*%
X238506000Y-131072000D03*
%TO.P,Q15,3,C*%
%TO.N,Net-(Q1-C)*%
X241046000Y-133612000D03*
%TD*%
D23*
%TO.P,Q14,1,E*%
%TO.N,Net-(Q14-E)*%
X271272000Y-105168000D03*
D24*
%TO.P,Q14,2,C*%
%TO.N,B-*%
X271272000Y-107448000D03*
%TO.P,Q14,3,B*%
%TO.N,Net-(Q14-B)*%
X271272000Y-109728000D03*
%TD*%
D25*
%TO.P,D10,1,K*%
%TO.N,PWRGND*%
X261366000Y-136906000D03*
D26*
%TO.P,D10,2,A*%
%TO.N,B-*%
X261366000Y-147066000D03*
%TD*%
D20*
%TO.P,C15,1*%
%TO.N,B-*%
X251166000Y-134620000D03*
%TO.P,C15,2*%
%TO.N,PWRGND*%
X246166000Y-134620000D03*
%TD*%
D12*
%TO.P,R1,1*%
%TO.N,Net-(C1-Pad2)*%
X216662000Y-73914000D03*
D13*
%TO.P,R1,2*%
%TO.N,Net-(D8-A)*%
X216662000Y-81534000D03*
%TD*%
D15*
%TO.P,C6,1*%
%TO.N,Net-(Q13-B)*%
X232453401Y-97282000D03*
D16*
%TO.P,C6,2*%
%TO.N,Net-(Q14-B)*%
X234453401Y-97282000D03*
%TD*%
D25*
%TO.P,D7,1,K*%
%TO.N,B+*%
X258318000Y-56134000D03*
D26*
%TO.P,D7,2,A*%
%TO.N,PWRGND*%
X248158000Y-56134000D03*
%TD*%
D27*
%TO.P,J3,1,Pin_1*%
%TO.N,Net-(J3-Pin_1)*%
X218694000Y-56698000D03*
D28*
%TO.P,J3,2,Pin_2*%
%TO.N,GNDS*%
X218694000Y-60198000D03*
%TD*%
%TO.P,R20,1*%
%TO.N,PWRGND*%
X240047000Y-82804000D03*
D29*
%TO.P,R20,2*%
%TO.N,Net-(C3-Pad2)*%
X245127000Y-82804000D03*
%TD*%
D15*
%TO.P,C1,1*%
%TO.N,Net-(J3-Pin_1)*%
X217456000Y-69088000D03*
D16*
%TO.P,C1,2*%
%TO.N,Net-(C1-Pad2)*%
X219456000Y-69088000D03*
%TD*%
D20*
%TO.P,R24,1*%
%TO.N,Net-(Q1-E)*%
X217395000Y-114808000D03*
D21*
%TO.P,R24,2*%
%TO.N,Net-(Q3-C)*%
X219935000Y-114808000D03*
%TD*%
D19*
%TO.P,C4,1*%
%TO.N,Net-(D2-K)*%
X226568000Y-140324651D03*
D20*
%TO.P,C4,2*%
%TO.N,PWRGND*%
X226568000Y-135324651D03*
%TD*%
D19*
%TO.P,D8,1,K*%
%TO.N,Net-(D8-K)*%
X224282000Y-131318000D03*
D21*
%TO.P,D8,2,A*%
%TO.N,Net-(D8-A)*%
X216662000Y-131318000D03*
%TD*%
D12*
%TO.P,R7,1*%
%TO.N,Net-(D2-K)*%
X230632000Y-119126000D03*
D13*
%TO.P,R7,2*%
%TO.N,Net-(D8-K)*%
X230632000Y-111506000D03*
%TD*%
D12*
%TO.P,R18,1*%
%TO.N,Net-(Q14-E)*%
X264922000Y-116840000D03*
D13*
%TO.P,R18,2*%
%TO.N,Net-(D6-K)*%
X272542000Y-116840000D03*
%TD*%
D12*
%TO.P,R10,1*%
%TO.N,B+*%
X240792000Y-57658000D03*
D13*
%TO.P,R10,2*%
%TO.N,Net-(Q16-E)*%
X240792000Y-65278000D03*
%TD*%
D20*
%TO.P,R11,1*%
%TO.N,Net-(Q13-B)*%
X232918000Y-90141000D03*
D21*
%TO.P,R11,2*%
%TO.N,Net-(Q7-B)*%
X232918000Y-92681000D03*
%TD*%
D20*
%TO.P,C3,1*%
%TO.N,/SPEAKER*%
X257008000Y-82550000D03*
%TO.P,C3,2*%
%TO.N,Net-(C3-Pad2)*%
X252008000Y-82550000D03*
%TD*%
D19*
%TO.P,C13,1*%
%TO.N,PWRGND*%
X250073349Y-141224000D03*
D20*
%TO.P,C13,2*%
%TO.N,B-*%
X255073349Y-141224000D03*
%TD*%
D30*
%TO.P,Q9,1,G*%
%TO.N,Net-(D3-K)*%
X270678000Y-63014000D03*
D31*
%TO.P,Q9,2,D*%
%TO.N,B+*%
X270678000Y-68464000D03*
%TO.P,Q9,3,S*%
%TO.N,/SPEAKER*%
X270678000Y-73914000D03*
%TD*%
D17*
%TO.P,Q5,1,E*%
%TO.N,Net-(Q5-E)*%
X223774000Y-144550000D03*
D18*
%TO.P,Q5,2,B*%
%TO.N,Net-(Q11-B)*%
X226314000Y-147090000D03*
%TO.P,Q5,3,C*%
X223774000Y-149630000D03*
%TD*%
D20*
%TO.P,C10,1*%
%TO.N,Net-(Q14-B)*%
X251166000Y-117348000D03*
%TO.P,C10,2*%
%TO.N,PWRGND*%
X246166000Y-117348000D03*
%TD*%
%TO.P,C8,1*%
%TO.N,Net-(Q13-E)*%
X260604000Y-98806000D03*
%TO.P,C8,2*%
%TO.N,Net-(Q14-E)*%
X260604000Y-93806000D03*
%TD*%
D12*
%TO.P,R6,1*%
%TO.N,Net-(Q15-B)*%
X254254000Y-113792000D03*
D13*
%TO.P,R6,2*%
%TO.N,B-*%
X254254000Y-121412000D03*
%TD*%
%TO.P,R5,2*%
%TO.N,B-*%
X239014000Y-144526000D03*
D12*
%TO.P,R5,1*%
%TO.N,Net-(Q5-E)*%
X231394000Y-144526000D03*
%TD*%
%TO.P,R2,1*%
%TO.N,PWRGND*%
X226060000Y-81534000D03*
D13*
%TO.P,R2,2*%
%TO.N,Net-(D8-A)*%
X226060000Y-73914000D03*
%TD*%
D12*
%TO.P,R8,1*%
%TO.N,Net-(Q13-E)*%
X264922000Y-57404000D03*
D13*
%TO.P,R8,2*%
%TO.N,Net-(D3-K)*%
X272542000Y-57404000D03*
%TD*%
D17*
%TO.P,Q2,1,E*%
%TO.N,Net-(Q2-E)*%
X223766000Y-118872000D03*
D18*
%TO.P,Q2,2,B*%
%TO.N,Net-(D8-K)*%
X226306000Y-121412000D03*
%TO.P,Q2,3,C*%
%TO.N,Net-(Q11-B)*%
X223766000Y-123952000D03*
%TD*%
D12*
%TO.P,R13,1*%
%TO.N,Net-(Q12-E)*%
X232918000Y-125730000D03*
D13*
%TO.P,R13,2*%
%TO.N,B-*%
X232918000Y-133350000D03*
%TD*%
D19*
%TO.P,D2,1,K*%
%TO.N,Net-(D2-K)*%
X217170000Y-141732000D03*
D21*
%TO.P,D2,2,A*%
%TO.N,PWRGND*%
X217170000Y-134112000D03*
%TD*%
D19*
%TO.P,D1,1,K*%
%TO.N,Net-(Q2-E)*%
X229714315Y-108458000D03*
D21*
%TO.P,D1,2,A*%
%TO.N,Net-(D8-K)*%
X234794315Y-108458000D03*
%TD*%
D10*
%TO.P,Q16,1,E*%
%TO.N,Net-(Q16-E)*%
X253481000Y-76333000D03*
D11*
%TO.P,Q16,2,C*%
%TO.N,Net-(Q13-B)*%
X251201000Y-76333000D03*
%TO.P,Q16,3,B*%
%TO.N,Net-(Q16-B)*%
X248921000Y-76333000D03*
%TD*%
D25*
%TO.P,D5,1,K*%
%TO.N,/SPEAKER*%
X258064000Y-104140000D03*
D26*
%TO.P,D5,2,A*%
%TO.N,Net-(D5-A)*%
X258064000Y-114300000D03*
%TD*%
D13*
%TO.P,R3,2*%
%TO.N,B-*%
X239014000Y-149606000D03*
D12*
%TO.P,R3,1*%
%TO.N,Net-(Q11-E)*%
X231394000Y-149606000D03*
%TD*%
D19*
%TO.P,D9,1,K*%
%TO.N,Net-(D8-A)*%
X216662000Y-127762000D03*
D21*
%TO.P,D9,2,A*%
%TO.N,Net-(D8-K)*%
X224282000Y-127762000D03*
%TD*%
D22*
%TO.P,J5,1,1*%
%TO.N,PWRGND*%
X245972000Y-100076000D03*
%TO.P,J5,2,2*%
X245972000Y-94996000D03*
%TD*%
D25*
%TO.P,D3,1,K*%
%TO.N,Net-(D3-K)*%
X255270000Y-61976000D03*
D26*
%TO.P,D3,2,A*%
%TO.N,Net-(D3-A)*%
X265430000Y-61976000D03*
%TD*%
D12*
%TO.P,R15,1*%
%TO.N,Net-(C7-Pad2)*%
X216408000Y-88392000D03*
D13*
%TO.P,R15,2*%
%TO.N,PWRGND*%
X224028000Y-88392000D03*
%TD*%
D12*
%TO.P,R9,1*%
%TO.N,Net-(D8-K)*%
X247142000Y-104140000D03*
D13*
%TO.P,R9,2*%
%TO.N,/SPEAKER*%
X254762000Y-104140000D03*
%TD*%
D20*
%TO.P,C5,1*%
%TO.N,Net-(Q1-C)*%
X238466000Y-117602000D03*
%TO.P,C5,2*%
%TO.N,Net-(Q14-B)*%
X233466000Y-117602000D03*
%TD*%
D12*
%TO.P,R23,1*%
%TO.N,Net-(Q13-E)*%
X265430000Y-100330000D03*
D13*
%TO.P,R23,2*%
%TO.N,Net-(Q14-E)*%
X265430000Y-92710000D03*
%TD*%
D20*
%TO.P,C9,1*%
%TO.N,Net-(Q13-B)*%
X233466000Y-76708000D03*
%TO.P,C9,2*%
%TO.N,PWRGND*%
X238466000Y-76708000D03*
%TD*%
D12*
%TO.P,R19,1*%
%TO.N,Net-(Q3-B)*%
X216662000Y-100584000D03*
D13*
%TO.P,R19,2*%
%TO.N,Net-(C7-Pad2)*%
X216662000Y-92964000D03*
%TD*%
D22*
%TO.P,J1,1,1*%
%TO.N,/SPEAKER*%
X252730000Y-100076000D03*
%TO.P,J1,2,2*%
X252730000Y-94996000D03*
%TD*%
D17*
%TO.P,Q1,1,E*%
%TO.N,Net-(Q1-E)*%
X219464000Y-123952000D03*
D18*
%TO.P,Q1,2,B*%
%TO.N,Net-(D8-A)*%
X216924000Y-121412000D03*
%TO.P,Q1,3,C*%
%TO.N,Net-(Q1-C)*%
X219464000Y-118872000D03*
%TD*%
D20*
%TO.P,C16,1*%
%TO.N,PWRGND*%
X249722000Y-70358000D03*
%TO.P,C16,2*%
%TO.N,B+*%
X254722000Y-70358000D03*
%TD*%
D17*
%TO.P,Q6,1,E*%
%TO.N,B+*%
X233934000Y-70620000D03*
D18*
%TO.P,Q6,2,B*%
%TO.N,Net-(Q16-E)*%
X236474000Y-68080000D03*
%TO.P,Q6,3,C*%
%TO.N,Net-(Q16-B)*%
X239014000Y-70620000D03*
%TD*%
D19*
%TO.P,D4,1,K*%
%TO.N,/SPEAKER*%
X265430000Y-80264000D03*
D21*
%TO.P,D4,2,A*%
%TO.N,Net-(D3-A)*%
X265430000Y-72644000D03*
%TD*%
D15*
%TO.P,C7,1*%
%TO.N,B+*%
X221996000Y-80264000D03*
D16*
%TO.P,C7,2*%
%TO.N,Net-(C7-Pad2)*%
X219996000Y-80264000D03*
%TD*%
D20*
%TO.P,R25,1*%
%TO.N,Net-(Q3-C)*%
X223745000Y-114808000D03*
D21*
%TO.P,R25,2*%
%TO.N,Net-(Q2-E)*%
X226285000Y-114808000D03*
%TD*%
D22*
%TO.P,J6,1,1*%
%TO.N,PWRGND*%
X239876000Y-100076000D03*
%TO.P,J6,2,2*%
X239876000Y-94996000D03*
%TD*%
D30*
%TO.P,Q10,1,G*%
%TO.N,Net-(D6-K)*%
X270678000Y-122704000D03*
D31*
%TO.P,Q10,2,D*%
%TO.N,B-*%
X270678000Y-128154000D03*
%TO.P,Q10,3,S*%
%TO.N,/SPEAKER*%
X270678000Y-133604000D03*
%TD*%
D17*
%TO.P,Q12,1,E*%
%TO.N,Net-(Q12-E)*%
X235966000Y-124976000D03*
D18*
%TO.P,Q12,2,B*%
%TO.N,Net-(Q1-C)*%
X238506000Y-122436000D03*
%TO.P,Q12,3,C*%
%TO.N,PWRGND*%
X241046000Y-124976000D03*
%TD*%
D12*
%TO.P,R14,1*%
%TO.N,Net-(Q16-B)*%
X236728000Y-65278000D03*
D13*
%TO.P,R14,2*%
%TO.N,Net-(C11-Pad2)*%
X236728000Y-57658000D03*
%TD*%
D19*
%TO.P,D6,1,K*%
%TO.N,Net-(D6-K)*%
X265684000Y-122682000D03*
D21*
%TO.P,D6,2,A*%
%TO.N,Net-(D5-A)*%
X258064000Y-122682000D03*
%TD*%
D32*
%TO.N,B+*%
X240792000Y-55372000D02*
X240792000Y-57658000D01*
X239732600Y-54312600D02*
X240792000Y-55372000D01*
%TO.N,Net-(C11-Pad2)*%
X236728000Y-55404000D02*
X237776000Y-54356000D01*
X236728000Y-57658000D02*
X236728000Y-55404000D01*
X236220000Y-58166000D02*
X236728000Y-57658000D01*
X232156000Y-58166000D02*
X236220000Y-58166000D01*
%TO.N,B+*%
X233934000Y-64516000D02*
X240792000Y-57658000D01*
X233934000Y-70620000D02*
X233934000Y-64516000D01*
D33*
X218440000Y-94996000D02*
X220472000Y-92964000D01*
X218948000Y-102362000D02*
X218440000Y-101854000D01*
X221488000Y-102362000D02*
X218948000Y-102362000D01*
X218440000Y-101854000D02*
X218440000Y-94996000D01*
X224028000Y-104902000D02*
X221488000Y-102362000D01*
D32*
%TO.N,B-*%
X239014000Y-149122000D02*
X239014000Y-144526000D01*
X239522000Y-149630000D02*
X239014000Y-149122000D01*
X239522000Y-149630000D02*
X246726649Y-149630000D01*
X238784000Y-149630000D02*
X239522000Y-149630000D01*
D33*
%TO.N,Net-(Q11-E)*%
X220956000Y-151130000D02*
X219456000Y-149630000D01*
X229870000Y-151130000D02*
X220956000Y-151130000D01*
X231394000Y-149606000D02*
X229870000Y-151130000D01*
%TO.N,Net-(Q5-E)*%
X223774000Y-144550000D02*
X231164000Y-144550000D01*
D32*
%TO.N,B-*%
X246726649Y-149630000D02*
X255132651Y-141223998D01*
X238760000Y-149606000D02*
X238784000Y-149630000D01*
%TO.N,Net-(J3-Pin_1)*%
X216154000Y-57412944D02*
X216154000Y-67786000D01*
X216896944Y-56670000D02*
X216154000Y-57412944D01*
X218594000Y-56670000D02*
X216896944Y-56670000D01*
X216154000Y-67786000D02*
X217456000Y-69088000D01*
%TO.N,Net-(D8-A)*%
X214630000Y-115824000D02*
X216154000Y-117348000D01*
D33*
X216924000Y-127500000D02*
X216924000Y-121412000D01*
D32*
X216662000Y-81534000D02*
X214630000Y-83566000D01*
X216154000Y-117348000D02*
X216154000Y-120642000D01*
D33*
X216662000Y-131318000D02*
X216662000Y-128016000D01*
D32*
X216662000Y-78486000D02*
X221234000Y-73914000D01*
X226060000Y-73914000D02*
X226060000Y-64984000D01*
X216154000Y-120642000D02*
X216924000Y-121412000D01*
X214630000Y-83566000D02*
X214630000Y-115824000D01*
X216662000Y-81534000D02*
X216662000Y-78486000D01*
X226060000Y-64984000D02*
X225592000Y-64516000D01*
X221234000Y-73914000D02*
X226060000Y-73914000D01*
D33*
%TO.N,Net-(Q1-E)*%
X220218000Y-123198000D02*
X220218000Y-120239321D01*
X220980000Y-118266679D02*
X217521321Y-114808000D01*
X220218000Y-120239321D02*
X220980000Y-119477321D01*
X219464000Y-123952000D02*
X220218000Y-123198000D01*
X220980000Y-119477321D02*
X220980000Y-118266679D01*
%TO.N,Net-(Q3-E)*%
X220472000Y-100584000D02*
X222710000Y-100584000D01*
X222710000Y-100584000D02*
X226568000Y-104442000D01*
X226568000Y-104442000D02*
X226568000Y-107442000D01*
D32*
%TO.N,Net-(Q7-B)*%
X267618000Y-96564000D02*
X269208000Y-98154000D01*
X230971780Y-92624220D02*
X233140000Y-92624220D01*
X237490000Y-90932000D02*
X266070000Y-90932000D01*
X226790000Y-97536000D02*
X226790000Y-94996000D01*
X266070000Y-90932000D02*
X267618000Y-92480000D01*
X228600000Y-94996000D02*
X230971780Y-92624220D01*
X235662780Y-92759220D02*
X237490000Y-90932000D01*
X226790000Y-94996000D02*
X228600000Y-94996000D01*
X233010585Y-92759220D02*
X235662780Y-92759220D01*
X269208000Y-98154000D02*
X271018000Y-98154000D01*
X267618000Y-92480000D02*
X267618000Y-96564000D01*
%TO.N,Net-(D5-A)*%
X258064000Y-114300000D02*
X258064000Y-122682000D01*
%TO.N,Net-(C1-Pad2)*%
X219456000Y-71120000D02*
X216662000Y-73914000D01*
X219456000Y-69088000D02*
X219456000Y-71120000D01*
%TO.N,Net-(Q16-E)*%
X244856000Y-68072000D02*
X244856000Y-69599634D01*
X249689366Y-74433000D02*
X251969366Y-74433000D01*
X244856000Y-69599634D02*
X249689366Y-74433000D01*
X240792000Y-65278000D02*
X242062000Y-65278000D01*
X242062000Y-65278000D02*
X244856000Y-68072000D01*
X251969366Y-74433000D02*
X253481000Y-75944634D01*
X244856000Y-68072000D02*
X236482000Y-68072000D01*
%TO.N,GNDS*%
X218694000Y-65024000D02*
X223266000Y-69596000D01*
X218694000Y-60170000D02*
X218694000Y-65024000D01*
%TO.N,B+*%
X267230000Y-82166000D02*
X267230000Y-71912000D01*
X221996000Y-80264000D02*
X221996000Y-91440000D01*
X271018000Y-84144000D02*
X269208000Y-84144000D01*
X267230000Y-71912000D02*
X270678000Y-68464000D01*
X240792000Y-57658000D02*
X245480651Y-57658000D01*
X221996000Y-91440000D02*
X220472000Y-92964000D01*
X245480651Y-57658000D02*
X251068651Y-63246000D01*
X224290000Y-80264000D02*
X233934000Y-70620000D01*
X269208000Y-84144000D02*
X267230000Y-82166000D01*
X224290000Y-80264000D02*
X221996000Y-80264000D01*
%TO.N,B-*%
X232918000Y-133350000D02*
X235704000Y-133350000D01*
X246043129Y-143689129D02*
X252667520Y-143689129D01*
D34*
X255778000Y-127762000D02*
X270286000Y-127762000D01*
D35*
X261366000Y-147066000D02*
X255523998Y-141223998D01*
D34*
X255524000Y-132588000D02*
X255778000Y-132842000D01*
D32*
X252667520Y-143689129D02*
X255132651Y-141223998D01*
D35*
X255523998Y-141223998D02*
X255132651Y-141223998D01*
D34*
X270286000Y-127762000D02*
X270678000Y-128154000D01*
D32*
X235966000Y-133612000D02*
X246043129Y-143689129D01*
D34*
X255132651Y-141224000D02*
X255132651Y-128407349D01*
D32*
X254254000Y-121412000D02*
X254254000Y-126238000D01*
X235704000Y-133350000D02*
X235966000Y-133612000D01*
D34*
X255132651Y-128407349D02*
X255778000Y-127762000D01*
D32*
X254254000Y-126238000D02*
X255778000Y-127762000D01*
D34*
X251166000Y-134620000D02*
X253198000Y-132588000D01*
X253198000Y-132588000D02*
X255524000Y-132588000D01*
D32*
%TO.N,Net-(R12-Pad1)*%
X226790000Y-100076000D02*
X230375000Y-103661000D01*
X230375000Y-103661000D02*
X234442000Y-103661000D01*
%TO.N,Net-(C7-Pad2)*%
X216916000Y-88900000D02*
X216916000Y-92710000D01*
X216916000Y-92710000D02*
X216662000Y-92964000D01*
X216408000Y-88392000D02*
X216916000Y-88900000D01*
X219996000Y-80264000D02*
X218694000Y-81566000D01*
X218694000Y-81566000D02*
X218694000Y-86106000D01*
X218694000Y-86106000D02*
X216408000Y-88392000D01*
D33*
%TO.N,Net-(Q11-B)*%
X216822032Y-136652000D02*
X215138000Y-136652000D01*
X218720000Y-128998000D02*
X218720000Y-134754032D01*
X226052000Y-146828000D02*
X225274000Y-146050000D01*
X225274000Y-146050000D02*
X218110000Y-146050000D01*
X215138000Y-143078000D02*
X215138000Y-136652000D01*
X222414679Y-149630000D02*
X224028000Y-149630000D01*
X224028000Y-149630000D02*
X226052000Y-147606000D01*
X219874679Y-147090000D02*
X222414679Y-149630000D01*
X218110000Y-146050000D02*
X215138000Y-143078000D01*
X226052000Y-147606000D02*
X226052000Y-146828000D01*
X223766000Y-123952000D02*
X218720000Y-128998000D01*
X216916000Y-147090000D02*
X219874679Y-147090000D01*
X218720000Y-134754032D02*
X216822032Y-136652000D01*
%TO.N,Net-(Q1-C)*%
X235620264Y-128597126D02*
X238506000Y-128597126D01*
X219456000Y-144550000D02*
X222274000Y-144550000D01*
D32*
X241046000Y-131137126D02*
X238506000Y-128597126D01*
X238466000Y-117602000D02*
X238466000Y-122396000D01*
D33*
X228605390Y-135612000D02*
X235620264Y-128597126D01*
X227330000Y-142494000D02*
X228605390Y-141218610D01*
X228605390Y-141218610D02*
X228605390Y-135612000D01*
D32*
X241046000Y-133612000D02*
X241046000Y-131137126D01*
D33*
X222274000Y-144550000D02*
X222274000Y-143050000D01*
X222830000Y-142494000D02*
X227330000Y-142494000D01*
D32*
X238506000Y-128597126D02*
X238506000Y-122436000D01*
D33*
X222274000Y-143050000D02*
X222830000Y-142494000D01*
D32*
%TO.N,Net-(Q14-B)*%
X271018000Y-109884000D02*
X259080000Y-109884000D01*
X250624874Y-111708492D02*
X250444000Y-111889366D01*
X259080000Y-109884000D02*
X256638000Y-107442000D01*
X249100874Y-107188000D02*
X250624874Y-108712000D01*
X251894874Y-107442000D02*
X250624874Y-108712000D01*
X250444000Y-111889366D02*
X250444000Y-116626000D01*
X250624874Y-108712000D02*
X250624874Y-111708492D01*
X250444000Y-116626000D02*
X251166000Y-117348000D01*
X234410000Y-101089000D02*
X234410000Y-97282000D01*
X242570000Y-110744000D02*
X246126000Y-107188000D01*
X251166000Y-117348000D02*
X250404000Y-117348000D01*
X256638000Y-107442000D02*
X251894874Y-107442000D01*
X239496680Y-110744000D02*
X242570000Y-110744000D01*
X246126000Y-107188000D02*
X249100874Y-107188000D01*
X233466000Y-116774680D02*
X239496680Y-110744000D01*
X233466000Y-117602000D02*
X233466000Y-116774680D01*
%TO.N,Net-(Q13-E)*%
X274242000Y-56699836D02*
X273168164Y-55626000D01*
X272918000Y-81910000D02*
X272918000Y-98922366D01*
X260604000Y-98806000D02*
X263906000Y-98806000D01*
X271018000Y-81534000D02*
X271780000Y-80772000D01*
X271780000Y-80772000D02*
X272918000Y-81910000D01*
X271018000Y-81864000D02*
X274242000Y-78640000D01*
X266700000Y-55626000D02*
X264922000Y-57404000D01*
X271510366Y-100330000D02*
X265430000Y-100330000D01*
X274242000Y-78640000D02*
X274242000Y-56699836D01*
X273168164Y-55626000D02*
X266700000Y-55626000D01*
X272918000Y-98922366D02*
X271510366Y-100330000D01*
X263906000Y-98806000D02*
X265430000Y-100330000D01*
%TO.N,Net-(Q13-B)*%
X232918000Y-77256000D02*
X233466000Y-76708000D01*
X251201000Y-80811415D02*
X246588220Y-85424195D01*
X246588220Y-86574000D02*
X244008220Y-89154000D01*
X271018000Y-86424000D02*
X269118000Y-88324000D01*
X234070220Y-89154000D02*
X233005000Y-90219220D01*
X246738220Y-86424000D02*
X246588220Y-86574000D01*
X246588220Y-85424195D02*
X246588220Y-86574000D01*
X269956000Y-95874000D02*
X271018000Y-95874000D01*
X244008220Y-89154000D02*
X234070220Y-89154000D01*
X232918000Y-90141000D02*
X232918000Y-77256000D01*
X269118000Y-88324000D02*
X269118000Y-95036000D01*
X251201000Y-76333000D02*
X251201000Y-80811415D01*
X269118000Y-95036000D02*
X269956000Y-95874000D01*
X271018000Y-86424000D02*
X246738220Y-86424000D01*
D33*
%TO.N,Net-(D2-K)*%
X220980000Y-139222000D02*
X220980000Y-128152214D01*
X222920214Y-126212000D02*
X224535949Y-126212000D01*
X218709000Y-141493000D02*
X220980000Y-139222000D01*
X218470000Y-141732000D02*
X218709000Y-141493000D01*
X226568000Y-140324651D02*
X219877349Y-140324651D01*
X220980000Y-128152214D02*
X222920214Y-126212000D01*
X224535949Y-126212000D02*
X230632000Y-120115949D01*
X219877349Y-140324651D02*
X218709000Y-141493000D01*
X217170000Y-141732000D02*
X218470000Y-141732000D01*
X230632000Y-120115949D02*
X230632000Y-119126000D01*
D32*
%TO.N,Net-(D3-A)*%
X265430000Y-61976000D02*
X265430000Y-72644000D01*
%TO.N,Net-(D3-K)*%
X257370000Y-59876000D02*
X267540000Y-59876000D01*
X255270000Y-61976000D02*
X257370000Y-59876000D01*
X272542000Y-61150000D02*
X270678000Y-63014000D01*
X272542000Y-57404000D02*
X272542000Y-61150000D01*
X267540000Y-59876000D02*
X269059000Y-61395000D01*
X268810000Y-61146000D02*
X270678000Y-63014000D01*
%TO.N,Net-(D6-K)*%
X272288000Y-121094000D02*
X270678000Y-122704000D01*
X272288000Y-116840000D02*
X272288000Y-121094000D01*
X265684000Y-122682000D02*
X270656000Y-122682000D01*
D33*
%TO.N,Net-(Q3-B)*%
X217178000Y-107442000D02*
X217178000Y-104140000D01*
X221218000Y-104886000D02*
X221218000Y-104280679D01*
X221218000Y-104280679D02*
X220339321Y-103402000D01*
X224028000Y-109982000D02*
X224028000Y-107696000D01*
X224028000Y-107696000D02*
X221218000Y-104886000D01*
X217178000Y-104140000D02*
X217178000Y-101100000D01*
X217178000Y-101100000D02*
X216662000Y-100584000D01*
X217916000Y-103402000D02*
X217178000Y-104140000D01*
X220339321Y-103402000D02*
X217916000Y-103402000D01*
%TO.N,Net-(Q3-C)*%
X221218000Y-113242000D02*
X221218000Y-106402000D01*
X221218000Y-106402000D02*
X219718000Y-104902000D01*
X219935000Y-114808000D02*
X223745000Y-114808000D01*
X219935000Y-114525000D02*
X221218000Y-113242000D01*
D32*
%TO.N,Net-(Q16-B)*%
X239014000Y-70620000D02*
X243208000Y-70620000D01*
X243208000Y-70620000D02*
X248921000Y-76333000D01*
%TO.N,Net-(Q15-B)*%
X252554000Y-123400415D02*
X252554000Y-120707836D01*
X254254000Y-119007836D02*
X254254000Y-113792000D01*
X254254000Y-110888000D02*
X253227000Y-109861000D01*
X241770874Y-135362000D02*
X244112000Y-133020874D01*
X244112000Y-131842415D02*
X252554000Y-123400415D01*
X244112000Y-133020874D02*
X244112000Y-131842415D01*
X254254000Y-113792000D02*
X254254000Y-110888000D01*
X238506000Y-133546874D02*
X240321126Y-135362000D01*
X252554000Y-120707836D02*
X254254000Y-119007836D01*
X238506000Y-131072000D02*
X238506000Y-133546874D01*
X240321126Y-135362000D02*
X241770874Y-135362000D01*
%TO.N,Net-(Q12-E)*%
X240284000Y-113030000D02*
X245498000Y-113030000D01*
X245498000Y-113030000D02*
X248667000Y-109861000D01*
X236666000Y-118347585D02*
X236666000Y-116648000D01*
X235966000Y-124976000D02*
X236728000Y-124214000D01*
X236728000Y-124214000D02*
X236728000Y-118409585D01*
X235212000Y-125730000D02*
X232918000Y-125730000D01*
X235966000Y-124976000D02*
X235212000Y-125730000D01*
X236728000Y-118409585D02*
X236666000Y-118347585D01*
X236666000Y-116648000D02*
X240284000Y-113030000D01*
%TO.N,Net-(Q14-E)*%
X262201585Y-100911585D02*
X260164000Y-100911585D01*
X258572000Y-99319585D02*
X258572000Y-95838000D01*
X266730366Y-116840000D02*
X271272000Y-112298366D01*
X258572000Y-95838000D02*
X260604000Y-93806000D01*
X260604000Y-93806000D02*
X264334000Y-93806000D01*
X264922000Y-116840000D02*
X266730366Y-116840000D01*
X273172000Y-106679634D02*
X271660366Y-105168000D01*
X273172000Y-110496366D02*
X273172000Y-106679634D01*
X271272000Y-105168000D02*
X266458000Y-105168000D01*
X264334000Y-93806000D02*
X265430000Y-92710000D01*
X260164000Y-100911585D02*
X258572000Y-99319585D01*
X271370000Y-112298366D02*
X273172000Y-110496366D01*
X271272000Y-112298366D02*
X271370000Y-112298366D01*
X266458000Y-105168000D02*
X262201585Y-100911585D01*
%TO.N,Net-(D8-K)*%
X226306000Y-119642000D02*
X226306000Y-121412000D01*
D33*
X224282000Y-131318000D02*
X224282000Y-128016000D01*
D32*
X234315000Y-111633000D02*
X226306000Y-119642000D01*
D33*
X234794315Y-111096315D02*
X234823000Y-111125000D01*
D32*
X234188000Y-111506000D02*
X234315000Y-111633000D01*
X234315000Y-111633000D02*
X234823000Y-111125000D01*
X230632000Y-111506000D02*
X234188000Y-111506000D01*
X238760000Y-107188000D02*
X242321585Y-107188000D01*
X234823000Y-111125000D02*
X238760000Y-107188000D01*
X245369585Y-104140000D02*
X247142000Y-104140000D01*
X242321585Y-107188000D02*
X245369585Y-104140000D01*
D33*
X234794315Y-108458000D02*
X234794315Y-111096315D01*
%TO.N,Net-(Q2-E)*%
X223766000Y-118872000D02*
X223766000Y-117327000D01*
X226285000Y-111887315D02*
X226285000Y-114808000D01*
X229714315Y-108458000D02*
X226285000Y-111887315D01*
X223766000Y-117327000D02*
X226285000Y-114808000D01*
%TD*%
M02*
